<svg width="100" height="100" viewBox="0 0 100 100" fill="none" xmlns="http://www.w3.org/2000/svg">
<path d="M15.248 60.5C15.184 60.5 15.152 60.436 15.152 60.308C15.152 60.18 15.184 60.116 15.248 60.116C15.9093 60.116 16.3573 59.9667 16.592 59.668C16.8267 59.348 16.944 58.7613 16.944 57.908V52.18C16.944 51.4547 16.8693 50.932 16.72 50.612C16.5707 50.292 16.3253 50.132 15.984 50.132C15.7067 50.132 15.312 50.2493 14.8 50.484H14.768C14.6827 50.484 14.6187 50.4307 14.576 50.324C14.5333 50.196 14.544 50.1213 14.608 50.1L19.44 47.86L19.536 47.828C19.6427 47.828 19.7493 47.8813 19.856 47.988C19.9627 48.0947 20.016 48.1907 20.016 48.276V48.98C19.9733 49.8333 19.952 50.8787 19.952 52.116V57.908C19.952 58.7613 20.0693 59.348 20.304 59.668C20.56 59.9667 21.0187 60.116 21.68 60.116C21.744 60.116 21.776 60.18 21.776 60.308C21.776 60.436 21.744 60.5 21.68 60.5C21.1253 60.5 20.688 60.4893 20.368 60.468L18.448 60.436L16.56 60.468C16.24 60.4893 15.8027 60.5 15.248 60.5ZM18.32 44.66C17.7013 44.66 17.2213 44.4893 16.88 44.148C16.5387 43.8067 16.368 43.3267 16.368 42.708C16.368 42.1533 16.5387 41.716 16.88 41.396C17.2427 41.0547 17.7227 40.884 18.32 40.884C18.9173 40.884 19.376 41.044 19.696 41.364C20.016 41.684 20.176 42.132 20.176 42.708C20.176 43.3267 20.016 43.8067 19.696 44.148C19.376 44.4893 18.9173 44.66 18.32 44.66ZM32.2623 60.5C32.1983 60.5 32.1663 60.436 32.1663 60.308C32.1663 60.18 32.1983 60.116 32.2623 60.116C32.9236 60.116 33.3716 59.9667 33.6063 59.668C33.8409 59.348 33.9583 58.7613 33.9583 57.908V53.3C33.9583 52.148 33.7449 51.2947 33.3183 50.74C32.9129 50.1853 32.2623 49.908 31.3663 49.908C30.7049 49.908 30.0329 50.0787 29.3503 50.42C28.6889 50.74 28.1663 51.1667 27.7823 51.7L27.6223 51.316C28.3903 50.2067 29.2436 49.3427 30.1823 48.724C31.1423 48.084 32.1556 47.764 33.2223 47.764C34.3743 47.764 35.2809 48.1373 35.9423 48.884C36.6249 49.6093 36.9663 50.5693 36.9663 51.764V57.908C36.9663 58.7613 37.0836 59.348 37.3183 59.668C37.5743 59.9667 38.0329 60.116 38.6943 60.116C38.7583 60.116 38.7903 60.18 38.7903 60.308C38.7903 60.436 38.7583 60.5 38.6943 60.5C38.1396 60.5 37.7023 60.4893 37.3823 60.468L35.4623 60.436L33.6063 60.468C33.2649 60.4893 32.8169 60.5 32.2623 60.5ZM23.6543 60.5C23.5903 60.5 23.5583 60.436 23.5583 60.308C23.5583 60.18 23.5903 60.116 23.6543 60.116C24.3156 60.116 24.7636 59.9667 24.9983 59.668C25.2329 59.348 25.3503 58.7613 25.3503 57.908V51.892C25.3503 51.2307 25.2649 50.7507 25.0943 50.452C24.9449 50.132 24.6996 49.972 24.3583 49.972C23.9956 49.972 23.4836 50.1213 22.8223 50.42H22.7583C22.6943 50.42 22.6409 50.3667 22.5983 50.26C22.5769 50.1533 22.5876 50.0893 22.6303 50.068L27.0783 47.892C27.2063 47.8493 27.2809 47.828 27.3023 47.828C27.5583 47.828 27.7929 48.1053 28.0063 48.66C28.2409 49.1933 28.3583 49.908 28.3583 50.804V57.908C28.3583 58.7613 28.4756 59.348 28.7103 59.668C28.9663 59.9667 29.4249 60.116 30.0863 60.116C30.1503 60.116 30.1823 60.18 30.1823 60.308C30.1823 60.436 30.1503 60.5 30.0863 60.5C29.5316 60.5 29.0943 60.4893 28.7743 60.468L26.8543 60.436L24.9663 60.468C24.6463 60.4893 24.2089 60.5 23.6543 60.5ZM44.818 43.732C44.818 44.5 45.01 45.1827 45.394 45.78C45.7993 46.3773 46.29 46.9 46.866 47.348C47.442 47.796 48.2207 48.34 49.202 48.98C50.2687 49.6627 51.122 50.26 51.762 50.772C52.402 51.284 52.946 51.9133 53.394 52.66C53.842 53.3853 54.066 54.228 54.066 55.188C54.066 56.2973 53.7673 57.2893 53.17 58.164C52.5727 59.0173 51.7407 59.6893 50.674 60.18C49.6287 60.6493 48.4553 60.884 47.154 60.884C46.2153 60.884 45.2127 60.756 44.146 60.5C43.1007 60.2227 42.3967 59.924 42.034 59.604C41.9273 59.5187 41.842 59.444 41.778 59.38C41.7353 59.2947 41.714 59.1667 41.714 58.996L41.618 53.908V53.876C41.618 53.7907 41.6713 53.748 41.778 53.748C41.8847 53.7267 41.9487 53.7587 41.97 53.844C42.61 55.1453 43.1647 56.2013 43.634 57.012C44.1247 57.8227 44.7327 58.5373 45.458 59.156C46.2047 59.7747 47.0473 60.084 47.986 60.084C48.8393 60.084 49.5433 59.86 50.098 59.412C50.6527 58.9427 50.93 58.1533 50.93 57.044C50.93 56.1053 50.7167 55.284 50.29 54.58C49.8847 53.876 49.3833 53.2787 48.786 52.788C48.1887 52.2973 47.3673 51.7107 46.322 51.028C45.298 50.3667 44.498 49.8013 43.922 49.332C43.3673 48.8627 42.8873 48.2973 42.482 47.636C42.0767 46.9747 41.874 46.196 41.874 45.3C41.874 44.1693 42.194 43.22 42.834 42.452C43.4953 41.6627 44.338 41.0867 45.362 40.724C46.386 40.34 47.4633 40.148 48.594 40.148C49.3407 40.148 50.098 40.2227 50.866 40.372C51.634 40.5 52.2527 40.66 52.722 40.852C52.914 40.9373 53.042 41.0333 53.106 41.14C53.17 41.2253 53.202 41.3427 53.202 41.492V46.196C53.202 46.26 53.1487 46.3133 53.042 46.356C52.9353 46.3773 52.8713 46.356 52.85 46.292L52.594 45.684C52.0607 44.34 51.4313 43.1987 50.706 42.26C50.002 41.3213 49.01 40.852 47.73 40.852C46.8767 40.852 46.1727 41.0973 45.618 41.588C45.0847 42.0787 44.818 42.7933 44.818 43.732ZM56.3908 60.5C56.3481 60.5 56.3268 60.436 56.3268 60.308C56.3268 60.18 56.3481 60.116 56.3908 60.116C57.0521 60.116 57.5001 59.9667 57.7348 59.668C57.9908 59.348 58.1188 58.7613 58.1188 57.908V41.652C58.1188 40.9053 58.0441 40.372 57.8948 40.052C57.7668 39.732 57.5321 39.572 57.1908 39.572C56.8921 39.572 56.4868 39.6893 55.9748 39.924H55.9428C55.8788 39.924 55.8148 39.8707 55.7508 39.764C55.7081 39.636 55.7081 39.5613 55.7508 39.54L60.4227 37.332L60.5828 37.3C60.6894 37.3 60.7961 37.3533 60.9028 37.46C61.0308 37.5453 61.0948 37.6307 61.0948 37.716V57.908C61.0948 58.7613 61.2121 59.348 61.4468 59.668C61.7028 59.9667 62.1614 60.116 62.8228 60.116C62.9081 60.116 62.9508 60.18 62.9508 60.308C62.9508 60.436 62.9081 60.5 62.8228 60.5C62.2681 60.5 61.8201 60.4893 61.4788 60.468L59.6228 60.436L57.7028 60.468C57.3828 60.4893 56.9454 60.5 56.3908 60.5ZM64.4548 60.5C64.3908 60.5 64.3588 60.436 64.3588 60.308C64.3588 60.18 64.3908 60.116 64.4548 60.116C65.2228 60.116 65.6068 59.892 65.6068 59.444C65.6068 59.2093 65.5214 58.996 65.3508 58.804L61.4788 53.844L63.6548 52.18L68.1348 57.908C68.7534 58.676 69.3401 59.2413 69.8948 59.604C70.4708 59.9453 71.0468 60.116 71.6228 60.116C71.6868 60.116 71.7188 60.18 71.7188 60.308C71.7188 60.436 71.6868 60.5 71.6228 60.5C71.0681 60.5 70.6308 60.4893 70.3108 60.468L68.3908 60.436L65.9268 60.468C65.5641 60.4893 65.0734 60.5 64.4548 60.5ZM59.7508 55.22L64.0708 51.06C64.6254 50.548 64.9028 50.0253 64.9028 49.492C64.9028 49.2147 64.7961 48.9907 64.5828 48.82C64.3694 48.628 64.0708 48.532 63.6868 48.532C63.6441 48.532 63.6228 48.468 63.6228 48.34C63.6228 48.212 63.6441 48.148 63.6868 48.148C64.3054 48.148 64.7854 48.1587 65.1267 48.18L67.6548 48.212L69.9908 48.18C70.2894 48.1587 70.7054 48.148 71.2388 48.148C71.3028 48.148 71.3348 48.212 71.3348 48.34C71.3348 48.468 71.3028 48.532 71.2388 48.532C70.3214 48.532 69.2654 48.7667 68.0708 49.236C66.8974 49.684 65.8414 50.3453 64.9028 51.22L59.9427 55.732L59.7508 55.22ZM85.5495 48.148C85.5922 48.148 85.6135 48.212 85.6135 48.34C85.6135 48.468 85.5922 48.532 85.5495 48.532C84.8668 48.532 84.2695 48.8307 83.7575 49.428C83.2668 50.004 82.8188 50.8467 82.4135 51.956L78.8615 61.396C77.7308 64.3827 76.6428 66.4733 75.5975 67.668C74.5735 68.884 73.4322 69.492 72.1735 69.492C71.5335 69.492 71.0428 69.3533 70.7015 69.076C70.3602 68.82 70.1895 68.436 70.1895 67.924C70.1895 67.4333 70.3388 67.06 70.6375 66.804C70.9362 66.548 71.2988 66.42 71.7255 66.42C71.9602 66.42 72.1522 66.452 72.3015 66.516C72.4722 66.58 72.6748 66.6867 72.9095 66.836C73.3148 67.1133 73.6988 67.252 74.0615 67.252C74.5735 67.252 75.0428 67.028 75.4695 66.58C75.8962 66.1533 76.3442 65.428 76.8135 64.404C77.2828 63.4013 77.8695 61.94 78.5735 60.02L78.4775 61.78L73.0375 50.804C72.5682 49.8867 72.1948 49.2787 71.9175 48.98C71.6615 48.6813 71.3415 48.532 70.9575 48.532C70.8935 48.532 70.8615 48.468 70.8615 48.34C70.8615 48.212 70.8935 48.148 70.9575 48.148C71.5548 48.148 72.0135 48.1587 72.3335 48.18L73.6775 48.212L75.8855 48.18C76.2268 48.1587 76.6855 48.148 77.2615 48.148C77.3255 48.148 77.3575 48.212 77.3575 48.34C77.3575 48.468 77.3255 48.532 77.2615 48.532C76.7068 48.532 76.3015 48.5853 76.0455 48.692C75.7895 48.7773 75.6615 48.9267 75.6615 49.14C75.6615 49.3107 75.7255 49.524 75.8535 49.78L79.9175 58.1L78.7655 59.988L81.5495 51.924C81.7415 51.3693 81.8375 50.868 81.8375 50.42C81.8375 49.8227 81.6668 49.364 81.3255 49.044C80.9842 48.7027 80.4935 48.532 79.8535 48.532C79.8108 48.532 79.7895 48.468 79.7895 48.34C79.7895 48.212 79.8108 48.148 79.8535 48.148C80.4295 48.148 80.8668 48.1587 81.1655 48.18L83.0855 48.212L84.3655 48.18C84.6215 48.1587 85.0162 48.148 85.5495 48.148Z" fill="white"/>
<g clip-path="url(#clip0_3796_599)">
<path d="M82.2502 33.9998C82.2514 34.1536 82.2047 34.3039 82.1165 34.4299C82.0283 34.556 81.903 34.6514 81.7581 34.7029L78.7843 35.7843L77.7034 38.7576C77.6501 38.9011 77.5542 39.0249 77.4285 39.1123C77.3028 39.1997 77.1533 39.2466 77.0002 39.2466C76.8471 39.2466 76.6977 39.1997 76.572 39.1123C76.4463 39.0249 76.3504 38.9011 76.2971 38.7576L75.2162 35.7838L72.2424 34.7029C72.0989 34.6496 71.9751 34.5537 71.8877 34.428C71.8003 34.3023 71.7534 34.1529 71.7534 33.9998C71.7534 33.8467 71.8003 33.6972 71.8877 33.5715C71.9751 33.4458 72.0989 33.3499 72.2424 33.2966L75.2162 32.2157L76.2971 29.2419C76.3504 29.0984 76.4463 28.9746 76.572 28.8872C76.6977 28.7998 76.8471 28.7529 77.0002 28.7529C77.1533 28.7529 77.3028 28.7998 77.4285 28.8872C77.5542 28.9746 77.6501 29.0984 77.7034 29.2419L78.7848 32.2157L81.7581 33.2966C81.903 33.3482 82.0283 33.4436 82.1165 33.5696C82.2047 33.6956 82.2514 33.8459 82.2502 33.9998Z" fill="white"/>
</g>
<g clip-path="url(#clip1_3796_599)">
<path d="M18.4998 69.9998C18.5006 70.1024 18.4695 70.2026 18.4107 70.2866C18.3518 70.3706 18.2683 70.4342 18.1717 70.4686L16.1892 71.1895L15.4686 73.1717C15.4331 73.2674 15.3691 73.3499 15.2853 73.4082C15.2015 73.4665 15.1019 73.4977 14.9998 73.4977C14.8978 73.4977 14.7981 73.4665 14.7144 73.4082C14.6306 73.3499 14.5666 73.2674 14.5311 73.1717L13.8105 71.1892L11.828 70.4686C11.7323 70.4331 11.6497 70.3691 11.5915 70.2853C11.5332 70.2015 11.502 70.1019 11.502 69.9998C11.502 69.8978 11.5332 69.7981 11.5915 69.7144C11.6497 69.6306 11.7323 69.5666 11.828 69.5311L13.8105 68.8105L14.5311 66.828C14.5666 66.7323 14.6306 66.6497 14.7144 66.5915C14.7981 66.5332 14.8978 66.502 14.9998 66.502C15.1019 66.502 15.2015 66.5332 15.2853 66.5915C15.3691 66.6497 15.4331 66.7323 15.4686 66.828L16.1895 68.8105L18.1717 69.5311C18.2683 69.5654 18.3518 69.629 18.4107 69.713C18.4695 69.7971 18.5006 69.8973 18.4998 69.9998Z" fill="white"/>
</g>
<defs>
<clipPath id="clip0_3796_599">
<rect width="12" height="12" fill="white" transform="translate(71 28)"/>
</clipPath>
<clipPath id="clip1_3796_599">
<rect width="8" height="8" fill="white" transform="translate(11 66)"/>
</clipPath>
</defs>
</svg>
