<svg width="25" height="24" viewBox="0 0 25 24" fill="none" xmlns="http://www.w3.org/2000/svg">
<path d="M16.1858 12.7942L12.352 7.16349C12.3176 7.1131 12.2715 7.07187 12.2175 7.04338C12.1636 7.01489 12.1035 7 12.0425 7C11.9815 7 11.9214 7.01489 11.8675 7.04338C11.8136 7.07187 11.7674 7.1131 11.733 7.16349L7.89777 12.7942C7.88961 12.8058 7.88211 12.8178 7.87529 12.8302C7.49767 13.5476 7.31175 14.3504 7.33552 15.1608C7.35929 15.9712 7.59196 16.7617 8.01098 17.4558C8.43 18.1499 9.02117 18.7239 9.72722 19.1224C10.4333 19.5209 11.2303 19.7303 12.041 19.7303C12.8518 19.7303 13.6488 19.5209 14.3548 19.1224C15.0609 18.7239 15.652 18.1499 16.0711 17.4558C16.4901 16.7617 16.7227 15.9712 16.7465 15.1608C16.7703 14.3504 16.5844 13.5476 16.2067 12.8302C16.2004 12.8178 16.1934 12.8058 16.1858 12.7942ZM11.1755 17.2904C11.1512 17.3332 11.1187 17.3709 11.0799 17.4011C11.041 17.4314 10.9966 17.4537 10.9492 17.4668C10.9017 17.4799 10.8521 17.4835 10.8033 17.4774C10.7544 17.4713 10.7072 17.4556 10.6644 17.4313C10.0611 17.0875 9.61821 16.519 9.4326 15.8499C9.24699 15.1807 9.33369 14.4653 9.67377 13.8598C9.69707 13.8153 9.72907 13.776 9.76788 13.7441C9.80669 13.7122 9.85151 13.6885 9.89968 13.6743C9.94785 13.6601 9.99838 13.6557 10.0483 13.6614C10.0982 13.6671 10.1464 13.6828 10.1901 13.7075C10.2338 13.7322 10.2721 13.7655 10.3027 13.8053C10.3333 13.8451 10.3556 13.8907 10.3683 13.9393C10.3809 13.9879 10.3837 14.0385 10.3764 14.0882C10.3691 14.1379 10.3518 14.1856 10.3257 14.2285C10.0811 14.6619 10.0183 15.1746 10.1512 15.6543C10.2841 16.1339 10.6018 16.5412 11.0346 16.7868C11.0774 16.8111 11.1151 16.8436 11.1453 16.8825C11.1756 16.9213 11.1979 16.9657 11.211 17.0132C11.2241 17.0606 11.2277 17.1102 11.2216 17.1591C11.2155 17.2079 11.1998 17.2551 11.1755 17.2979V17.2904Z" fill="#98C8FF" style="fill:#98C8FF;fill:color(display-p3 0.5961 0.7843 1.0000);fill-opacity:1;"/>
</svg>
