<svg width="20" height="20" viewBox="0 0 20 20" fill="none" xmlns="http://www.w3.org/2000/svg">
<path d="M2.49334 13.6183C2.61587 13.9274 2.64315 14.2661 2.57167 14.5908L1.68417 17.3324C1.65558 17.4715 1.66297 17.6155 1.70565 17.7509C1.74834 17.8863 1.82489 18.0085 1.92806 18.106C2.03123 18.2035 2.1576 18.273 2.29517 18.308C2.43275 18.343 2.57697 18.3422 2.71417 18.3058L5.55834 17.4741C5.86477 17.4133 6.18211 17.4399 6.47417 17.5508C8.25366 18.3818 10.2695 18.5576 12.166 18.0472C14.0625 17.5368 15.7177 16.373 16.8398 14.7611C17.9618 13.1492 18.4784 11.1928 18.2986 9.23707C18.1187 7.28136 17.2539 5.45201 15.8567 4.07178C14.4595 2.69155 12.6198 1.84915 10.662 1.6932C8.70423 1.53724 6.75429 2.07777 5.15621 3.2194C3.55813 4.36103 2.41462 6.0304 1.92742 7.93298C1.44022 9.83556 1.64065 11.8491 2.49334 13.6183Z" stroke="white" stroke-linecap="round" stroke-linejoin="round"/>
<path d="M6.52335 10.8916C6.07662 10.4243 5.82828 9.80218 5.83044 9.15572C5.83261 8.50925 6.08511 7.88876 6.53495 7.42447C6.98479 6.96018 7.59699 6.6882 8.24306 6.66561C8.88913 6.64301 9.51884 6.87157 10 7.3033C10.359 6.98107 10.8035 6.76957 11.28 6.69431C11.7565 6.61905 12.2446 6.68325 12.6854 6.87917C13.1262 7.07509 13.5009 7.39435 13.7643 7.79846C14.0278 8.20256 14.1687 8.67425 14.17 9.15664C14.172 9.80313 13.9235 10.4253 13.4767 10.8925L10.6042 13.9091C10.5263 13.991 10.4325 14.0562 10.3286 14.1007C10.2247 14.1453 10.1129 14.1682 9.99983 14.1681C9.8868 14.168 9.77497 14.1449 9.67114 14.1003C9.5673 14.0556 9.47364 13.9903 9.39585 13.9083L6.52335 10.8916Z" stroke="white" stroke-linecap="round" stroke-linejoin="round"/>
</svg>
