<svg width="20" height="20" viewBox="0 0 20 20" fill="none" xmlns="http://www.w3.org/2000/svg">
<path d="M0.967059 9.11849L6.9442 6.94277L9.11849 0.967059C9.16834 0.830166 9.25909 0.711922 9.37844 0.628369C9.49778 0.544817 9.63994 0.5 9.78563 0.5C9.93132 0.5 10.0735 0.544817 10.1928 0.628369C10.3122 0.711922 10.4029 0.830166 10.4528 0.967059L12.6285 6.9442L18.6056 9.11849C18.7425 9.16834 18.8608 9.25909 18.9443 9.37844C19.0279 9.49778 19.0727 9.63994 19.0727 9.78563C19.0727 9.93132 19.0279 10.0735 18.9443 10.1928C18.8608 10.3122 18.7425 10.4029 18.6056 10.4528L12.6271 12.6285L10.4528 18.6056C10.4029 18.7425 10.3122 18.8608 10.1928 18.9443C10.0735 19.0279 9.93132 19.0727 9.78563 19.0727C9.63994 19.0727 9.49778 19.0279 9.37844 18.9443C9.25909 18.8608 9.16834 18.7425 9.11849 18.6056L6.94277 12.6271L0.967059 10.4528C0.830166 10.4029 0.711922 10.3122 0.628369 10.1928C0.544817 10.0735 0.5 9.93132 0.5 9.78563C0.5 9.63994 0.544817 9.49778 0.628369 9.37844C0.711922 9.25909 0.830166 9.16834 0.967059 9.11849Z" stroke="white" stroke-linecap="round" stroke-linejoin="round"/>
</svg>
