<svg width="25" height="24" viewBox="0 0 25 24" fill="none" xmlns="http://www.w3.org/2000/svg">
<g clip-path="url(#clip0_2395_1535)">
<path fill-rule="evenodd" clip-rule="evenodd" d="M15.5732 8.82873H9.76017C9.52089 8.82873 9.29198 8.92403 9.12315 9.09287C8.97088 9.24513 8.87869 9.44607 8.86212 9.65946C8.86626 9.68224 8.86833 9.70607 8.86833 9.72989C8.86833 9.9961 8.98746 10.2478 9.19152 10.4156C9.87309 10.9697 10.3081 11.8139 10.3081 12.7597C10.3081 14.4273 8.9543 15.7802 7.28757 15.7802C5.61989 15.7802 4.26702 14.4264 4.26702 12.7597C4.26702 11.8108 4.70516 10.9625 5.4002 10.4125C5.60011 10.2478 5.71509 10.0023 5.71509 9.74334V9.72883C5.71509 9.23164 5.31216 8.82871 4.81496 8.82871H1.08083C0.851916 8.82871 0.666504 8.6433 0.666504 8.41438C0.666504 8.18547 0.851916 8.00005 1.08083 8.00005H4.81496C5.76897 8.00005 6.54271 8.77382 6.54271 9.7278V9.7423C6.54271 10.2519 6.31276 10.7346 5.9181 11.0568C5.91603 11.0578 5.91499 11.0599 5.91292 11.0609C5.41159 11.4566 5.09463 12.0708 5.09463 12.7586C5.09463 13.9695 6.07762 14.9514 7.28746 14.9514C8.49833 14.9514 9.48029 13.9684 9.48029 12.7586C9.48029 12.0719 9.16436 11.4587 8.66924 11.0567L8.66716 11.0557C8.28702 10.7439 8.06016 10.2851 8.04152 9.79614L8.03116 9.72881C8.03116 9.27096 8.21347 8.83075 8.53769 8.50653C8.86192 8.18231 9.30109 8 9.75997 8H15.573C16.0309 8 16.4711 8.18231 16.7953 8.50653C17.1195 8.83075 17.3018 9.26993 17.3018 9.72881V9.74331C17.3018 10.2529 17.0719 10.7356 16.6772 11.0578C16.6752 11.0588 16.6741 11.0609 16.6721 11.0619C16.1707 11.4576 15.8538 12.0718 15.8538 12.7596C15.8538 13.9705 16.8368 14.9524 18.0466 14.9524C19.2575 14.9524 20.2394 13.9694 20.2394 12.7596C20.2394 12.0729 19.9235 11.4597 19.4284 11.0577L19.4263 11.0567C19.0462 10.7449 18.8193 10.2861 18.8007 9.79714L18.7903 9.72981C18.7903 8.77581 19.5641 8.00207 20.518 8.00207H24.2522C24.4811 8.00207 24.6665 8.18748 24.6665 8.4164C24.6665 8.64531 24.4811 8.83073 24.2522 8.83073H20.518C20.0447 8.83073 19.6562 9.19637 19.62 9.66042C19.6241 9.68321 19.6262 9.70703 19.6262 9.73085C19.6262 9.99706 19.7453 10.2488 19.9494 10.4166C20.631 10.9707 21.066 11.8149 21.066 12.7606C21.066 14.4283 19.7122 15.7812 18.0454 15.7812C16.3778 15.7812 15.0249 14.4273 15.0249 12.7606C15.0249 11.8118 15.463 10.9635 16.1581 10.4134C16.358 10.2487 16.473 10.0032 16.473 9.7443V9.7298C16.473 9.49156 16.3777 9.26161 16.2088 9.09278C16.04 8.92394 15.8111 8.82864 15.5718 8.82864L15.5732 8.82873ZM7.28666 11.1044C8.20025 11.1044 8.94191 11.8461 8.94191 12.7597C8.94191 13.6733 8.20025 14.4149 7.28666 14.4149C6.37307 14.4149 5.63141 13.6733 5.63141 12.7597C5.63141 11.8461 6.37307 11.1044 7.28666 11.1044ZM18.0457 11.1044C18.9593 11.1044 19.7009 11.8461 19.7009 12.7597C19.7009 13.6733 18.9593 14.4149 18.0457 14.4149C17.1321 14.4149 16.3904 13.6733 16.3904 12.7597C16.3904 11.8461 17.1321 11.1044 18.0457 11.1044Z" fill="#698D5F" style="fill:#698D5F;fill:color(display-p3 0.4118 0.5529 0.3725);fill-opacity:1;"/>
</g>
<defs>
<clipPath id="clip0_2395_1535">
<rect width="24" height="24" fill="white" style="fill:white;fill-opacity:1;" transform="translate(0.666504)"/>
</clipPath>
</defs>
</svg>
