<svg width="24" height="25" viewBox="0 0 24 25" fill="none" xmlns="http://www.w3.org/2000/svg">
<path d="M20.561 8.41201H9.46886C9.13839 8.74576 8.90607 9.10241 8.76864 9.3347C8.60831 9.61611 8.31711 9.78623 7.98989 9.78623C7.66267 9.78623 7.35184 9.603 7.18825 9.31179C6.98539 8.9388 6.73344 8.64104 6.48803 8.41199H3.76237C3.34029 8.41199 3 8.75228 3 9.17436V10.7024H21.3232V9.17436C21.3232 8.75228 20.9831 8.41201 20.561 8.41201Z" fill="#7C8CD8" style="fill:#7C8CD8;fill:color(display-p3 0.4863 0.5490 0.8471);fill-opacity:1;"/>
<path d="M3 20.7376C3 21.1597 3.34029 21.4999 3.76237 21.4999H20.5609C20.983 21.4999 21.3233 21.1597 21.3233 20.7376V19.5367H3.00004L3 20.7376Z" fill="#7C8CD8" style="fill:#7C8CD8;fill:color(display-p3 0.4863 0.5490 0.8471);fill-opacity:1;"/>
<path d="M3 13.271L3.10143 13.3037C3.21268 13.3397 3.33048 13.3953 3.46136 13.4706C3.97506 13.7716 4.60002 13.7749 5.11046 13.4837C5.82048 13.0779 6.71702 13.0878 7.40411 13.4935L7.43356 13.5131C7.90472 13.788 8.51331 13.7978 9.01394 13.5229L9.04666 13.5033C9.75668 13.1008 10.6303 13.1041 11.3338 13.5164C11.8475 13.8207 12.4725 13.8207 12.9764 13.5295C13.6602 13.127 14.5797 13.1303 15.27 13.536C15.7837 13.8371 16.4054 13.8403 16.9093 13.5491L16.9911 13.5066C17.6848 13.1434 18.5224 13.163 19.1997 13.5622C19.7036 13.8567 20.3122 13.8665 20.8128 13.5949L20.8488 13.572C20.9732 13.5 21.0975 13.4444 21.2186 13.4051L21.32 13.3724V11.3634H3.00009V13.2775L3 13.271Z" fill="#7C8CD8" style="fill:#7C8CD8;fill:color(display-p3 0.4863 0.5490 0.8471);fill-opacity:1;"/>
<path d="M21.1722 14.138C20.8221 14.3409 20.4294 14.439 20.0368 14.439C19.6442 14.439 19.2384 14.3343 18.8818 14.1249C18.3681 13.8239 17.7431 13.8206 17.2392 14.1118L17.1574 14.1544C16.467 14.5176 15.6294 14.5012 14.9522 14.102C14.4352 13.7977 13.7939 13.8043 13.3063 14.0889C12.5963 14.5012 11.7194 14.4979 11.0127 14.0824C10.5088 13.7879 9.89693 13.7814 9.39629 14.0529L9.37012 14.0693C8.66336 14.475 7.78647 14.4718 7.07961 14.0562L7.05016 14.0366C6.60517 13.7748 5.94423 13.7552 5.43707 14.0464C4.72705 14.4554 3.84686 14.4521 3.14656 14.0366C3.0942 14.0071 3.0484 13.981 3.00586 13.9613V18.8759H21.3291V14.0595C21.2866 14.0759 21.2473 14.0923 21.2048 14.1152L21.1786 14.1315L21.1722 14.138ZM4.82849 16.183H4.58637C4.40641 16.183 4.25917 16.0358 4.25917 15.8558C4.25917 15.6759 4.40641 15.5286 4.58637 15.5286H4.82849C5.00845 15.5286 5.15569 15.6759 5.15569 15.8558C5.15569 16.0358 5.00845 16.183 4.82849 16.183ZM6.94226 17.5965H6.70014C6.52018 17.5965 6.37294 17.4493 6.37294 17.2693C6.37294 17.0894 6.52018 16.9421 6.70014 16.9421H6.94226C7.12222 16.9421 7.26946 17.0894 7.26946 17.2693C7.26946 17.4493 7.12222 17.5965 6.94226 17.5965ZM9.21309 15.8067H8.97097C8.79101 15.8067 8.64377 15.6595 8.64377 15.4795C8.64377 15.2996 8.79101 15.1523 8.97097 15.1523H9.21309C9.39305 15.1523 9.54029 15.2996 9.54029 15.4795C9.54029 15.6595 9.39305 15.8067 9.21309 15.8067ZM11.0912 17.9335H10.8491C10.6692 17.9335 10.5219 17.7862 10.5219 17.6063C10.5219 17.4263 10.6692 17.2791 10.8491 17.2791H11.0912C11.2712 17.2791 11.4184 17.4263 11.4184 17.6063C11.4184 17.7862 11.2712 17.9335 11.0912 17.9335ZM13.4929 16.4022H13.2508C13.0709 16.4022 12.9236 16.2549 12.9236 16.075C12.9236 15.895 13.0709 15.7478 13.2508 15.7478H13.4929C13.6729 15.7478 13.8201 15.895 13.8201 16.075C13.8201 16.2549 13.6729 16.4022 13.4929 16.4022ZM16.4607 17.4427H16.2186C16.0386 17.4427 15.8914 17.2955 15.8914 17.1155C15.8914 16.9355 16.0386 16.7883 16.2186 16.7883H16.4607C16.6406 16.7883 16.7879 16.9355 16.7879 17.1155C16.7879 17.2955 16.6406 17.4427 16.4607 17.4427ZM18.738 15.9376H18.4959C18.3159 15.9376 18.1687 15.7903 18.1687 15.6104C18.1687 15.4304 18.3159 15.2832 18.4959 15.2832H18.738C18.918 15.2832 19.0652 15.4304 19.0652 15.6104C19.0652 15.7903 18.918 15.9376 18.738 15.9376ZM19.7392 18.097H19.4971C19.3171 18.097 19.1699 17.9497 19.1699 17.7698C19.1699 17.5898 19.3171 17.4426 19.4971 17.4426H19.7392C19.9192 17.4426 20.0664 17.5898 20.0664 17.7698C20.0664 17.9497 19.9192 18.097 19.7392 18.097Z" fill="#7C8CD8" style="fill:#7C8CD8;fill:color(display-p3 0.4863 0.5490 0.8471);fill-opacity:1;"/>
<path d="M6.02066 7.26027C6.49837 7.5253 7.25094 8.06519 7.76464 8.99442C7.85952 9.16784 8.10493 9.18093 8.20636 9.00751C8.48777 8.51999 9.04073 7.74124 9.91434 7.25698C10.091 7.15882 10.1008 6.91343 9.92743 6.81526C9.43991 6.53385 8.66445 5.98416 8.19328 5.11381C8.10166 4.94367 7.85299 4.94694 7.7581 5.11381C7.49634 5.57516 6.97609 6.28191 6.02722 6.81852C5.8538 6.91668 5.85053 7.16208 6.02395 7.26025L6.02066 7.26027Z" fill="#7C8CD8" style="fill:#7C8CD8;fill:color(display-p3 0.4863 0.5490 0.8471);fill-opacity:1;"/>
<path d="M16.7648 6.3213C16.8597 6.48162 17.0953 6.47835 17.1935 6.3213C17.4029 5.97774 17.7693 5.50002 18.3158 5.16955C18.4794 5.07139 18.4925 4.83908 18.3289 4.73764C17.9853 4.52824 17.5076 4.16504 17.1869 3.62189C17.092 3.46157 16.8565 3.45829 16.7583 3.61862C16.562 3.93927 16.2119 4.381 15.6229 4.73766C15.456 4.83909 15.4528 5.07468 15.6196 5.17612C15.9566 5.37898 16.4245 5.74217 16.7681 6.3246L16.7648 6.3213Z" fill="#7C8CD8" style="fill:#7C8CD8;fill:color(display-p3 0.4863 0.5490 0.8471);fill-opacity:1;"/>
</svg>
