<svg width="24" height="24" viewBox="0 0 24 24" fill="none" xmlns="http://www.w3.org/2000/svg">
<path d="M12.854 3.49996C12.7689 3.34821 12.645 3.22187 12.4949 3.13393C12.3448 3.04599 12.174 2.99963 12 2.99963C11.826 2.99963 11.6552 3.04599 11.5051 3.13393C11.355 3.22187 11.231 3.34821 11.146 3.49996C10.946 3.86396 10.7537 4.23263 10.569 4.60596C9.98719 5.78692 9.49253 7.00885 9.08899 8.26196C8.94999 8.69296 8.53799 8.99196 8.06599 9.00496C6.63521 9.04258 5.20908 9.18462 3.79899 9.42996C3.02499 9.56596 2.73399 10.448 3.28399 10.986C3.40933 11.1093 3.53599 11.231 3.66399 11.351C4.62105 12.2548 5.63298 13.0988 6.69399 13.878C7.06099 14.147 7.21199 14.608 7.07199 15.03C6.53868 16.633 6.15701 18.2826 5.93199 19.957C5.83199 20.712 6.63999 21.245 7.34199 20.885C8.73403 20.1712 10.0652 19.3444 11.322 18.413C11.5189 18.2693 11.7563 18.1918 12 18.1918C12.2437 18.1918 12.4811 18.2693 12.678 18.413C13.9346 19.3448 15.2657 20.1716 16.658 20.885C17.359 21.245 18.168 20.712 18.068 19.957C18.0293 19.6736 17.987 19.392 17.941 19.112C17.71 17.727 17.3713 16.3622 16.928 15.03C16.788 14.608 16.938 14.147 17.306 13.878C18.5097 12.996 19.6493 12.0295 20.716 10.986C21.266 10.448 20.976 9.56596 20.201 9.42996C18.7911 9.18319 17.3649 9.04113 15.934 9.00496C15.7078 9.00136 15.4881 8.92809 15.3051 8.79513C15.122 8.66216 14.9844 8.47598 14.911 8.26196C14.3797 6.61263 13.6908 5.01728 12.854 3.49996Z" stroke="white" stroke-linecap="round" stroke-linejoin="round"/>
</svg>
