<svg width="109" height="73" viewBox="0 0 109 73" fill="none" xmlns="http://www.w3.org/2000/svg">
<path d="M105.775 35.9221C105.915 36.0645 106.14 36.4643 106.197 36.6628C106.744 42.4359 108.441 48.4348 108.951 54.1641C109.044 55.2046 109.125 55.9178 108 56.3395C80.6105 61.1063 53.2193 65.8979 25.794 70.469C21.1981 71.2356 16.3581 72.2569 11.7677 72.8168C10.2771 72.9989 8.56834 73.4698 8.21103 71.5039L5.45487 53.3468C5.55851 51.7779 7.93964 51.4863 9.12066 50.7183C14.4707 47.2411 11.9423 38.1933 5.65261 37.5211C4.60524 37.4089 3.48423 37.8264 2.82826 36.66C2.04409 31.0307 0.804436 25.4123 0.155285 19.7665C0.0229998 18.6111 -0.32885 17.5556 0.824893 16.7889C31.1072 11.5457 61.4128 6.14358 91.751 1.14535C93.8253 0.803094 96.3797 0.178829 98.4076 0.0255011C99.4413 -0.0525321 100.174 -0.0142015 100.605 1.07005L103.512 19.6515C103.384 21.2149 100.981 21.4367 99.7795 22.2088C94.274 25.7463 96.6974 34.7886 103.046 35.4471C103.958 35.5416 105.064 35.2034 105.779 35.9208L105.775 35.9221ZM97.5007 3.70265L74.9931 7.6002C74.8867 7.66728 74.8717 7.74668 74.8704 7.86578C74.8431 9.53049 76.9897 14.6506 74.3781 15.0572C73.1002 15.2557 72.5629 14.5972 72.3106 13.4541C71.9478 11.814 71.8606 9.89465 71.5905 8.22036L3.67379 19.8596L5.85854 33.9576C16.5832 34.9748 19.0898 50.2584 9.25976 54.7227L11.4486 69.2807L79.2276 57.7797C79.4744 57.5401 77.9989 52.2544 78.5116 50.9702C78.9699 49.8244 80.9964 49.771 81.5746 50.9743C82.1652 52.2037 82.1474 55.2374 82.5075 56.7461C82.5429 56.8953 82.5415 57.0322 82.7216 57.0856L105.275 53.2619L103.035 39.153C95.9746 38.2549 91.5069 31.4126 93.783 24.5457C94.7827 21.5284 97.0097 19.5502 99.7754 18.158L97.5007 3.70538V3.70265Z" fill="#698D5F" style="fill:#698D5F;fill:color(display-p3 0.4118 0.5529 0.3725);fill-opacity:1;"/>
<path d="M63.6521 41.9389C64.6926 41.8431 65.7373 41.7541 66.1273 42.9342C66.4028 43.7679 66.0359 44.3963 65.3663 44.8919L24.4671 52.0298C22.1991 52.1709 21.7655 49.3192 23.942 48.7579L63.6521 41.9376V41.9389Z" fill="#698D5F" style="fill:#698D5F;fill:color(display-p3 0.4118 0.5529 0.3725);fill-opacity:1;"/>
<path d="M64.3162 33.0472C65.0895 33.7892 64.8658 35.1446 63.9126 35.6305C50.5559 38.2672 37.0396 40.2386 23.6379 42.7042C21.5786 43.2217 20.2967 41.0504 22.0382 39.7293C35.4672 37.1036 49.0625 35.0843 62.5392 32.6078C63.112 32.5133 63.8866 32.6338 64.3162 33.0472Z" fill="#698D5F" style="fill:#698D5F;fill:color(display-p3 0.4118 0.5529 0.3725);fill-opacity:1;"/>
<path d="M45.7868 24.9633C46.6405 24.8893 47.4042 24.7812 47.9224 25.6136C48.768 26.9702 47.426 28.1791 46.0923 28.2817L21.1777 32.5804C18.9398 32.5476 18.5252 29.8534 20.7154 29.2305L45.7854 24.9633H45.7868Z" fill="#698D5F" style="fill:#698D5F;fill:color(display-p3 0.4118 0.5529 0.3725);fill-opacity:1;"/>
<path d="M77.5625 34.946C78.5062 34.8762 79.019 35.4594 79.2699 36.3123C79.739 37.9072 80.3186 41.917 80.4373 43.6283C80.5014 44.5537 80.5914 45.2095 79.7636 45.7913C78.7994 46.469 77.647 46.2034 77.2515 45.0466C76.8151 43.7706 76.0009 38.1974 75.9505 36.7586C75.9164 35.788 76.5942 35.0172 77.5625 34.946Z" fill="#698D5F" style="fill:#698D5F;fill:color(display-p3 0.4118 0.5529 0.3725);fill-opacity:1;"/>
<path d="M77.5447 29.8054C76.5055 30.8021 75.0463 30.2422 74.6795 28.8731C74.0276 26.4391 74.0303 23.393 73.4903 20.8877C73.8803 19.0766 76.2682 18.7247 76.871 20.6509C77.3006 22.0268 77.9143 26.3597 77.9989 27.8683C78.0357 28.5377 78.0684 29.3044 77.5461 29.8054H77.5447Z" fill="#698D5F" style="fill:#698D5F;fill:color(display-p3 0.4118 0.5529 0.3725);fill-opacity:1;"/>
</svg>
