<svg width="25" height="25" viewBox="0 0 25 25" fill="none" xmlns="http://www.w3.org/2000/svg">
<path d="M20 4.25H5C4.60218 4.25 4.22064 4.40804 3.93934 4.68934C3.65804 4.97064 3.5 5.35218 3.5 5.75V11C3.5 15.9425 5.8925 18.9378 7.89969 20.5803C10.0616 22.3484 12.2122 22.9484 12.3059 22.9738C12.4348 23.0088 12.5708 23.0088 12.6997 22.9738C12.7934 22.9484 14.9413 22.3484 17.1059 20.5803C19.1075 18.9378 21.5 15.9425 21.5 11V5.75C21.5 5.35218 21.342 4.97064 21.0607 4.68934C20.7794 4.40804 20.3978 4.25 20 4.25ZM16.7825 10.7806L11.5325 16.0306C11.4628 16.1004 11.3801 16.1557 11.2891 16.1934C11.198 16.2312 11.1004 16.2506 11.0019 16.2506C10.9033 16.2506 10.8057 16.2312 10.7147 16.1934C10.6236 16.1557 10.5409 16.1004 10.4713 16.0306L8.22125 13.7806C8.08052 13.6399 8.00146 13.449 8.00146 13.25C8.00146 13.051 8.08052 12.8601 8.22125 12.7194C8.36198 12.5786 8.55285 12.4996 8.75187 12.4996C8.9509 12.4996 9.14177 12.5786 9.2825 12.7194L11 14.4397L15.7194 9.71937C15.7891 9.64969 15.8718 9.59442 15.9628 9.5567C16.0539 9.51899 16.1515 9.49958 16.25 9.49958C16.3485 9.49958 16.4461 9.51899 16.5372 9.5567C16.6282 9.59442 16.7109 9.64969 16.7806 9.71937C16.8503 9.78906 16.9056 9.87178 16.9433 9.96283C16.981 10.0539 17.0004 10.1515 17.0004 10.25C17.0004 10.3485 16.981 10.4461 16.9433 10.5372C16.9056 10.6282 16.8503 10.7109 16.7806 10.7806H16.7825Z" fill="#698D5F" style="fill:#698D5F;fill:color(display-p3 0.4118 0.5529 0.3725);fill-opacity:1;"/>
</svg>
