<svg width="24" height="24" viewBox="0 0 24 24" fill="none" xmlns="http://www.w3.org/2000/svg">
<path d="M22.4609 11.2094C22.7589 11.2094 23 11.4505 23 11.7485C23 12.0465 22.7589 12.2877 22.4609 12.2877C22.2372 12.2877 21.8704 12.262 21.4203 12.2308C19.9707 12.129 17.5787 11.9622 16.3739 12.4481C15.932 12.626 15.7018 12.9322 15.9072 13.4401C16.9148 15.9403 16.4353 17.7887 15.2801 18.9651C14.3247 19.9388 12.9083 20.4266 11.5 20.4266C10.0917 20.4266 8.67521 19.9397 7.71992 18.9651C6.56468 17.7888 6.08518 15.9403 7.09279 13.4401C7.29725 12.9313 7.06803 12.626 6.62611 12.4481C5.42136 11.9622 3.02934 12.129 1.57975 12.2308C1.12865 12.262 0.762822 12.2877 0.539116 12.2877C0.241146 12.2877 0 12.0465 0 11.7485C0 11.4505 0.241122 11.2094 0.539116 11.2094C0.752743 11.2094 1.09107 11.1865 1.50823 11.1562C3.04946 11.0481 5.59179 10.872 7.02684 11.4496C8.06197 11.8668 8.59191 12.5994 8.09131 13.84C7.27347 15.8708 7.61362 17.3222 8.48648 18.2115C9.23005 18.9689 10.3614 19.3484 11.5012 19.3484C12.6408 19.3484 13.7722 18.9698 14.5158 18.2115C15.3887 17.3222 15.7288 15.8708 14.911 13.84C14.4113 12.5985 14.9394 11.8669 15.9755 11.4496C17.4103 10.8711 19.9527 11.049 21.4941 11.1562C21.9112 11.1847 22.2496 11.2094 22.4632 11.2094H22.4609ZM6.97348 8.25085C6.76261 8.03997 6.76261 7.69889 6.97348 7.48802C7.18436 7.27715 7.52544 7.27715 7.73631 7.48802L8.76501 8.51673C8.97589 8.72761 8.97589 9.06777 8.76501 9.27955C8.55414 9.49043 8.21397 9.49043 8.00219 9.27955L6.97348 8.25085ZM15.2627 7.48802C15.4735 7.27715 15.8137 7.27715 16.0246 7.48802C16.2354 7.6989 16.2354 8.03906 16.0246 8.25085L14.9959 9.27955C14.785 9.49043 14.4439 9.49043 14.233 9.27955C14.0222 9.06868 14.0222 8.7276 14.233 8.51673L15.2617 7.48802H15.2627ZM10.9599 5.11248C10.9599 4.81451 11.201 4.57336 11.499 4.57336C11.797 4.57336 12.0381 4.81449 12.0381 5.11248V7.86944C12.0381 8.16741 11.797 8.40855 11.499 8.40855C11.201 8.40855 10.9599 8.16743 10.9599 7.86944V5.11248ZM14.3008 15.4463C14.3008 16.2201 13.9863 16.9205 13.4802 17.4276C12.9732 17.9346 12.2727 18.2482 11.4989 18.2482C10.7251 18.2482 10.0246 17.9337 9.51758 17.4276C9.01055 16.9205 8.69699 16.2201 8.69699 15.4463C8.69699 14.6578 8.96837 13.4842 9.52124 12.625C9.98149 11.9098 10.6352 11.39 11.4989 11.39C12.3626 11.39 13.0172 11.9098 13.4766 12.625C14.0294 13.4831 14.3008 14.6567 14.3008 15.4463Z" fill="#1C1C1C" style="fill:#1C1C1C;fill:color(display-p3 0.1106 0.1106 0.1106);fill-opacity:1;"/>
</svg>
