<svg width="25" height="24" viewBox="0 0 25 24" fill="none" xmlns="http://www.w3.org/2000/svg">
<g clip-path="url(#clip0_2275_865)">
<path d="M17.3102 8.7417C17.2704 8.67564 17.2544 8.64261 17.1576 8.47632C16.8364 7.90913 16.0733 6.54239 15.5722 5.41833C15.2373 4.6655 15.0414 4.11195 14.9981 3.66436C14.9811 3.48213 14.9913 3.31926 15.0243 3.16665C15.2237 2.99809 15.3592 2.75548 15.3797 2.47986C15.39 2.45025 15.39 2.42633 15.3831 2.41038V2.40355V0.970746C15.3831 0.424052 14.9355 -0.0269775 14.3854 -0.0269775H9.72931C9.18262 -0.0269775 8.73159 0.420641 8.73159 0.970746V2.40355V2.42063C8.72817 2.4343 8.73159 2.44683 8.73501 2.46392C8.75209 2.74865 8.88763 3.00151 9.09606 3.17348C9.12909 3.3261 9.13934 3.48896 9.12226 3.66778C9.07897 4.1154 8.88308 4.66892 8.54821 5.42175C8.0277 6.58576 7.22819 8.01171 6.92976 8.53893C6.85346 8.67105 6.81017 8.74507 6.81017 8.74507C6.81017 8.74507 6.75437 8.83505 6.69058 8.96375C6.60402 9.13915 6.5186 9.5708 6.50152 9.77924C6.4981 9.81569 6.50152 9.92845 6.50152 9.92845V22.7529C6.50152 23.4397 7.06189 24 7.74865 24H16.368C17.0548 24 17.6152 23.4396 17.6152 22.7529V9.77566V9.67658V9.5604C17.6152 9.24834 17.4193 8.93055 17.3099 8.7415L17.3102 8.7417ZM9.72269 1.36934C9.72269 1.14383 9.90834 0.958173 10.1339 0.958173H13.9846C14.2101 0.958173 14.3958 1.14382 14.3958 1.36934V1.99919C14.3958 2.22471 14.2102 2.41037 13.9846 2.41037H10.1339C9.90835 2.41037 9.72269 2.22472 9.72269 1.99919V1.36934ZM10.0279 4.44337C10.0279 4.44337 10.2307 3.87959 10.2534 3.39896H13.8651C13.8879 3.87959 14.0906 4.44337 14.0906 4.44337L15.454 7.69059C14.8173 7.87965 14.7239 8.31699 14.0872 8.31699C13.2786 8.31699 13.3674 7.60402 12.0576 7.60402C10.7479 7.60402 10.7478 8.4366 9.86859 8.36712C9.23874 8.317 8.99615 7.94912 8.64195 7.74412L10.0279 4.44337Z" fill="#1C1C1C" style="fill:#1C1C1C;fill:color(display-p3 0.1106 0.1106 0.1106);fill-opacity:1;"/>
</g>
<defs>
<clipPath id="clip0_2275_865">
<rect width="24" height="24" fill="white" style="fill:white;fill-opacity:1;" transform="translate(0.5)"/>
</clipPath>
</defs>
</svg>
