<svg width="25" height="24" viewBox="0 0 25 24" fill="none" xmlns="http://www.w3.org/2000/svg">
<path d="M6.86399 5.53648C6.54393 5.08165 6.0825 4.90953 5.67602 5.04503C5.27247 5.18053 5 5.59507 5 6.15022V18.2993C5 19.2368 5.75365 20 6.68748 20H9.22377C9.23402 19.9868 9.24648 19.9721 9.25966 19.956C9.31972 19.8843 9.40614 19.7803 9.51528 19.6536C9.73354 19.3994 10.0397 19.0537 10.3927 18.6831C11.0929 17.9485 11.9974 17.0967 12.7694 16.7013C12.8727 16.6486 12.9914 16.6222 13.1064 16.6039C13.1745 16.5929 13.2528 16.5834 13.3319 16.5739C13.3825 16.5673 13.4337 16.5614 13.4828 16.5548C13.748 16.5182 14.0424 16.4603 14.35 16.3007C14.9564 15.9835 15.6676 15.235 16.2169 13.2912C16.4872 12.3339 17.2386 11.729 18.0868 11.2917C18.6676 10.9914 19.3223 10.7578 19.9222 10.5432C19.9303 10.5403 19.9376 10.5374 19.9449 10.5344C19.835 10.166 19.5648 9.85548 19.1854 9.71779C18.5057 9.47243 17.8861 9.31863 17.3046 9.24466C16.0873 9.08939 15.0554 9.28714 14.0226 9.71047C13.3605 9.98146 12.6003 9.92874 11.7903 9.65262C10.9795 9.37649 10.1372 8.88359 9.32787 8.30207C8.43433 7.65902 7.58183 6.55671 6.86399 5.53648Z" fill="#1C1C1C" style="fill:#1C1C1C;fill:color(display-p3 0.1106 0.1106 0.1106);fill-opacity:1;"/>
<path d="M19.9999 10.9139C19.4169 11.1226 18.8119 11.3394 18.2589 11.625C17.4474 12.044 16.8066 12.5837 16.5781 13.393C16.0141 15.3902 15.2575 16.2493 14.5236 16.6324C14.1596 16.8221 13.8154 16.888 13.5334 16.9261C13.4719 16.9349 13.417 16.9415 13.3657 16.9473C13.2939 16.9561 13.2295 16.9642 13.1658 16.9744C13.0603 16.9913 12.9893 17.0103 12.9409 17.0352C12.2319 17.3985 11.3655 18.2063 10.6645 18.9417C10.3166 19.3064 10.0149 19.6477 9.80025 19.8975C9.76875 19.9341 9.74019 19.9678 9.71236 20H18.3123C19.2462 20 19.9998 19.2368 19.9998 18.2994L19.9999 10.9139Z" fill="#1C1C1C" style="fill:#1C1C1C;fill:color(display-p3 0.1106 0.1106 0.1106);fill-opacity:1;"/>
<path d="M9.55708 8.00466C10.3481 8.57226 11.153 9.03954 11.9111 9.29734C12.6728 9.55734 13.3327 9.58738 13.8806 9.36326C14.9624 8.92015 16.0603 8.70776 17.3523 8.87255C17.9653 8.95091 18.6121 9.11203 19.313 9.36545C19.592 9.46652 19.825 9.6379 20 9.85178V7.96576C20 6.94333 18.9014 6.31346 17.9887 6.66355C17.4892 6.85471 16.9648 7.00999 16.5151 7.0488C15.9108 7.10153 15.448 6.947 14.9514 6.77781L14.9375 6.77269C14.446 6.6057 13.9194 6.42625 13.2346 6.48192C12.3367 6.55443 11.2996 7.01804 10.5028 7.44868C10.1278 7.65082 9.79952 7.85013 9.55708 8.00466Z" fill="#1C1C1C" style="fill:#1C1C1C;fill:color(display-p3 0.1106 0.1106 0.1106);fill-opacity:1;"/>
</svg>
