<svg width="25" height="24" viewBox="0 0 25 24" fill="none" xmlns="http://www.w3.org/2000/svg">
<path fill-rule="evenodd" clip-rule="evenodd" d="M18.0785 12.8612C18.078 12.8622 18.0776 12.8631 18.0771 12.864C18.0771 12.864 16.4949 16 12.3333 16C8.17124 16 6.58959 12.864 6.58959 12.864C6.58911 12.8631 6.58863 12.8622 6.58815 12.8612C6.47062 12.6339 6.47062 12.3661 6.58815 12.1388C6.58863 12.1378 6.58911 12.1369 6.58959 12.136C6.58959 12.136 8.17173 9 12.3333 9C16.4954 9 18.0771 12.136 18.0771 12.136C18.0776 12.1369 18.078 12.1378 18.0785 12.1388C18.1961 12.3661 18.1961 12.6339 18.0785 12.8612ZM12.3334 10.6157C13.4066 10.6157 14.2777 11.46 14.2777 12.5C14.2777 13.54 13.4065 14.3844 12.3334 14.3844C11.2603 14.3844 10.3891 13.54 10.3891 12.5C10.3891 11.46 11.2603 10.6157 12.3334 10.6157Z" fill="#1C1C1C" style="fill:#1C1C1C;fill:color(display-p3 0.1106 0.1106 0.1106);fill-opacity:1;"/>
<path d="M6.58301 16C8.41634 17.5092 13.183 19.6222 17.583 16" stroke="#1C1C1C" style="stroke:#1C1C1C;stroke:color(display-p3 0.1106 0.1106 0.1106);stroke-opacity:1;"/>
</svg>
