<svg width="32" height="32" viewBox="0 0 32 32" xmlns="http://www.w3.org/2000/svg">
  <path 
    d="M22.25 4.5c-2.511 0-4.74.991-6.25 2.695C14.49 5.491 12.261 4.5 9.75 4.5a8.26 8.26 0 0 0-8.25 8.25c0 9.043 13.226 16.267 13.789 16.571a1.5 1.5 0 0 0 1.422 0c.563-.304 13.789-7.529 13.789-16.571a8.26 8.26 0 0 0-8.25-8.25"
    fill="#ED1A25"
  />
  <path 
    d="M21.564 22.295A41 41 0 0 1 16 26.27a41 41 0 0 1-5.564-3.975C7.728 19.971 4.5 16.427 4.5 12.75A5.25 5.25 0 0 1 9.75 7.5c2.225 0 4.088 1.175 4.861 3.068a1.5 1.5 0 0 0 2.778 0C18.163 8.675 20.025 7.5 22.25 7.5a5.25 5.25 0 0 1 5.25 5.25c0 3.677-3.227 7.221-5.936 9.545"
    fill="#ED1A25"
  />
</svg>