<svg width="24" height="24" viewBox="0 0 24 24" fill="none" xmlns="http://www.w3.org/2000/svg">
<path d="M16.5158 21.0793H14.6904V24H16.5158V21.0793Z" fill="#1C1C1C" style="fill:#1C1C1C;fill:color(display-p3 0.1106 0.1106 0.1106);fill-opacity:1;"/>
<path d="M15.7857 4.65079C14.2889 2.44206 11.8976 1 9.21428 1C4.6873 1 1 5.08889 1 10.127C1 15.1651 4.6873 19.254 9.21428 19.254C10.4738 19.254 11.6786 18.9437 12.7373 18.3595C13.65 18.9254 14.6722 19.254 15.7857 19.254C19.3087 19.254 22.1746 15.9865 22.1746 11.9524C22.1746 7.91825 19.3087 4.65079 15.7857 4.65079ZM2.8254 10.127C2.8254 6.09286 5.69127 2.8254 9.21428 2.8254C12.7373 2.8254 15.6032 6.09286 15.6032 10.127C15.6032 14.1611 12.7373 17.4286 9.21428 17.4286C5.69127 17.4286 2.8254 14.1611 2.8254 10.127Z" fill="#1C1C1C" style="fill:#1C1C1C;fill:color(display-p3 0.1106 0.1106 0.1106);fill-opacity:1;"/>
<path d="M4.65039 10.1269H6.47579C6.47579 8.11901 7.6988 6.47615 9.21388 6.47615V4.65076C6.69484 4.65076 4.65039 7.11504 4.65039 10.1269Z" fill="#1C1C1C" style="fill:#1C1C1C;fill:color(display-p3 0.1106 0.1106 0.1106);fill-opacity:1;"/>
<path d="M10.1272 21.0793H8.30176V24H10.1272V21.0793Z" fill="#1C1C1C" style="fill:#1C1C1C;fill:color(display-p3 0.1106 0.1106 0.1106);fill-opacity:1;"/>
</svg>
