<svg width="140" height="90" viewBox="0 0 140 90" fill="none" xmlns="http://www.w3.org/2000/svg">
<path d="M7.97071 63.5866C7.85062 63.5866 7.79058 63.4614 7.79058 63.211C7.79058 62.9605 7.85062 62.8353 7.97071 62.8353C9.21159 62.8353 10.0522 62.5431 10.4925 61.9588C10.9328 61.3327 11.153 60.1849 11.153 58.5153V47.3084C11.153 45.8892 11.0129 44.8666 10.7327 44.2405C10.4525 43.6144 9.99214 43.3014 9.35169 43.3014C8.83132 43.3014 8.09079 43.531 7.13011 43.9901H7.07006C6.90995 43.9901 6.78986 43.8857 6.70981 43.6771C6.62975 43.4266 6.64977 43.2805 6.76985 43.2388L15.8363 38.8562L16.0164 38.7936C16.2166 38.7936 16.4167 38.8979 16.6169 39.1066C16.817 39.3153 16.9171 39.5031 16.9171 39.6701V41.0475C16.837 42.7171 16.797 44.7623 16.797 47.1831V58.5153C16.797 60.1849 17.0171 61.3327 17.4575 61.9588C17.9378 62.5431 18.7984 62.8353 20.0393 62.8353C20.1594 62.8353 20.2194 62.9605 20.2194 63.211C20.2194 63.4614 20.1594 63.5866 20.0393 63.5866C18.9986 63.5866 18.178 63.5658 17.5775 63.524L13.975 63.4614L10.4325 63.524C9.83203 63.5658 9.01145 63.5866 7.97071 63.5866ZM13.7348 32.5953C12.574 32.5953 11.6733 32.2614 11.0329 31.5936C10.3924 30.9257 10.0722 29.9866 10.0722 28.7762C10.0722 27.691 10.3924 26.8353 11.0329 26.2092C11.7134 25.5414 12.614 25.2075 13.7348 25.2075C14.8556 25.2075 15.7162 25.5205 16.3166 26.1466C16.9171 26.7727 17.2173 27.6492 17.2173 28.7762C17.2173 29.9866 16.9171 30.9257 16.3166 31.5936C15.7162 32.2614 14.8556 32.5953 13.7348 32.5953Z" fill="white"/>
<path d="M39.8951 63.5866C39.7751 63.5866 39.715 63.4614 39.715 63.211C39.715 62.9605 39.7751 62.8353 39.8951 62.8353C41.136 62.8353 41.9766 62.5431 42.4169 61.9588C42.8573 61.3327 43.0774 60.1849 43.0774 58.5153V49.4997C43.0774 47.2457 42.6771 45.5762 41.8766 44.491C41.116 43.4057 39.8951 42.8631 38.2139 42.8631C36.9731 42.8631 35.7122 43.1971 34.4313 43.8649C33.1904 44.491 32.2097 45.3257 31.4892 46.3692L31.1889 45.6179C32.63 43.4475 34.2311 41.7571 35.9924 40.5466C37.7937 39.2944 39.695 38.6684 41.6964 38.6684C43.858 38.6684 45.5592 39.3988 46.8001 40.8597C48.081 42.2788 48.7214 44.1571 48.7214 46.4944V58.5153C48.7214 60.1849 48.9416 61.3327 49.3819 61.9588C49.8622 62.5431 50.7229 62.8353 51.9637 62.8353C52.0838 62.8353 52.1439 62.9605 52.1439 63.211C52.1439 63.4614 52.0838 63.5866 51.9637 63.5866C50.923 63.5866 50.1024 63.5658 49.502 63.524L45.8994 63.4614L42.4169 63.524C41.7765 63.5658 40.9359 63.5866 39.8951 63.5866ZM23.7437 63.5866C23.6236 63.5866 23.5635 63.4614 23.5635 63.211C23.5635 62.9605 23.6236 62.8353 23.7437 62.8353C24.9845 62.8353 25.8251 62.5431 26.2654 61.9588C26.7058 61.3327 26.9259 60.1849 26.9259 58.5153V46.7449C26.9259 45.451 26.7658 44.5118 26.4456 43.9275C26.1654 43.3014 25.705 42.9884 25.0646 42.9884C24.3841 42.9884 23.4234 43.2805 22.1825 43.8649H22.0625C21.9424 43.8649 21.8423 43.7605 21.7622 43.5518C21.7222 43.3431 21.7422 43.2179 21.8223 43.1762L30.1682 38.9188C30.4084 38.8353 30.5485 38.7936 30.5885 38.7936C31.0689 38.7936 31.5092 39.3362 31.9095 40.4214C32.3498 41.4649 32.5699 42.8631 32.5699 44.6162V58.5153C32.5699 60.1849 32.7901 61.3327 33.2304 61.9588C33.7107 62.5431 34.5714 62.8353 35.8122 62.8353C35.9323 62.8353 35.9924 62.9605 35.9924 63.211C35.9924 63.4614 35.9323 63.5866 35.8122 63.5866C34.7715 63.5866 33.9509 63.5658 33.3505 63.524L29.7479 63.4614L26.2054 63.524C25.605 63.5658 24.7844 63.5866 23.7437 63.5866Z" fill="white"/>
<path d="M63.4539 30.7797C63.4539 32.2823 63.8142 33.6179 64.5347 34.7866C65.2953 35.9553 66.2159 36.9779 67.2967 37.8544C68.3775 38.731 69.8385 39.7953 71.6798 41.0475C73.6812 42.3831 75.2824 43.5518 76.4832 44.5536C77.6841 45.5553 78.7048 46.7866 79.5454 48.2475C80.386 49.6666 80.8063 51.3153 80.8063 53.1936C80.8063 55.364 80.2459 57.3049 79.1251 59.0162C78.0043 60.6857 76.4432 62.0005 74.4418 62.9605C72.4804 63.8788 70.2788 64.3379 67.8371 64.3379C66.0758 64.3379 64.1945 64.0875 62.1931 63.5866C60.2317 63.044 58.9107 62.4597 58.2302 61.8336C58.0301 61.6666 57.87 61.5205 57.7499 61.3953C57.6698 61.2284 57.6298 60.9779 57.6298 60.644L57.4497 50.6892V50.6266C57.4497 50.4597 57.5497 50.3762 57.7499 50.3762C57.95 50.3344 58.0701 50.3971 58.1101 50.564C59.311 53.1101 60.3517 55.1762 61.2324 56.7623C62.153 58.3484 63.2938 59.7466 64.6548 60.9571C66.0558 62.1675 67.6369 62.7727 69.3982 62.7727C70.9993 62.7727 72.3203 62.3344 73.361 61.4579C74.4017 60.5397 74.9221 58.9953 74.9221 56.8249C74.9221 54.9884 74.5218 53.3814 73.7213 52.004C72.9607 50.6266 72.02 49.4579 70.8992 48.4979C69.7784 47.5379 68.2374 46.3901 66.276 45.0544C64.3546 43.7605 62.8535 42.6544 61.7728 41.7362C60.732 40.8179 59.8314 39.7118 59.0708 38.4179C58.3103 37.124 57.93 35.6005 57.93 33.8475C57.93 31.6353 58.5304 29.7779 59.7313 28.2753C60.9722 26.731 62.5533 25.604 64.4747 24.8944C66.396 24.1431 68.4175 23.7675 70.539 23.7675C71.94 23.7675 73.361 23.9136 74.802 24.2057C76.243 24.4562 77.4039 24.7692 78.2845 25.1449C78.6448 25.3118 78.8849 25.4997 79.005 25.7084C79.1251 25.8753 79.1851 26.1049 79.1851 26.3971V35.6005C79.1851 35.7257 79.0851 35.8301 78.8849 35.9136C78.6848 35.9553 78.5647 35.9136 78.5247 35.7884L78.0443 34.5988C77.0436 31.9692 75.8628 29.7362 74.5018 27.8997C73.1809 26.0631 71.3195 25.1449 68.9178 25.1449C67.3167 25.1449 65.9958 25.6249 64.955 26.5849C63.9543 27.5449 63.4539 28.9431 63.4539 30.7797Z" fill="white"/>
<path d="M85.1683 63.5866C85.0882 63.5866 85.0482 63.4614 85.0482 63.211C85.0482 62.9605 85.0882 62.8353 85.1683 62.8353C86.4092 62.8353 87.2498 62.5431 87.6901 61.9588C88.1704 61.3327 88.4106 60.1849 88.4106 58.5153V26.7101C88.4106 25.2492 88.2705 24.2057 87.9903 23.5797C87.7501 22.9536 87.3098 22.6405 86.6694 22.6405C86.109 22.6405 85.3484 22.8701 84.3878 23.3292H84.3277C84.2076 23.3292 84.0875 23.2249 83.9675 23.0162C83.8874 22.7657 83.8874 22.6197 83.9675 22.5779L92.7337 18.2579L93.0339 18.1953C93.234 18.1953 93.4342 18.2997 93.6343 18.5084C93.8745 18.6753 93.9946 18.8423 93.9946 19.0092V58.5153C93.9946 60.1849 94.2148 61.3327 94.6551 61.9588C95.1354 62.5431 95.996 62.8353 97.2369 62.8353C97.397 62.8353 97.4771 62.9605 97.4771 63.211C97.4771 63.4614 97.397 63.5866 97.2369 63.5866C96.1962 63.5866 95.3556 63.5658 94.7151 63.524L91.2326 63.4614L87.6301 63.524C87.0296 63.5658 86.2091 63.5866 85.1683 63.5866ZM100.299 63.5866C100.179 63.5866 100.119 63.4614 100.119 63.211C100.119 62.9605 100.179 62.8353 100.299 62.8353C101.74 62.8353 102.461 62.3971 102.461 61.5205C102.461 61.0614 102.3 60.644 101.98 60.2684L94.7151 50.564L98.798 47.3084L107.204 58.5153C108.365 60.0179 109.466 61.124 110.506 61.8336C111.587 62.5014 112.668 62.8353 113.749 62.8353C113.869 62.8353 113.929 62.9605 113.929 63.211C113.929 63.4614 113.869 63.5866 113.749 63.5866C112.708 63.5866 111.887 63.5658 111.287 63.524L107.684 63.4614L103.061 63.524C102.381 63.5658 101.46 63.5866 100.299 63.5866ZM91.4728 53.2562L99.5786 45.1171C100.619 44.1153 101.14 43.0927 101.14 42.0492C101.14 41.5066 100.94 41.0684 100.539 40.7344C100.139 40.3588 99.5786 40.171 98.858 40.171C98.778 40.171 98.738 40.0457 98.738 39.7953C98.738 39.5449 98.778 39.4197 98.858 39.4197C100.019 39.4197 100.92 39.4405 101.56 39.4823L106.303 39.5449L110.686 39.4823C111.247 39.4405 112.027 39.4197 113.028 39.4197C113.148 39.4197 113.208 39.5449 113.208 39.7953C113.208 40.0457 113.148 40.171 113.028 40.171C111.307 40.171 109.326 40.6301 107.084 41.5484C104.882 42.4249 102.901 43.7188 101.14 45.4301L91.8331 54.2579L91.4728 53.2562Z" fill="white"/>
<path d="M139.88 39.4197C139.96 39.4197 140 39.5449 140 39.7953C140 40.0457 139.96 40.171 139.88 40.171C138.599 40.171 137.478 40.7553 136.518 41.924C135.597 43.051 134.756 44.6997 133.996 46.8701L127.331 65.3397C125.209 71.1831 123.168 75.2736 121.207 77.611C119.285 79.9901 117.144 81.1797 114.782 81.1797C113.581 81.1797 112.661 80.9084 112.02 80.3657C111.38 79.8649 111.059 79.1136 111.059 78.1118C111.059 77.1518 111.34 76.4214 111.9 75.9205C112.46 75.4197 113.141 75.1692 113.941 75.1692C114.382 75.1692 114.742 75.2318 115.022 75.3571C115.342 75.4823 115.723 75.691 116.163 75.9831C116.924 76.5257 117.644 76.7971 118.325 76.7971C119.285 76.7971 120.166 76.3588 120.966 75.4823C121.767 74.6475 122.608 73.2284 123.488 71.2249C124.369 69.2631 125.47 66.404 126.791 62.6475L126.61 66.091L116.403 44.6162C115.523 42.8214 114.822 41.6318 114.302 41.0475C113.821 40.4631 113.221 40.171 112.5 40.171C112.38 40.171 112.32 40.0457 112.32 39.7953C112.32 39.5449 112.38 39.4197 112.5 39.4197C113.621 39.4197 114.482 39.4405 115.082 39.4823L117.604 39.5449L121.747 39.4823C122.387 39.4405 123.248 39.4197 124.329 39.4197C124.449 39.4197 124.509 39.5449 124.509 39.7953C124.509 40.0457 124.449 40.171 124.329 40.171C123.288 40.171 122.528 40.2753 122.047 40.484C121.567 40.651 121.327 40.9431 121.327 41.3605C121.327 41.6944 121.447 42.1118 121.687 42.6127L129.312 58.891L127.151 62.5849L132.375 46.8075C132.735 45.7223 132.915 44.7414 132.915 43.8649C132.915 42.6962 132.595 41.7988 131.954 41.1727C131.314 40.5049 130.393 40.171 129.192 40.171C129.112 40.171 129.072 40.0457 129.072 39.7953C129.072 39.5449 129.112 39.4197 129.192 39.4197C130.273 39.4197 131.094 39.4405 131.654 39.4823L135.257 39.5449L137.658 39.4823C138.139 39.4405 138.879 39.4197 139.88 39.4197Z" fill="white"/>
<path d="M133.897 11.4963C133.899 11.791 133.81 12.0791 133.641 12.3206C133.472 12.562 133.232 12.7448 132.954 12.8435L127.256 14.9155L125.185 20.6123C125.083 20.8873 124.899 21.1245 124.659 21.292C124.418 21.4595 124.131 21.5493 123.838 21.5493C123.545 21.5493 123.258 21.4595 123.018 21.292C122.777 21.1245 122.593 20.8873 122.491 20.6123L120.42 14.9146L114.722 12.8435C114.447 12.7414 114.21 12.5576 114.042 12.3168C113.875 12.076 113.785 11.7897 113.785 11.4963C113.785 11.203 113.875 10.9167 114.042 10.6758C114.21 10.435 114.447 10.2512 114.722 10.1491L120.42 8.07804L122.491 2.38031C122.593 2.1053 122.777 1.86812 123.018 1.70063C123.258 1.53314 123.545 1.44336 123.838 1.44336C124.131 1.44336 124.418 1.53314 124.659 1.70063C124.899 1.86812 125.083 2.1053 125.185 2.38031L127.257 8.07804L132.954 10.1491C133.232 10.2479 133.472 10.4306 133.641 10.6721C133.81 10.9135 133.899 11.2016 133.897 11.4963Z" fill="white"/>
<g clip-path="url(#clip0_3554_572)">
<path d="M14.3701 82.3358C14.3716 82.5322 14.3119 82.7243 14.1992 82.8853C14.0866 83.0462 13.9265 83.1681 13.7414 83.2339L9.94293 84.6152L8.5622 88.4131C8.49415 88.5964 8.37162 88.7546 8.21106 88.8662C8.05051 88.9779 7.85963 89.0377 7.66407 89.0377C7.46851 89.0377 7.27763 88.9779 7.11708 88.8662C6.95653 88.7546 6.834 88.5964 6.76594 88.4131L5.38522 84.6146L1.58673 83.2339C1.40339 83.1658 1.24527 83.0433 1.13361 82.8828C1.02195 82.7222 0.962097 82.5313 0.962097 82.3358C0.962097 82.1402 1.02195 81.9493 1.13361 81.7888C1.24527 81.6282 1.40339 81.5057 1.58673 81.4376L5.38522 80.0569L6.76594 76.2584C6.834 76.0751 6.95653 75.917 7.11708 75.8053C7.27763 75.6936 7.46851 75.6338 7.66407 75.6338C7.85963 75.6338 8.05051 75.6936 8.21106 75.8053C8.37162 75.917 8.49415 76.0751 8.5622 76.2584L9.94353 80.0569L13.7414 81.4376C13.9265 81.5035 14.0866 81.6253 14.1992 81.7863C14.3119 81.9472 14.3716 82.1393 14.3701 82.3358Z" fill="white"/>
</g>
<defs>
<clipPath id="clip0_3554_572">
<rect width="15.3281" height="15.3281" fill="white" transform="translate(0 74.6719)"/>
</clipPath>
</defs>
</svg>
