<svg width="25" height="24" viewBox="0 0 25 24" fill="none" xmlns="http://www.w3.org/2000/svg">
<path d="M16.1853 12.7942L12.3515 7.16349C12.3171 7.1131 12.271 7.07187 12.217 7.04338C12.1631 7.01489 12.103 7 12.042 7C11.981 7 11.921 7.01489 11.867 7.04338C11.8131 7.07187 11.7669 7.1131 11.7325 7.16349L7.89728 12.7942C7.88912 12.8058 7.88162 12.8178 7.8748 12.8302C7.49719 13.5476 7.31126 14.3504 7.33503 15.1608C7.3588 15.9712 7.59147 16.7617 8.01049 17.4558C8.42951 18.1499 9.02068 18.7239 9.72673 19.1224C10.4328 19.5209 11.2298 19.7303 12.0405 19.7303C12.8513 19.7303 13.6483 19.5209 14.3543 19.1224C15.0604 18.7239 15.6515 18.1499 16.0706 17.4558C16.4896 16.7617 16.7222 15.9712 16.746 15.1608C16.7698 14.3504 16.5839 13.5476 16.2063 12.8302C16.1999 12.8178 16.1929 12.8058 16.1853 12.7942ZM11.175 17.2904C11.1507 17.3332 11.1182 17.3709 11.0794 17.4011C11.0406 17.4314 10.9961 17.4537 10.9487 17.4668C10.9012 17.4799 10.8516 17.4835 10.8028 17.4774C10.7539 17.4713 10.7067 17.4556 10.6639 17.4313C10.0606 17.0875 9.61772 16.519 9.43211 15.8499C9.2465 15.1807 9.3332 14.4653 9.67328 13.8598C9.69658 13.8153 9.72859 13.776 9.7674 13.7441C9.8062 13.7122 9.85102 13.6885 9.89919 13.6743C9.94736 13.6601 9.99789 13.6557 10.0478 13.6614C10.0977 13.6671 10.1459 13.6828 10.1896 13.7075C10.2333 13.7322 10.2716 13.7655 10.3022 13.8053C10.3329 13.8451 10.3551 13.8907 10.3678 13.9393C10.3804 13.9879 10.3832 14.0385 10.3759 14.0882C10.3686 14.1379 10.3513 14.1856 10.3252 14.2285C10.0806 14.6619 10.0178 15.1746 10.1507 15.6543C10.2836 16.1339 10.6013 16.5412 11.0341 16.7868C11.077 16.8111 11.1146 16.8436 11.1448 16.8825C11.1751 16.9213 11.1974 16.9657 11.2105 17.0132C11.2236 17.0606 11.2272 17.1102 11.2211 17.1591C11.215 17.2079 11.1993 17.2551 11.175 17.2979V17.2904Z" fill="#1C1C1C" style="fill:#1C1C1C;fill:color(display-p3 0.1106 0.1106 0.1106);fill-opacity:1;"/>
</svg>
