<svg width="25" height="24" viewBox="0 0 25 24" fill="none" xmlns="http://www.w3.org/2000/svg">
<g clip-path="url(#clip0_2243_1196)">
<path fill-rule="evenodd" clip-rule="evenodd" d="M15.5737 8.82873H9.76066C9.52138 8.82873 9.29247 8.92403 9.12364 9.09287C8.97137 9.24513 8.87918 9.44607 8.86261 9.65946C8.86675 9.68224 8.86882 9.70607 8.86882 9.72989C8.86882 9.9961 8.98794 10.2478 9.19201 10.4156C9.87358 10.9697 10.3086 11.8139 10.3086 12.7597C10.3086 14.4273 8.95479 15.7802 7.28806 15.7802C5.62038 15.7802 4.2675 14.4264 4.2675 12.7597C4.2675 11.8108 4.70565 10.9625 5.40068 10.4125C5.6006 10.2478 5.71557 10.0023 5.71557 9.74334V9.72883C5.71557 9.23164 5.31265 8.82871 4.81545 8.82871H1.08132C0.852405 8.82871 0.666992 8.6433 0.666992 8.41438C0.666992 8.18547 0.852405 8.00005 1.08132 8.00005H4.81545C5.76946 8.00005 6.5432 8.77382 6.5432 9.7278V9.7423C6.5432 10.2519 6.31324 10.7346 5.91859 11.0568C5.91652 11.0578 5.91548 11.0599 5.91341 11.0609C5.41208 11.4566 5.09512 12.0708 5.09512 12.7586C5.09512 13.9695 6.07811 14.9514 7.28795 14.9514C8.49882 14.9514 9.48077 13.9684 9.48077 12.7586C9.48077 12.0719 9.16485 11.4587 8.66973 11.0567L8.66765 11.0557C8.2875 10.7439 8.06065 10.2851 8.04201 9.79614L8.03165 9.72881C8.03165 9.27096 8.21396 8.83075 8.53818 8.50653C8.8624 8.18231 9.30158 8 9.76046 8H15.5735C16.0314 8 16.4716 8.18231 16.7958 8.50653C17.12 8.83075 17.3023 9.26993 17.3023 9.72881V9.74331C17.3023 10.2529 17.0724 10.7356 16.6777 11.0578C16.6756 11.0588 16.6746 11.0609 16.6725 11.0619C16.1712 11.4576 15.8543 12.0718 15.8543 12.7596C15.8543 13.9705 16.8372 14.9524 18.0471 14.9524C19.258 14.9524 20.2399 13.9694 20.2399 12.7596C20.2399 12.0729 19.924 11.4597 19.4289 11.0577L19.4268 11.0567C19.0466 10.7449 18.8198 10.2861 18.8011 9.79714L18.7908 9.72981C18.7908 8.77581 19.5646 8.00207 20.5185 8.00207H24.2527C24.4816 8.00207 24.667 8.18748 24.667 8.4164C24.667 8.64531 24.4816 8.83073 24.2527 8.83073H20.5185C20.0451 8.83073 19.6567 9.19637 19.6205 9.66042C19.6246 9.68321 19.6267 9.70703 19.6267 9.73085C19.6267 9.99706 19.7458 10.2488 19.9499 10.4166C20.6315 10.9707 21.0665 11.8149 21.0665 12.7606C21.0665 14.4283 19.7127 15.7812 18.0459 15.7812C16.3782 15.7812 15.0254 14.4273 15.0254 12.7606C15.0254 11.8118 15.4635 10.9635 16.1586 10.4134C16.3585 10.2487 16.4734 10.0032 16.4734 9.7443V9.7298C16.4734 9.49156 16.3781 9.26161 16.2093 9.09278C16.0405 8.92394 15.8116 8.82864 15.5723 8.82864L15.5737 8.82873ZM7.28715 11.1044C8.20074 11.1044 8.94239 11.8461 8.94239 12.7597C8.94239 13.6733 8.20074 14.4149 7.28715 14.4149C6.37355 14.4149 5.6319 13.6733 5.6319 12.7597C5.6319 11.8461 6.37355 11.1044 7.28715 11.1044ZM18.0462 11.1044C18.9598 11.1044 19.7014 11.8461 19.7014 12.7597C19.7014 13.6733 18.9598 14.4149 18.0462 14.4149C17.1326 14.4149 16.3909 13.6733 16.3909 12.7597C16.3909 11.8461 17.1326 11.1044 18.0462 11.1044Z" fill="#1C1C1C" style="fill:#1C1C1C;fill:color(display-p3 0.1106 0.1106 0.1106);fill-opacity:1;"/>
</g>
<defs>
<clipPath id="clip0_2243_1196">
<rect width="24" height="24" fill="white" style="fill:white;fill-opacity:1;" transform="translate(0.666992)"/>
</clipPath>
</defs>
</svg>
