<svg width="76" height="76" viewBox="0 0 76 76" fill="none" xmlns="http://www.w3.org/2000/svg">
<g clip-path="url(#clip0_94_8783)">
<rect width="76" height="76" rx="17" fill="#C4D9C6" style="fill:#C4D9C6;fill:color(display-p3 0.7686 0.8510 0.7765);fill-opacity:1;"/>
<path d="M-10.5 38.0524C-1.33333 27.219 21.6 13.8524 40 47.0524C54.9587 74.0431 60.356 82.594 61.6726 84.0424L62 84.0524C62.0623 84.3329 61.9754 84.3756 61.6726 84.0424L-20 81.5524L-10.5 39.5524V38.0524Z" fill="#DAE6DA" style="fill:#DAE6DA;fill:color(display-p3 0.8549 0.9020 0.8549);fill-opacity:1;"/>
<path d="M104.775 52.7441C96.1696 42.6671 69.9456 27.4919 52.6716 58.3738C38.6282 83.48 33.5612 91.4339 32.3252 92.7811L32.0178 92.7904C31.9593 93.0514 32.0409 93.0911 32.3252 92.7811L109 90.465L104.775 56.4648V52.7441Z" fill="#E3EDE4" style="fill:#E3EDE4;fill:color(display-p3 0.8902 0.9294 0.8941);fill-opacity:1;"/>
<circle cx="54.5" cy="21.5" r="8.5" fill="#DDE9DF" style="fill:#DDE9DF;fill:color(display-p3 0.8667 0.9137 0.8745);fill-opacity:1;"/>
</g>
<defs>
<clipPath id="clip0_94_8783">
<rect width="76" height="76" rx="17" fill="white" style="fill:white;fill-opacity:1;"/>
</clipPath>
</defs>
</svg>
