<svg width="25" height="25" viewBox="0 0 25 7" fill="none" xmlns="http://www.w3.org/2000/svg">
<path d="M23.8902 0.00926156H16.833C16.1439 0.00926156 15.4594 0.192149 14.8559 0.539634C13.6128 1.26205 12.8382 2.61082 12.8382 4.06014V5.79756C12.8337 6.06275 13.0769 6.28679 13.3336 6.25021C13.3516 6.25021 15.045 6.07647 16.689 6.62055C17.4411 6.87202 18.1933 6.99089 18.9003 6.99089C21.8187 6.92231 23.8229 5.13917 22.9942 1.34422C22.8456 0.763546 21.9898 0.964722 22.1159 1.55454C23.0572 5.19853 20.2559 6.84919 16.9683 5.75187C16.2432 5.50955 15.5181 5.39982 14.9011 5.34495C14.6984 4.75515 14.1805 4.43508 13.7391 4.29334C13.7031 3.50692 13.9283 2.72051 14.4057 2.11242C14.4192 4.04189 15.9685 5.6101 17.8735 5.6101C20.2199 5.65124 21.9763 3.14112 21.1433 0.914435H23.8905C24.4805 0.905291 24.4805 0.00912972 23.8905 0L23.8902 0.00926156ZM13.7794 5.31298H13.7434V5.29012C13.7434 5.29012 13.7659 5.30384 13.7794 5.31298ZM18.8146 2.09417C18.7831 3.34693 16.9726 3.34693 16.9411 2.09417C16.9726 0.841412 18.7831 0.841412 18.8146 2.09417ZM20.4495 2.09417C20.4495 3.53442 19.2965 4.70489 17.8779 4.70489C16.1529 4.7369 14.8692 2.9126 15.4414 1.26662C15.7521 1.10202 16.0899 1.00143 16.4367 0.951144C15.4774 2.11249 16.3736 3.99614 17.8779 3.95956C19.3956 3.99157 20.2874 2.08039 19.2965 0.923638H20.1793C20.3594 1.28485 20.4495 1.68726 20.4495 2.09417Z" fill="#1C1C1C" style="fill:#1C1C1C;fill:color(display-p3 0.1106 0.1106 0.1106);fill-opacity:1;"/>
<path d="M9.80705 0.539481C9.20354 0.191996 8.5235 0.00910863 7.83441 0.00910863H0.777191C0.187197 0.018253 0.182701 0.914414 0.777191 0.923544H3.52444C2.69126 3.1502 4.4432 5.66046 6.79422 5.6192C8.6993 5.6192 10.2485 4.05094 10.262 2.12153C10.7394 2.72505 10.9646 3.51147 10.9286 4.30245C10.4872 4.44419 9.96927 4.76423 9.76661 5.35406C9.14961 5.40436 8.42452 5.51866 7.6994 5.76098C4.40714 6.86286 1.61037 5.20775 2.55176 1.56365C2.67786 0.97841 1.81764 0.772669 1.67352 1.35333C0.849337 5.14831 2.84899 6.93123 5.76737 7C6.47444 7 7.22208 6.87655 7.9787 6.62966C9.61356 6.08557 11.3159 6.25476 11.3341 6.25932C11.5908 6.28676 11.834 6.07187 11.8295 5.8021V4.06468C11.8295 2.61071 11.0549 1.26194 9.81184 0.539495L9.80705 0.539481ZM7.72632 2.09402C7.69479 3.34678 5.88431 3.34678 5.85277 2.09402C5.8843 0.841259 7.69479 0.841259 7.72632 2.09402ZM6.78955 4.70474C4.916 4.74589 3.61893 2.59697 4.48814 0.923514H5.37087C4.38005 2.08027 5.27179 3.99602 6.78955 3.95944C8.28928 3.99145 9.18552 2.11228 8.23074 0.951021C8.57751 1.00132 8.9153 1.1019 9.22605 1.26649C9.80253 2.91248 8.51445 4.73664 6.78955 4.70474ZM10.888 5.31283C10.888 5.31283 10.9105 5.29911 10.924 5.28997V5.31283H10.888Z" fill="#1C1C1C" style="fill:#1C1C1C;fill:color(display-p3 0.1106 0.1106 0.1106);fill-opacity:1;"/>
</svg>
