<svg width="24" height="24" viewBox="0 0 24 24" fill="none" xmlns="http://www.w3.org/2000/svg">
<path d="M14.4175 7.93202C15.0478 7.06163 15.1847 6.24902 15.1905 6.21321L14.7704 6.14575C14.7691 6.15387 14.632 6.97043 13.9818 7.80431C13.1051 8.92873 11.7662 9.52722 10.0022 9.58338C9.46903 9.60032 8.99253 9.66669 8.57342 9.78125C8.62463 9.75123 8.67731 9.72107 8.73231 9.69082C9.15002 9.46092 9.5928 9.35425 10.0616 9.24124C10.3639 9.16837 10.6766 9.09303 10.9849 8.98156C11.7761 8.69543 12.2204 8.2887 12.6244 7.48081L12.2439 7.29052C11.8864 8.0055 11.5322 8.33124 10.8403 8.58148C10.5541 8.68498 10.253 8.75754 9.96193 8.8277C9.48651 8.94226 8.99493 9.06077 8.52724 9.31813C7.41419 9.9307 7.00383 10.5338 6.74925 11.043L6.76063 11.0487C6.14543 12.0839 6.47534 13.2651 6.49058 13.3179L6.89932 13.1998C6.55401 11.4591 7.54252 10.7653 7.62297 10.7015C7.59713 11.0532 7.60742 14.7672 7.60727 14.7964C7.60727 16.6037 8.73053 17.9598 9.40011 18.6074C10.3334 19.5099 11.526 20.1402 12.3004 20.1402H12.3531C13.1274 20.1402 14.3201 19.5099 15.2534 18.6074C15.7754 18.1026 16.5732 17.1668 16.8994 15.9222C16.8714 16.2573 16.8324 16.5679 16.7843 16.8571C16.5503 18.2662 16.1023 19.1586 15.6859 19.818L16.0456 20.0452C16.7343 18.9548 17.5054 17.2649 17.3546 13.8468C17.2301 11.02 16.2157 8.98048 14.4175 7.93202ZM9.71455 13.8147C9.70782 13.8104 9.04095 13.3904 8.62595 13.7937L8.38878 13.5496C8.63778 13.3076 8.92902 13.2558 9.18909 13.2808C9.05124 13.1645 8.86234 13.0841 8.50736 13.0841V12.7438C9.21539 12.7438 9.45611 13.0403 9.6495 13.2785C9.73072 13.3785 9.8008 13.4649 9.89935 13.5288C10.4244 13.869 10.8295 13.8341 11.2974 13.4084L11.5264 13.6601C11.2046 13.953 10.8845 14.0989 10.5518 14.0989C10.2833 14.0989 10.0068 14.0039 9.71455 13.8147ZM12.4867 18.3096H12.1668C11.5373 18.2643 11.22 17.8993 11.0664 17.6127C11.2762 17.707 11.6156 17.7926 12.162 17.805L12.1669 17.8051H12.4868L12.4916 17.805C13.0381 17.7926 13.3775 17.707 13.5873 17.6127C13.4336 17.8992 13.1162 18.2642 12.4867 18.3096ZM16.0721 13.7479C15.7556 13.4403 15.2385 13.5226 14.9394 13.8144C14.647 14.0039 14.3703 14.0989 14.1019 14.0989C13.7692 14.0989 13.4492 13.9531 13.1273 13.6602L13.3563 13.4085C13.8242 13.8341 14.2292 13.869 14.7543 13.5288C14.8528 13.465 14.923 13.3786 15.0042 13.2786C15.1976 13.0403 15.4382 12.7438 16.1463 12.7438V13.0842C15.7198 13.0842 15.5328 13.2001 15.3864 13.3553C15.6516 13.3122 15.9613 13.3436 16.2205 13.5954L16.0721 13.7479Z" fill="#1C1C1C" style="fill:#1C1C1C;fill:color(display-p3 0.1106 0.1106 0.1106);fill-opacity:1;"/>
</svg>
