<svg width="80" height="93" viewBox="0 0 80 93" fill="none" xmlns="http://www.w3.org/2000/svg">
<path d="M24.9802 16.1479C28.2183 17.0368 31.0188 19.6649 32.823 22.4222C34.9635 26.2276 35.8063 29.7867 34.751 34.1048C34.2417 35.8509 33.496 37.3409 32.5616 38.8922C32.1223 39.6516 31.9787 40.1189 32.0712 40.9916C32.0913 41.1958 32.1115 41.4001 32.1322 41.6105C32.157 41.8289 32.1817 42.0473 32.2072 42.2723C32.2422 42.6127 32.2422 42.6127 32.2779 42.9599C32.3532 43.6849 32.4329 44.4093 32.5126 45.1337C32.5634 45.6195 32.6139 46.1052 32.6642 46.591C32.9397 49.286 32.9397 49.286 33.3458 51.9635C33.419 51.6565 33.4921 51.3495 33.5675 51.0332C34.1084 48.8337 34.7056 46.6919 35.568 44.5946C35.6391 44.4197 35.7102 44.2448 35.7835 44.0646C36.174 43.1477 36.6088 42.3622 37.1835 41.5473C37.9734 40.3187 37.9623 39.1925 37.9535 37.7648C37.9971 35.77 38.0892 33.971 38.8358 32.095C38.9214 31.8773 39.007 31.6596 39.0952 31.4353C39.9046 29.6213 41.1029 28.2643 42.4958 26.8665C42.6377 26.7185 42.7796 26.5706 42.9257 26.4182C45.6729 23.7962 49.6768 22.5733 53.388 22.6305C53.9986 22.6836 53.9986 22.6836 54.2601 22.9451C54.7015 27.3166 53.1476 31.9334 50.4367 35.322C48.2463 37.7718 45.4508 39.203 42.2264 39.762C40.3525 40.0457 40.3525 40.0457 38.7654 40.9866C38.3503 41.6668 38.0696 42.3291 37.7901 43.075C37.5184 43.6254 37.2461 44.1755 36.9732 44.7253C35.3392 48.3653 34.5539 51.9535 34.6203 55.934C34.6227 56.2078 34.625 56.4816 34.6275 56.7637C34.6335 57.4294 34.6429 58.095 34.653 58.7607C36.2921 58.6744 37.9313 58.5881 39.6201 58.4992C39.4476 58.1542 39.275 57.8091 39.0973 57.4535C38.9087 56.2677 38.9658 55.1794 39.5221 54.104C40.3511 52.9914 41.1843 52.4007 42.4958 51.9635C43.1692 51.9313 43.8322 51.9139 44.5055 51.9145C44.6931 51.9144 44.8806 51.9142 45.0738 51.914C46.395 51.9272 47.5214 52.0702 48.7701 52.4864C48.576 52.2114 48.3819 51.9364 48.1819 51.6531C46.9446 49.665 45.972 47.009 46.4172 44.6436C46.8711 43.2422 47.7447 42.4468 49.0111 41.7362C50.198 41.2342 51.1162 41.4265 52.3157 41.7842C54.1539 42.8203 54.9728 44.238 55.6336 46.2121C55.9556 47.5068 56.0436 48.8035 56.0901 50.1336C56.8251 49.6391 56.8251 49.6391 57.3972 48.8264C57.3607 48.3197 57.3607 48.3197 57.1807 47.7838C56.3128 44.3862 56.4989 40.2619 57.9201 37.0622C58.0501 36.7599 58.1802 36.4576 58.3142 36.1461C59.629 33.3118 61.9304 29.4437 64.9786 28.1736C66.0171 28.0603 66.5884 28.031 67.4754 28.6056C68.1949 29.2952 68.4756 29.8472 68.8347 30.7716C68.9411 31.0381 69.0476 31.3047 69.1574 31.5793C70.4812 35.454 69.915 40.2137 68.275 43.8899C67.519 45.3583 66.6264 46.5754 65.5015 47.7807C65.7603 47.867 66.0191 47.9532 66.2857 48.0421C67.3354 49.4277 67.2679 50.8172 67.07 52.4864C66.2026 54.402 64.4131 55.7533 62.495 56.5222C62.1045 56.6628 61.7128 56.8006 61.3186 56.9307C61.7531 57.2807 62.1891 57.629 62.6258 57.9764C62.7689 58.1152 62.9121 58.254 63.0596 58.3971C63.9465 58.9241 64.811 58.8759 65.8139 58.8761C66.0201 58.8795 66.2263 58.883 66.4387 58.8865C67.0958 58.8972 67.7527 58.9029 68.4098 58.9077C69.0688 58.9139 69.7277 58.9213 70.3866 58.9317C70.7962 58.9381 71.2059 58.942 71.6155 58.9431C73.0242 58.9634 73.0242 58.9634 73.6057 59.545C73.9782 64.6168 70.4128 70.4296 67.2722 74.1492C62.9336 79.1117 57.2989 83.5062 50.7471 84.9688C49.3802 85.3532 48.8264 86.2052 48.0134 87.3216C46.5498 89.2333 44.6368 90.6902 42.6429 92.011C42.4883 92.1153 42.3338 92.2197 42.1745 92.3271C41.0985 93.0112 41.0985 93.0112 40.3809 92.9965C37.4516 91.5288 33.5305 88.4099 32.0387 85.4263C31.2956 85.1353 30.5546 84.8679 29.8002 84.6093C24.4427 82.6935 20.1803 79.9504 16.0916 76.0149C15.9235 75.8633 15.7553 75.7116 15.582 75.5554C11.4529 71.7246 8.24019 65.3101 7.93834 59.6757C7.98736 59.0221 7.98736 59.0221 8.24879 58.7607C9.0366 58.7358 9.81841 58.7279 10.6063 58.731C10.8537 58.731 11.101 58.7309 11.3559 58.7309C12.1778 58.7311 12.9996 58.7331 13.8215 58.7351C14.3897 58.7356 14.9578 58.736 15.526 58.7363C17.0247 58.7373 18.5233 58.7398 20.022 58.7427C21.5499 58.7454 23.0779 58.7466 24.6059 58.7479C27.6064 58.7507 30.6068 58.7552 33.6073 58.7607C33.2795 58.09 32.9501 57.4203 32.6198 56.7509C32.5278 56.5624 32.4359 56.3738 32.3411 56.1796C31.6139 54.7109 30.7725 53.4553 29.6859 52.225C29.514 52.0251 29.3421 51.8253 29.165 51.6194C28.7327 51.1203 28.2966 50.6252 27.8559 50.1336C27.6132 50.36 27.3706 50.5865 27.1206 50.8198C23.1191 54.2404 17.5864 55.498 12.4316 55.1007C8.48874 54.5761 3.05771 52.7853 0.144531 49.8721C0.173253 49.2322 0.173253 49.2322 0.405959 48.565C0.884775 48.1618 0.884775 48.1618 1.51498 47.8246C1.74846 47.6978 1.98194 47.5711 2.22249 47.4405C2.6012 47.2449 2.6012 47.2449 2.98756 47.0454C3.24391 46.9092 3.50026 46.7729 3.76437 46.6326C5.8652 45.5347 8.01415 44.5872 10.2146 43.7092C11.0656 43.429 11.0656 43.429 11.3859 43.075C11.2117 42.9763 11.0375 42.8775 10.858 42.7758C5.41965 39.528 2.25456 34.0021 0.144531 28.1736C0.271029 27.2628 0.271029 27.2628 0.667387 26.8665C6.81625 26.3582 13.6175 28.015 18.5098 31.8009C18.928 32.1555 19.342 32.5149 19.7516 32.8793C19.9531 33.0532 20.1547 33.2271 20.3623 33.4063C23.0295 35.8641 25.0037 39.4778 25.3121 43.124C25.3385 44.9725 25.3385 44.9725 24.9802 45.6893C25.1197 45.788 25.2592 45.8868 25.4029 45.9885C28.0355 47.9333 30.0361 50.4445 32.0387 53.0093C32.0177 52.8455 31.9967 52.6817 31.975 52.513C31.8749 51.7255 31.7771 50.9377 31.6792 50.1499C31.6417 49.8582 31.6041 49.5666 31.5654 49.2661C31.3749 47.7273 31.2306 46.2082 31.187 44.6579C31.2222 41.7425 31.2222 41.7425 30.1423 39.1556C29.4048 38.6448 28.6533 38.2552 27.8559 37.8465C25.0278 35.3747 23.3886 31.9634 23.0933 28.2412C23.0614 27.4824 23.051 26.7273 23.0521 25.9678C23.0525 25.561 23.0525 25.561 23.0528 25.1459C23.0993 22.0655 23.4755 18.8814 24.9802 16.1479Z" fill="url(#paint0_linear_2011_2458)" style=""/>
<path d="M2.18694 26.8011C8.6306 26.8601 14.8625 28.5298 19.7516 32.8793C19.9531 33.0532 20.1547 33.2271 20.3623 33.4063C23.0186 35.854 25.0408 39.4995 25.3029 43.1424C25.3063 43.8213 25.2904 44.4895 25.2416 45.1664C24.5598 45.425 24.2755 45.4595 23.5862 45.1858C23.3722 45.0662 23.1582 44.9466 22.9378 44.8233C21.8787 44.2584 20.9164 43.8764 19.7516 43.5979C19.6222 44.1155 19.6222 44.1155 19.4902 44.6436C19.7382 44.6597 19.9862 44.6759 20.2418 44.6926C22.6945 45.0578 24.7656 46.6718 26.5487 48.3036C26.635 48.4761 26.7213 48.6486 26.8102 48.8264C26.6426 48.8106 26.475 48.7947 26.3024 48.7784C22.8753 48.4632 19.469 48.2527 16.0263 48.2545C15.7172 48.2544 15.408 48.2542 15.0896 48.254C13.7326 48.2627 12.4619 48.3168 11.1245 48.565C10.9951 48.9532 10.9951 48.9532 10.8631 49.3493C11.1831 49.3465 11.5031 49.3438 11.8328 49.341C13.0387 49.3314 14.2446 49.3255 15.4505 49.3205C15.9689 49.3179 16.4874 49.3144 17.0058 49.3098C20.0617 49.2836 23.0093 49.3479 26.0259 49.8721C23.3802 52.6023 19.7918 53.7686 16.0518 53.8385C14.496 53.8496 12.9413 53.8306 11.3859 53.7935C11.3859 54.1386 11.3859 54.4837 11.3859 54.8392C7.76095 54.3445 2.79704 52.5246 0.144531 49.8721C0.173253 49.2322 0.173253 49.2322 0.405959 48.565C0.884775 48.1618 0.884775 48.1618 1.51498 47.8246C1.74846 47.6978 1.98194 47.5711 2.22249 47.4405C2.6012 47.2449 2.6012 47.2449 2.98756 47.0454C3.24391 46.9092 3.50026 46.7729 3.76437 46.6326C5.8652 45.5347 8.01415 44.5872 10.2146 43.7092C11.0656 43.429 11.0656 43.429 11.3859 43.075C11.2117 42.9763 11.0375 42.8775 10.858 42.7758C5.41965 39.528 2.25456 34.0021 0.144531 28.1736C0.342359 26.7493 0.833551 26.82 2.18694 26.8011Z" fill="url(#paint1_linear_2011_2458)" style=""/>
<path d="M24.9802 16.1479C28.2183 17.0368 31.0188 19.6649 32.823 22.4222C34.9635 26.2276 35.8063 29.7867 34.751 34.1048C34.2417 35.8509 33.496 37.3409 32.5616 38.8922C32.1425 39.6363 32.1428 39.6363 32.0391 40.4607C29.7844 40.1126 27.4585 37.6269 26.0364 35.9644C23.7908 32.8798 23.0463 29.7298 23.0521 25.9678C23.0524 25.6966 23.0526 25.4253 23.0528 25.1459C23.0993 22.0655 23.4755 18.8814 24.9802 16.1479Z" fill="url(#paint2_linear_2011_2458)" style=""/>
<path d="M53.9986 22.6837C54.4259 23.1109 54.315 23.5805 54.3254 24.1705C54.2712 28.8206 52.5838 33.2891 49.2602 36.5638C47.2113 38.2813 44.8436 39.3083 42.2264 39.762C40.3525 40.0457 40.3525 40.0457 38.7654 40.9866C38.3503 41.6668 38.0696 42.3291 37.7901 43.075C37.5136 43.6475 37.2357 44.2193 36.9568 44.7906C36.3585 46.1159 35.8613 47.4363 35.4372 48.8264C34.7902 48.9558 34.7902 48.9558 34.1301 49.0879C34.7441 46.4486 35.6042 43.7915 37.1774 41.5636C37.9686 40.326 37.9623 39.2011 37.9535 37.7648C37.9971 35.77 38.0892 33.971 38.8358 32.095C38.9214 31.8773 39.007 31.6596 39.0952 31.4353C39.9046 29.6213 41.1029 28.2643 42.4958 26.8665C42.7086 26.6446 42.7086 26.6446 42.9257 26.4182C45.7878 23.6865 50.1178 22.3462 53.9986 22.6837ZM42.7572 27.9449C40.5285 30.3297 38.9965 33.4838 39.0645 36.7844C39.0693 37.0833 39.074 37.3822 39.0788 37.6902C39.0879 38.0264 39.0879 38.0264 39.0972 38.3693C40.4013 37.3996 41.3378 36.2627 42.3508 34.9973C43.5438 33.5279 44.8542 32.1606 46.1558 30.7879C46.3853 30.5443 46.6148 30.3006 46.8512 30.0496C47.0585 29.8349 47.2657 29.6202 47.4792 29.3991C47.6602 29.2114 47.8412 29.0237 48.0276 28.8303C48.5086 28.4351 48.5086 28.4351 49.2929 28.4351C48.9335 29.2464 48.5248 29.7833 47.8867 30.3968C47.7116 30.5675 47.5365 30.7382 47.3561 30.914C47.1703 31.0935 46.9845 31.2729 46.793 31.4578C45.3427 32.8812 43.9897 34.3093 42.7327 35.9072C41.9923 36.8464 41.1998 37.7381 40.4044 38.6307C41.9462 39.2118 43.6439 38.3743 45.1101 37.8465C46.0427 37.3972 46.8826 36.8789 47.7243 36.2779C47.8901 36.163 48.0559 36.0481 48.2268 35.9297C50.3659 34.2874 51.5905 31.7253 52.43 29.2193C52.489 29.0515 52.548 28.8837 52.6087 28.7108C53.1022 27.0842 52.9991 25.4127 52.9529 23.7294C49.1354 23.6175 45.5073 25.3906 42.7572 27.9449Z" fill="url(#paint3_linear_2011_2458)" style=""/>
<path d="M77.2655 35.755C77.4381 35.755 77.6106 35.755 77.7884 35.755C77.8518 35.9347 77.9151 36.1143 77.9804 36.2993C78.068 36.5349 78.1556 36.7705 78.2459 37.0132C78.3308 37.2467 78.4157 37.4802 78.5032 37.7208C78.8665 38.4328 79.2114 38.7309 79.8798 39.1536C79.7773 39.8715 79.6584 40.1606 79.1282 40.6731C78.4066 41.4159 78.1588 42.1121 77.7884 43.075C77.1261 42.7438 77.0831 42.4851 76.7917 41.8169C76.3236 40.8277 75.7922 40.3361 74.9127 39.6764C74.9127 39.4176 74.9127 39.1588 74.9127 38.8922C75.1068 38.7951 75.3009 38.6981 75.5009 38.5981C76.5491 37.8834 76.83 36.9157 77.2655 35.755Z" fill="url(#paint4_linear_2011_2458)" style=""/>
<path d="M14.4472 48.0166C14.7724 48.0174 15.0976 48.0183 15.4326 48.0191C15.7686 48.0213 16.1046 48.0235 16.4508 48.0258C16.7928 48.027 17.1349 48.0281 17.4873 48.0294C18.3291 48.0324 19.1709 48.0367 20.0127 48.0421C19.8509 48.1607 19.6892 48.2794 19.5225 48.4016C18.9515 48.8188 18.9515 48.8188 18.4441 49.3493C17.6888 49.4086 17.6888 49.4086 16.7346 49.4003C16.2241 49.3978 16.2241 49.3978 15.7032 49.3952C15.3424 49.3908 14.9816 49.3864 14.6208 49.3819C14.2579 49.3793 13.895 49.3769 13.5322 49.3748C12.6423 49.3686 11.7529 49.36 10.8631 49.3493C10.9493 49.0042 11.0353 48.6591 11.1242 48.3036C12.2473 48.0886 13.3044 48.0114 14.4472 48.0166Z" fill="url(#paint5_linear_2011_2458)" style=""/>
<path d="M14.5234 48.3035C17.3703 48.3035 20.2173 48.3035 23.1505 48.3035C23.0642 48.6486 22.9779 48.9937 22.8891 49.3493C20.1711 49.3789 17.4945 49.3283 14.7848 49.0878C14.6985 48.829 14.6122 48.5702 14.5234 48.3035Z" fill="url(#paint6_linear_2011_2458)" style=""/>
<path d="M30.9927 40.1993C31.3378 40.2856 31.6835 40.3718 32.0391 40.4607C32.2116 42.445 32.3835 44.4292 32.5613 46.4736C32.1299 46.4736 31.6986 46.4736 31.2541 46.4736C30.96 44.3778 30.9677 42.3113 30.9927 40.1993Z" fill="url(#paint7_linear_2011_2458)" style=""/>
<path d="M24.7192 19.0237C25.0166 19.9223 24.9508 20.5979 24.7846 21.5236C24.7219 21.8961 24.7219 21.8961 24.658 22.2762C24.4451 22.9875 24.2626 23.2876 23.6735 23.7294C23.501 23.7294 23.3284 23.7294 23.1507 23.7294C23.3706 20.8006 23.3706 20.8006 23.9349 19.5465C24.1938 19.374 24.4526 19.2014 24.7192 19.0237Z" fill="url(#paint8_linear_2011_2458)" style=""/>
<path d="M23.6735 39.1536C23.9323 39.2399 24.1911 39.3261 24.4578 39.415C24.7151 40.0512 24.7151 40.0512 24.9153 40.8365C24.984 41.095 25.0528 41.3535 25.1236 41.6198C25.2421 42.2907 25.2421 42.2907 24.9807 42.8136C24.6356 42.8136 24.2905 42.8136 23.9349 42.8136C23.6761 41.692 23.4173 40.5705 23.1507 39.415C23.3232 39.3287 23.4957 39.2425 23.6735 39.1536Z" fill="url(#paint9_linear_2011_2458)" style=""/>
<path d="M31.2546 33.4022C31.2893 33.6573 31.324 33.9124 31.3598 34.1752C31.4059 34.5078 31.4521 34.8405 31.4997 35.1832C31.5452 35.5137 31.5907 35.8443 31.6375 36.185C31.7523 37.0578 31.7523 37.0578 32.0389 37.8464C31.516 37.8464 31.516 37.8464 31.0912 37.4543C30.9726 37.3249 30.854 37.1955 30.7317 37.0622C30.6455 37.2347 30.5592 37.4072 30.4703 37.585C30.4052 37.0355 30.3465 36.4853 30.2906 35.9348C30.2572 35.6284 30.2239 35.3221 30.1895 35.0065C30.2089 34.1865 30.2089 34.1865 30.5796 33.685C30.9932 33.4022 30.9932 33.4022 31.2546 33.4022Z" fill="url(#paint10_linear_2011_2458)" style=""/>
<path d="M43.8448 51.938C44.3498 51.9426 44.3498 51.9426 44.865 51.9472C45.2023 51.9496 45.5396 51.9519 45.8872 51.9544C46.1484 51.9574 46.4095 51.9604 46.6786 51.9636C46.5923 52.3086 46.5061 52.6537 46.4172 53.0093C45.2957 53.0093 44.1741 53.0093 43.0186 53.0093C42.9324 52.7505 42.8461 52.4916 42.7572 52.225C43.0186 51.9636 43.0186 51.9636 43.8448 51.938Z" fill="url(#paint11_linear_2011_2458)" style=""/>
<path d="M32.0382 42.5521C32.1245 42.5521 32.2107 42.5521 32.2996 42.5521C32.3859 43.8462 32.4724 45.1403 32.5613 46.4736C32.1299 46.4736 31.6986 46.4736 31.2541 46.4736C31.1625 44.9464 31.2102 43.8977 32.0382 42.5521Z" fill="url(#paint12_linear_2011_2458)" style=""/>
<path d="M11.3859 53.7935C12.7327 53.7699 13.9792 53.8336 15.3075 54.055C15.2212 54.3138 15.135 54.5726 15.0461 54.8393C13.8383 54.8393 12.6303 54.8392 11.3859 54.8392C11.2997 54.6667 11.2135 54.4942 11.1247 54.3164C11.2109 54.1439 11.297 53.9713 11.3859 53.7935Z" fill="url(#paint13_linear_2011_2458)" style=""/>
<path d="M31.5161 45.6893C31.7749 45.6893 32.0337 45.6893 32.3004 45.6893C32.5515 46.4427 32.5895 46.9176 32.5782 47.699C32.5758 47.9103 32.5734 48.1216 32.571 48.3393C32.568 48.5 32.5649 48.6608 32.5618 48.8264C32.3893 48.8264 32.2167 48.8264 32.039 48.8264C31.9527 48.999 31.8664 49.1715 31.7775 49.3493C31.5328 48.5244 31.4885 47.7896 31.4998 46.9311C31.5021 46.6979 31.5045 46.4647 31.5069 46.2244C31.51 46.0478 31.513 45.8712 31.5161 45.6893Z" fill="url(#paint14_linear_2011_2458)" style=""/>
<path d="M34.653 28.6965C35.3534 29.7471 35.2166 30.3282 35.1758 31.5722C34.8272 31.5722 34.4787 31.5722 34.1301 31.5722C34.1301 30.7095 34.1301 29.8468 34.1301 28.9579C34.3026 28.8716 34.4752 28.7854 34.653 28.6965Z" fill="url(#paint15_linear_2011_2458)" style=""/>
<path d="M46.6786 44.905C46.9374 44.905 47.1962 44.905 47.4629 44.905C47.4629 45.5952 47.4629 46.2853 47.4629 46.9964C47.2904 46.9964 47.1178 46.9964 46.94 46.9964C46.8538 47.169 46.7675 47.3415 46.6786 47.5193C46.2888 46.7397 46.386 46.0249 46.4172 45.1664C46.5035 45.0802 46.5897 44.9939 46.6786 44.905Z" fill="url(#paint16_linear_2011_2458)" style=""/>
<path d="M23.4121 21.1151C23.4984 21.2876 23.5846 21.4602 23.6735 21.6379C23.9323 21.5517 24.1911 21.4654 24.4578 21.3765C24.5537 22.8144 24.5537 22.8144 24.0983 23.4352C23.6735 23.7293 23.6735 23.7294 23.1507 23.7294C23.2369 22.8666 23.3232 22.0039 23.4121 21.1151Z" fill="url(#paint17_linear_2011_2458)" style=""/>
<path d="M32.5613 48.3036C32.6476 48.3036 32.7338 48.3036 32.8227 48.3036C32.909 49.1663 32.9953 50.029 33.0841 50.9178C32.7391 50.7453 32.394 50.5727 32.0384 50.395C31.9522 50.5675 31.8659 50.7401 31.777 50.9178C31.7443 49.4146 31.7449 49.4146 32.039 48.8264C32.2115 48.8264 32.3841 48.8264 32.5618 48.8264C32.5618 48.6539 32.5613 48.4813 32.5613 48.3036Z" fill="url(#paint18_linear_2011_2458)" style=""/>
<path d="M30.209 32.095C30.5972 32.3539 30.5972 32.3539 30.9933 32.6179C30.907 33.2218 30.8207 33.8257 30.7318 34.4479C30.473 34.2753 30.2142 34.1028 29.9476 33.925C29.8822 33.1244 29.8822 33.1244 29.9476 32.3565C30.0338 32.2702 30.1201 32.1839 30.209 32.095Z" fill="url(#paint19_linear_2011_2458)" style=""/>
<path d="M51.6458 49.8721C51.9046 49.8721 52.1634 49.8721 52.4301 49.8721C52.6026 50.3898 52.7751 50.9074 52.9529 51.4407C52.5216 51.4407 52.0902 51.4407 51.6458 51.4407C51.5459 51.0077 51.4591 50.5716 51.3843 50.1336C51.4706 50.0473 51.5569 49.961 51.6458 49.8721Z" fill="url(#paint20_linear_2011_2458)" style=""/>
<path d="M30.2084 78.6292C30.2947 78.6292 30.381 78.6292 30.4699 78.6292C30.5454 78.8826 30.6208 79.136 30.6986 79.3971C30.8992 80.2256 30.8992 80.2256 31.5156 80.4592C31.5156 80.8043 31.5156 81.1493 31.5156 81.5049C31.1705 81.5049 30.8254 81.5049 30.4699 81.5049C30.3836 80.5559 30.2973 79.6069 30.2084 78.6292Z" fill="url(#paint21_linear_2011_2458)" style=""/>
<path d="M68.3772 32.6179C68.7223 32.7042 69.0673 32.7904 69.4229 32.8793C69.5092 33.4832 69.5954 34.0871 69.6843 34.7093C69.0373 34.4505 69.0373 34.4505 68.3772 34.1865C68.3772 33.6688 68.3772 33.1512 68.3772 32.6179Z" fill="url(#paint22_linear_2011_2458)" style=""/>
<path d="M31.2546 33.4022C31.3409 34.0923 31.4266 34.7825 31.5154 35.4936C31.0841 35.4936 30.6527 35.4936 30.2083 35.4936C30.1122 34.3077 30.1122 34.3077 30.5841 33.7126C30.9926 33.4022 30.9932 33.4022 31.2546 33.4022Z" fill="url(#paint23_linear_2011_2458)" style=""/>
<path d="M29.9475 30.7879C30.2063 30.8742 30.4651 30.9604 30.7318 31.0493C30.8181 31.567 30.9044 32.0846 30.9933 32.6179C30.7345 32.5316 30.4756 32.4454 30.2089 32.3565C29.9501 32.4859 29.9501 32.4859 29.6861 32.6179C29.7724 32.014 29.8586 31.4101 29.9475 30.7879Z" fill="url(#paint24_linear_2011_2458)" style=""/>
<path d="M9.03247 59.8064C13.3183 59.8003 17.6041 59.7957 21.8899 59.7928C23.8797 59.7915 25.8696 59.7896 27.8595 59.7867C29.5934 59.7841 31.3273 59.7824 33.0613 59.7818C33.9798 59.7814 34.8983 59.7806 35.8168 59.7787C36.8409 59.7766 37.8651 59.7766 38.8892 59.7767C39.3484 59.7753 39.3484 59.7753 39.8169 59.7739C40.2337 59.7744 40.2337 59.7744 40.659 59.7749C41.0226 59.7746 41.0226 59.7746 41.3936 59.7742C41.9724 59.8064 41.9724 59.8064 42.4952 60.0678C42.893 60.0897 43.2917 60.0959 43.69 60.0933C44.0413 60.0921 44.0413 60.0921 44.3998 60.0908C44.6448 60.0886 44.8898 60.0864 45.1422 60.0841C45.5127 60.0824 45.5127 60.0824 45.8907 60.0806C46.5018 60.0775 47.1128 60.0732 47.7238 60.0678C47.3542 61.0528 46.8924 61.942 46.384 62.8618C45.6527 64.319 45.2943 65.5081 45.6324 67.1264C46.2107 68.2831 46.9259 69.0073 47.9852 69.7406C49.391 70.2092 50.4621 70.1671 51.8086 69.6099C53.9269 68.2202 54.6416 66.0699 55.3052 63.7278C55.5316 63.9489 55.7581 64.1699 55.9914 64.3977C57.6069 65.7735 59.9281 67.216 62.1023 67.2897C63.5238 67.1529 64.4232 66.6224 65.4518 65.6395C66.1593 64.5682 66.304 63.9671 66.2851 62.6821C65.7675 61.388 65.7675 61.388 65.2394 60.0678C67.655 60.0678 70.0706 60.0678 72.5594 60.0678C71.6088 67.6728 66.8783 74.0726 60.9422 78.7109C57.6973 81.1614 54.005 83.0564 50.0766 84.1192C50.157 83.8871 50.157 83.8871 50.239 83.6504C51.2914 80.6221 51.2914 80.6221 50.8946 77.5171C50.3167 76.4882 49.7112 75.7202 48.5438 75.3378C46.2407 74.8957 44.5931 75.1762 42.5677 76.3539C41.9719 76.7996 41.5973 77.2278 41.1881 77.8449C40.4696 77.5409 40.0159 77.2099 39.4234 76.6848C37.8219 75.3382 36.1515 75.0751 34.0877 75.1428C32.9218 75.2807 32.4193 75.5041 31.5153 76.2763C30.4775 77.7304 30.3639 79.0563 30.6013 80.7911C30.7888 81.8229 31.0033 82.8391 31.2538 83.8577C26.2058 82.484 22.0013 80.0758 18.1824 76.5378C18.0304 76.3985 17.8783 76.2593 17.7216 76.1159C13.0657 71.8108 10.3435 66.7956 9.03247 60.5907C9.03247 60.3319 9.03247 60.073 9.03247 59.8064Z" fill="url(#paint25_linear_2011_2458)" style=""/>
<path d="M37.8713 76.5704C38.9979 77.1975 39.8142 77.9275 40.6653 78.8906C41.421 78.5457 41.984 78.1619 42.5933 77.5998C44.1071 76.2936 45.2958 75.8631 47.299 75.923C48.5618 76.0921 49.2395 76.6939 50.044 77.6325C50.8354 79.611 50.2403 81.3612 49.4527 83.2624C47.9627 86.2892 45.6401 88.5526 42.9691 90.5405C42.8137 90.6593 42.6583 90.7781 42.4982 90.9005C41.8328 91.3787 41.3558 91.6969 40.5243 91.7148C39.6752 91.3509 38.9804 90.851 38.2634 90.279C38.1153 90.1623 37.9671 90.0455 37.8145 89.9252C34.3604 87.1545 31.6541 84.0041 31.1395 79.4461C31.3177 78.173 31.7994 77.0862 32.8224 76.2763C34.5337 75.7059 36.2415 75.8 37.8713 76.5704Z" fill="url(#paint26_linear_2011_2458)" style=""/>
<path d="M22.8882 45.6893C23.1329 45.8305 23.3776 45.9717 23.6296 46.1172C24.9321 46.9052 25.8986 47.5882 26.8097 48.8264C26.5583 48.8027 26.5583 48.8027 26.3019 48.7784C22.8748 48.4632 19.4685 48.2527 16.0258 48.2545C15.7167 48.2544 15.4075 48.2542 15.0891 48.254C13.7321 48.2627 12.4614 48.3168 11.124 48.565C10.9946 48.9532 10.9946 48.9532 10.8626 49.3493C11.1826 49.3465 11.5026 49.3438 11.8323 49.341C13.0382 49.3314 14.2441 49.3255 15.45 49.3205C15.9684 49.3179 16.4869 49.3144 17.0053 49.3098C20.0612 49.2836 23.0088 49.3479 26.0254 49.8721C23.1557 52.8335 19.3601 53.7922 15.3434 53.8849C9.97463 53.9275 6.04778 52.2196 1.45117 49.6107C2.061 48.9345 2.68598 48.5418 3.48949 48.1187C3.73843 47.9876 3.98736 47.8564 4.24384 47.7213C4.50849 47.5845 4.77314 47.4478 5.0458 47.3069C5.31534 47.1669 5.58487 47.0269 5.86257 46.8827C11.2627 44.1147 17.2129 42.3415 22.8882 45.6893Z" fill="url(#paint27_linear_2011_2458)" style=""/>
<path d="M66.8082 29.4808C67.4925 30.0416 67.7542 30.5556 68.0173 31.3925C68.08 31.5856 68.1426 31.7787 68.2072 31.9776C69.323 36.1921 68.8094 40.7703 66.6775 44.5619C66.1139 45.488 65.5722 46.321 64.7168 46.9964C63.9284 47.1557 63.9284 47.1557 63.0828 47.1925C62.6602 47.2148 62.6602 47.2148 62.2291 47.2374C62.0148 47.2442 61.8005 47.2509 61.5796 47.2579C62.2357 43.9647 63.2765 40.9248 64.5414 37.8164C64.746 37.3287 64.746 37.3287 64.7168 36.8008C64.4579 36.7145 64.1991 36.6282 63.9325 36.5393C63.8277 36.8541 63.7229 37.1688 63.6149 37.4931C63.2694 38.5297 62.9226 39.5657 62.5753 40.6017C62.3687 41.2192 62.162 41.8366 61.9554 42.4541C61.8511 42.7648 61.7468 43.0755 61.6394 43.3957C61.5384 43.6976 61.4375 43.9996 61.3335 44.3107C61.2376 44.5967 61.1416 44.8827 61.0427 45.1774C60.8425 45.8035 60.6737 46.4223 60.5206 47.0608C60.4388 47.2984 60.3569 47.5359 60.2725 47.7807C59.3248 48.1565 59.3248 48.1565 58.4425 48.3036C57.1217 44.4681 57.6938 40.0598 59.3687 36.4556C60.5818 34.0628 63.5323 28.522 66.8082 29.4808Z" fill="url(#paint28_linear_2011_2458)" style=""/>
<path d="M52.9522 23.7294C53.2401 27.4657 52.2546 30.8746 50.0765 33.925C49.8824 34.2 49.6883 34.475 49.4883 34.7583C47.0485 37.2536 43.891 38.7148 40.4037 38.8922C41.431 37.4499 42.5523 36.1277 43.7471 34.8217C44.2396 34.2804 44.717 33.7307 45.1911 33.1734C46.1553 32.0584 47.2083 31.0344 48.2698 30.0129C48.6201 29.6707 48.9574 29.3153 49.2922 28.9579C49.2922 28.7854 49.2922 28.6128 49.2922 28.4351C48.3869 28.5876 47.9551 28.8897 47.3121 29.5359C47.0521 29.7957 47.0521 29.7957 46.7868 30.0607C46.6053 30.2467 46.4238 30.4328 46.2368 30.6245C46.0494 30.8143 45.862 31.0041 45.669 31.1996C44.452 32.445 43.3203 33.7201 42.2429 35.0882C41.3351 36.226 40.3726 37.3252 39.358 38.3693C39.2717 38.3693 39.1855 38.3693 39.0966 38.3693C38.8757 34.5652 39.8484 31.5115 42.2551 28.5494C44.9609 25.6059 48.8923 23.6104 52.9522 23.7294Z" fill="url(#paint29_linear_2011_2458)" style=""/>
<path d="M1.71291 28.9579C3.24328 29.3886 4.57488 30.1261 5.96111 30.8859C6.21451 31.0247 6.46791 31.1635 6.72899 31.3065C10.4123 33.3538 13.8606 35.7222 17.1371 38.3693C17.2741 38.4793 17.411 38.5893 17.552 38.7026C19.9227 40.6178 22.0708 42.7228 24.1957 44.905C23.2707 44.905 22.7416 44.6466 21.8919 44.2841C20.058 43.5616 18.3026 43.2892 16.3529 43.075C11.6899 42.5533 8.96656 40.4626 5.96111 36.9968C4.07946 34.6097 2.73335 31.8111 1.71291 28.9579Z" fill="url(#paint30_linear_2011_2458)" style=""/>
<path d="M2.7582 27.9122C9.98434 28.567 16.1273 29.9898 21.0581 35.755C22.757 38.0202 23.9427 40.4953 24.1953 43.3364C23.2255 42.5283 22.3056 41.7169 21.4339 40.8039C20.0909 39.4426 18.5815 38.303 17.0638 37.1458C16.6639 36.8391 16.2684 36.5267 15.8735 36.2135C11.8764 33.0971 7.31699 30.3905 2.7582 28.1736C2.7582 28.0874 2.7582 28.0011 2.7582 27.9122Z" fill="url(#paint31_linear_2011_2458)" style=""/>
<path d="M24.9791 18.7622C25.1516 18.7622 25.3242 18.7622 25.502 18.7622C28.1271 24.9261 30.4207 31.6161 30.7305 38.3693C27.6907 36.8184 25.7071 34.2061 24.6033 30.984C23.5912 27.0143 24.019 22.6996 24.9791 18.7622Z" fill="url(#paint32_linear_2011_2458)" style=""/>
<path d="M56.6128 57.1921C59.9336 57.5744 62.4197 58.623 64.7171 61.1135C65.3592 62.1519 65.3504 63.0624 65.2399 64.2507C65.0112 65.1655 64.6762 65.3252 63.8838 65.8846C62.8751 66.4013 62.2019 66.5297 61.0571 66.3421C59.0052 65.5751 57.2448 64.5911 56.09 62.6821C55.4852 61.3019 55.1884 60.2414 55.5671 58.7607C56.6879 58.7607 57.2519 59.3463 58.1405 59.9861C58.7059 60.3972 58.7059 60.3972 59.4885 60.3292C59.1572 59.3353 58.7693 59.1773 57.9036 58.6136C57.4645 58.3272 57.0316 58.0304 56.6128 57.715C56.6128 57.5424 56.6128 57.3699 56.6128 57.1921Z" fill="url(#paint33_linear_2011_2458)" style=""/>
<path d="M51.384 42.5521C53.0101 43.4302 54.037 44.5841 54.6417 46.3449C55.1712 48.7932 54.7998 51.1944 53.9983 53.5321C53.8258 53.5321 53.6532 53.5321 53.4754 53.5321C53.3002 53.0205 53.1261 52.5084 52.9526 51.9962C52.8555 51.7111 52.7585 51.426 52.6585 51.1323C52.4297 50.395 52.4297 50.395 52.4297 49.8721C52.1709 49.9584 51.9121 50.0447 51.6455 50.1335C51.8073 51.1692 52.1362 52.0785 52.5288 53.044C52.6912 53.5321 52.6912 53.5321 52.6912 54.3164C50.0417 53.133 48.7399 50.541 47.626 48.0094C47.3089 46.5506 47.2258 45.3786 47.9038 44.0227C48.9413 42.8449 49.7902 42.3244 51.384 42.5521Z" fill="url(#paint34_linear_2011_2458)" style=""/>
<path d="M51.9621 58.5973C52.1165 58.6512 52.2708 58.7051 52.4298 58.7607C51.5148 60.5907 51.5148 60.5907 50.5998 62.4206C51.0987 62.4003 51.0987 62.4003 51.6455 62.1592C52.1152 61.4989 52.1152 61.4989 52.4952 60.705C52.6313 60.4405 52.7675 60.1759 52.9077 59.9034C53.0088 59.6988 53.1099 59.4943 53.2141 59.2835C53.5592 59.2835 53.9043 59.2835 54.2598 59.2835C54.911 61.4995 54.678 63.987 53.737 66.0806C52.9395 67.4403 52.0303 68.5026 50.5998 69.2178C49.5448 69.3936 49.1336 69.276 48.198 68.7439C47.0189 67.8269 46.5294 67.3582 46.3026 65.8355C46.3329 63.7947 47.7852 61.6414 49.1426 60.1914C51.0178 58.4371 51.0178 58.4371 51.9621 58.5973Z" fill="url(#paint35_linear_2011_2458)" style=""/>
<path d="M65.0406 48.5047C65.6144 48.9054 65.7866 49.217 66.0241 49.8721C66.2421 51.114 66.1798 52.1605 65.4685 53.2217C64.1669 54.7916 62.5122 55.5386 60.5341 55.885C59.2224 55.9455 57.9253 55.9322 56.6127 55.885C56.5264 55.6261 56.4401 55.3673 56.3512 55.1007C56.5558 54.9935 56.7604 54.8863 56.9711 54.7759C57.2357 54.6351 57.5002 54.4942 57.7728 54.3491C58.0366 54.2095 58.3005 54.07 58.5724 53.9263C59.2535 53.5958 59.2535 53.5957 59.4884 53.0092C58.5863 53.122 57.9222 53.3941 57.1355 53.8262C56.3975 54.2148 56.1624 54.3224 55.3055 54.251C55.133 54.1863 54.9604 54.1216 54.7827 54.055C55.5385 51.3675 58.0812 49.8844 60.3544 48.5977C61.8383 48.1449 63.5489 47.9919 65.0406 48.5047Z" fill="url(#paint36_linear_2011_2458)" style=""/>
<path d="M26.287 17.9779C29.09 19.3795 31.1049 21.4948 32.5612 24.2522C32.694 24.4982 32.8268 24.7442 32.9636 24.9977C34.4279 28.1636 34.3793 31.993 33.2638 35.2649C32.8762 36.2358 32.5302 36.8728 31.777 37.585C31.7457 37.4282 31.7144 37.2713 31.6821 37.1097C31.5897 36.6472 31.4972 36.1848 31.4045 35.7224C31.3097 35.2486 31.2155 34.7748 31.1221 34.3008C30.0924 29.1183 28.7933 23.9202 26.5566 19.1135C26.287 18.5008 26.287 18.5008 26.287 17.9779Z" fill="url(#paint37_linear_2011_2458)" style=""/>
<path d="M50.8363 54.7034C51.0169 54.8345 51.1975 54.9656 51.3836 55.1007C51.3836 55.3595 51.3836 55.6183 51.3836 55.885C50.9316 55.8921 50.4795 55.8971 50.0275 55.9013C49.6499 55.9058 49.6499 55.9058 49.2646 55.9105C48.5456 55.8862 47.9002 55.7859 47.2008 55.6235C47.2008 55.9686 47.2008 56.3137 47.2008 56.6692C49.1419 56.9281 49.1419 56.9281 51.1222 57.1921C51.1222 57.3646 51.1222 57.5372 51.1222 57.715C48.3059 59.1163 44.9124 60.0022 41.8252 58.9731C41.0876 58.4246 40.612 57.9871 40.1422 57.1921C39.9823 56.0926 40.0687 55.5151 40.5507 54.5125C43.2184 51.5028 47.7869 53.15 50.8363 54.7034Z" fill="url(#paint38_linear_2011_2458)" style=""/>
<path d="M54.7823 55.1007C55.2725 55.4111 55.2725 55.4111 55.5666 55.885C55.6772 56.6225 55.6678 57.0194 55.2888 57.6659C54.5044 58.1467 53.8504 58.0566 52.9523 57.9764C52.6935 57.8038 52.4347 57.6313 52.168 57.4535C52.0537 56.6856 52.0537 56.6856 52.168 55.885C52.9273 55.0089 53.6644 54.958 54.7823 55.1007Z" fill="url(#paint39_linear_2011_2458)" style=""/>
<path d="M73.8669 59.0221C73.8669 59.1946 73.8669 59.3672 73.8669 59.545C73.6081 59.4587 73.3493 59.3724 73.0827 59.2835C72.3693 59.2433 71.6613 59.2163 70.9473 59.2008C70.7395 59.1954 70.5318 59.1899 70.3177 59.1843C69.6545 59.1673 68.9912 59.1518 68.3279 59.1365C67.8781 59.1252 67.4283 59.1138 66.9784 59.1023C65.8761 59.0743 64.7737 59.0478 63.6713 59.0221C63.6713 58.9358 63.6713 58.8496 63.6713 58.7607C64.9131 58.7102 66.155 58.6635 67.3971 58.6203C67.8193 58.605 68.2415 58.5888 68.6636 58.5715C69.2716 58.5468 69.8796 58.5257 70.4878 58.5054C70.6755 58.497 70.8631 58.4885 71.0565 58.4799C72.1211 58.4483 72.9104 58.5443 73.8669 59.0221Z" fill="url(#paint40_linear_2011_2458)" style=""/>
<path d="M46.6782 31.5722C46.8508 31.7447 47.0233 31.9173 47.2011 32.095C47.0393 32.1597 46.8776 32.2244 46.7109 32.2911C46.1194 32.5712 46.1194 32.5712 45.8939 33.1408C45.5684 33.7917 45.249 33.9216 44.5868 34.1865C45.0184 33.0643 45.8253 32.388 46.6782 31.5722ZM43.5411 34.9707C43.5411 35.2296 43.5411 35.4884 43.5411 35.755C43.1529 36.0138 43.1529 36.0138 42.7568 36.2779C43.247 35.2648 43.247 35.2649 43.5411 34.9707Z" fill="url(#paint41_linear_2011_2458)" style=""/>
<path d="M31.2542 48.3036C31.4267 48.3036 31.5992 48.3036 31.777 48.3036C31.9496 49.9427 32.1221 51.5819 32.2999 53.2707C31.8685 52.8393 31.4372 52.408 30.9927 51.9635C31.0417 51.0812 31.0417 51.0812 31.2542 50.1335C31.2638 49.5236 31.2666 48.9134 31.2542 48.3036Z" fill="url(#paint42_linear_2011_2458)" style=""/>
<path d="M39.0971 34.9707C39.3559 35.057 39.6147 35.1433 39.8813 35.2322C39.8813 35.6635 39.8813 36.0949 39.8813 36.5393C40.1402 36.5393 40.399 36.5393 40.6656 36.5393C40.2634 37.5115 40.0181 37.6782 39.0966 38.3693C39.0966 37.2478 39.0971 36.1263 39.0971 34.9707Z" fill="url(#paint43_linear_2011_2458)" style=""/>
<path d="M22.8882 25.2979C22.9745 25.2979 23.0607 25.2979 23.1496 25.2979C23.3222 27.1959 23.4947 29.0939 23.6725 31.0493C23.4999 31.0493 23.3274 31.0493 23.1496 31.0493C22.1591 29.3071 22.6457 27.2074 22.8882 25.2979Z" fill="url(#paint44_linear_2011_2458)" style=""/>
<path d="M77.2652 38.3693C77.6103 38.6281 77.9554 38.8869 78.3109 39.1536C78.1786 39.7206 78.0495 40.1992 77.7881 40.7222C77.6155 40.7222 77.443 40.7222 77.2652 40.7222C76.8404 40.0686 76.8404 40.0686 76.4809 39.415C76.7397 39.0699 76.9986 38.7249 77.2652 38.3693Z" fill="url(#paint45_linear_2011_2458)" style=""/>
<path d="M51.9072 59.2835C51.7683 60.4638 51.2886 61.2041 50.6 62.1592C50.4275 61.9867 50.255 61.8141 50.0772 61.6364C50.1226 60.7733 50.2866 60.3913 50.8451 59.7247C51.3843 59.2835 51.3843 59.2835 51.9072 59.2835Z" fill="url(#paint46_linear_2011_2458)" style=""/>
<path d="M1.71291 28.9579C3.01282 29.3479 4.17516 29.9002 5.3729 30.5265C5.3729 30.699 5.3729 30.8716 5.3729 31.0493C5.19497 30.9685 5.01703 30.8876 4.83371 30.8042C3.96912 30.4915 3.14672 30.3722 2.23577 30.265C2.06323 29.8337 1.89068 29.4023 1.71291 28.9579Z" fill="url(#paint47_linear_2011_2458)" style=""/>
<path d="M65.7621 60.8521C65.9346 60.8521 66.1071 60.8521 66.2849 60.8521C66.9819 62.0427 67.1517 62.8754 67.0692 64.2507C66.8104 64.3369 66.5516 64.4232 66.2849 64.5121C66.2957 64.2479 66.3065 63.9837 66.3176 63.7115C66.2834 62.6348 66.0934 61.8669 65.7621 60.8521Z" fill="url(#paint48_linear_2011_2458)" style=""/>
<path d="M49.5539 54.8392C49.7264 54.8392 49.8989 54.8392 50.0767 54.8392C50.0767 55.0118 50.0767 55.1843 50.0767 55.3621C50.5081 55.2758 50.9392 55.1896 51.3836 55.1007C51.3836 55.3595 51.3836 55.6183 51.3836 55.885C50.4346 55.885 49.4859 55.885 48.5082 55.885C48.5082 55.7124 48.5082 55.5399 48.5082 55.3621C48.8532 55.3621 49.1983 55.3621 49.5539 55.3621C49.5539 55.1896 49.5539 55.017 49.5539 54.8392Z" fill="url(#paint49_linear_2011_2458)" style=""/>
<path d="M2.7582 27.9122C3.87973 27.9985 5.00125 28.0847 6.15676 28.1736C5.76854 28.5618 5.76854 28.5618 5.37248 28.9579C5.28621 29.1304 5.19994 29.303 5.11105 29.4808C4.33461 29.0494 3.55817 28.6181 2.7582 28.1736C2.7582 28.0874 2.7582 28.0011 2.7582 27.9122Z" fill="url(#paint50_linear_2011_2458)" style=""/>
<path d="M28.6398 17.9779C29.4168 18.2719 30.0344 18.5591 30.7313 19.0237C30.7313 19.1962 30.7313 19.3687 30.7313 19.5465C30.9901 19.6328 31.2489 19.7191 31.5156 19.8079C31.6018 20.2393 31.6881 20.6707 31.777 21.1151C31.599 20.9318 31.4211 20.7484 31.2378 20.5595C30.5283 19.846 29.7691 19.2031 28.9942 18.5621C28.8773 18.4556 28.7603 18.3491 28.6398 18.2394C28.6398 18.1531 28.6398 18.0668 28.6398 17.9779Z" fill="url(#paint51_linear_2011_2458)" style=""/>
<path d="M62.8867 43.5979C62.973 43.7704 63.0592 43.9429 63.1481 44.1207C62.9756 44.1207 62.803 44.1207 62.6253 44.1207C62.6307 44.4442 62.6361 44.7678 62.6416 45.1011C62.643 45.8629 62.607 46.5283 62.3638 47.2579C62.105 47.2579 61.8463 47.2579 61.5796 47.2579C61.6968 46.6963 61.8171 46.1354 61.939 45.5749C62.0058 45.2625 62.0725 44.9501 62.1412 44.6283C62.2514 44.2476 62.2514 44.2476 62.3638 43.8593C62.5364 43.773 62.7089 43.6867 62.8867 43.5979Z" fill="url(#paint52_linear_2011_2458)" style=""/>
<path d="M54.2597 66.8649C54.346 67.1237 54.4323 67.3826 54.5212 67.6492C54.1329 67.908 54.1329 67.908 53.7369 68.1721C53.9094 67.7407 54.082 67.3094 54.2597 66.8649ZM53.4754 68.1721C53.648 68.3446 53.8205 68.5172 53.9983 68.6949C52.4951 70.0021 52.4951 70.0021 51.9069 70.0021C51.9069 69.8295 51.9069 69.657 51.9069 69.4792C52.4191 69.031 52.9418 68.5945 53.4754 68.1721Z" fill="url(#paint53_linear_2011_2458)" style=""/>
<path d="M51.3845 58.4992C51.6434 58.5855 51.9022 58.6718 52.1688 58.7607C51.8237 58.8469 51.4786 58.9332 51.1231 59.0221C51.2094 58.8495 51.2957 58.677 51.3845 58.4992ZM50.6003 59.0221C50.7728 59.1084 50.9453 59.1946 51.1231 59.2835C50.6055 59.5423 50.6055 59.5423 50.0774 59.8064C50.2499 59.5476 50.4225 59.2887 50.6003 59.0221ZM50.0774 59.8064C49.7193 60.6328 49.5574 60.8502 48.7703 61.3749C48.7703 60.5907 48.7703 60.5907 49.1297 60.1495C49.5545 59.8064 49.5545 59.8064 50.0774 59.8064Z" fill="url(#paint54_linear_2011_2458)" style=""/>
<path d="M51.1222 57.1921C51.1222 57.3646 51.1222 57.5372 51.1222 57.715C50.7479 57.8978 50.3719 58.0768 49.995 58.2542C49.681 58.4043 49.681 58.4043 49.3608 58.5575C48.7695 58.7607 48.7695 58.7607 47.9852 58.4992C48.5029 58.3267 49.0205 58.1542 49.5538 57.9764C49.5538 57.8038 49.5538 57.6313 49.5538 57.4535C50.0767 57.1921 50.0765 57.1921 51.1222 57.1921Z" fill="url(#paint55_linear_2011_2458)" style=""/>
<path d="M14.8655 43.8103C15.7371 43.8546 16.1581 43.9232 16.8752 44.3821C16.0861 44.7767 15.3922 44.6894 14.5224 44.6436C14.2636 44.471 14.0048 44.2985 13.7381 44.1207C13.9995 43.8593 13.9995 43.8593 14.8655 43.8103Z" fill="url(#paint56_linear_2011_2458)" style=""/>
<path d="M61.5792 41.7679C61.8887 42.6966 61.761 42.9961 61.4648 43.9083C61.3897 44.1439 61.3145 44.3794 61.2371 44.6221C61.1774 44.8017 61.1178 44.9814 61.0563 45.1664C60.8838 44.9939 60.7112 44.8213 60.5335 44.6436C60.6001 43.4448 60.7582 42.6602 61.5792 41.7679Z" fill="url(#paint57_linear_2011_2458)" style=""/>
<path d="M27.0713 23.2065C27.5254 23.8876 27.7748 24.4047 28.0353 25.1672C28.1064 25.3694 28.1775 25.5716 28.2508 25.7799C28.3785 26.3436 28.3785 26.3436 28.117 27.1279C28.0308 26.7828 27.9445 26.4377 27.8556 26.0822C27.6831 26.0822 27.5105 26.0822 27.3328 26.0822C27.2383 25.6523 27.1462 25.222 27.055 24.7914C27.0034 24.5518 26.9519 24.3122 26.8987 24.0653C26.8694 23.8682 26.8401 23.671 26.8099 23.4679C26.8962 23.3817 26.9824 23.2954 27.0713 23.2065Z" fill="url(#paint58_linear_2011_2458)" style=""/>
<path d="M68.8991 41.5064C69.0716 41.679 69.2441 41.8515 69.4219 42.0293C69.3239 42.7155 69.3239 42.7155 69.1605 43.3364C68.9879 43.3364 68.8154 43.3364 68.6376 43.3364C68.4651 43.8541 68.2926 44.3717 68.1148 44.905C67.9422 44.8187 67.7697 44.7325 67.5919 44.6436C68.0233 43.6083 68.4546 42.5731 68.8991 41.5064Z" fill="url(#paint59_linear_2011_2458)" style=""/>
<path d="M30.4697 81.5049C30.9006 82.2805 31.1081 82.9836 31.2538 83.8577C30.8225 83.7715 30.3913 83.6852 29.9469 83.5963C30.1756 81.799 30.1756 81.799 30.4697 81.5049Z" fill="url(#paint60_linear_2011_2458)" style=""/>
<path d="M56.6123 47.5193C56.8711 47.6056 57.1299 47.6918 57.3966 47.7807C57.4829 48.2121 57.5691 48.6434 57.658 49.0878C57.2698 49.3467 57.2698 49.3467 56.8737 49.6107C56.7012 49.5244 56.5287 49.4382 56.3509 49.3493C56.4372 48.7454 56.5234 48.1415 56.6123 47.5193Z" fill="url(#paint61_linear_2011_2458)" style=""/>
<path d="M42.7568 75.4921C42.9294 75.6646 43.1019 75.8371 43.2797 76.0149C43.1506 76.1032 43.0216 76.1915 42.8886 76.2825C42.7211 76.3991 42.5536 76.5157 42.381 76.6358C42.2142 76.751 42.0474 76.8663 41.8755 76.985C41.4138 77.3015 41.4136 77.3015 41.1881 77.8449C40.9293 77.7586 40.6706 77.6724 40.404 77.5835C41.1498 76.817 41.8813 76.1082 42.7568 75.4921Z" fill="url(#paint62_linear_2011_2458)" style=""/>
<path d="M33.0842 49.8721C33.343 49.8721 33.6018 49.8721 33.8685 49.8721C33.7822 50.9074 33.6959 51.9426 33.6071 53.0093C32.9918 51.7788 33.0395 51.2134 33.0842 49.8721Z" fill="url(#paint63_linear_2011_2458)" style=""/>
<path d="M61.8569 56.6856C62.3635 56.9307 62.3635 56.9307 62.6903 57.6006C62.755 57.8109 62.8197 58.0212 62.8863 58.2378C61.7217 57.7202 61.7217 57.7202 60.5335 57.1921C61.3178 56.6693 61.3178 56.6693 61.8569 56.6856Z" fill="url(#paint64_linear_2011_2458)" style=""/>
<path d="M53.7368 51.7021C53.9093 51.7884 54.0818 51.8747 54.2596 51.9636C54.1733 52.4812 54.0872 52.9988 53.9983 53.5321C53.8258 53.5321 53.6532 53.5321 53.4754 53.5321C53.3892 53.0145 53.3028 52.4969 53.2139 51.9636C53.3864 51.8773 53.559 51.791 53.7368 51.7021Z" fill="url(#paint65_linear_2011_2458)" style=""/>
<path d="M3.01974 48.3036C3.19228 48.3898 3.36482 48.4761 3.54259 48.565C3.11124 48.9963 2.67988 49.4277 2.23546 49.8721C1.97664 49.6996 1.71783 49.527 1.45117 49.3493C1.9688 49.0042 2.48643 48.6591 3.01974 48.3036Z" fill="url(#paint66_linear_2011_2458)" style=""/>
<path d="M25.2414 47.7807C25.7315 47.8624 25.7315 47.8624 26.2871 48.0421C26.4596 48.3009 26.6319 48.5598 26.8097 48.8264C26.2058 48.7401 25.6021 48.6539 24.9799 48.565C25.0662 48.3062 25.1525 48.0474 25.2414 47.7807Z" fill="url(#paint67_linear_2011_2458)" style=""/>
<path d="M2.7582 31.0493C2.93074 31.0493 3.10329 31.0493 3.28106 31.0493C3.62614 31.7395 3.97123 32.4297 4.32677 33.1408C4.06795 33.1408 3.80914 33.1408 3.54248 33.1408C2.7582 31.6375 2.7582 31.6375 2.7582 31.0493Z" fill="url(#paint68_linear_2011_2458)" style=""/>
<path d="M32.2995 0.200844C32.2133 0.373387 32.127 0.545929 32.0381 0.7237C31.7793 0.7237 31.5205 0.7237 31.2538 0.7237C31.0813 1.06878 30.9088 1.41387 30.731 1.76941C30.731 1.25178 30.731 0.734157 30.731 0.200844C31.3822 -0.124755 31.6227 -0.00222167 32.2995 0.200844Z" fill="url(#paint69_linear_2011_2458)" style=""/>
<path d="M9.55493 66.0806C10.0195 66.7775 10.3067 67.3951 10.6006 68.1721C10.0941 67.9923 10.0941 67.9923 9.55493 67.6492C9.34252 66.9793 9.34252 66.9793 9.2935 66.3421C9.37978 66.2558 9.46605 66.1695 9.55493 66.0806Z" fill="url(#paint70_linear_2011_2458)" style=""/>
<path d="M56.6128 57.1921C57.7775 57.4509 57.7773 57.4509 58.9655 57.715C57.9198 57.9764 57.9198 57.9764 57.3969 57.715C57.3106 57.8875 57.2244 58.06 57.1355 58.2378C56.9629 57.8927 56.7906 57.5476 56.6128 57.1921Z" fill="url(#paint71_linear_2011_2458)" style=""/>
<path d="M65.5007 54.3164C65.7596 54.4027 66.0184 54.4889 66.285 54.5778C65.8968 54.966 65.8968 54.966 65.5007 55.3621C65.2419 55.2758 64.9831 55.1896 64.7165 55.1007C64.9753 54.8419 65.2341 54.5831 65.5007 54.3164ZM64.1936 55.3621C64.3662 55.4484 64.5387 55.5346 64.7165 55.6235C64.4577 55.6235 64.1988 55.6235 63.9322 55.6235C64.0185 55.5373 64.1047 55.451 64.1936 55.3621Z" fill="url(#paint72_linear_2011_2458)" style=""/>
<path d="M41.7111 37.8465C42.0562 38.1053 42.4013 38.3641 42.7568 38.6307C41.5922 38.7601 41.5919 38.7601 40.4037 38.8922C41.188 38.1079 41.1883 38.1079 41.7111 37.8465Z" fill="url(#paint73_linear_2011_2458)" style=""/>
<path d="M52.1682 28.435C52.4964 29.4197 52.2651 29.8394 51.9068 30.7879C51.7343 30.7879 51.5617 30.7879 51.384 30.7879C51.58 29.0233 51.58 29.0233 52.1682 28.435Z" fill="url(#paint74_linear_2011_2458)" style=""/>
<defs>
<linearGradient id="paint0_linear_2011_2458" x1="40.0122" y1="16.1479" x2="40.0122" y2="93" gradientUnits="userSpaceOnUse">
<stop stop-color="#FFA488" style="stop-color:#FFA488;stop-color:color(display-p3 1.0000 0.6445 0.5323);stop-opacity:1;"/>
<stop offset="1" stop-color="#FFBAB5" style="stop-color:#FFBAB5;stop-color:color(display-p3 1.0000 0.7304 0.7079);stop-opacity:1;"/>
</linearGradient>
<linearGradient id="paint1_linear_2011_2458" x1="40.0122" y1="16.1479" x2="40.0122" y2="93" gradientUnits="userSpaceOnUse">
<stop stop-color="#FFA488" style="stop-color:#FFA488;stop-color:color(display-p3 1.0000 0.6445 0.5323);stop-opacity:1;"/>
<stop offset="1" stop-color="#FFBAB5" style="stop-color:#FFBAB5;stop-color:color(display-p3 1.0000 0.7304 0.7079);stop-opacity:1;"/>
</linearGradient>
<linearGradient id="paint2_linear_2011_2458" x1="40.0122" y1="16.1479" x2="40.0122" y2="93" gradientUnits="userSpaceOnUse">
<stop stop-color="#FFA488" style="stop-color:#FFA488;stop-color:color(display-p3 1.0000 0.6445 0.5323);stop-opacity:1;"/>
<stop offset="1" stop-color="#FFBAB5" style="stop-color:#FFBAB5;stop-color:color(display-p3 1.0000 0.7304 0.7079);stop-opacity:1;"/>
</linearGradient>
<linearGradient id="paint3_linear_2011_2458" x1="40.0122" y1="16.1479" x2="40.0122" y2="93" gradientUnits="userSpaceOnUse">
<stop stop-color="#FFA488" style="stop-color:#FFA488;stop-color:color(display-p3 1.0000 0.6445 0.5323);stop-opacity:1;"/>
<stop offset="1" stop-color="#FFBAB5" style="stop-color:#FFBAB5;stop-color:color(display-p3 1.0000 0.7304 0.7079);stop-opacity:1;"/>
</linearGradient>
<linearGradient id="paint4_linear_2011_2458" x1="40.0122" y1="16.1479" x2="40.0122" y2="93" gradientUnits="userSpaceOnUse">
<stop stop-color="#FFA488" style="stop-color:#FFA488;stop-color:color(display-p3 1.0000 0.6445 0.5323);stop-opacity:1;"/>
<stop offset="1" stop-color="#FFBAB5" style="stop-color:#FFBAB5;stop-color:color(display-p3 1.0000 0.7304 0.7079);stop-opacity:1;"/>
</linearGradient>
<linearGradient id="paint5_linear_2011_2458" x1="40.0122" y1="16.1479" x2="40.0122" y2="93" gradientUnits="userSpaceOnUse">
<stop stop-color="#FFA488" style="stop-color:#FFA488;stop-color:color(display-p3 1.0000 0.6445 0.5323);stop-opacity:1;"/>
<stop offset="1" stop-color="#FFBAB5" style="stop-color:#FFBAB5;stop-color:color(display-p3 1.0000 0.7304 0.7079);stop-opacity:1;"/>
</linearGradient>
<linearGradient id="paint6_linear_2011_2458" x1="40.0122" y1="16.1479" x2="40.0122" y2="93" gradientUnits="userSpaceOnUse">
<stop stop-color="#FFA488" style="stop-color:#FFA488;stop-color:color(display-p3 1.0000 0.6445 0.5323);stop-opacity:1;"/>
<stop offset="1" stop-color="#FFBAB5" style="stop-color:#FFBAB5;stop-color:color(display-p3 1.0000 0.7304 0.7079);stop-opacity:1;"/>
</linearGradient>
<linearGradient id="paint7_linear_2011_2458" x1="40.0122" y1="16.1479" x2="40.0122" y2="93" gradientUnits="userSpaceOnUse">
<stop stop-color="#FFA488" style="stop-color:#FFA488;stop-color:color(display-p3 1.0000 0.6445 0.5323);stop-opacity:1;"/>
<stop offset="1" stop-color="#FFBAB5" style="stop-color:#FFBAB5;stop-color:color(display-p3 1.0000 0.7304 0.7079);stop-opacity:1;"/>
</linearGradient>
<linearGradient id="paint8_linear_2011_2458" x1="40.0122" y1="16.1479" x2="40.0122" y2="93" gradientUnits="userSpaceOnUse">
<stop stop-color="#FFA488" style="stop-color:#FFA488;stop-color:color(display-p3 1.0000 0.6445 0.5323);stop-opacity:1;"/>
<stop offset="1" stop-color="#FFBAB5" style="stop-color:#FFBAB5;stop-color:color(display-p3 1.0000 0.7304 0.7079);stop-opacity:1;"/>
</linearGradient>
<linearGradient id="paint9_linear_2011_2458" x1="40.0122" y1="16.1479" x2="40.0122" y2="93" gradientUnits="userSpaceOnUse">
<stop stop-color="#FFA488" style="stop-color:#FFA488;stop-color:color(display-p3 1.0000 0.6445 0.5323);stop-opacity:1;"/>
<stop offset="1" stop-color="#FFBAB5" style="stop-color:#FFBAB5;stop-color:color(display-p3 1.0000 0.7304 0.7079);stop-opacity:1;"/>
</linearGradient>
<linearGradient id="paint10_linear_2011_2458" x1="40.0122" y1="16.1479" x2="40.0122" y2="93" gradientUnits="userSpaceOnUse">
<stop stop-color="#FFA488" style="stop-color:#FFA488;stop-color:color(display-p3 1.0000 0.6445 0.5323);stop-opacity:1;"/>
<stop offset="1" stop-color="#FFBAB5" style="stop-color:#FFBAB5;stop-color:color(display-p3 1.0000 0.7304 0.7079);stop-opacity:1;"/>
</linearGradient>
<linearGradient id="paint11_linear_2011_2458" x1="40.0122" y1="16.1479" x2="40.0122" y2="93" gradientUnits="userSpaceOnUse">
<stop stop-color="#FFA488" style="stop-color:#FFA488;stop-color:color(display-p3 1.0000 0.6445 0.5323);stop-opacity:1;"/>
<stop offset="1" stop-color="#FFBAB5" style="stop-color:#FFBAB5;stop-color:color(display-p3 1.0000 0.7304 0.7079);stop-opacity:1;"/>
</linearGradient>
<linearGradient id="paint12_linear_2011_2458" x1="40.0122" y1="16.1479" x2="40.0122" y2="93" gradientUnits="userSpaceOnUse">
<stop stop-color="#FFA488" style="stop-color:#FFA488;stop-color:color(display-p3 1.0000 0.6445 0.5323);stop-opacity:1;"/>
<stop offset="1" stop-color="#FFBAB5" style="stop-color:#FFBAB5;stop-color:color(display-p3 1.0000 0.7304 0.7079);stop-opacity:1;"/>
</linearGradient>
<linearGradient id="paint13_linear_2011_2458" x1="40.0122" y1="16.1479" x2="40.0122" y2="93" gradientUnits="userSpaceOnUse">
<stop stop-color="#FFA488" style="stop-color:#FFA488;stop-color:color(display-p3 1.0000 0.6445 0.5323);stop-opacity:1;"/>
<stop offset="1" stop-color="#FFBAB5" style="stop-color:#FFBAB5;stop-color:color(display-p3 1.0000 0.7304 0.7079);stop-opacity:1;"/>
</linearGradient>
<linearGradient id="paint14_linear_2011_2458" x1="40.0122" y1="16.1479" x2="40.0122" y2="93" gradientUnits="userSpaceOnUse">
<stop stop-color="#FFA488" style="stop-color:#FFA488;stop-color:color(display-p3 1.0000 0.6445 0.5323);stop-opacity:1;"/>
<stop offset="1" stop-color="#FFBAB5" style="stop-color:#FFBAB5;stop-color:color(display-p3 1.0000 0.7304 0.7079);stop-opacity:1;"/>
</linearGradient>
<linearGradient id="paint15_linear_2011_2458" x1="40.0122" y1="16.1479" x2="40.0122" y2="93" gradientUnits="userSpaceOnUse">
<stop stop-color="#FFA488" style="stop-color:#FFA488;stop-color:color(display-p3 1.0000 0.6445 0.5323);stop-opacity:1;"/>
<stop offset="1" stop-color="#FFBAB5" style="stop-color:#FFBAB5;stop-color:color(display-p3 1.0000 0.7304 0.7079);stop-opacity:1;"/>
</linearGradient>
<linearGradient id="paint16_linear_2011_2458" x1="40.0122" y1="16.1479" x2="40.0122" y2="93" gradientUnits="userSpaceOnUse">
<stop stop-color="#FFA488" style="stop-color:#FFA488;stop-color:color(display-p3 1.0000 0.6445 0.5323);stop-opacity:1;"/>
<stop offset="1" stop-color="#FFBAB5" style="stop-color:#FFBAB5;stop-color:color(display-p3 1.0000 0.7304 0.7079);stop-opacity:1;"/>
</linearGradient>
<linearGradient id="paint17_linear_2011_2458" x1="40.0122" y1="16.1479" x2="40.0122" y2="93" gradientUnits="userSpaceOnUse">
<stop stop-color="#FFA488" style="stop-color:#FFA488;stop-color:color(display-p3 1.0000 0.6445 0.5323);stop-opacity:1;"/>
<stop offset="1" stop-color="#FFBAB5" style="stop-color:#FFBAB5;stop-color:color(display-p3 1.0000 0.7304 0.7079);stop-opacity:1;"/>
</linearGradient>
<linearGradient id="paint18_linear_2011_2458" x1="40.0122" y1="16.1479" x2="40.0122" y2="93" gradientUnits="userSpaceOnUse">
<stop stop-color="#FFA488" style="stop-color:#FFA488;stop-color:color(display-p3 1.0000 0.6445 0.5323);stop-opacity:1;"/>
<stop offset="1" stop-color="#FFBAB5" style="stop-color:#FFBAB5;stop-color:color(display-p3 1.0000 0.7304 0.7079);stop-opacity:1;"/>
</linearGradient>
<linearGradient id="paint19_linear_2011_2458" x1="40.0122" y1="16.1479" x2="40.0122" y2="93" gradientUnits="userSpaceOnUse">
<stop stop-color="#FFA488" style="stop-color:#FFA488;stop-color:color(display-p3 1.0000 0.6445 0.5323);stop-opacity:1;"/>
<stop offset="1" stop-color="#FFBAB5" style="stop-color:#FFBAB5;stop-color:color(display-p3 1.0000 0.7304 0.7079);stop-opacity:1;"/>
</linearGradient>
<linearGradient id="paint20_linear_2011_2458" x1="40.0122" y1="16.1479" x2="40.0122" y2="93" gradientUnits="userSpaceOnUse">
<stop stop-color="#FFA488" style="stop-color:#FFA488;stop-color:color(display-p3 1.0000 0.6445 0.5323);stop-opacity:1;"/>
<stop offset="1" stop-color="#FFBAB5" style="stop-color:#FFBAB5;stop-color:color(display-p3 1.0000 0.7304 0.7079);stop-opacity:1;"/>
</linearGradient>
<linearGradient id="paint21_linear_2011_2458" x1="40.0122" y1="16.1479" x2="40.0122" y2="93" gradientUnits="userSpaceOnUse">
<stop stop-color="#FFA488" style="stop-color:#FFA488;stop-color:color(display-p3 1.0000 0.6445 0.5323);stop-opacity:1;"/>
<stop offset="1" stop-color="#FFBAB5" style="stop-color:#FFBAB5;stop-color:color(display-p3 1.0000 0.7304 0.7079);stop-opacity:1;"/>
</linearGradient>
<linearGradient id="paint22_linear_2011_2458" x1="40.0122" y1="16.1479" x2="40.0122" y2="93" gradientUnits="userSpaceOnUse">
<stop stop-color="#FFA488" style="stop-color:#FFA488;stop-color:color(display-p3 1.0000 0.6445 0.5323);stop-opacity:1;"/>
<stop offset="1" stop-color="#FFBAB5" style="stop-color:#FFBAB5;stop-color:color(display-p3 1.0000 0.7304 0.7079);stop-opacity:1;"/>
</linearGradient>
<linearGradient id="paint23_linear_2011_2458" x1="40.0122" y1="16.1479" x2="40.0122" y2="93" gradientUnits="userSpaceOnUse">
<stop stop-color="#FFA488" style="stop-color:#FFA488;stop-color:color(display-p3 1.0000 0.6445 0.5323);stop-opacity:1;"/>
<stop offset="1" stop-color="#FFBAB5" style="stop-color:#FFBAB5;stop-color:color(display-p3 1.0000 0.7304 0.7079);stop-opacity:1;"/>
</linearGradient>
<linearGradient id="paint24_linear_2011_2458" x1="40.0122" y1="16.1479" x2="40.0122" y2="93" gradientUnits="userSpaceOnUse">
<stop stop-color="#FFA488" style="stop-color:#FFA488;stop-color:color(display-p3 1.0000 0.6445 0.5323);stop-opacity:1;"/>
<stop offset="1" stop-color="#FFBAB5" style="stop-color:#FFBAB5;stop-color:color(display-p3 1.0000 0.7304 0.7079);stop-opacity:1;"/>
</linearGradient>
<linearGradient id="paint25_linear_2011_2458" x1="39.881" y1="0" x2="39.881" y2="91.7148" gradientUnits="userSpaceOnUse">
<stop stop-color="#FFD5D1" style="stop-color:#FFD5D1;stop-color:color(display-p3 1.0000 0.8369 0.8188);stop-opacity:1;"/>
<stop offset="1" stop-color="#FEEAE9" style="stop-color:#FEEAE9;stop-color:color(display-p3 0.9961 0.9176 0.9137);stop-opacity:1;"/>
</linearGradient>
<linearGradient id="paint26_linear_2011_2458" x1="39.881" y1="0" x2="39.881" y2="91.7148" gradientUnits="userSpaceOnUse">
<stop stop-color="#FFD5D1" style="stop-color:#FFD5D1;stop-color:color(display-p3 1.0000 0.8369 0.8188);stop-opacity:1;"/>
<stop offset="1" stop-color="#FEEAE9" style="stop-color:#FEEAE9;stop-color:color(display-p3 0.9961 0.9176 0.9137);stop-opacity:1;"/>
</linearGradient>
<linearGradient id="paint27_linear_2011_2458" x1="39.881" y1="0" x2="39.881" y2="91.7148" gradientUnits="userSpaceOnUse">
<stop stop-color="#FFD5D1" style="stop-color:#FFD5D1;stop-color:color(display-p3 1.0000 0.8369 0.8188);stop-opacity:1;"/>
<stop offset="1" stop-color="#FEEAE9" style="stop-color:#FEEAE9;stop-color:color(display-p3 0.9961 0.9176 0.9137);stop-opacity:1;"/>
</linearGradient>
<linearGradient id="paint28_linear_2011_2458" x1="39.881" y1="0" x2="39.881" y2="91.7148" gradientUnits="userSpaceOnUse">
<stop stop-color="#FFD5D1" style="stop-color:#FFD5D1;stop-color:color(display-p3 1.0000 0.8369 0.8188);stop-opacity:1;"/>
<stop offset="1" stop-color="#FEEAE9" style="stop-color:#FEEAE9;stop-color:color(display-p3 0.9961 0.9176 0.9137);stop-opacity:1;"/>
</linearGradient>
<linearGradient id="paint29_linear_2011_2458" x1="39.881" y1="0" x2="39.881" y2="91.7148" gradientUnits="userSpaceOnUse">
<stop stop-color="#FFD5D1" style="stop-color:#FFD5D1;stop-color:color(display-p3 1.0000 0.8369 0.8188);stop-opacity:1;"/>
<stop offset="1" stop-color="#FEEAE9" style="stop-color:#FEEAE9;stop-color:color(display-p3 0.9961 0.9176 0.9137);stop-opacity:1;"/>
</linearGradient>
<linearGradient id="paint30_linear_2011_2458" x1="39.881" y1="0" x2="39.881" y2="91.7148" gradientUnits="userSpaceOnUse">
<stop stop-color="#FFD5D1" style="stop-color:#FFD5D1;stop-color:color(display-p3 1.0000 0.8369 0.8188);stop-opacity:1;"/>
<stop offset="1" stop-color="#FEEAE9" style="stop-color:#FEEAE9;stop-color:color(display-p3 0.9961 0.9176 0.9137);stop-opacity:1;"/>
</linearGradient>
<linearGradient id="paint31_linear_2011_2458" x1="39.881" y1="0" x2="39.881" y2="91.7148" gradientUnits="userSpaceOnUse">
<stop stop-color="#FFD5D1" style="stop-color:#FFD5D1;stop-color:color(display-p3 1.0000 0.8369 0.8188);stop-opacity:1;"/>
<stop offset="1" stop-color="#FEEAE9" style="stop-color:#FEEAE9;stop-color:color(display-p3 0.9961 0.9176 0.9137);stop-opacity:1;"/>
</linearGradient>
<linearGradient id="paint32_linear_2011_2458" x1="39.881" y1="0" x2="39.881" y2="91.7148" gradientUnits="userSpaceOnUse">
<stop stop-color="#FFD5D1" style="stop-color:#FFD5D1;stop-color:color(display-p3 1.0000 0.8369 0.8188);stop-opacity:1;"/>
<stop offset="1" stop-color="#FEEAE9" style="stop-color:#FEEAE9;stop-color:color(display-p3 0.9961 0.9176 0.9137);stop-opacity:1;"/>
</linearGradient>
<linearGradient id="paint33_linear_2011_2458" x1="39.881" y1="0" x2="39.881" y2="91.7148" gradientUnits="userSpaceOnUse">
<stop stop-color="#FFD5D1" style="stop-color:#FFD5D1;stop-color:color(display-p3 1.0000 0.8369 0.8188);stop-opacity:1;"/>
<stop offset="1" stop-color="#FEEAE9" style="stop-color:#FEEAE9;stop-color:color(display-p3 0.9961 0.9176 0.9137);stop-opacity:1;"/>
</linearGradient>
<linearGradient id="paint34_linear_2011_2458" x1="39.881" y1="0" x2="39.881" y2="91.7148" gradientUnits="userSpaceOnUse">
<stop stop-color="#FFD5D1" style="stop-color:#FFD5D1;stop-color:color(display-p3 1.0000 0.8369 0.8188);stop-opacity:1;"/>
<stop offset="1" stop-color="#FEEAE9" style="stop-color:#FEEAE9;stop-color:color(display-p3 0.9961 0.9176 0.9137);stop-opacity:1;"/>
</linearGradient>
<linearGradient id="paint35_linear_2011_2458" x1="39.881" y1="0" x2="39.881" y2="91.7148" gradientUnits="userSpaceOnUse">
<stop stop-color="#FFD5D1" style="stop-color:#FFD5D1;stop-color:color(display-p3 1.0000 0.8369 0.8188);stop-opacity:1;"/>
<stop offset="1" stop-color="#FEEAE9" style="stop-color:#FEEAE9;stop-color:color(display-p3 0.9961 0.9176 0.9137);stop-opacity:1;"/>
</linearGradient>
<linearGradient id="paint36_linear_2011_2458" x1="39.881" y1="0" x2="39.881" y2="91.7148" gradientUnits="userSpaceOnUse">
<stop stop-color="#FFD5D1" style="stop-color:#FFD5D1;stop-color:color(display-p3 1.0000 0.8369 0.8188);stop-opacity:1;"/>
<stop offset="1" stop-color="#FEEAE9" style="stop-color:#FEEAE9;stop-color:color(display-p3 0.9961 0.9176 0.9137);stop-opacity:1;"/>
</linearGradient>
<linearGradient id="paint37_linear_2011_2458" x1="39.881" y1="0" x2="39.881" y2="91.7148" gradientUnits="userSpaceOnUse">
<stop stop-color="#FFD5D1" style="stop-color:#FFD5D1;stop-color:color(display-p3 1.0000 0.8369 0.8188);stop-opacity:1;"/>
<stop offset="1" stop-color="#FEEAE9" style="stop-color:#FEEAE9;stop-color:color(display-p3 0.9961 0.9176 0.9137);stop-opacity:1;"/>
</linearGradient>
<linearGradient id="paint38_linear_2011_2458" x1="39.881" y1="0" x2="39.881" y2="91.7148" gradientUnits="userSpaceOnUse">
<stop stop-color="#FFD5D1" style="stop-color:#FFD5D1;stop-color:color(display-p3 1.0000 0.8369 0.8188);stop-opacity:1;"/>
<stop offset="1" stop-color="#FEEAE9" style="stop-color:#FEEAE9;stop-color:color(display-p3 0.9961 0.9176 0.9137);stop-opacity:1;"/>
</linearGradient>
<linearGradient id="paint39_linear_2011_2458" x1="39.881" y1="0" x2="39.881" y2="91.7148" gradientUnits="userSpaceOnUse">
<stop stop-color="#FFD5D1" style="stop-color:#FFD5D1;stop-color:color(display-p3 1.0000 0.8369 0.8188);stop-opacity:1;"/>
<stop offset="1" stop-color="#FEEAE9" style="stop-color:#FEEAE9;stop-color:color(display-p3 0.9961 0.9176 0.9137);stop-opacity:1;"/>
</linearGradient>
<linearGradient id="paint40_linear_2011_2458" x1="39.881" y1="0" x2="39.881" y2="91.7148" gradientUnits="userSpaceOnUse">
<stop stop-color="#FFD5D1" style="stop-color:#FFD5D1;stop-color:color(display-p3 1.0000 0.8369 0.8188);stop-opacity:1;"/>
<stop offset="1" stop-color="#FEEAE9" style="stop-color:#FEEAE9;stop-color:color(display-p3 0.9961 0.9176 0.9137);stop-opacity:1;"/>
</linearGradient>
<linearGradient id="paint41_linear_2011_2458" x1="39.881" y1="0" x2="39.881" y2="91.7148" gradientUnits="userSpaceOnUse">
<stop stop-color="#FFD5D1" style="stop-color:#FFD5D1;stop-color:color(display-p3 1.0000 0.8369 0.8188);stop-opacity:1;"/>
<stop offset="1" stop-color="#FEEAE9" style="stop-color:#FEEAE9;stop-color:color(display-p3 0.9961 0.9176 0.9137);stop-opacity:1;"/>
</linearGradient>
<linearGradient id="paint42_linear_2011_2458" x1="39.881" y1="0" x2="39.881" y2="91.7148" gradientUnits="userSpaceOnUse">
<stop stop-color="#FFD5D1" style="stop-color:#FFD5D1;stop-color:color(display-p3 1.0000 0.8369 0.8188);stop-opacity:1;"/>
<stop offset="1" stop-color="#FEEAE9" style="stop-color:#FEEAE9;stop-color:color(display-p3 0.9961 0.9176 0.9137);stop-opacity:1;"/>
</linearGradient>
<linearGradient id="paint43_linear_2011_2458" x1="39.881" y1="0" x2="39.881" y2="91.7148" gradientUnits="userSpaceOnUse">
<stop stop-color="#FFD5D1" style="stop-color:#FFD5D1;stop-color:color(display-p3 1.0000 0.8369 0.8188);stop-opacity:1;"/>
<stop offset="1" stop-color="#FEEAE9" style="stop-color:#FEEAE9;stop-color:color(display-p3 0.9961 0.9176 0.9137);stop-opacity:1;"/>
</linearGradient>
<linearGradient id="paint44_linear_2011_2458" x1="39.881" y1="0" x2="39.881" y2="91.7148" gradientUnits="userSpaceOnUse">
<stop stop-color="#FFD5D1" style="stop-color:#FFD5D1;stop-color:color(display-p3 1.0000 0.8369 0.8188);stop-opacity:1;"/>
<stop offset="1" stop-color="#FEEAE9" style="stop-color:#FEEAE9;stop-color:color(display-p3 0.9961 0.9176 0.9137);stop-opacity:1;"/>
</linearGradient>
<linearGradient id="paint45_linear_2011_2458" x1="39.881" y1="0" x2="39.881" y2="91.7148" gradientUnits="userSpaceOnUse">
<stop stop-color="#FFD5D1" style="stop-color:#FFD5D1;stop-color:color(display-p3 1.0000 0.8369 0.8188);stop-opacity:1;"/>
<stop offset="1" stop-color="#FEEAE9" style="stop-color:#FEEAE9;stop-color:color(display-p3 0.9961 0.9176 0.9137);stop-opacity:1;"/>
</linearGradient>
<linearGradient id="paint46_linear_2011_2458" x1="39.881" y1="0" x2="39.881" y2="91.7148" gradientUnits="userSpaceOnUse">
<stop stop-color="#FFD5D1" style="stop-color:#FFD5D1;stop-color:color(display-p3 1.0000 0.8369 0.8188);stop-opacity:1;"/>
<stop offset="1" stop-color="#FEEAE9" style="stop-color:#FEEAE9;stop-color:color(display-p3 0.9961 0.9176 0.9137);stop-opacity:1;"/>
</linearGradient>
<linearGradient id="paint47_linear_2011_2458" x1="39.881" y1="0" x2="39.881" y2="91.7148" gradientUnits="userSpaceOnUse">
<stop stop-color="#FFD5D1" style="stop-color:#FFD5D1;stop-color:color(display-p3 1.0000 0.8369 0.8188);stop-opacity:1;"/>
<stop offset="1" stop-color="#FEEAE9" style="stop-color:#FEEAE9;stop-color:color(display-p3 0.9961 0.9176 0.9137);stop-opacity:1;"/>
</linearGradient>
<linearGradient id="paint48_linear_2011_2458" x1="39.881" y1="0" x2="39.881" y2="91.7148" gradientUnits="userSpaceOnUse">
<stop stop-color="#FFD5D1" style="stop-color:#FFD5D1;stop-color:color(display-p3 1.0000 0.8369 0.8188);stop-opacity:1;"/>
<stop offset="1" stop-color="#FEEAE9" style="stop-color:#FEEAE9;stop-color:color(display-p3 0.9961 0.9176 0.9137);stop-opacity:1;"/>
</linearGradient>
<linearGradient id="paint49_linear_2011_2458" x1="39.881" y1="0" x2="39.881" y2="91.7148" gradientUnits="userSpaceOnUse">
<stop stop-color="#FFD5D1" style="stop-color:#FFD5D1;stop-color:color(display-p3 1.0000 0.8369 0.8188);stop-opacity:1;"/>
<stop offset="1" stop-color="#FEEAE9" style="stop-color:#FEEAE9;stop-color:color(display-p3 0.9961 0.9176 0.9137);stop-opacity:1;"/>
</linearGradient>
<linearGradient id="paint50_linear_2011_2458" x1="39.881" y1="0" x2="39.881" y2="91.7148" gradientUnits="userSpaceOnUse">
<stop stop-color="#FFD5D1" style="stop-color:#FFD5D1;stop-color:color(display-p3 1.0000 0.8369 0.8188);stop-opacity:1;"/>
<stop offset="1" stop-color="#FEEAE9" style="stop-color:#FEEAE9;stop-color:color(display-p3 0.9961 0.9176 0.9137);stop-opacity:1;"/>
</linearGradient>
<linearGradient id="paint51_linear_2011_2458" x1="39.881" y1="0" x2="39.881" y2="91.7148" gradientUnits="userSpaceOnUse">
<stop stop-color="#FFD5D1" style="stop-color:#FFD5D1;stop-color:color(display-p3 1.0000 0.8369 0.8188);stop-opacity:1;"/>
<stop offset="1" stop-color="#FEEAE9" style="stop-color:#FEEAE9;stop-color:color(display-p3 0.9961 0.9176 0.9137);stop-opacity:1;"/>
</linearGradient>
<linearGradient id="paint52_linear_2011_2458" x1="39.881" y1="0" x2="39.881" y2="91.7148" gradientUnits="userSpaceOnUse">
<stop stop-color="#FFD5D1" style="stop-color:#FFD5D1;stop-color:color(display-p3 1.0000 0.8369 0.8188);stop-opacity:1;"/>
<stop offset="1" stop-color="#FEEAE9" style="stop-color:#FEEAE9;stop-color:color(display-p3 0.9961 0.9176 0.9137);stop-opacity:1;"/>
</linearGradient>
<linearGradient id="paint53_linear_2011_2458" x1="39.881" y1="0" x2="39.881" y2="91.7148" gradientUnits="userSpaceOnUse">
<stop stop-color="#FFD5D1" style="stop-color:#FFD5D1;stop-color:color(display-p3 1.0000 0.8369 0.8188);stop-opacity:1;"/>
<stop offset="1" stop-color="#FEEAE9" style="stop-color:#FEEAE9;stop-color:color(display-p3 0.9961 0.9176 0.9137);stop-opacity:1;"/>
</linearGradient>
<linearGradient id="paint54_linear_2011_2458" x1="39.881" y1="0" x2="39.881" y2="91.7148" gradientUnits="userSpaceOnUse">
<stop stop-color="#FFD5D1" style="stop-color:#FFD5D1;stop-color:color(display-p3 1.0000 0.8369 0.8188);stop-opacity:1;"/>
<stop offset="1" stop-color="#FEEAE9" style="stop-color:#FEEAE9;stop-color:color(display-p3 0.9961 0.9176 0.9137);stop-opacity:1;"/>
</linearGradient>
<linearGradient id="paint55_linear_2011_2458" x1="39.881" y1="0" x2="39.881" y2="91.7148" gradientUnits="userSpaceOnUse">
<stop stop-color="#FFD5D1" style="stop-color:#FFD5D1;stop-color:color(display-p3 1.0000 0.8369 0.8188);stop-opacity:1;"/>
<stop offset="1" stop-color="#FEEAE9" style="stop-color:#FEEAE9;stop-color:color(display-p3 0.9961 0.9176 0.9137);stop-opacity:1;"/>
</linearGradient>
<linearGradient id="paint56_linear_2011_2458" x1="39.881" y1="0" x2="39.881" y2="91.7148" gradientUnits="userSpaceOnUse">
<stop stop-color="#FFD5D1" style="stop-color:#FFD5D1;stop-color:color(display-p3 1.0000 0.8369 0.8188);stop-opacity:1;"/>
<stop offset="1" stop-color="#FEEAE9" style="stop-color:#FEEAE9;stop-color:color(display-p3 0.9961 0.9176 0.9137);stop-opacity:1;"/>
</linearGradient>
<linearGradient id="paint57_linear_2011_2458" x1="39.881" y1="0" x2="39.881" y2="91.7148" gradientUnits="userSpaceOnUse">
<stop stop-color="#FFD5D1" style="stop-color:#FFD5D1;stop-color:color(display-p3 1.0000 0.8369 0.8188);stop-opacity:1;"/>
<stop offset="1" stop-color="#FEEAE9" style="stop-color:#FEEAE9;stop-color:color(display-p3 0.9961 0.9176 0.9137);stop-opacity:1;"/>
</linearGradient>
<linearGradient id="paint58_linear_2011_2458" x1="39.881" y1="0" x2="39.881" y2="91.7148" gradientUnits="userSpaceOnUse">
<stop stop-color="#FFD5D1" style="stop-color:#FFD5D1;stop-color:color(display-p3 1.0000 0.8369 0.8188);stop-opacity:1;"/>
<stop offset="1" stop-color="#FEEAE9" style="stop-color:#FEEAE9;stop-color:color(display-p3 0.9961 0.9176 0.9137);stop-opacity:1;"/>
</linearGradient>
<linearGradient id="paint59_linear_2011_2458" x1="39.881" y1="0" x2="39.881" y2="91.7148" gradientUnits="userSpaceOnUse">
<stop stop-color="#FFD5D1" style="stop-color:#FFD5D1;stop-color:color(display-p3 1.0000 0.8369 0.8188);stop-opacity:1;"/>
<stop offset="1" stop-color="#FEEAE9" style="stop-color:#FEEAE9;stop-color:color(display-p3 0.9961 0.9176 0.9137);stop-opacity:1;"/>
</linearGradient>
<linearGradient id="paint60_linear_2011_2458" x1="39.881" y1="0" x2="39.881" y2="91.7148" gradientUnits="userSpaceOnUse">
<stop stop-color="#FFD5D1" style="stop-color:#FFD5D1;stop-color:color(display-p3 1.0000 0.8369 0.8188);stop-opacity:1;"/>
<stop offset="1" stop-color="#FEEAE9" style="stop-color:#FEEAE9;stop-color:color(display-p3 0.9961 0.9176 0.9137);stop-opacity:1;"/>
</linearGradient>
<linearGradient id="paint61_linear_2011_2458" x1="39.881" y1="0" x2="39.881" y2="91.7148" gradientUnits="userSpaceOnUse">
<stop stop-color="#FFD5D1" style="stop-color:#FFD5D1;stop-color:color(display-p3 1.0000 0.8369 0.8188);stop-opacity:1;"/>
<stop offset="1" stop-color="#FEEAE9" style="stop-color:#FEEAE9;stop-color:color(display-p3 0.9961 0.9176 0.9137);stop-opacity:1;"/>
</linearGradient>
<linearGradient id="paint62_linear_2011_2458" x1="39.881" y1="0" x2="39.881" y2="91.7148" gradientUnits="userSpaceOnUse">
<stop stop-color="#FFD5D1" style="stop-color:#FFD5D1;stop-color:color(display-p3 1.0000 0.8369 0.8188);stop-opacity:1;"/>
<stop offset="1" stop-color="#FEEAE9" style="stop-color:#FEEAE9;stop-color:color(display-p3 0.9961 0.9176 0.9137);stop-opacity:1;"/>
</linearGradient>
<linearGradient id="paint63_linear_2011_2458" x1="39.881" y1="0" x2="39.881" y2="91.7148" gradientUnits="userSpaceOnUse">
<stop stop-color="#FFD5D1" style="stop-color:#FFD5D1;stop-color:color(display-p3 1.0000 0.8369 0.8188);stop-opacity:1;"/>
<stop offset="1" stop-color="#FEEAE9" style="stop-color:#FEEAE9;stop-color:color(display-p3 0.9961 0.9176 0.9137);stop-opacity:1;"/>
</linearGradient>
<linearGradient id="paint64_linear_2011_2458" x1="39.881" y1="0" x2="39.881" y2="91.7148" gradientUnits="userSpaceOnUse">
<stop stop-color="#FFD5D1" style="stop-color:#FFD5D1;stop-color:color(display-p3 1.0000 0.8369 0.8188);stop-opacity:1;"/>
<stop offset="1" stop-color="#FEEAE9" style="stop-color:#FEEAE9;stop-color:color(display-p3 0.9961 0.9176 0.9137);stop-opacity:1;"/>
</linearGradient>
<linearGradient id="paint65_linear_2011_2458" x1="39.881" y1="0" x2="39.881" y2="91.7148" gradientUnits="userSpaceOnUse">
<stop stop-color="#FFD5D1" style="stop-color:#FFD5D1;stop-color:color(display-p3 1.0000 0.8369 0.8188);stop-opacity:1;"/>
<stop offset="1" stop-color="#FEEAE9" style="stop-color:#FEEAE9;stop-color:color(display-p3 0.9961 0.9176 0.9137);stop-opacity:1;"/>
</linearGradient>
<linearGradient id="paint66_linear_2011_2458" x1="39.881" y1="0" x2="39.881" y2="91.7148" gradientUnits="userSpaceOnUse">
<stop stop-color="#FFD5D1" style="stop-color:#FFD5D1;stop-color:color(display-p3 1.0000 0.8369 0.8188);stop-opacity:1;"/>
<stop offset="1" stop-color="#FEEAE9" style="stop-color:#FEEAE9;stop-color:color(display-p3 0.9961 0.9176 0.9137);stop-opacity:1;"/>
</linearGradient>
<linearGradient id="paint67_linear_2011_2458" x1="39.881" y1="0" x2="39.881" y2="91.7148" gradientUnits="userSpaceOnUse">
<stop stop-color="#FFD5D1" style="stop-color:#FFD5D1;stop-color:color(display-p3 1.0000 0.8369 0.8188);stop-opacity:1;"/>
<stop offset="1" stop-color="#FEEAE9" style="stop-color:#FEEAE9;stop-color:color(display-p3 0.9961 0.9176 0.9137);stop-opacity:1;"/>
</linearGradient>
<linearGradient id="paint68_linear_2011_2458" x1="39.881" y1="0" x2="39.881" y2="91.7148" gradientUnits="userSpaceOnUse">
<stop stop-color="#FFD5D1" style="stop-color:#FFD5D1;stop-color:color(display-p3 1.0000 0.8369 0.8188);stop-opacity:1;"/>
<stop offset="1" stop-color="#FEEAE9" style="stop-color:#FEEAE9;stop-color:color(display-p3 0.9961 0.9176 0.9137);stop-opacity:1;"/>
</linearGradient>
<linearGradient id="paint69_linear_2011_2458" x1="39.881" y1="0" x2="39.881" y2="91.7148" gradientUnits="userSpaceOnUse">
<stop stop-color="#FFD5D1" style="stop-color:#FFD5D1;stop-color:color(display-p3 1.0000 0.8369 0.8188);stop-opacity:1;"/>
<stop offset="1" stop-color="#FEEAE9" style="stop-color:#FEEAE9;stop-color:color(display-p3 0.9961 0.9176 0.9137);stop-opacity:1;"/>
</linearGradient>
<linearGradient id="paint70_linear_2011_2458" x1="39.881" y1="0" x2="39.881" y2="91.7148" gradientUnits="userSpaceOnUse">
<stop stop-color="#FFD5D1" style="stop-color:#FFD5D1;stop-color:color(display-p3 1.0000 0.8369 0.8188);stop-opacity:1;"/>
<stop offset="1" stop-color="#FEEAE9" style="stop-color:#FEEAE9;stop-color:color(display-p3 0.9961 0.9176 0.9137);stop-opacity:1;"/>
</linearGradient>
<linearGradient id="paint71_linear_2011_2458" x1="39.881" y1="0" x2="39.881" y2="91.7148" gradientUnits="userSpaceOnUse">
<stop stop-color="#FFD5D1" style="stop-color:#FFD5D1;stop-color:color(display-p3 1.0000 0.8369 0.8188);stop-opacity:1;"/>
<stop offset="1" stop-color="#FEEAE9" style="stop-color:#FEEAE9;stop-color:color(display-p3 0.9961 0.9176 0.9137);stop-opacity:1;"/>
</linearGradient>
<linearGradient id="paint72_linear_2011_2458" x1="39.881" y1="0" x2="39.881" y2="91.7148" gradientUnits="userSpaceOnUse">
<stop stop-color="#FFD5D1" style="stop-color:#FFD5D1;stop-color:color(display-p3 1.0000 0.8369 0.8188);stop-opacity:1;"/>
<stop offset="1" stop-color="#FEEAE9" style="stop-color:#FEEAE9;stop-color:color(display-p3 0.9961 0.9176 0.9137);stop-opacity:1;"/>
</linearGradient>
<linearGradient id="paint73_linear_2011_2458" x1="39.881" y1="0" x2="39.881" y2="91.7148" gradientUnits="userSpaceOnUse">
<stop stop-color="#FFD5D1" style="stop-color:#FFD5D1;stop-color:color(display-p3 1.0000 0.8369 0.8188);stop-opacity:1;"/>
<stop offset="1" stop-color="#FEEAE9" style="stop-color:#FEEAE9;stop-color:color(display-p3 0.9961 0.9176 0.9137);stop-opacity:1;"/>
</linearGradient>
<linearGradient id="paint74_linear_2011_2458" x1="39.881" y1="0" x2="39.881" y2="91.7148" gradientUnits="userSpaceOnUse">
<stop stop-color="#FFD5D1" style="stop-color:#FFD5D1;stop-color:color(display-p3 1.0000 0.8369 0.8188);stop-opacity:1;"/>
<stop offset="1" stop-color="#FEEAE9" style="stop-color:#FEEAE9;stop-color:color(display-p3 0.9961 0.9176 0.9137);stop-opacity:1;"/>
</linearGradient>
</defs>
</svg>
