<svg width="90" height="75" viewBox="0 0 90 75" fill="none" xmlns="http://www.w3.org/2000/svg">
<path d="M20.044 0.896661C20.2799 0.893969 20.5157 0.891277 20.7587 0.888504C21.0124 0.890233 21.2662 0.891961 21.5276 0.893742C21.7892 0.892925 22.0508 0.892108 22.3204 0.891266C22.8736 0.890685 23.4269 0.892261 23.9801 0.895827C24.8268 0.900392 25.6732 0.895873 26.5199 0.890406C27.0573 0.890971 27.5948 0.892065 28.1322 0.893742C28.3856 0.892014 28.6389 0.890285 28.8999 0.888504C30.6314 0.908211 30.6314 0.908211 31.515 1.36782C31.9714 1.96967 32.0239 2.28422 32.0233 3.03524C32.0237 3.2598 32.0241 3.48436 32.0246 3.71572C32.0195 3.94909 32.0144 4.18245 32.0091 4.42289C32.0115 4.65625 32.0138 4.88961 32.0162 5.13005C32.0005 6.8431 32.0005 6.8431 31.4979 7.4817C30.8929 7.94832 30.4993 7.90635 29.7542 7.83862C29.8342 9.21249 29.8342 9.21249 30.5526 10.3257C31.0365 10.6115 31.5226 10.8518 32.0358 11.0809C33.8374 11.931 35.1859 12.8918 36.2121 14.6434C36.3101 14.8058 36.408 14.9681 36.509 15.1354C37.3627 16.9067 37.5303 18.4458 37.5123 20.405C37.5124 20.6739 37.5125 20.9428 37.5126 21.2198C37.5128 21.9514 37.509 22.683 37.5045 23.4146C37.5005 24.1814 37.5002 24.9481 37.4994 25.7148C37.4974 27.1641 37.4922 28.6134 37.4857 30.0628C37.4786 31.7138 37.475 33.3649 37.4718 35.016C37.4652 38.4101 37.4539 41.8041 37.4396 45.1982C37.5682 45.1945 37.6969 45.1907 37.8294 45.1869C37.9999 45.184 38.1704 45.1811 38.3461 45.1782C38.5143 45.1744 38.6826 45.1707 38.856 45.1669C39.626 45.2146 40.1726 45.49 40.8553 45.8386C40.8201 45.7065 40.7849 45.5744 40.7486 45.4383C40.4823 43.7737 40.5231 42.4703 41.3674 40.9727C42.0676 40.0077 42.8172 39.5299 43.9967 39.3416C45.3329 39.2811 46.2102 39.4526 47.2598 40.2881C48.1199 41.4216 48.3572 42.471 48.3406 43.8639C48.3387 44.0741 48.3367 44.2844 48.3348 44.501C48.331 44.7404 48.331 44.7404 48.3272 44.9847C48.469 44.8226 48.6107 44.6605 48.7567 44.4935C48.9471 44.2791 49.1375 44.0648 49.328 43.8506C49.5137 43.64 49.6995 43.4295 49.8908 43.2126C50.8949 42.1998 51.7306 41.857 53.1306 41.7549C54.249 41.8126 54.914 42.3723 55.6657 43.1834C56.3565 44.2196 56.3783 45.2719 56.2261 46.4791C55.7268 47.8808 54.8467 48.8124 53.6643 49.6813C53.8889 49.6896 53.8889 49.6896 54.118 49.698C55.6349 49.7887 56.9318 49.9797 58.0549 51.0748C58.9292 52.0935 59.0776 52.741 59.0606 54.0494C58.9729 54.8529 58.6848 55.2784 58.1475 55.8723C57.0208 56.7231 56.1905 56.9633 54.7985 57.0598C54.4208 57.0867 54.4208 57.0867 54.0354 57.114C53.8425 57.127 53.6496 57.1399 53.4508 57.1532C53.5384 57.2641 53.6259 57.375 53.716 57.4893C54.7681 58.8509 55.2652 59.7954 55.2263 61.5438C55.125 62.3229 54.8185 62.7611 54.3048 63.3442C54.1595 63.5116 54.0142 63.6789 53.8645 63.8513C52.8899 64.3904 51.9769 64.3486 50.889 64.1982C49.5694 63.7905 48.7153 62.7001 47.9003 61.6364C47.8298 61.4955 47.7594 61.3546 47.6868 61.2094C47.64 61.3924 47.5932 61.5754 47.545 61.764C47.036 63.5994 46.5148 64.8371 44.9115 65.906C43.4113 66.1145 42.0846 65.969 40.8553 65.0521C40.0117 64.2296 39.9447 63.5304 39.9213 62.3969C39.9523 61.3574 40.0664 60.4743 40.4284 59.5015C40.2546 59.5903 40.2546 59.5903 40.0773 59.6808C39.9246 59.7582 39.7718 59.8355 39.6145 59.9152C39.4634 59.9919 39.3123 60.0687 39.1566 60.1478C37.9214 60.7359 36.6464 60.6878 35.3048 60.569C34.1953 60.0525 33.6544 59.3867 33.2367 58.2473C33.0241 56.802 33.2059 55.7906 34.0239 54.5914C34.7464 53.806 35.6194 53.3207 36.5857 52.8836C36.4539 52.8522 36.322 52.8208 36.1862 52.7885C34.667 52.3861 33.2074 51.8447 32.2201 50.5594C31.7943 49.799 31.6404 49.2169 31.6889 48.347C31.7641 47.5298 31.7641 47.5298 31.2086 47.0395C29.9901 46.3354 29.025 46.1056 27.6194 46.2656C27.0478 46.4315 27.0478 46.4315 26.7655 46.906C26.625 48.1299 26.779 48.8166 27.4059 49.8948C27.4763 50.1061 27.5468 50.3175 27.6194 50.5352C28.0143 50.7595 28.0143 50.7594 28.4733 50.9622C28.9537 51.2691 28.9537 51.2691 29.3272 51.6027C29.3272 51.814 29.3272 52.0254 29.3272 52.2431C28.7402 52.1897 28.7402 52.1897 28.0463 52.0296C27.9304 51.8881 27.8145 51.7466 27.6951 51.6008C26.9417 50.9637 26.2461 51.047 25.2877 51.0456C25.1042 51.0421 24.9206 51.0385 24.7314 51.0349C24.1463 51.0246 23.5613 51.02 22.9761 51.0156C22.5789 51.0096 22.1817 51.0032 21.7845 50.9964C20.8118 50.9806 19.8393 50.97 18.8666 50.9622C18.8751 51.1598 18.8836 51.3574 18.8924 51.561C18.8635 52.3232 18.6766 52.6715 18.1569 53.2263C17.2052 54.0183 16.1502 54.4628 14.9038 54.4046C13.6171 54.1902 12.718 53.353 11.8216 52.4566C11.7748 52.5755 11.7281 52.6944 11.6799 52.8168C11.0731 54.2769 10.3833 55.5634 9.09972 56.5261C8.00403 56.8422 6.8911 56.8431 5.86412 56.296C5.1704 55.7587 4.76522 55.2264 4.5632 54.3779C4.37789 52.8028 4.98165 51.402 5.8441 50.1083C5.69935 50.1182 5.5546 50.1281 5.40546 50.1383C3.89389 50.1969 2.68558 50.0141 1.36096 49.2543C0.536707 48.4507 0.145202 47.6298 0 46.4924C0.104146 45.6419 0.392519 45.2163 0.933989 44.5577C1.99348 43.8262 2.73483 43.6699 4.00281 43.6771C4.14646 43.6763 4.29011 43.6754 4.43811 43.6746C5.15088 43.676 5.80323 43.6972 6.48455 43.9173C6.42291 43.7343 6.36126 43.5513 6.29775 43.3627C5.35485 40.4587 5.35485 40.4587 5.85744 38.9805C6.45489 38.0939 7.12709 37.441 8.19742 37.2034C9.29104 37.1426 9.93484 37.4642 10.7542 38.1532C11.4997 38.9413 11.8384 39.7294 12.2486 40.715C12.2487 40.5966 12.2488 40.4781 12.2489 40.356C12.2522 37.4618 12.2613 34.5676 12.2768 31.6733C12.2841 30.2737 12.2895 28.874 12.2903 27.4743C12.2913 26.1219 12.2974 24.7696 12.307 23.4172C12.3097 22.9029 12.3107 22.3886 12.3097 21.8743C12.3046 18.3742 12.3095 15.4521 14.8963 12.7963C16.0649 11.7963 17.3898 11.001 18.8666 10.5605C19.8939 9.96124 20.0588 8.94401 20.361 7.83862C20.132 7.85623 19.903 7.87384 19.6671 7.89199C18.8666 7.83862 18.8666 7.83862 18.3967 7.4817C17.9289 6.87628 17.9028 6.5685 17.8992 5.81053C17.8976 5.47369 17.8976 5.47369 17.8959 5.13005C17.8992 4.89668 17.9025 4.66332 17.9059 4.42289C17.9009 4.07284 17.9009 4.07284 17.8959 3.71572C17.897 3.49116 17.8981 3.26661 17.8992 3.03524C17.9002 2.8305 17.9012 2.62576 17.9021 2.41481C18.1405 1.22047 18.9093 0.90038 20.044 0.896661Z" fill="url(#paint0_linear_2011_2672)" style=""/>
<path d="M13.3154 21.288C20.9944 21.288 28.6734 21.288 36.5851 21.288C36.5851 29.1784 36.5851 37.0687 36.5851 45.1982C34.9232 45.9104 34.9232 45.9104 34.09 46.1722C33.4643 46.3689 32.8963 46.6005 32.3154 46.906C32.1842 46.816 32.0529 46.726 31.9177 46.6333C31.7451 46.5164 31.5726 46.3994 31.3948 46.2789C31.2239 46.1625 31.053 46.0461 30.8769 45.9262C29.7914 45.2494 28.6454 45.31 27.4053 45.4116C26.7487 45.6796 26.464 45.8426 26.1019 46.444C25.8942 46.9466 25.8538 47.2986 25.8576 47.84C25.8565 47.9958 25.8554 48.1515 25.8542 48.312C25.9243 48.9489 26.1294 49.5041 26.3379 50.1083C25.2747 50.156 24.2122 50.1908 23.1482 50.2138C22.787 50.2234 22.4258 50.2365 22.0649 50.2532C19.054 50.389 19.054 50.389 18.0508 49.6875C17.5984 49.1676 17.5984 49.1676 17.2524 48.646C16.817 47.9965 16.3812 47.8155 15.6637 47.5465C15.6637 47.4056 15.6637 47.2647 15.6637 47.1195C15.7746 47.0727 15.8855 47.0259 15.9998 46.9777C17.3121 46.381 18.0378 45.7489 18.7192 44.451C18.9922 43.4581 18.9722 42.7463 18.4924 41.8358C18.0217 41.1559 17.8902 40.9922 17.1581 40.715C16.6637 40.6399 16.6637 40.6399 16.1441 40.6483C15.8882 40.6429 15.8882 40.6429 15.6271 40.6375C14.8168 40.7181 14.8168 40.7181 13.3154 41.3555C13.3154 34.7332 13.3154 28.111 13.3154 21.288Z" fill="url(#paint1_linear_2011_2672)" style=""/>
<path d="M78.0005 9.11948C79.2923 10.4113 78.9266 13.1926 78.9533 14.9092C78.9669 15.7472 78.988 16.585 79.0095 17.4228C79.0138 17.5912 79.0181 17.7596 79.0226 17.9331C79.0616 19.3438 79.1467 20.7482 79.2547 22.1553C79.7555 28.8751 80.1755 35.6267 80.2367 42.3662C80.2402 42.7297 80.2455 43.0933 80.2525 43.4568C80.2613 43.9521 80.2629 44.4468 80.2621 44.9421C80.2636 45.2155 80.2651 45.4888 80.2666 45.7705C80.1006 46.6662 79.7725 46.9883 79.0679 47.5465C78.927 47.5465 78.7861 47.5465 78.6409 47.5465C78.6744 47.7627 78.7078 47.979 78.7423 48.2019C78.8669 49.012 78.9883 49.8225 79.1087 50.6333C79.1611 50.9827 79.2143 51.3319 79.2684 51.6811C79.3465 52.1858 79.4214 52.6909 79.4957 53.1963C79.5201 53.3498 79.5446 53.5033 79.5698 53.6615C79.7275 54.7633 79.7567 55.8497 79.4949 56.9397C78.7477 57.8163 77.9492 57.958 76.8397 58.1406C76.6899 58.1657 76.5401 58.1908 76.3858 58.2167C75.9282 58.2923 75.47 58.3632 75.0117 58.4341C74.7483 58.4784 74.485 58.5227 74.2136 58.5684C69.9849 59.241 69.9849 59.241 68.8841 58.4424C68.2487 57.6018 68.0999 56.8834 67.9267 55.859C67.8925 55.6742 67.8583 55.4895 67.8231 55.2992C67.4689 53.2975 67.2765 51.2792 67.1128 49.2543C66.9191 49.2367 66.7254 49.2191 66.5257 49.2009C65.7113 49.013 65.5008 48.8258 64.978 48.1869C64.7435 47.5813 64.7435 47.5813 64.561 46.8493C64.5266 46.7116 64.4921 46.5739 64.4566 46.432C63.9326 44.2764 63.5296 42.0921 63.11 39.9144C63.0156 39.4292 62.9211 38.9439 62.8265 38.4587C62.3883 36.2038 61.9581 33.9476 61.5456 31.6878C61.5112 31.4993 61.4767 31.3108 61.4413 31.1166C61.373 30.7424 61.3047 30.3683 61.2364 29.9942C61.203 29.8114 61.1697 29.6287 61.1353 29.4404C61.1021 29.2583 61.0689 29.0762 61.0347 28.8886C60.3813 25.3197 59.6223 21.776 58.8374 18.234C58.793 18.0334 58.7486 17.8329 58.7029 17.6264C58.6198 17.2525 58.5365 16.8787 58.4526 16.5051C58.1583 15.1847 57.9031 13.9212 57.9197 12.5619C57.9216 12.3555 57.9236 12.1491 57.9255 11.9365C57.928 11.7818 57.9305 11.6271 57.9331 11.4678C59.0058 11.1328 60.0457 10.9351 61.1641 10.816C61.3309 10.7972 61.4978 10.7784 61.6696 10.759C62.2166 10.6977 62.7638 10.6382 63.311 10.5788C63.6935 10.5365 64.076 10.494 64.4585 10.4514C65.2582 10.3627 66.0579 10.2749 66.8578 10.1877C67.8813 10.0762 68.9047 9.96283 69.928 9.8489C70.7171 9.76117 71.5062 9.67416 72.2955 9.58739C72.6728 9.54586 73.0501 9.50415 73.4274 9.46226C73.955 9.40383 74.4827 9.34633 75.0105 9.28908C75.1652 9.27179 75.32 9.25449 75.4794 9.23667C76.3229 9.14628 77.1528 9.06308 78.0005 9.11948ZM75.9742 13.5621C75.8093 13.5805 75.6443 13.5989 75.4744 13.6179C74.9274 13.679 74.3804 13.7404 73.8334 13.8019C73.4536 13.8445 73.0739 13.8871 72.6942 13.9296C71.8971 14.019 71.1001 14.1086 70.3031 14.1983C69.2824 14.3132 68.2616 14.4274 67.2407 14.5414C66.4559 14.6292 65.6712 14.7174 64.8864 14.8057C64.5102 14.848 64.1339 14.8901 63.7576 14.9321C63.2307 14.9909 62.7038 15.0503 62.177 15.1099C62.0218 15.1271 61.8666 15.1443 61.7067 15.162C60.938 15.2495 60.1833 15.3578 59.4274 15.524C59.3942 16.5971 59.5041 17.5249 59.7502 18.5686C59.8234 18.8872 59.8966 19.2058 59.9696 19.5244C60.0093 19.6952 60.049 19.866 60.09 20.042C61.2725 25.1521 62.2352 30.3037 63.2068 35.4568C63.4284 36.6314 63.6512 37.8057 63.8752 38.9798C64.0158 39.7174 64.1556 40.4552 64.2936 41.1934C64.4318 41.9323 64.5726 42.6706 64.7151 43.4087C64.7928 43.8145 64.868 44.2209 64.9431 44.6272C65.2147 46.0212 65.5485 47.1674 66.2589 48.4004C68.3831 48.499 70.4368 48.1932 72.5331 47.8883C73.1449 47.7998 73.7572 47.7153 74.3696 47.6311C74.7627 47.575 75.1557 47.5188 75.5488 47.4622C75.7298 47.4375 75.9108 47.4128 76.0974 47.3873C77.1823 47.2257 78.0889 46.9817 79.0679 46.479C79.3887 45.8374 79.3117 45.177 79.3097 44.4735C79.31 44.2355 79.31 44.2355 79.3103 43.9927C79.3105 43.6551 79.3101 43.3175 79.3092 42.98C79.3081 42.473 79.3092 41.9662 79.3106 41.4593C79.3114 39.8131 79.2713 38.1877 79.1269 36.5468C79.0549 35.641 79.0102 34.7353 78.9687 33.8277C78.9564 33.562 78.9564 33.562 78.944 33.2909C78.9271 32.9201 78.9103 32.5494 78.8937 32.1786C78.7565 29.1295 78.6025 26.0823 78.4141 23.0359C78.2156 19.8216 78.0916 16.6083 78.0005 13.3891C77.3208 13.3891 76.6489 13.4861 75.9742 13.5621Z" fill="url(#paint2_linear_2011_2672)" style=""/>
<path d="M21.2143 7.83861C23.7505 7.83861 26.2867 7.83861 28.8997 7.83861C29.111 9.21237 29.111 9.21237 29.3267 10.6139C29.9657 11.138 30.3005 11.3501 31.0345 11.6279C31.3658 11.7782 31.6961 11.9309 32.0252 12.0858C32.1853 12.1597 32.3453 12.2336 32.5102 12.3098C34.6549 13.3947 35.6189 15.1792 36.4383 17.3253C36.5851 18.0858 36.5851 18.0858 36.5851 20.4341C28.9061 20.4341 21.2271 20.4341 13.3154 20.4341C13.3154 17.7072 13.5056 15.721 15.3293 13.6885C16.4238 12.6185 17.7139 11.9872 19.1001 11.3712C19.9495 10.9633 20.4282 10.6642 20.7765 9.76579C20.9677 9.12831 21.0831 8.49447 21.2143 7.83861Z" fill="url(#paint3_linear_2011_2672)" style=""/>
<path d="M78.0005 9.11948C79.2925 10.4115 78.9266 13.1936 78.9534 14.9105C78.9669 15.7422 78.9874 16.5737 79.0087 17.4053C79.013 17.5728 79.0173 17.7402 79.0217 17.9128C79.0635 19.4234 79.1553 20.9285 79.2681 22.4355C79.4512 24.885 79.6022 27.3346 79.735 29.7873C79.7445 29.9587 79.754 30.13 79.7638 30.3065C79.7908 30.7975 79.8173 31.2885 79.8435 31.7796C79.8554 31.996 79.8554 31.996 79.8677 32.2168C79.9188 33.201 79.9283 34.1793 79.9218 35.1644C79.6048 35.2701 79.6048 35.2701 79.2814 35.3779C79.1405 35.5188 78.9996 35.6597 78.8544 35.8049C78.8437 35.5713 78.833 35.3377 78.822 35.097C78.7711 33.9898 78.7194 32.8826 78.6676 31.7754C78.6535 31.4714 78.6535 31.4714 78.6391 31.1613C78.5408 29.0549 78.4402 26.949 78.304 24.8447C78.2942 24.6915 78.2843 24.5383 78.2741 24.3804C78.2546 24.0795 78.2352 23.7786 78.2157 23.4777C77.999 20.1097 77.95 16.7642 78.0005 13.3891C77.8596 13.4596 77.7187 13.53 77.5735 13.6026C77.0403 13.6786 76.5094 13.7444 75.9742 13.8032C75.8093 13.822 75.6444 13.8408 75.4745 13.8601C74.9275 13.9222 74.3805 13.983 73.8334 14.0438C73.4537 14.0865 73.0739 14.1293 72.6942 14.1721C71.8972 14.2618 71.1002 14.3509 70.3032 14.4396C69.2823 14.5533 68.2615 14.6682 67.2408 14.7835C66.456 14.872 65.6713 14.96 64.8865 15.0478C64.5101 15.0899 64.1339 15.1322 63.7576 15.1747C63.2308 15.234 62.7039 15.2926 62.177 15.351C62.0219 15.3686 61.8667 15.3863 61.7068 15.4044C60.9432 15.4882 60.1957 15.5434 59.4274 15.524C59.8745 17.7832 60.3297 20.0404 60.8018 22.2946C60.8464 22.5077 60.891 22.7208 60.937 22.9404C61.1199 23.8133 61.303 24.6863 61.4866 25.5591C61.8005 27.0522 62.1105 28.546 62.4162 30.0408C62.4602 30.2544 62.5041 30.4679 62.5493 30.6879C62.6761 31.3082 62.8001 31.929 62.9232 32.5501C62.9617 32.7369 63.0001 32.9238 63.0396 33.1163C63.0733 33.2893 63.107 33.4623 63.1417 33.6405C63.1718 33.7911 63.2019 33.9418 63.2329 34.097C63.2744 34.5722 63.1966 34.9246 63.0567 35.3779C62.6461 35.2225 62.6461 35.2225 62.2027 34.9509C62.0319 34.5371 62.0319 34.5371 61.9403 34.0223C61.9038 33.8281 61.8672 33.6338 61.8296 33.4336C61.7934 33.2208 61.7572 33.0079 61.7199 32.7886C61.6789 32.5663 61.6379 32.344 61.5956 32.1149C61.5073 31.6346 61.4207 31.154 61.3355 30.6732C61.1112 29.4083 60.8751 28.1457 60.64 26.8828C60.5928 26.6277 60.5456 26.3726 60.4969 26.1097C60.0444 23.6816 59.5279 21.2695 58.9872 18.8597C58.9458 18.6754 58.9045 18.4912 58.8619 18.3013C58.8217 18.1224 58.7815 17.9436 58.7402 17.7592C58.7016 17.5875 58.6631 17.4158 58.6234 17.2389C58.5525 16.9235 58.4811 16.6083 58.4092 16.2931C58.1247 15.0371 57.904 13.8518 57.9197 12.5619C57.9216 12.3555 57.9236 12.1491 57.9255 11.9365C57.928 11.7818 57.9305 11.6271 57.9331 11.4678C59.0058 11.1328 60.0457 10.9351 61.1641 10.816C61.3309 10.7972 61.4978 10.7784 61.6696 10.759C62.2166 10.6977 62.7638 10.6382 63.311 10.5788C63.6935 10.5365 64.076 10.494 64.4585 10.4514C65.2582 10.3627 66.0579 10.2749 66.8578 10.1877C67.8813 10.0762 68.9047 9.96283 69.928 9.8489C70.7171 9.76117 71.5062 9.67416 72.2955 9.58739C72.6728 9.54586 73.0501 9.50415 73.4274 9.46226C73.955 9.40383 74.4827 9.34633 75.0105 9.28908C75.1652 9.27179 75.32 9.25449 75.4794 9.23667C76.3229 9.14628 77.1528 9.06308 78.0005 9.11948Z" fill="url(#paint4_linear_2011_2672)" style=""/>
<path d="M63.058 64.1981C63.677 64.7862 64.1108 65.3347 64.1463 66.2012C64.1438 66.3944 64.1413 66.5876 64.1388 66.7866C64.1369 66.9809 64.1349 67.1752 64.133 67.3754C64.1305 67.5245 64.128 67.6737 64.1255 67.8274C64.4557 67.8075 64.4557 67.8075 64.7926 67.7873C65.8311 67.8376 66.5399 68.0735 67.2518 68.8514C67.7544 69.6683 67.6831 70.5295 67.5412 71.4566C67.0734 72.1179 66.8131 72.2686 66.0468 72.524C65.7226 72.5436 65.3976 72.5517 65.0728 72.5507C64.9052 72.5512 64.7376 72.5518 64.5649 72.5523C64.1255 72.524 64.1254 72.524 63.6985 72.3105C63.6787 72.5879 63.6787 72.5879 63.6585 72.8709C63.4323 73.8103 63.1457 74.2352 62.4176 74.8723C61.742 75.0421 61.1717 75.0431 60.4962 74.8723C59.9759 74.392 59.9759 74.392 59.6423 73.8049C59.5102 73.6001 59.5102 73.6001 59.3755 73.3913C59.1626 72.8059 59.1873 72.2874 59.2153 71.6701C58.9908 71.6568 58.7662 71.6436 58.5349 71.63C57.5657 71.4235 57.2356 71.1829 56.6535 70.3892C56.5335 69.7354 56.5335 69.7354 56.6535 69.1083C57.1838 68.4013 57.7303 68.0687 58.5749 67.8274C59.2821 67.8007 59.2821 67.8007 59.8558 67.8274C59.8459 67.6702 59.836 67.5131 59.8258 67.3512C59.7623 65.6349 59.7623 65.6349 60.2561 64.8119C61.1035 64.0642 61.9615 64.0186 63.058 64.1981Z" fill="url(#paint5_linear_2011_2672)" style=""/>
<path d="M20.3745 1.83007C20.5996 1.82871 20.8247 1.82735 21.0566 1.82595C21.3006 1.82571 21.5445 1.82547 21.7959 1.82523C22.1702 1.82416 22.1702 1.82416 22.552 1.82307C23.0803 1.82199 23.6087 1.82149 24.137 1.82153C24.948 1.82106 25.759 1.81718 26.5701 1.81314C27.0824 1.81251 27.5947 1.81209 28.107 1.81188C28.4729 1.80958 28.4729 1.80958 28.8462 1.80724C29.1839 1.80822 29.1839 1.80822 29.5284 1.80923C29.7271 1.80892 29.9259 1.80862 30.1307 1.8083C30.6087 1.86109 30.6087 1.86109 31.0357 2.28805C31.0909 2.72169 31.0909 2.72169 31.0924 3.24873C31.0932 3.53272 31.0932 3.53272 31.0941 3.82246C31.0924 4.0206 31.0908 4.21874 31.0891 4.42288C31.0915 4.72009 31.0915 4.72009 31.0941 5.0233C31.0935 5.21264 31.093 5.40197 31.0924 5.59704C31.0919 5.77096 31.0914 5.94488 31.0909 6.12408C31.0357 6.55771 31.0357 6.55771 30.6087 6.98468C30.1307 7.0389 30.1307 7.0389 29.5284 7.03993C29.1907 7.04195 29.1907 7.04195 28.8462 7.04401C28.6023 7.04314 28.3583 7.04228 28.107 7.04139C27.7327 7.042 27.7327 7.042 27.3508 7.04262C26.8225 7.04292 26.2942 7.04213 25.7658 7.04034C24.9548 7.03806 24.1438 7.04032 23.3328 7.04306C22.8205 7.04277 22.3082 7.04223 21.7959 7.04139C21.4299 7.04268 21.4299 7.04268 21.0566 7.04401C20.8315 7.04266 20.6064 7.04131 20.3745 7.03993C20.1757 7.03959 19.9769 7.03925 19.7721 7.0389C19.2941 6.98468 19.2941 6.98468 18.8671 6.55771C18.8187 6.0977 18.8187 6.0977 18.8255 5.53533C18.8268 5.33444 18.8282 5.13355 18.8296 4.92657C18.8332 4.71632 18.8368 4.50607 18.8405 4.28946C18.8424 4.07756 18.8443 3.86566 18.8463 3.64734C18.8513 3.12303 18.8584 2.59883 18.8671 2.07457C19.4038 1.80625 19.7739 1.83253 20.3745 1.83007Z" fill="url(#paint6_linear_2011_2672)" style=""/>
<path d="M20.044 0.896661C20.2799 0.893969 20.5157 0.891277 20.7587 0.888504C21.0124 0.890233 21.2662 0.891961 21.5276 0.893742C21.7892 0.892925 22.0508 0.892108 22.3204 0.891266C22.8736 0.890685 23.4269 0.892261 23.9801 0.895827C24.8268 0.900392 25.6732 0.895873 26.5199 0.890406C27.0573 0.890971 27.5948 0.892065 28.1322 0.893742C28.3856 0.892014 28.6389 0.890285 28.8999 0.888504C30.6314 0.908211 30.6314 0.908211 31.515 1.36782C31.9714 1.96967 32.0239 2.28422 32.0233 3.03524C32.0237 3.2598 32.0241 3.48436 32.0246 3.71572C32.0195 3.94909 32.0144 4.18245 32.0091 4.42289C32.0115 4.65625 32.0138 4.88961 32.0162 5.13005C32.0005 6.8431 32.0005 6.8431 31.4979 7.4817C30.8929 7.94832 30.4993 7.90635 29.7542 7.83862C29.8342 9.21249 29.8342 9.21249 30.5526 10.3257C31.0365 10.6115 31.5226 10.8518 32.0358 11.0809C34.6088 12.295 36.1927 14.0173 37.1989 16.7115C37.4813 17.6521 37.5899 18.6051 37.4391 19.5802C37.0122 20.2206 37.0121 20.2206 36.5851 20.4341C36.5642 20.2277 36.5434 20.0213 36.5218 19.8087C36.2151 17.1382 35.7092 15.0209 33.5964 13.1757C32.4694 12.4092 31.2852 11.7926 30.0473 11.2277C29.3268 10.8274 29.3268 10.8274 29.0065 10.3604C28.8593 9.53204 28.8997 8.67995 28.8997 7.83861C26.3635 7.83861 23.8273 7.83861 21.2143 7.83861C21.1439 8.47265 21.0735 9.10672 21.0009 9.75997C20.3228 11.2521 19.0318 11.6787 17.6223 12.3293C16.0728 13.0851 14.9937 14.0431 14.2495 15.6174C13.956 16.1645 13.956 16.1645 13.3822 16.3513C13.2193 16.3601 13.0564 16.3689 12.8886 16.378C13.3703 14.3867 14.4039 13.0452 16.0933 11.8773C16.9973 11.3385 17.8571 10.8616 18.8666 10.5605C19.8939 9.96124 20.0588 8.94401 20.361 7.83862C20.132 7.85623 19.903 7.87384 19.6671 7.89199C18.8666 7.83862 18.8666 7.83862 18.3967 7.4817C17.9289 6.87628 17.9028 6.5685 17.8992 5.81053C17.8981 5.58597 17.897 5.36141 17.8959 5.13005C17.8992 4.89668 17.9025 4.66332 17.9059 4.42289C17.9026 4.18952 17.8993 3.95616 17.8959 3.71572C17.897 3.49116 17.8981 3.26661 17.8992 3.03524C17.9002 2.8305 17.9012 2.62576 17.9021 2.41481C18.1405 1.22047 18.9093 0.90038 20.044 0.896661ZM18.8661 2.07458C18.8537 2.81286 18.8461 3.55112 18.8394 4.28947C18.8358 4.49972 18.8322 4.70996 18.8286 4.92658C18.8272 5.12747 18.8258 5.32836 18.8244 5.53534C18.8222 5.72093 18.8199 5.90651 18.8176 6.09772C18.8221 6.6033 18.8221 6.6033 19.293 6.98469C19.7906 7.05009 19.7906 7.05009 20.3734 7.03994C20.7111 7.04196 20.7111 7.04196 21.0556 7.04402C21.2995 7.04315 21.5435 7.04229 21.7948 7.0414C22.0443 7.04181 22.2938 7.04222 22.5509 7.04264C23.0793 7.04293 23.6076 7.04214 24.1359 7.04036C24.947 7.03807 25.7579 7.04033 26.569 7.04307C27.0813 7.04279 27.5936 7.04224 28.1059 7.0414C28.4718 7.0427 28.4718 7.0427 28.8451 7.04402C29.0703 7.04267 29.2954 7.04133 29.5273 7.03994C29.7261 7.0396 29.9248 7.03926 30.1296 7.03891C30.651 7.03005 30.651 7.03005 31.0346 6.55773C31.1008 6.10981 31.1008 6.10981 31.0913 5.59705C31.0919 5.40772 31.0924 5.21839 31.093 5.02332C31.0905 4.72611 31.0905 4.72611 31.088 4.4229C31.0896 4.22476 31.0913 4.02662 31.093 3.82247C31.0922 3.53847 31.0922 3.53847 31.0913 3.24874C31.0908 3.07482 31.0904 2.90089 31.0899 2.7217C31.0734 2.23975 31.0734 2.23975 30.6077 1.8611C30.11 1.79718 30.11 1.79718 29.5273 1.80924C29.1896 1.80825 29.1896 1.80825 28.8451 1.80725C28.4792 1.80955 28.4792 1.80955 28.1059 1.8119C27.8564 1.81199 27.6069 1.81209 27.3498 1.81219C26.8214 1.81284 26.2931 1.81452 25.7648 1.81716C24.9537 1.82105 24.1428 1.82154 23.3317 1.82149C22.8194 1.82254 22.3071 1.82378 21.7948 1.82524C21.5509 1.82548 21.3069 1.82571 21.0556 1.82596C20.8304 1.82732 20.6053 1.82868 20.3734 1.83009C20.1746 1.8309 19.9759 1.83171 19.7711 1.83255C19.285 1.83015 19.285 1.83015 18.8661 2.07458Z" fill="url(#paint7_linear_2011_2672)" style=""/>
<path d="M77.7874 47.9734C77.8955 48.7649 78.0017 49.5566 78.1076 50.3484C78.1381 50.5719 78.1687 50.7953 78.2002 51.0256C78.3401 52.0781 78.472 53.0998 78.4278 54.1644C78.1167 54.1817 77.8053 54.1942 77.4938 54.2045C77.3205 54.2119 77.1471 54.2193 76.9685 54.227C76.816 54.2063 76.6636 54.1857 76.5065 54.1644C76.3656 53.9531 76.2247 53.7417 76.0795 53.524C74.6273 53.2341 72.9359 53.5806 71.5964 54.1644C71.1594 54.6896 71.1594 54.6895 70.9559 55.2319C70.2144 55.479 69.598 55.46 68.8211 55.4453C68.7114 54.8943 68.6052 54.3429 68.5009 53.7908C68.4703 53.6392 68.4398 53.4876 68.4083 53.3314C68.155 51.9685 68.1489 50.6375 68.1806 49.2543C69.4114 49.0711 70.6423 48.8887 71.8733 48.7071C72.2921 48.6452 72.7108 48.583 73.1294 48.5207C73.7313 48.4311 74.3333 48.3423 74.9354 48.2536C75.1224 48.2256 75.3095 48.1976 75.5022 48.1687C75.6774 48.1431 75.8525 48.1174 76.033 48.091C76.1866 48.0683 76.3402 48.0455 76.4985 48.0221C76.9334 47.9734 76.9334 47.9734 77.7874 47.9734Z" fill="url(#paint8_linear_2011_2672)" style=""/>
<path d="M38.8004 45.9253C40.8295 46.3843 42.0267 48.0945 43.2035 49.6813C43.1462 49.7913 43.089 49.9014 43.03 50.0148C42.7468 50.5684 42.7468 50.5684 42.5097 51.3224C42.3247 51.6725 42.3247 51.6725 42.1361 52.0296C39.5192 52.7119 36.653 52.331 34.238 51.1873C33.4336 50.7099 32.9431 50.0818 32.5293 49.2543C32.5129 48.4498 32.679 48.0713 33.1164 47.3997C34.0193 46.7572 34.8744 46.611 35.9534 46.4098C38.3363 45.8659 38.3363 45.8659 38.8004 45.9253Z" fill="url(#paint9_linear_2011_2672)" style=""/>
<path d="M77.5736 10.1869C77.8246 10.9713 77.8028 11.7174 77.7871 12.5352C76.1862 12.7367 74.5853 12.9378 72.9843 13.1385C72.4423 13.2065 71.9004 13.2746 71.3585 13.3428C68.4873 13.7041 65.6156 14.0608 62.7416 14.399C62.512 14.4265 62.2824 14.454 62.0459 14.4824C61.8323 14.5072 61.6186 14.532 61.3984 14.5576C61.2128 14.5795 61.0273 14.6013 60.8361 14.6238C60.2262 14.6747 59.6126 14.6701 59.0006 14.6701C58.9301 13.8247 58.8597 12.9793 58.7871 12.1083C62.4955 11.6061 66.2079 11.1505 69.9276 10.7397C70.3611 10.6917 70.7945 10.6433 71.2279 10.5945C75.671 10.0952 75.671 10.0952 77.5736 10.1869Z" fill="url(#paint10_linear_2011_2672)" style=""/>
<path d="M42.3493 53.097C42.6962 53.5907 42.6962 53.5907 42.9898 54.1644C43.1998 54.4516 43.4128 54.7367 43.6302 55.0183C42.0869 56.9694 40.5399 58.9193 38.0796 59.715C37.3983 59.7867 37.3983 59.7867 36.6787 59.795C36.4406 59.8011 36.2026 59.8071 35.9573 59.8134C35.1672 59.6943 34.9356 59.4816 34.4504 58.861C33.958 57.8293 33.9441 56.957 34.2369 55.8723C34.915 54.4619 35.9093 54.0679 37.3016 53.5506C38.8934 53.0243 40.7019 52.6195 42.3493 53.097Z" fill="url(#paint11_linear_2011_2672)" style=""/>
<path d="M53.8773 42.8498C54.4978 43.2491 55.0359 43.6726 55.3717 44.3442C55.5393 45.4861 55.5283 46.4169 54.8379 47.373C53.1095 49.3767 51.3258 50.401 48.7537 50.9622C48.4906 50.7094 48.2338 50.4501 47.9798 50.1883C47.7643 49.9728 47.7643 49.9728 47.5445 49.753C47.2593 49.2543 47.2593 49.2543 47.3719 48.6622C48.4619 46.274 49.4987 44.3122 51.7424 42.8632C52.5727 42.5691 53.0313 42.6081 53.8773 42.8498Z" fill="url(#paint12_linear_2011_2672)" style=""/>
<path d="M44.2716 55.4453C44.5849 55.5072 44.8959 55.5807 45.2056 55.6588C45.4656 55.7183 45.4656 55.7183 45.7309 55.7789C46.1929 56.0858 46.1929 56.0858 46.464 56.8472C46.651 57.798 46.6937 58.7346 46.6866 59.7017C46.6856 59.8704 46.6845 60.0392 46.6834 60.2131C46.6449 62.1255 46.2634 63.4526 44.912 64.8386C44.229 65.1801 43.5202 65.1296 42.7772 65.0521C41.8708 64.71 41.3643 64.378 40.8558 63.5577C40.4735 61.6491 41.1342 59.6765 42.1555 58.0684C42.7945 57.1412 43.4743 56.2426 44.2716 55.4453Z" fill="url(#paint13_linear_2011_2672)" style=""/>
<path d="M45.7655 40.288C46.6278 40.9118 47.1096 41.6406 47.4734 42.6363C47.6719 44.4226 47.1447 46.0653 46.6195 47.7599C46.5622 47.9622 46.505 48.1644 46.446 48.3728C46.1925 48.8273 46.1925 48.8273 45.6838 49.025C45.394 49.0658 45.394 49.0658 45.0984 49.1075C44.9041 49.1375 44.7098 49.1675 44.5097 49.1984C44.3605 49.2169 44.2114 49.2353 44.0577 49.2543C42.4965 47.227 41.3137 45.6428 41.4142 43.0074C41.5699 41.8931 42.104 41.3643 42.9102 40.6349C43.8817 40.1672 44.7058 40.0842 45.7655 40.288Z" fill="url(#paint14_linear_2011_2672)" style=""/>
<path d="M57.2932 51.3892C57.9075 52.0664 58.2016 52.6204 58.2673 53.524C58.2132 54.5317 57.8066 54.9804 57.0798 55.6588C55.5054 56.4302 53.7734 56.2452 52.143 55.7255C50.9652 55.292 49.8624 54.7513 48.7539 54.1644C48.8948 53.3191 49.0357 52.4737 49.1809 51.6026C51.6138 50.8361 54.9822 49.882 57.2932 51.3892Z" fill="url(#paint15_linear_2011_2672)" style=""/>
<path d="M48.3818 54.8458C50.6709 55.5208 52.7766 57.3571 54.1042 59.2881C54.378 60.1644 54.4825 60.9425 54.3043 61.8499C53.9361 62.5045 53.4918 63.0033 52.8099 63.3442C51.9411 63.5029 51.1968 63.5242 50.4199 63.0707C48.3387 61.3298 47.5348 59.0086 47.0459 56.3927C47.0459 55.6588 47.0459 55.6588 47.3928 55.1118C47.8998 54.8049 47.8998 54.8049 48.3818 54.8458Z" fill="url(#paint16_linear_2011_2672)" style=""/>
<path d="M63.058 64.1981C63.677 64.7862 64.1108 65.3347 64.1463 66.2012C64.1438 66.3944 64.1413 66.5876 64.1388 66.7866C64.1369 66.9809 64.1349 67.1752 64.133 67.3754C64.1305 67.5245 64.128 67.6737 64.1255 67.8274C64.4557 67.8075 64.4557 67.8075 64.7926 67.7873C65.8311 67.8376 66.5399 68.0735 67.2518 68.8514C67.7544 69.6683 67.6831 70.5295 67.5412 71.4566C67.0734 72.1179 66.8131 72.2686 66.0468 72.524C65.7226 72.5436 65.3976 72.5517 65.0728 72.5507C64.9052 72.5512 64.7376 72.5518 64.5649 72.5523C64.1255 72.524 64.1254 72.524 63.6985 72.3105C63.6787 72.5879 63.6787 72.5879 63.6585 72.8709C63.4323 73.8103 63.1457 74.2352 62.4176 74.8723C61.742 75.0421 61.1717 75.0431 60.4962 74.8723C59.9759 74.392 59.9759 74.392 59.6423 73.8049C59.5102 73.6001 59.5102 73.6001 59.3755 73.3913C59.1626 72.8059 59.1873 72.2874 59.2153 71.6701C58.9908 71.6568 58.7662 71.6436 58.5349 71.63C57.5657 71.4235 57.2356 71.1829 56.6535 70.3892C56.5335 69.7354 56.5335 69.7354 56.6535 69.1083C57.1838 68.4013 57.7303 68.0687 58.5749 67.8274C59.2821 67.8007 59.2821 67.8007 59.8558 67.8274C59.8459 67.6702 59.836 67.5131 59.8258 67.3512C59.7623 65.6349 59.7623 65.6349 60.2561 64.8119C61.1035 64.0642 61.9615 64.0186 63.058 64.1981ZM61.0008 65.2063C60.6584 65.7783 60.6362 66.0993 60.6563 66.7599C60.6597 66.9405 60.663 67.121 60.6664 67.307C60.7065 67.7886 60.7901 68.2177 60.9232 68.6813C60.784 68.6739 60.6447 68.6664 60.5012 68.6588C59.3251 68.6223 58.5338 68.6735 57.5075 69.3217C57.5652 69.842 57.5652 69.842 57.721 70.3892C58.4513 70.876 58.7205 70.8629 59.5756 70.8428C59.7878 70.839 59.9999 70.8351 60.2185 70.8311C60.3806 70.8262 60.5427 70.8212 60.7097 70.8161C60.5446 71.0341 60.5446 71.0341 60.3762 71.2564C59.9747 72.0768 60.0447 72.5051 60.2828 73.3779C60.6212 73.9302 60.6212 73.9302 61.1367 74.2318C61.6947 74.2839 61.6947 74.2839 62.2041 74.0184C62.9805 73.1884 62.9 72.3185 62.8671 71.2456C62.8559 71.033 62.8559 71.033 62.8446 70.8161C63.0559 70.8161 63.2672 70.8161 63.485 70.8161C63.6259 71.0979 63.7668 71.3797 63.912 71.6701C65.327 71.7997 65.327 71.7997 66.6072 71.3098C66.9688 70.7017 67.0532 70.4431 66.9007 69.7487C66.4829 69.1173 66.4829 69.1173 65.8333 68.6813C64.8039 68.5503 64.0176 68.7338 63.058 69.1083C63.0933 68.8969 63.1285 68.6856 63.1648 68.4678C63.41 66.8184 63.41 66.8184 62.9113 65.2656C62.4532 64.8009 62.4532 64.8009 61.8705 64.7185C61.3291 64.7931 61.3291 64.7931 61.0008 65.2063Z" fill="url(#paint17_linear_2011_2672)" style=""/>
<path d="M13.3154 21.288C20.9944 21.288 28.6734 21.288 36.5851 21.288C36.5851 29.1784 36.5851 37.0687 36.5851 45.1982C36.4442 45.1982 36.3033 45.1982 36.1581 45.1982C36.1581 37.4487 36.1581 29.6993 36.1581 21.715C28.7609 21.715 21.3637 21.715 13.7424 21.715C13.8126 27.8688 13.8126 27.8688 13.8829 34.0227C13.8965 35.2123 13.8965 35.2123 13.9028 35.769C13.9072 36.1582 13.9117 36.5474 13.9161 36.9367C13.9229 37.5259 13.9296 38.1151 13.9363 38.7043C13.9383 38.878 13.9403 39.0517 13.9423 39.2306C13.9495 39.8678 13.9559 40.5048 13.9559 41.142C13.6389 41.2476 13.6389 41.2476 13.3154 41.3555C13.3154 34.7332 13.3154 28.111 13.3154 21.288Z" fill="url(#paint18_linear_2011_2672)" style=""/>
<path d="M5.41681 44.5577C6.17494 44.7685 6.85571 45.0468 7.55165 45.4116C7.69255 45.4821 7.83344 45.5525 7.97861 45.6251C7.90816 46.5409 7.83771 47.4568 7.76513 48.4004C6.2602 49.0791 4.6729 49.6601 3.02847 49.0934C2.19003 48.7003 1.63344 48.3584 1.14715 47.5464C1.04708 47.0261 1.04708 47.0261 1.04041 46.479C1.03381 46.2985 1.0272 46.118 1.0204 45.932C1.14715 45.4116 1.14715 45.4116 1.59163 44.9246C2.76915 44.231 4.09488 44.4185 5.41681 44.5577Z" fill="url(#paint19_linear_2011_2672)" style=""/>
<path d="M45.9786 5.06331C46.6191 5.49028 46.6191 5.49028 46.7375 6.00064C46.7601 6.20208 46.7826 6.40352 46.8059 6.61107C46.9957 7.79148 47.2294 8.31402 48.1135 9.11949C48.6012 9.44229 49.085 9.70689 49.6079 9.97343C49.3491 10.7497 49.1444 10.8181 48.4604 11.2276C47.418 11.8975 47.418 11.8975 46.8326 12.9622C46.723 13.7438 46.6591 14.5224 46.6191 15.3105C46.2055 15.4306 46.2055 15.4306 45.7652 15.524C45.3943 15.1532 45.4537 14.6016 45.3916 14.0963C45.1904 12.8677 44.9978 12.2857 44.0573 11.4678C43.5036 11.1411 42.9415 10.8637 42.3494 10.6139C42.3628 10.1202 42.3628 10.1202 42.5629 9.54646C42.9263 9.38573 43.2909 9.22674 43.6629 9.08697C44.3593 8.76745 44.786 8.29316 45.1247 7.62511C45.275 7.00577 45.3764 6.39875 45.4541 5.76631C45.5024 5.524 45.5024 5.524 45.5517 5.2768C45.6926 5.20635 45.8335 5.1359 45.9786 5.06331Z" fill="url(#paint20_linear_2011_2672)" style=""/>
<path d="M12.8886 47.7599C14.4681 47.8247 15.8909 48.0099 17.0666 49.1534C17.6639 49.8514 17.989 50.3301 18.0923 51.2424C18.0122 52.0296 18.0122 52.0296 17.612 52.63C16.7139 53.2587 15.9079 53.5102 14.81 53.524C13.5888 53.1983 12.7418 52.1739 12.0347 51.1757C11.7293 50.6398 11.6033 50.4115 11.6344 49.788C11.8589 49.1468 12.1845 48.8604 12.6752 48.4004C12.7456 48.189 12.8161 47.9777 12.8886 47.7599Z" fill="url(#paint21_linear_2011_2672)" style=""/>
<path d="M9.26857 38.1882C10.3185 38.6367 10.8273 39.6218 11.3809 40.5682C11.7339 41.7936 11.5512 42.8506 11.2516 44.0715C10.9673 44.5577 10.9673 44.5577 10.3652 44.7554C10.0159 44.7962 10.0159 44.7962 9.65967 44.8379C9.42576 44.8679 9.19185 44.8979 8.95084 44.9288C8.77087 44.9472 8.59089 44.9657 8.40546 44.9847C7.30833 43.4828 6.38815 42.0472 6.47077 40.1279C6.58267 39.4494 6.7536 39.0392 7.24465 38.5535C8.03328 38.1233 8.40553 38.0133 9.26857 38.1882Z" fill="url(#paint22_linear_2011_2672)" style=""/>
<path d="M9.6063 49.5612C9.8204 49.6226 10.0345 49.684 10.2551 49.7472C10.4197 49.7959 10.5842 49.8446 10.7538 49.8948C10.8709 51.7887 10.8105 53.4889 9.55543 55.0084C8.96659 55.5672 8.55362 55.8421 7.75167 56.0057C6.67944 55.7776 6.01928 55.2818 5.4167 54.3779C5.2153 52.9681 5.72124 51.9025 6.48411 50.7487C7.5093 49.6575 8.12665 49.1311 9.6063 49.5612Z" fill="url(#paint23_linear_2011_2672)" style=""/>
<path d="M16.9443 41.3555C17.6983 41.8849 17.9564 42.26 18.2519 43.1301C18.2151 44.2138 17.9019 44.8417 17.1578 45.6251C16.0231 46.4551 14.7896 46.9124 13.3751 46.8385C12.5827 46.601 12.22 46.1328 11.794 45.4442C11.6072 44.9847 11.6072 44.9847 11.6606 44.3309C12.8553 42.3255 14.4936 40.9879 16.9443 41.3555Z" fill="url(#paint24_linear_2011_2672)" style=""/>
<path d="M75.6531 54.1645C75.794 54.3758 75.9349 54.5872 76.0801 54.8049C76.7474 54.8829 76.7474 54.8829 77.4944 54.8449C77.7482 54.8392 78.0019 54.8334 78.2633 54.8274C78.4587 54.82 78.6541 54.8126 78.8554 54.8049C78.9333 56.1821 78.9333 56.1821 78.6236 56.6479C78.0326 57.07 77.4726 57.1428 76.7606 57.2733C76.6191 57.2994 76.4775 57.3255 76.3317 57.3524C75.8926 57.4317 75.4529 57.5066 75.0127 57.5802C74.6201 57.6471 74.6201 57.6471 74.2196 57.7153C71.1645 58.1947 71.1645 58.1947 69.6756 58.0072C69.1279 57.4595 69.1333 57.0514 69.0352 56.2993C69.1818 56.2734 69.3285 56.2476 69.4796 56.2209C69.672 56.1851 69.8644 56.1494 70.0625 56.1125C70.2533 56.0778 70.444 56.0432 70.6404 56.0074C71.2185 55.8911 71.2185 55.8911 71.8104 55.4454C71.8707 55.3012 71.931 55.157 71.9931 55.0084C72.2374 54.5914 72.2374 54.5914 72.7553 54.4146C73.0603 54.3701 73.0603 54.3701 73.3715 54.3246C73.6741 54.2767 73.6741 54.2767 73.9828 54.2278C75.1147 54.1089 75.1147 54.1089 75.6531 54.1645Z" fill="url(#paint25_linear_2011_2672)" style=""/>
<path d="M46.4059 49.6813C47.148 50.2061 47.9154 50.7789 48.3273 51.6026C48.4971 53.0338 48.4971 53.0338 48.0638 53.74C47.5491 54.3476 47.0721 54.7877 46.4059 55.2318C45.2069 55.2318 44.5932 54.859 43.7332 54.0935C43.221 53.5164 43.0098 53.0336 42.9102 52.2698C43.0141 51.4038 43.2833 50.9859 43.8441 50.3217C44.7031 49.7615 45.3883 49.4777 46.4059 49.6813Z" fill="url(#paint26_linear_2011_2672)" style=""/>
<path d="M26.3385 30.2543C26.8887 30.7158 26.9684 30.9935 27.034 31.7053C26.97 32.5008 26.7422 32.9155 26.3252 33.59C25.81 34.3586 25.81 34.3586 25.7656 35.2361C25.8138 35.3534 25.8619 35.4706 25.9115 35.5914C27.443 35.719 28.4193 35.4094 29.7976 34.7366C30.4635 34.4995 30.7952 34.5342 31.4621 34.7375C31.2486 35.3779 31.2486 35.3779 30.7274 35.6589C27.0744 37.1174 27.0744 37.1174 25.4846 36.6588C24.9005 36.1346 24.6745 35.7801 24.4972 35.0177C24.6719 34.0917 25.1094 33.4567 25.6313 32.681C25.9806 32.1475 25.9806 32.1475 25.9115 31.3217C24.366 31.3614 23.3477 32.4016 22.299 33.4332C21.4505 34.3569 20.8131 35.3504 20.2034 36.4445C19.934 36.8723 19.934 36.8723 19.507 37.0858C19.3661 37.0153 19.2252 36.9449 19.0801 36.8723C19.9176 34.0994 21.8254 31.8943 24.3321 30.4828C25.0499 30.1625 25.5689 30.0973 26.3385 30.2543Z" fill="url(#paint27_linear_2011_2672)" style=""/>
<path d="M20.044 0.896661C20.2799 0.893969 20.5157 0.891277 20.7587 0.888504C21.0124 0.890233 21.2662 0.891961 21.5276 0.893742C21.7892 0.892925 22.0508 0.892108 22.3204 0.891266C22.8736 0.890685 23.4269 0.892261 23.9801 0.895827C24.8268 0.900392 25.6732 0.895873 26.5199 0.890406C27.0573 0.890971 27.5948 0.892065 28.1322 0.893742C28.3856 0.892014 28.6389 0.890285 28.8999 0.888504C30.6386 0.908293 30.6382 0.908303 31.5151 1.38196C31.93 1.91412 32.0216 2.14257 32.0154 2.80926C32.0148 2.98663 32.0143 3.16399 32.0137 3.34672C32.0077 3.53014 32.0016 3.71356 31.9954 3.90253C31.9962 4.17889 31.9962 4.17889 31.997 4.46084C31.976 5.81184 31.976 5.81184 31.5755 6.29499C31.2482 6.55773 31.2481 6.55773 31.0346 6.55773C31.0293 6.4295 31.024 6.30128 31.0185 6.16917C30.9938 5.59148 30.9676 5.01386 30.9413 4.43624C30.9329 4.23438 30.9245 4.03253 30.9159 3.82456C30.9069 3.63261 30.898 3.44066 30.8888 3.2429C30.877 2.97626 30.877 2.97626 30.865 2.70424C30.8653 2.28734 30.8653 2.28734 30.6077 2.07458C30.2408 2.0546 29.8731 2.04951 29.5057 2.05035C29.1531 2.05037 29.1531 2.05037 28.7934 2.05039C28.4098 2.05205 28.4098 2.05205 28.0184 2.05373C27.7581 2.05404 27.4978 2.05434 27.2296 2.05465C26.3942 2.05585 25.5589 2.05853 24.7236 2.06124C24.1589 2.06231 23.5942 2.06328 23.0295 2.06416C21.6417 2.06652 20.2539 2.07021 18.8661 2.07458C18.7956 3.34267 18.7253 4.61076 18.6527 5.91728C18.4413 5.98773 18.23 6.05818 18.0122 6.13076C17.9874 5.43701 17.9722 4.74336 17.9589 4.0493C17.9517 3.85281 17.9445 3.65632 17.9372 3.45388C17.9344 3.264 17.9317 3.07412 17.9288 2.87848C17.9244 2.70407 17.9199 2.52967 17.9153 2.34998C18.1453 1.19023 18.9633 0.900203 20.044 0.896661Z" fill="url(#paint28_linear_2011_2672)" style=""/>
<path d="M25.2702 60.9959C25.552 61.0664 25.8338 61.1368 26.1241 61.2094C26.1555 61.3989 26.1555 61.3989 26.1875 61.5922C26.3903 62.6641 26.5842 63.4243 27.405 64.1982C27.964 64.4827 27.964 64.4827 28.4724 64.6251C28.4458 64.9987 28.4458 64.9987 28.259 65.4791C27.8334 65.7658 27.4063 66.0503 26.9781 66.333C26.3425 67.1439 26.2236 67.88 26.1241 68.8948C25.8423 68.8948 25.5605 68.8948 25.2702 68.8948C25.2542 68.7531 25.2383 68.6113 25.2218 68.4653C25.0368 67.1313 25.0368 67.1313 24.2161 66.1195C24.0004 65.9786 23.7846 65.8377 23.5623 65.6925C23.351 65.5516 23.1396 65.4107 22.9219 65.2656C22.9219 65.0542 22.9219 64.8429 22.9219 64.6251C23.1552 64.5106 23.3886 64.3962 23.629 64.2782C24.4346 63.8144 24.7421 63.3818 25.0567 62.4903C25.2091 61.6924 25.2091 61.6924 25.2702 60.9959Z" fill="url(#paint29_linear_2011_2672)" style=""/>
<path d="M78.4277 17.6588C78.928 18.4093 78.9867 19.0265 79.0732 19.8987C79.0906 20.0654 79.108 20.2321 79.126 20.4038C79.3488 22.6547 79.4657 24.914 79.5875 27.1722C79.6289 27.9389 79.672 28.7055 79.7153 29.4721C79.7426 29.9647 79.7699 30.4572 79.797 30.9498C79.8097 31.1764 79.8223 31.4031 79.8354 31.6366C79.8984 32.8146 79.9351 33.9847 79.9218 35.1644C79.6048 35.2701 79.6048 35.2701 79.2814 35.3779C79.07 35.5893 79.07 35.5893 78.8544 35.8049C78.8437 35.5713 78.833 35.3377 78.822 35.097C78.7711 33.9898 78.7194 32.8826 78.6676 31.7754C78.6535 31.4737 78.6537 31.4738 78.6393 31.166C78.4928 28.0552 78.3258 24.9463 78.1309 21.8381C78.1138 21.5611 78.0967 21.2841 78.0791 20.9987C78.064 20.7595 78.0488 20.5203 78.0332 20.2738C77.9989 19.5399 77.9669 18.8202 78.0007 18.0858C78.1416 17.9449 78.2825 17.804 78.4277 17.6588Z" fill="url(#paint30_linear_2011_2672)" style=""/>
<path d="M71.597 28.333C71.6675 28.4034 71.7379 28.4739 71.8105 28.5465C71.7921 28.9726 71.7921 28.9726 71.7304 29.4938C71.7112 29.6653 71.6919 29.8367 71.6721 30.0133C71.597 30.4678 71.597 30.4678 71.3835 30.8948C71.375 31.3217 71.3742 31.7488 71.3835 32.1757C72.5866 32.021 73.5523 31.599 74.6483 31.0999C75.2262 30.8948 75.2262 30.8948 75.8667 31.1083C75.6432 31.7983 75.4412 31.9614 74.7968 32.3258C74.5378 32.4348 74.2788 32.5437 74.012 32.656C73.7558 32.7672 73.4996 32.8784 73.2357 32.9929C72.4126 33.2553 71.8139 33.3385 70.9566 33.2431C70.5479 32.9796 70.5479 32.9796 70.3161 32.6027C70.0673 31.3438 70.3877 30.301 70.9566 29.1869C69.2341 30.4234 68.2225 32.1183 67.1139 33.8836C66.8321 33.8131 66.5503 33.7427 66.2599 33.6701C66.9555 31.8107 69.1847 27.5548 71.597 28.333Z" fill="url(#paint31_linear_2011_2672)" style=""/>
<path d="M13.5289 18.7262C13.5994 18.7262 13.6698 18.7262 13.7424 18.7262C13.7424 19.1489 13.7424 19.5716 13.7424 20.0071C21.21 20.0071 28.6777 20.0071 36.3716 20.0071C36.4421 19.7958 36.5125 19.5844 36.5851 19.3667C36.5851 19.7189 36.5851 20.0712 36.5851 20.4341C28.9061 20.4341 21.2271 20.4341 13.3154 20.4341C13.3154 18.9397 13.3154 18.9397 13.5289 18.7262Z" fill="url(#paint32_linear_2011_2672)" style=""/>
<path d="M11.1802 45.6251C11.8444 46.2194 12.0148 46.57 12.1542 47.4531C12.0342 48.1869 12.0342 48.1869 11.5805 48.7073C10.8566 49.1007 10.4974 49.1761 9.68584 49.0408C8.96529 48.6245 8.68102 48.3563 8.3916 47.5731C8.40926 46.69 8.69865 46.2943 9.25888 45.6251C10.0289 45.3684 10.4028 45.403 11.1802 45.6251Z" fill="url(#paint33_linear_2011_2672)" style=""/>
<path d="M11.8214 18.0858C11.8918 18.0858 11.9623 18.0858 12.0348 18.0858C12.1053 18.5789 12.1757 19.0721 12.2483 19.5802C12.3188 19.5802 12.3892 19.5802 12.4618 19.5802C12.4618 26.6956 12.4618 33.811 12.4618 41.142C11.7029 40.3831 11.583 39.5093 11.5646 38.4696C11.5672 38.0894 11.5721 37.7092 11.579 37.329C11.581 37.1206 11.583 36.9122 11.5851 36.6974C11.5923 36.0113 11.6026 35.3252 11.6129 34.6391C11.6185 34.1623 11.6239 33.6855 11.6291 33.2087C11.6433 31.9557 11.6601 30.7028 11.6775 29.4499C11.6948 28.1706 11.7096 26.8912 11.7246 25.6119C11.7544 23.1032 11.787 20.5945 11.8214 18.0858Z" fill="url(#paint34_linear_2011_2672)" style=""/>
<path d="M4.05591 43.6904C4.28212 43.6919 4.28212 43.6919 4.5129 43.6934C4.88539 43.6959 5.25787 43.6997 5.63035 43.7038C5.7008 44.056 5.77124 44.4083 5.84383 44.7712C5.59175 44.7638 5.33968 44.7563 5.07996 44.7487C4.74751 44.7427 4.41505 44.7369 4.08259 44.7312C3.91665 44.7258 3.75071 44.7204 3.57974 44.7149C2.85061 44.7056 2.34273 44.7096 1.67841 45.0289C1.15166 45.6635 1.23246 46.2295 1.26145 47.0236C1.41041 47.8085 1.79989 48.1502 2.4281 48.6139C2.569 48.6844 2.7099 48.7548 2.85507 48.8274C2.85507 48.9683 2.85507 49.1092 2.85507 49.2544C2.38807 49.4145 2.38807 49.4145 1.78765 49.4678C0.785926 48.8954 0.432942 48.1976 0.0797842 47.1195C-0.0416218 46.2697 0.0354663 45.9223 0.440037 45.1581C1.48092 43.8922 2.49188 43.6717 4.05591 43.6904Z" fill="url(#paint35_linear_2011_2672)" style=""/>
<path d="M48.967 26.1982C49.1784 26.2686 49.3897 26.3391 49.6075 26.4116C49.8242 26.9083 50.0376 27.4065 50.2479 27.906C50.4593 28.0469 50.6706 28.1878 50.8884 28.333C50.8013 28.8383 50.7446 29.1202 50.368 29.4805C49.9061 29.9609 49.79 30.4766 49.6075 31.1083C49.3961 31.1083 49.1848 31.1083 48.967 31.1083C48.9128 30.9899 48.8586 30.8716 48.8028 30.7497C48.7293 30.595 48.6558 30.4404 48.5801 30.281C48.5083 30.1275 48.4364 29.9739 48.3624 29.8157C48.1142 29.3352 48.1142 29.3352 47.4727 28.9734C47.8463 28.1462 47.8463 28.1462 48.3266 27.906C48.5195 27.5041 48.5195 27.5041 48.6735 27.0387C48.7569 26.8039 48.7569 26.8039 48.8419 26.5642C48.8832 26.4434 48.9245 26.3226 48.967 26.1982Z" fill="url(#paint36_linear_2011_2672)" style=""/>
<path d="M78.6416 10.8274C78.8501 11.6969 78.8797 12.5071 78.8759 13.4C78.8756 13.5406 78.8753 13.6813 78.875 13.8262C78.8738 14.272 78.8711 14.7179 78.8684 15.1637C78.8673 15.4674 78.8664 15.7711 78.8655 16.0748C78.8631 16.8163 78.8595 17.5578 78.8551 18.2993C78.7846 18.2993 78.7142 18.2993 78.6416 18.2993C78.5711 18.6515 78.5007 19.0038 78.4281 19.3667C78.3576 19.3667 78.2872 19.3667 78.2146 19.3667C77.9469 18.1314 77.9772 16.914 77.9878 15.6574C77.9887 15.4392 77.9897 15.221 77.9907 14.9961C77.9932 14.4605 77.9961 13.9248 78.0005 13.3891C77.7495 13.409 77.7501 13.409 77.4941 13.4292C77.2167 13.4094 77.2167 13.4094 76.9337 13.3892C76.7928 13.1778 76.6519 12.9665 76.5067 12.7487C76.9294 12.6783 77.3516 12.6078 77.7871 12.5352C77.7871 12.0421 77.7876 11.5489 77.7876 11.0408C78.2146 10.8274 78.2146 10.8274 78.6416 10.8274Z" fill="url(#paint37_linear_2011_2672)" style=""/>
<path d="M86.9674 20.6476C87.1788 20.718 87.3901 20.7885 87.6079 20.8611C87.7955 21.2405 87.7955 21.2405 87.9414 21.7017C88.1328 22.2975 88.2222 22.5428 88.6753 22.9959C88.6753 23.2072 88.6753 23.4186 88.6753 23.6363C88.5388 23.7684 88.4023 23.9005 88.2617 24.0366C87.7616 24.5518 87.6858 24.8567 87.6079 25.5577C87.3965 25.5577 87.1852 25.5577 86.9674 25.5577C86.875 25.3243 86.7825 25.091 86.6872 24.8505C86.4348 24.2567 86.1972 23.8362 85.6865 23.4229C85.757 23.2115 85.8274 23.0002 85.9 22.7824C86.0409 22.7824 86.1818 22.7824 86.327 22.7824C86.3553 22.6462 86.3837 22.51 86.4129 22.3696C86.4506 22.1932 86.4883 22.0168 86.5271 21.8351C86.5643 21.6592 86.6014 21.4834 86.6397 21.3022C86.7539 20.8611 86.7539 20.8611 86.9674 20.6476Z" fill="url(#paint38_linear_2011_2672)" style=""/>
<path d="M45.9784 8.26556C46.1017 8.42848 46.2249 8.59139 46.352 8.75924C46.7719 9.26082 47.1493 9.60906 47.6862 9.97343C47.3289 10.8181 46.8042 11.4346 46.1919 12.1083C46.051 12.1083 45.9101 12.1083 45.7649 12.1083C45.4781 11.6827 45.1936 11.2556 44.911 10.8274C44.6996 10.6865 44.4883 10.5456 44.2705 10.4004C44.5351 9.60652 44.9506 9.26406 45.5514 8.69253C45.6923 8.55163 45.8332 8.41073 45.9784 8.26556Z" fill="url(#paint39_linear_2011_2672)" style=""/>
<path d="M78.0005 9.11948C78.5482 9.66717 78.5435 10.0752 78.6416 10.8274C78.2893 10.8978 77.9367 10.9683 77.5738 11.0409C77.5738 10.7591 77.5736 10.4772 77.5736 10.1869C76.0237 10.3278 74.474 10.4687 72.8772 10.6139C72.8772 10.473 72.8772 10.3321 72.8772 10.1869C72.7363 10.1165 72.5954 10.046 72.4502 9.97345C72.4502 9.83255 72.4502 9.69165 72.4502 9.54648C73.135 9.47425 73.82 9.4035 74.505 9.333C74.6979 9.31263 74.8908 9.29227 75.0895 9.27129C77.1816 9.0575 77.1813 9.05747 78.0005 9.11948Z" fill="url(#paint40_linear_2011_2672)" style=""/>
<path d="M79.2822 29.8274C79.7428 30.5182 79.7697 30.7547 79.7976 31.5577C79.8058 31.7676 79.8141 31.9774 79.8226 32.1936C79.8292 32.4122 79.8358 32.6309 79.8426 32.8561C79.8508 33.0773 79.8591 33.2984 79.8676 33.5262C79.8877 34.0722 79.9052 34.6183 79.9218 35.1644C79.7105 35.2349 79.4991 35.3053 79.2814 35.3779C79.1405 35.5188 78.9996 35.6597 78.8544 35.8049C78.842 35.0088 78.8352 34.2127 78.8285 33.4165C78.825 33.1913 78.8214 32.9661 78.8177 32.734C78.8163 32.5159 78.8149 32.2978 78.8135 32.0731C78.8113 31.873 78.8091 31.6729 78.8068 31.4667C78.8591 30.8486 79.0249 30.3887 79.2822 29.8274Z" fill="url(#paint41_linear_2011_2672)" style=""/>
<path d="M79.0694 33.8835C79.7099 34.3105 79.7099 34.3105 79.8553 34.6918C79.9344 35.2415 79.9473 35.7664 79.9442 36.3219C79.9435 36.5407 79.9428 36.7595 79.9421 36.9849C79.9403 37.2119 79.9385 37.439 79.9367 37.6729C79.9357 37.9032 79.9348 38.1335 79.9338 38.3709C79.9313 38.9388 79.9277 39.5067 79.9233 40.0746C79.712 40.145 79.5007 40.2155 79.2829 40.288C79.0719 38.8925 79.044 37.535 79.0561 36.1251C79.057 35.9088 79.058 35.6925 79.059 35.4697C79.0615 34.9409 79.065 34.4122 79.0694 33.8835Z" fill="url(#paint42_linear_2011_2672)" style=""/>
<path d="M67.7542 10.4004C67.6134 10.4004 67.4724 10.4004 67.3273 10.4004C67.3273 10.6822 67.3273 10.964 67.3273 11.2543C65.9183 11.3952 64.5093 11.5361 63.0576 11.6813C63.0576 11.3291 63.0576 10.9768 63.0576 10.6139C63.6801 10.5364 64.3027 10.4611 64.9256 10.3871C65.1898 10.3538 65.1898 10.3538 65.4593 10.3199C65.6299 10.3 65.8005 10.28 65.9763 10.2595C66.1328 10.2405 66.2894 10.2215 66.4506 10.2019C66.9265 10.186 67.3002 10.2636 67.7542 10.4004Z" fill="url(#paint43_linear_2011_2672)" style=""/>
<path d="M79.2824 25.7712C79.5902 27.4644 79.8076 29.3006 79.0689 30.8948C78.7012 30.2562 78.5903 29.8046 78.6002 29.0702C78.6016 28.8899 78.603 28.7097 78.6044 28.524C78.608 28.3377 78.6115 28.1513 78.6152 27.9594C78.6171 27.7698 78.6191 27.5802 78.6211 27.3848C78.6261 26.9181 78.6331 26.4514 78.6419 25.9847C79.0689 25.7712 79.0689 25.7712 79.2824 25.7712Z" fill="url(#paint44_linear_2011_2672)" style=""/>
<path d="M25.4844 63.5577C26.0181 64.038 26.0181 64.038 26.5518 64.6251C26.5518 65.4791 26.5518 65.4791 26.1249 65.9594C25.984 66.0827 25.8431 66.206 25.6979 66.333C25.2752 65.8398 24.8525 65.3467 24.417 64.8386C24.7692 64.4159 25.1215 63.9932 25.4844 63.5577Z" fill="url(#paint45_linear_2011_2672)" style=""/>
<path d="M0.934395 45.8386C1.00484 45.8386 1.07529 45.8386 1.14788 45.8386C1.16384 45.9828 1.1798 46.127 1.19625 46.2756C1.32205 47.38 1.32205 47.38 1.8884 48.2903C2.2028 48.4831 2.52809 48.6568 2.85507 48.8274C2.85507 48.9683 2.85507 49.1092 2.85507 49.2544C2.38807 49.4145 2.38807 49.4145 1.78765 49.4678C1.07181 49.0184 0.550202 48.58 0.293945 47.7599C0.374001 47.2796 0.374002 47.2796 0.507428 46.906C0.577878 46.906 0.648327 46.906 0.720912 46.906C0.791361 46.5538 0.861811 46.2015 0.934395 45.8386Z" fill="url(#paint46_linear_2011_2672)" style=""/>
<path d="M78.6418 23.6363C78.8531 23.7068 79.0645 23.7772 79.2822 23.8498C79.3527 24.977 79.4231 26.1042 79.4957 27.2656C79.4253 27.2656 79.3548 27.2656 79.2822 27.2656C79.2118 26.8429 79.1413 26.4202 79.0687 25.9847C78.9278 25.9847 78.7871 25.9847 78.6419 25.9847C78.5715 26.2665 78.5009 26.5483 78.4283 26.8386C78.4226 26.3449 78.4184 25.8512 78.4149 25.3576C78.4125 25.0826 78.41 24.8077 78.4074 24.5245C78.4283 23.8498 78.4283 23.8498 78.6418 23.6363Z" fill="url(#paint47_linear_2011_2672)" style=""/>
<path d="M67.7542 51.6026C67.9656 51.6731 68.1769 51.7435 68.3947 51.8161C68.4536 52.229 68.5056 52.6428 68.5548 53.057C68.5845 53.2873 68.6142 53.5177 68.6448 53.755C68.6081 54.3779 68.6081 54.3779 68.1845 54.7807C68.0425 54.8591 67.9005 54.9376 67.7542 55.0184C67.7122 54.6494 67.6727 54.2802 67.6341 53.9109C67.6007 53.6026 67.6007 53.6026 67.5666 53.288C67.5412 52.6824 67.6095 52.1888 67.7542 51.6026Z" fill="url(#paint48_linear_2011_2672)" style=""/>
<path d="M63.2707 38.1532C63.4821 38.1532 63.6934 38.1532 63.9112 38.1532C64.0521 38.9986 64.193 39.844 64.3381 40.715C63.9859 40.715 63.6336 40.715 63.2707 40.715C63.2291 40.3683 63.1895 40.0213 63.1506 39.6743C63.1283 39.4811 63.1061 39.2879 63.0831 39.0889C63.0572 38.5802 63.0572 38.5802 63.2707 38.1532Z" fill="url(#paint49_linear_2011_2672)" style=""/>
<path d="M77.1476 12.7487C77.1476 12.8896 77.1476 13.0305 77.1476 13.1757C77.2885 13.3166 77.4284 13.4575 77.5735 13.6026C76.1998 13.7083 76.2008 13.7083 74.7993 13.8161C74.7993 13.6752 74.7993 13.5343 74.7993 13.3891C74.9402 13.3891 75.0811 13.3891 75.2262 13.3891C75.2262 13.2482 75.2262 13.1073 75.2262 12.9622C75.0149 12.8917 74.8035 12.8213 74.5858 12.7487C76.4156 12.4742 76.4156 12.4742 77.1476 12.7487Z" fill="url(#paint50_linear_2011_2672)" style=""/>
<path d="M76.7207 9.1195C77.3345 9.09282 77.3345 9.09282 78.0016 9.1195C78.5493 9.66718 78.5435 10.0752 78.6416 10.8274C78.2893 10.8978 77.9367 10.9683 77.5738 11.0409C77.5738 10.7591 77.5746 10.4773 77.5746 10.1869C77.2928 10.1165 77.011 10.046 76.7207 9.97343C76.9321 9.90298 77.1434 9.83253 77.3612 9.75995C77.4316 9.61905 77.5021 9.47815 77.5746 9.33298C77.2928 9.26254 77.011 9.19209 76.7207 9.1195Z" fill="url(#paint51_linear_2011_2672)" style=""/>
<path d="M72.6638 47.9734C72.7343 48.2552 72.8047 48.537 72.8773 48.8274C72.2432 48.8274 71.6092 48.8274 70.9559 48.8274C70.8855 48.616 70.815 48.4047 70.7425 48.1869C70.6016 48.1165 70.4607 48.046 70.3155 47.9734C71.9014 47.6989 71.9014 47.6989 72.6638 47.9734Z" fill="url(#paint52_linear_2011_2672)" style=""/>
<path d="M67.7542 10.4004C67.6134 10.4004 67.4724 10.4004 67.3273 10.4004C67.3273 10.6822 67.3273 10.964 67.3273 11.2543C66.6932 11.2543 66.0584 11.2544 65.4051 11.2544C65.4755 11.043 65.546 10.8317 65.6186 10.6139C65.3368 10.5435 65.055 10.473 64.7646 10.4004C65.1024 10.3585 65.4405 10.3189 65.7787 10.2803C65.9669 10.258 66.1552 10.2358 66.3491 10.2128C66.8748 10.1881 67.2558 10.2432 67.7542 10.4004Z" fill="url(#paint53_linear_2011_2672)" style=""/>
<path d="M31.6748 5.91724C31.7453 5.91724 31.8157 5.91724 31.8883 5.91724C31.8179 6.41038 31.7474 6.90353 31.6748 7.41162C31.3226 7.55252 30.9703 7.69342 30.6074 7.83858C30.6074 7.48634 30.6074 7.13409 30.6074 6.77117C30.9597 6.63027 31.3119 6.48937 31.6748 6.3442C31.6748 6.2033 31.6748 6.0624 31.6748 5.91724Z" fill="url(#paint54_linear_2011_2672)" style=""/>
<path d="M69.0351 10.1869C68.9646 10.4687 68.8942 10.7505 68.8216 11.0408C68.1876 11.0408 67.5535 11.0408 66.9003 11.0408C67.0412 10.9704 67.182 10.8999 67.3272 10.8273C67.3272 10.6864 67.3273 10.5456 67.3273 10.4004C67.9056 10.1113 68.3966 10.173 69.0351 10.1869Z" fill="url(#paint55_linear_2011_2672)" style=""/>
<path d="M62.6299 37.2993C62.7004 37.2993 62.7708 37.2993 62.8434 37.2993C62.9843 38.2151 63.1252 39.1309 63.2704 40.0745C63.059 40.0041 62.8477 39.9336 62.6299 39.8611C62.5883 39.5143 62.5487 39.1674 62.5098 38.8203C62.4875 38.6271 62.4653 38.434 62.4423 38.2349C62.4164 37.7262 62.4164 37.7262 62.6299 37.2993Z" fill="url(#paint56_linear_2011_2672)" style=""/>
<path d="M66.4732 11.2543C66.5437 11.3952 66.6141 11.5361 66.6867 11.6813C65.5707 11.9388 64.602 11.8427 63.4845 11.6813C63.4845 11.6108 63.4845 11.5404 63.4845 11.4678C65.4934 11.2227 65.4934 11.2227 66.4732 11.2543Z" fill="url(#paint57_linear_2011_2672)" style=""/>
<path d="M45.3377 5.27679C45.4082 5.27679 45.4791 5.2768 45.5517 5.2768C45.5873 6.32741 45.6042 7.09214 45.1242 8.05208C44.9833 7.91118 44.8424 7.77028 44.6973 7.62511C44.7415 7.17813 44.7415 7.17813 44.8707 6.66443C44.9117 6.49492 44.9527 6.3254 44.995 6.15074C45.1242 5.70376 45.1242 5.70376 45.3377 5.27679Z" fill="url(#paint58_linear_2011_2672)" style=""/>
<path d="M47.4725 60.7824C47.9203 61.2862 48.1063 61.5395 48.153 62.2234C48.1398 62.3819 48.1265 62.5404 48.1129 62.7038C47.9016 62.7038 47.6902 62.7038 47.4725 62.7038C47.2922 61.9826 47.2358 61.4923 47.4725 60.7824Z" fill="url(#paint59_linear_2011_2672)" style=""/>
<path d="M35.0908 52.4566C35.591 52.5111 36.0896 52.5831 36.5852 52.6701C36.6557 52.811 36.7261 52.9519 36.7987 53.097C36.2351 53.3084 35.6715 53.5197 35.0908 53.7375C35.0908 53.3148 35.0908 52.8921 35.0908 52.4566Z" fill="url(#paint60_linear_2011_2672)" style=""/>
<path d="M88.6753 22.9959C88.8162 22.9959 88.9576 22.9959 89.1028 22.9959C89.1028 23.2072 89.1028 23.4186 89.1028 23.6363C88.9619 23.6363 88.8205 23.6363 88.6753 23.6363C88.6753 23.425 88.6753 23.2136 88.6753 22.9959ZM88.2488 23.6363C88.3897 23.7068 88.5306 23.7772 88.6758 23.8498C88.3588 24.6952 88.3588 24.6952 88.0354 25.5577C87.8945 25.4168 87.7536 25.2759 87.6084 25.1307C87.6788 24.4268 87.7413 24.1439 88.2488 23.6363Z" fill="url(#paint61_linear_2011_2672)" style=""/>
<path d="M61.9901 10.8274C62.4832 10.8274 62.9764 10.8274 63.4844 10.8274C63.3435 11.1092 63.2028 11.391 63.0576 11.6813C62.6349 11.6813 62.2121 11.6813 61.7766 11.6813C61.847 11.3995 61.9175 11.1177 61.9901 10.8274Z" fill="url(#paint62_linear_2011_2672)" style=""/>
<path d="M63.0575 36.8723C63.3745 37.0836 63.3745 37.0836 63.6979 37.2993C63.738 37.8597 63.738 37.8597 63.6979 38.3667C63.4866 38.4371 63.2752 38.5076 63.0575 38.5802C62.844 38.3667 62.844 38.3667 62.8173 37.7262C62.844 37.0858 62.844 37.0858 63.0575 36.8723Z" fill="url(#paint63_linear_2011_2672)" style=""/>
<path d="M41.829 52.8969C42.3494 53.097 42.3494 53.097 42.6296 53.6441C42.7023 53.9017 42.7022 53.9017 42.7764 54.1644C42.565 54.094 42.3537 54.0235 42.1359 53.951C42.1359 53.8101 42.1359 53.6692 42.1359 53.524C41.6428 53.4535 41.1496 53.3831 40.6415 53.3105C41.282 52.8835 41.282 52.8835 41.829 52.8969Z" fill="url(#paint64_linear_2011_2672)" style=""/>
<path d="M72.6637 47.7599C73.0864 47.7599 73.5091 47.7599 73.9446 47.7599C73.8741 48.0417 73.8037 48.3235 73.7311 48.6139C73.3084 48.6139 72.8857 48.6139 72.4502 48.6139C72.5206 48.3321 72.5911 48.0503 72.6637 47.7599Z" fill="url(#paint65_linear_2011_2672)" style=""/>
<path d="M48.3269 43.4903C48.7496 43.596 48.7496 43.596 49.1809 43.7038C48.9074 44.482 48.7183 44.8068 48.1134 45.4116C48.1839 44.7776 48.2543 44.1436 48.3269 43.4903Z" fill="url(#paint66_linear_2011_2672)" style=""/>
<path d="M54.0916 49.0408C54.2325 49.1113 54.3734 49.1817 54.5186 49.2543C54.589 49.4657 54.6595 49.677 54.7321 49.8948C54.3094 49.8948 53.8867 49.8948 53.4512 49.8948C53.6625 49.613 53.8739 49.3312 54.0916 49.0408Z" fill="url(#paint67_linear_2011_2672)" style=""/>
<path d="M70.5293 29.1869C70.6702 29.1869 70.8114 29.1869 70.9566 29.1869C70.8861 29.5392 70.8154 29.8914 70.7428 30.2543C70.3201 30.3248 69.8974 30.3952 69.4619 30.4678C69.8069 30.0321 70.1633 29.6052 70.5293 29.1869Z" fill="url(#paint68_linear_2011_2672)" style=""/>
<path d="M8.40527 46.906C8.61662 46.906 8.82797 46.906 9.04572 46.906C9.11617 47.3287 9.18662 47.7514 9.25921 48.1869C9.04786 48.1869 8.83651 48.1869 8.61876 48.1869C8.54831 47.7642 8.47786 47.3415 8.40527 46.906Z" fill="url(#paint69_linear_2011_2672)" style=""/>
<path d="M63.2713 35.8049C63.3418 35.8049 63.4122 35.8049 63.4848 35.8049C63.5552 36.298 63.6253 36.7912 63.6979 37.2993C63.4866 37.2288 63.2756 37.1584 63.0578 37.0858C62.8465 37.1915 62.8455 37.1914 62.6299 37.2993C62.6299 37.0175 62.6309 36.7357 62.6309 36.4454C62.7718 36.4454 62.9127 36.4454 63.0578 36.4454C63.1283 36.234 63.1987 36.0227 63.2713 35.8049Z" fill="url(#paint70_linear_2011_2672)" style=""/>
<path d="M27.6193 46.0521C27.9261 46.0405 28.233 46.0323 28.5399 46.0254C28.7108 46.0204 28.8817 46.0155 29.0578 46.0104C29.5406 46.0521 29.5406 46.0521 30.1811 46.479C29.2167 46.7713 28.5613 46.5796 27.6194 46.2656C27.6194 46.1951 27.6193 46.1247 27.6193 46.0521Z" fill="url(#paint71_linear_2011_2672)" style=""/>
<path d="M73.3046 53.524C73.6568 53.524 74.0091 53.524 74.372 53.524C74.3015 53.8058 74.2311 54.0876 74.1585 54.3779C73.8767 54.3075 73.5949 54.237 73.3046 54.1644C73.3046 53.9531 73.3046 53.7417 73.3046 53.524Z" fill="url(#paint72_linear_2011_2672)" style=""/>
<defs>
<linearGradient id="paint0_linear_2011_2672" x1="44.5514" y1="0.888504" x2="44.5514" y2="75" gradientUnits="userSpaceOnUse">
<stop stop-color="#998EDB" style="stop-color:#998EDB;stop-color:color(display-p3 0.6008 0.5588 0.8592);stop-opacity:1;"/>
<stop offset="1" stop-color="#948DC4" style="stop-color:#948DC4;stop-color:color(display-p3 0.5818 0.5513 0.7694);stop-opacity:1;"/>
</linearGradient>
<linearGradient id="paint1_linear_2011_2672" x1="44.5514" y1="0.888504" x2="44.5514" y2="75" gradientUnits="userSpaceOnUse">
<stop stop-color="#F8F6F1" style="stop-color:#F8F6F1;stop-color:color(display-p3 0.9725 0.9647 0.9451);stop-opacity:1;"/>
<stop offset="1" stop-color="#E4E0FE" style="stop-color:#E4E0FE;stop-color:color(display-p3 0.8949 0.8784 0.9961);stop-opacity:1;"/>
</linearGradient>
<linearGradient id="paint2_linear_2011_2672" x1="44.5514" y1="0.888504" x2="44.5514" y2="75" gradientUnits="userSpaceOnUse">
<stop stop-color="#998EDB" style="stop-color:#998EDB;stop-color:color(display-p3 0.6008 0.5588 0.8592);stop-opacity:1;"/>
<stop offset="1" stop-color="#948DC4" style="stop-color:#948DC4;stop-color:color(display-p3 0.5818 0.5513 0.7694);stop-opacity:1;"/>
</linearGradient>
<linearGradient id="paint3_linear_2011_2672" x1="44.5514" y1="0.888504" x2="44.5514" y2="75" gradientUnits="userSpaceOnUse">
<stop stop-color="#F8F6F1" style="stop-color:#F8F6F1;stop-color:color(display-p3 0.9725 0.9647 0.9451);stop-opacity:1;"/>
<stop offset="1" stop-color="#E4E0FE" style="stop-color:#E4E0FE;stop-color:color(display-p3 0.8949 0.8784 0.9961);stop-opacity:1;"/>
</linearGradient>
<linearGradient id="paint4_linear_2011_2672" x1="44.5514" y1="0.888504" x2="44.5514" y2="75" gradientUnits="userSpaceOnUse">
<stop stop-color="#998EDB" style="stop-color:#998EDB;stop-color:color(display-p3 0.6008 0.5588 0.8592);stop-opacity:1;"/>
<stop offset="1" stop-color="#948DC4" style="stop-color:#948DC4;stop-color:color(display-p3 0.5818 0.5513 0.7694);stop-opacity:1;"/>
</linearGradient>
<linearGradient id="paint5_linear_2011_2672" x1="44.5514" y1="0.888504" x2="44.5514" y2="75" gradientUnits="userSpaceOnUse">
<stop stop-color="#F8F6F1" style="stop-color:#F8F6F1;stop-color:color(display-p3 0.9725 0.9647 0.9451);stop-opacity:1;"/>
<stop offset="1" stop-color="#E4E0FE" style="stop-color:#E4E0FE;stop-color:color(display-p3 0.8949 0.8784 0.9961);stop-opacity:1;"/>
</linearGradient>
<linearGradient id="paint6_linear_2011_2672" x1="44.5514" y1="0.888504" x2="44.5514" y2="75" gradientUnits="userSpaceOnUse">
<stop stop-color="#F8F6F1" style="stop-color:#F8F6F1;stop-color:color(display-p3 0.9725 0.9647 0.9451);stop-opacity:1;"/>
<stop offset="1" stop-color="#E4E0FE" style="stop-color:#E4E0FE;stop-color:color(display-p3 0.8949 0.8784 0.9961);stop-opacity:1;"/>
</linearGradient>
<linearGradient id="paint7_linear_2011_2672" x1="44.5514" y1="0.888504" x2="44.5514" y2="75" gradientUnits="userSpaceOnUse">
<stop stop-color="#998EDB" style="stop-color:#998EDB;stop-color:color(display-p3 0.6008 0.5588 0.8592);stop-opacity:1;"/>
<stop offset="1" stop-color="#948DC4" style="stop-color:#948DC4;stop-color:color(display-p3 0.5818 0.5513 0.7694);stop-opacity:1;"/>
</linearGradient>
<linearGradient id="paint8_linear_2011_2672" x1="44.5514" y1="0.888504" x2="44.5514" y2="75" gradientUnits="userSpaceOnUse">
<stop stop-color="#F8F6F1" style="stop-color:#F8F6F1;stop-color:color(display-p3 0.9725 0.9647 0.9451);stop-opacity:1;"/>
<stop offset="1" stop-color="#E4E0FE" style="stop-color:#E4E0FE;stop-color:color(display-p3 0.8949 0.8784 0.9961);stop-opacity:1;"/>
</linearGradient>
<linearGradient id="paint9_linear_2011_2672" x1="44.5514" y1="0.888504" x2="44.5514" y2="75" gradientUnits="userSpaceOnUse">
<stop stop-color="#F8F6F1" style="stop-color:#F8F6F1;stop-color:color(display-p3 0.9725 0.9647 0.9451);stop-opacity:1;"/>
<stop offset="1" stop-color="#E4E0FE" style="stop-color:#E4E0FE;stop-color:color(display-p3 0.8949 0.8784 0.9961);stop-opacity:1;"/>
</linearGradient>
<linearGradient id="paint10_linear_2011_2672" x1="44.5514" y1="0.888504" x2="44.5514" y2="75" gradientUnits="userSpaceOnUse">
<stop stop-color="#F8F6F1" style="stop-color:#F8F6F1;stop-color:color(display-p3 0.9725 0.9647 0.9451);stop-opacity:1;"/>
<stop offset="1" stop-color="#E4E0FE" style="stop-color:#E4E0FE;stop-color:color(display-p3 0.8949 0.8784 0.9961);stop-opacity:1;"/>
</linearGradient>
<linearGradient id="paint11_linear_2011_2672" x1="44.5514" y1="0.888504" x2="44.5514" y2="75" gradientUnits="userSpaceOnUse">
<stop stop-color="#F8F6F1" style="stop-color:#F8F6F1;stop-color:color(display-p3 0.9725 0.9647 0.9451);stop-opacity:1;"/>
<stop offset="1" stop-color="#E4E0FE" style="stop-color:#E4E0FE;stop-color:color(display-p3 0.8949 0.8784 0.9961);stop-opacity:1;"/>
</linearGradient>
<linearGradient id="paint12_linear_2011_2672" x1="44.5514" y1="0.888504" x2="44.5514" y2="75" gradientUnits="userSpaceOnUse">
<stop stop-color="#F8F6F1" style="stop-color:#F8F6F1;stop-color:color(display-p3 0.9725 0.9647 0.9451);stop-opacity:1;"/>
<stop offset="1" stop-color="#E4E0FE" style="stop-color:#E4E0FE;stop-color:color(display-p3 0.8949 0.8784 0.9961);stop-opacity:1;"/>
</linearGradient>
<linearGradient id="paint13_linear_2011_2672" x1="44.5514" y1="0.888504" x2="44.5514" y2="75" gradientUnits="userSpaceOnUse">
<stop stop-color="#F8F6F1" style="stop-color:#F8F6F1;stop-color:color(display-p3 0.9725 0.9647 0.9451);stop-opacity:1;"/>
<stop offset="1" stop-color="#E4E0FE" style="stop-color:#E4E0FE;stop-color:color(display-p3 0.8949 0.8784 0.9961);stop-opacity:1;"/>
</linearGradient>
<linearGradient id="paint14_linear_2011_2672" x1="44.5514" y1="0.888504" x2="44.5514" y2="75" gradientUnits="userSpaceOnUse">
<stop stop-color="#F8F6F1" style="stop-color:#F8F6F1;stop-color:color(display-p3 0.9725 0.9647 0.9451);stop-opacity:1;"/>
<stop offset="1" stop-color="#E4E0FE" style="stop-color:#E4E0FE;stop-color:color(display-p3 0.8949 0.8784 0.9961);stop-opacity:1;"/>
</linearGradient>
<linearGradient id="paint15_linear_2011_2672" x1="44.5514" y1="0.888504" x2="44.5514" y2="75" gradientUnits="userSpaceOnUse">
<stop stop-color="#F8F6F1" style="stop-color:#F8F6F1;stop-color:color(display-p3 0.9725 0.9647 0.9451);stop-opacity:1;"/>
<stop offset="1" stop-color="#E4E0FE" style="stop-color:#E4E0FE;stop-color:color(display-p3 0.8949 0.8784 0.9961);stop-opacity:1;"/>
</linearGradient>
<linearGradient id="paint16_linear_2011_2672" x1="44.5514" y1="0.888504" x2="44.5514" y2="75" gradientUnits="userSpaceOnUse">
<stop stop-color="#F8F6F1" style="stop-color:#F8F6F1;stop-color:color(display-p3 0.9725 0.9647 0.9451);stop-opacity:1;"/>
<stop offset="1" stop-color="#E4E0FE" style="stop-color:#E4E0FE;stop-color:color(display-p3 0.8949 0.8784 0.9961);stop-opacity:1;"/>
</linearGradient>
<linearGradient id="paint17_linear_2011_2672" x1="44.5514" y1="0.888504" x2="44.5514" y2="75" gradientUnits="userSpaceOnUse">
<stop stop-color="#998EDB" style="stop-color:#998EDB;stop-color:color(display-p3 0.6008 0.5588 0.8592);stop-opacity:1;"/>
<stop offset="1" stop-color="#948DC4" style="stop-color:#948DC4;stop-color:color(display-p3 0.5818 0.5513 0.7694);stop-opacity:1;"/>
</linearGradient>
<linearGradient id="paint18_linear_2011_2672" x1="44.5514" y1="0.888504" x2="44.5514" y2="75" gradientUnits="userSpaceOnUse">
<stop stop-color="#F8F6F1" style="stop-color:#F8F6F1;stop-color:color(display-p3 0.9725 0.9647 0.9451);stop-opacity:1;"/>
<stop offset="1" stop-color="#E4E0FE" style="stop-color:#E4E0FE;stop-color:color(display-p3 0.8949 0.8784 0.9961);stop-opacity:1;"/>
</linearGradient>
<linearGradient id="paint19_linear_2011_2672" x1="44.5514" y1="0.888504" x2="44.5514" y2="75" gradientUnits="userSpaceOnUse">
<stop stop-color="#F8F6F1" style="stop-color:#F8F6F1;stop-color:color(display-p3 0.9725 0.9647 0.9451);stop-opacity:1;"/>
<stop offset="1" stop-color="#E4E0FE" style="stop-color:#E4E0FE;stop-color:color(display-p3 0.8949 0.8784 0.9961);stop-opacity:1;"/>
</linearGradient>
<linearGradient id="paint20_linear_2011_2672" x1="44.5514" y1="0.888504" x2="44.5514" y2="75" gradientUnits="userSpaceOnUse">
<stop stop-color="#998EDB" style="stop-color:#998EDB;stop-color:color(display-p3 0.6008 0.5588 0.8592);stop-opacity:1;"/>
<stop offset="1" stop-color="#948DC4" style="stop-color:#948DC4;stop-color:color(display-p3 0.5818 0.5513 0.7694);stop-opacity:1;"/>
</linearGradient>
<linearGradient id="paint21_linear_2011_2672" x1="44.5514" y1="0.888504" x2="44.5514" y2="75" gradientUnits="userSpaceOnUse">
<stop stop-color="#F8F6F1" style="stop-color:#F8F6F1;stop-color:color(display-p3 0.9725 0.9647 0.9451);stop-opacity:1;"/>
<stop offset="1" stop-color="#E4E0FE" style="stop-color:#E4E0FE;stop-color:color(display-p3 0.8949 0.8784 0.9961);stop-opacity:1;"/>
</linearGradient>
<linearGradient id="paint22_linear_2011_2672" x1="44.5514" y1="0.888504" x2="44.5514" y2="75" gradientUnits="userSpaceOnUse">
<stop stop-color="#F8F6F1" style="stop-color:#F8F6F1;stop-color:color(display-p3 0.9725 0.9647 0.9451);stop-opacity:1;"/>
<stop offset="1" stop-color="#E4E0FE" style="stop-color:#E4E0FE;stop-color:color(display-p3 0.8949 0.8784 0.9961);stop-opacity:1;"/>
</linearGradient>
<linearGradient id="paint23_linear_2011_2672" x1="44.5514" y1="0.888504" x2="44.5514" y2="75" gradientUnits="userSpaceOnUse">
<stop stop-color="#F8F6F1" style="stop-color:#F8F6F1;stop-color:color(display-p3 0.9725 0.9647 0.9451);stop-opacity:1;"/>
<stop offset="1" stop-color="#E4E0FE" style="stop-color:#E4E0FE;stop-color:color(display-p3 0.8949 0.8784 0.9961);stop-opacity:1;"/>
</linearGradient>
<linearGradient id="paint24_linear_2011_2672" x1="44.5514" y1="0.888504" x2="44.5514" y2="75" gradientUnits="userSpaceOnUse">
<stop stop-color="#F8F6F1" style="stop-color:#F8F6F1;stop-color:color(display-p3 0.9725 0.9647 0.9451);stop-opacity:1;"/>
<stop offset="1" stop-color="#E4E0FE" style="stop-color:#E4E0FE;stop-color:color(display-p3 0.8949 0.8784 0.9961);stop-opacity:1;"/>
</linearGradient>
<linearGradient id="paint25_linear_2011_2672" x1="44.5514" y1="0.888504" x2="44.5514" y2="75" gradientUnits="userSpaceOnUse">
<stop stop-color="#F8F6F1" style="stop-color:#F8F6F1;stop-color:color(display-p3 0.9725 0.9647 0.9451);stop-opacity:1;"/>
<stop offset="1" stop-color="#E4E0FE" style="stop-color:#E4E0FE;stop-color:color(display-p3 0.8949 0.8784 0.9961);stop-opacity:1;"/>
</linearGradient>
<linearGradient id="paint26_linear_2011_2672" x1="44.5514" y1="0.888504" x2="44.5514" y2="75" gradientUnits="userSpaceOnUse">
<stop stop-color="#F8F6F1" style="stop-color:#F8F6F1;stop-color:color(display-p3 0.9725 0.9647 0.9451);stop-opacity:1;"/>
<stop offset="1" stop-color="#E4E0FE" style="stop-color:#E4E0FE;stop-color:color(display-p3 0.8949 0.8784 0.9961);stop-opacity:1;"/>
</linearGradient>
<linearGradient id="paint27_linear_2011_2672" x1="44.5514" y1="0.888504" x2="44.5514" y2="75" gradientUnits="userSpaceOnUse">
<stop stop-color="#998EDB" style="stop-color:#998EDB;stop-color:color(display-p3 0.6008 0.5588 0.8592);stop-opacity:1;"/>
<stop offset="1" stop-color="#948DC4" style="stop-color:#948DC4;stop-color:color(display-p3 0.5818 0.5513 0.7694);stop-opacity:1;"/>
</linearGradient>
<linearGradient id="paint28_linear_2011_2672" x1="44.5514" y1="0.888504" x2="44.5514" y2="75" gradientUnits="userSpaceOnUse">
<stop stop-color="#998EDB" style="stop-color:#998EDB;stop-color:color(display-p3 0.6008 0.5588 0.8592);stop-opacity:1;"/>
<stop offset="1" stop-color="#948DC4" style="stop-color:#948DC4;stop-color:color(display-p3 0.5818 0.5513 0.7694);stop-opacity:1;"/>
</linearGradient>
<linearGradient id="paint29_linear_2011_2672" x1="44.5514" y1="0.888504" x2="44.5514" y2="75" gradientUnits="userSpaceOnUse">
<stop stop-color="#998EDB" style="stop-color:#998EDB;stop-color:color(display-p3 0.6008 0.5588 0.8592);stop-opacity:1;"/>
<stop offset="1" stop-color="#948DC4" style="stop-color:#948DC4;stop-color:color(display-p3 0.5818 0.5513 0.7694);stop-opacity:1;"/>
</linearGradient>
<linearGradient id="paint30_linear_2011_2672" x1="44.5514" y1="0.888504" x2="44.5514" y2="75" gradientUnits="userSpaceOnUse">
<stop stop-color="#998EDB" style="stop-color:#998EDB;stop-color:color(display-p3 0.6008 0.5588 0.8592);stop-opacity:1;"/>
<stop offset="1" stop-color="#948DC4" style="stop-color:#948DC4;stop-color:color(display-p3 0.5818 0.5513 0.7694);stop-opacity:1;"/>
</linearGradient>
<linearGradient id="paint31_linear_2011_2672" x1="44.5514" y1="0.888504" x2="44.5514" y2="75" gradientUnits="userSpaceOnUse">
<stop stop-color="#998EDB" style="stop-color:#998EDB;stop-color:color(display-p3 0.6008 0.5588 0.8592);stop-opacity:1;"/>
<stop offset="1" stop-color="#948DC4" style="stop-color:#948DC4;stop-color:color(display-p3 0.5818 0.5513 0.7694);stop-opacity:1;"/>
</linearGradient>
<linearGradient id="paint32_linear_2011_2672" x1="44.5514" y1="0.888504" x2="44.5514" y2="75" gradientUnits="userSpaceOnUse">
<stop stop-color="#F8F6F1" style="stop-color:#F8F6F1;stop-color:color(display-p3 0.9725 0.9647 0.9451);stop-opacity:1;"/>
<stop offset="1" stop-color="#E4E0FE" style="stop-color:#E4E0FE;stop-color:color(display-p3 0.8949 0.8784 0.9961);stop-opacity:1;"/>
</linearGradient>
<linearGradient id="paint33_linear_2011_2672" x1="44.5514" y1="0.888504" x2="44.5514" y2="75" gradientUnits="userSpaceOnUse">
<stop stop-color="#F8F6F1" style="stop-color:#F8F6F1;stop-color:color(display-p3 0.9725 0.9647 0.9451);stop-opacity:1;"/>
<stop offset="1" stop-color="#E4E0FE" style="stop-color:#E4E0FE;stop-color:color(display-p3 0.8949 0.8784 0.9961);stop-opacity:1;"/>
</linearGradient>
<linearGradient id="paint34_linear_2011_2672" x1="44.5514" y1="0.888504" x2="44.5514" y2="75" gradientUnits="userSpaceOnUse">
<stop stop-color="#F8F6F1" style="stop-color:#F8F6F1;stop-color:color(display-p3 0.9725 0.9647 0.9451);stop-opacity:1;"/>
<stop offset="1" stop-color="#E4E0FE" style="stop-color:#E4E0FE;stop-color:color(display-p3 0.8949 0.8784 0.9961);stop-opacity:1;"/>
</linearGradient>
<linearGradient id="paint35_linear_2011_2672" x1="44.5514" y1="0.888504" x2="44.5514" y2="75" gradientUnits="userSpaceOnUse">
<stop stop-color="#998EDB" style="stop-color:#998EDB;stop-color:color(display-p3 0.6008 0.5588 0.8592);stop-opacity:1;"/>
<stop offset="1" stop-color="#948DC4" style="stop-color:#948DC4;stop-color:color(display-p3 0.5818 0.5513 0.7694);stop-opacity:1;"/>
</linearGradient>
<linearGradient id="paint36_linear_2011_2672" x1="44.5514" y1="0.888504" x2="44.5514" y2="75" gradientUnits="userSpaceOnUse">
<stop stop-color="#998EDB" style="stop-color:#998EDB;stop-color:color(display-p3 0.6008 0.5588 0.8592);stop-opacity:1;"/>
<stop offset="1" stop-color="#948DC4" style="stop-color:#948DC4;stop-color:color(display-p3 0.5818 0.5513 0.7694);stop-opacity:1;"/>
</linearGradient>
<linearGradient id="paint37_linear_2011_2672" x1="44.5514" y1="0.888504" x2="44.5514" y2="75" gradientUnits="userSpaceOnUse">
<stop stop-color="#998EDB" style="stop-color:#998EDB;stop-color:color(display-p3 0.6008 0.5588 0.8592);stop-opacity:1;"/>
<stop offset="1" stop-color="#948DC4" style="stop-color:#948DC4;stop-color:color(display-p3 0.5818 0.5513 0.7694);stop-opacity:1;"/>
</linearGradient>
<linearGradient id="paint38_linear_2011_2672" x1="44.5514" y1="0.888504" x2="44.5514" y2="75" gradientUnits="userSpaceOnUse">
<stop stop-color="#998EDB" style="stop-color:#998EDB;stop-color:color(display-p3 0.6008 0.5588 0.8592);stop-opacity:1;"/>
<stop offset="1" stop-color="#948DC4" style="stop-color:#948DC4;stop-color:color(display-p3 0.5818 0.5513 0.7694);stop-opacity:1;"/>
</linearGradient>
<linearGradient id="paint39_linear_2011_2672" x1="44.5514" y1="0.888504" x2="44.5514" y2="75" gradientUnits="userSpaceOnUse">
<stop stop-color="#F8F6F1" style="stop-color:#F8F6F1;stop-color:color(display-p3 0.9725 0.9647 0.9451);stop-opacity:1;"/>
<stop offset="1" stop-color="#E4E0FE" style="stop-color:#E4E0FE;stop-color:color(display-p3 0.8949 0.8784 0.9961);stop-opacity:1;"/>
</linearGradient>
<linearGradient id="paint40_linear_2011_2672" x1="44.5514" y1="0.888504" x2="44.5514" y2="75" gradientUnits="userSpaceOnUse">
<stop stop-color="#998EDB" style="stop-color:#998EDB;stop-color:color(display-p3 0.6008 0.5588 0.8592);stop-opacity:1;"/>
<stop offset="1" stop-color="#948DC4" style="stop-color:#948DC4;stop-color:color(display-p3 0.5818 0.5513 0.7694);stop-opacity:1;"/>
</linearGradient>
<linearGradient id="paint41_linear_2011_2672" x1="44.5514" y1="0.888504" x2="44.5514" y2="75" gradientUnits="userSpaceOnUse">
<stop stop-color="#998EDB" style="stop-color:#998EDB;stop-color:color(display-p3 0.6008 0.5588 0.8592);stop-opacity:1;"/>
<stop offset="1" stop-color="#948DC4" style="stop-color:#948DC4;stop-color:color(display-p3 0.5818 0.5513 0.7694);stop-opacity:1;"/>
</linearGradient>
<linearGradient id="paint42_linear_2011_2672" x1="44.5514" y1="0.888504" x2="44.5514" y2="75" gradientUnits="userSpaceOnUse">
<stop stop-color="#998EDB" style="stop-color:#998EDB;stop-color:color(display-p3 0.6008 0.5588 0.8592);stop-opacity:1;"/>
<stop offset="1" stop-color="#948DC4" style="stop-color:#948DC4;stop-color:color(display-p3 0.5818 0.5513 0.7694);stop-opacity:1;"/>
</linearGradient>
<linearGradient id="paint43_linear_2011_2672" x1="44.5514" y1="0.888504" x2="44.5514" y2="75" gradientUnits="userSpaceOnUse">
<stop stop-color="#998EDB" style="stop-color:#998EDB;stop-color:color(display-p3 0.6008 0.5588 0.8592);stop-opacity:1;"/>
<stop offset="1" stop-color="#948DC4" style="stop-color:#948DC4;stop-color:color(display-p3 0.5818 0.5513 0.7694);stop-opacity:1;"/>
</linearGradient>
<linearGradient id="paint44_linear_2011_2672" x1="44.5514" y1="0.888504" x2="44.5514" y2="75" gradientUnits="userSpaceOnUse">
<stop stop-color="#998EDB" style="stop-color:#998EDB;stop-color:color(display-p3 0.6008 0.5588 0.8592);stop-opacity:1;"/>
<stop offset="1" stop-color="#948DC4" style="stop-color:#948DC4;stop-color:color(display-p3 0.5818 0.5513 0.7694);stop-opacity:1;"/>
</linearGradient>
<linearGradient id="paint45_linear_2011_2672" x1="44.5514" y1="0.888504" x2="44.5514" y2="75" gradientUnits="userSpaceOnUse">
<stop stop-color="#F8F6F1" style="stop-color:#F8F6F1;stop-color:color(display-p3 0.9725 0.9647 0.9451);stop-opacity:1;"/>
<stop offset="1" stop-color="#E4E0FE" style="stop-color:#E4E0FE;stop-color:color(display-p3 0.8949 0.8784 0.9961);stop-opacity:1;"/>
</linearGradient>
<linearGradient id="paint46_linear_2011_2672" x1="44.5514" y1="0.888504" x2="44.5514" y2="75" gradientUnits="userSpaceOnUse">
<stop stop-color="#998EDB" style="stop-color:#998EDB;stop-color:color(display-p3 0.6008 0.5588 0.8592);stop-opacity:1;"/>
<stop offset="1" stop-color="#948DC4" style="stop-color:#948DC4;stop-color:color(display-p3 0.5818 0.5513 0.7694);stop-opacity:1;"/>
</linearGradient>
<linearGradient id="paint47_linear_2011_2672" x1="44.5514" y1="0.888504" x2="44.5514" y2="75" gradientUnits="userSpaceOnUse">
<stop stop-color="#998EDB" style="stop-color:#998EDB;stop-color:color(display-p3 0.6008 0.5588 0.8592);stop-opacity:1;"/>
<stop offset="1" stop-color="#948DC4" style="stop-color:#948DC4;stop-color:color(display-p3 0.5818 0.5513 0.7694);stop-opacity:1;"/>
</linearGradient>
<linearGradient id="paint48_linear_2011_2672" x1="44.5514" y1="0.888504" x2="44.5514" y2="75" gradientUnits="userSpaceOnUse">
<stop stop-color="#998EDB" style="stop-color:#998EDB;stop-color:color(display-p3 0.6008 0.5588 0.8592);stop-opacity:1;"/>
<stop offset="1" stop-color="#948DC4" style="stop-color:#948DC4;stop-color:color(display-p3 0.5818 0.5513 0.7694);stop-opacity:1;"/>
</linearGradient>
<linearGradient id="paint49_linear_2011_2672" x1="44.5514" y1="0.888504" x2="44.5514" y2="75" gradientUnits="userSpaceOnUse">
<stop stop-color="#998EDB" style="stop-color:#998EDB;stop-color:color(display-p3 0.6008 0.5588 0.8592);stop-opacity:1;"/>
<stop offset="1" stop-color="#948DC4" style="stop-color:#948DC4;stop-color:color(display-p3 0.5818 0.5513 0.7694);stop-opacity:1;"/>
</linearGradient>
<linearGradient id="paint50_linear_2011_2672" x1="44.5514" y1="0.888504" x2="44.5514" y2="75" gradientUnits="userSpaceOnUse">
<stop stop-color="#998EDB" style="stop-color:#998EDB;stop-color:color(display-p3 0.6008 0.5588 0.8592);stop-opacity:1;"/>
<stop offset="1" stop-color="#948DC4" style="stop-color:#948DC4;stop-color:color(display-p3 0.5818 0.5513 0.7694);stop-opacity:1;"/>
</linearGradient>
<linearGradient id="paint51_linear_2011_2672" x1="44.5514" y1="0.888504" x2="44.5514" y2="75" gradientUnits="userSpaceOnUse">
<stop stop-color="#998EDB" style="stop-color:#998EDB;stop-color:color(display-p3 0.6008 0.5588 0.8592);stop-opacity:1;"/>
<stop offset="1" stop-color="#948DC4" style="stop-color:#948DC4;stop-color:color(display-p3 0.5818 0.5513 0.7694);stop-opacity:1;"/>
</linearGradient>
<linearGradient id="paint52_linear_2011_2672" x1="44.5514" y1="0.888504" x2="44.5514" y2="75" gradientUnits="userSpaceOnUse">
<stop stop-color="#998EDB" style="stop-color:#998EDB;stop-color:color(display-p3 0.6008 0.5588 0.8592);stop-opacity:1;"/>
<stop offset="1" stop-color="#948DC4" style="stop-color:#948DC4;stop-color:color(display-p3 0.5818 0.5513 0.7694);stop-opacity:1;"/>
</linearGradient>
<linearGradient id="paint53_linear_2011_2672" x1="44.5514" y1="0.888504" x2="44.5514" y2="75" gradientUnits="userSpaceOnUse">
<stop stop-color="#998EDB" style="stop-color:#998EDB;stop-color:color(display-p3 0.6008 0.5588 0.8592);stop-opacity:1;"/>
<stop offset="1" stop-color="#948DC4" style="stop-color:#948DC4;stop-color:color(display-p3 0.5818 0.5513 0.7694);stop-opacity:1;"/>
</linearGradient>
<linearGradient id="paint54_linear_2011_2672" x1="44.5514" y1="0.888504" x2="44.5514" y2="75" gradientUnits="userSpaceOnUse">
<stop stop-color="#998EDB" style="stop-color:#998EDB;stop-color:color(display-p3 0.6008 0.5588 0.8592);stop-opacity:1;"/>
<stop offset="1" stop-color="#948DC4" style="stop-color:#948DC4;stop-color:color(display-p3 0.5818 0.5513 0.7694);stop-opacity:1;"/>
</linearGradient>
<linearGradient id="paint55_linear_2011_2672" x1="44.5514" y1="0.888504" x2="44.5514" y2="75" gradientUnits="userSpaceOnUse">
<stop stop-color="#998EDB" style="stop-color:#998EDB;stop-color:color(display-p3 0.6008 0.5588 0.8592);stop-opacity:1;"/>
<stop offset="1" stop-color="#948DC4" style="stop-color:#948DC4;stop-color:color(display-p3 0.5818 0.5513 0.7694);stop-opacity:1;"/>
</linearGradient>
<linearGradient id="paint56_linear_2011_2672" x1="44.5514" y1="0.888504" x2="44.5514" y2="75" gradientUnits="userSpaceOnUse">
<stop stop-color="#F8F6F1" style="stop-color:#F8F6F1;stop-color:color(display-p3 0.9725 0.9647 0.9451);stop-opacity:1;"/>
<stop offset="1" stop-color="#E4E0FE" style="stop-color:#E4E0FE;stop-color:color(display-p3 0.8949 0.8784 0.9961);stop-opacity:1;"/>
</linearGradient>
<linearGradient id="paint57_linear_2011_2672" x1="44.5514" y1="0.888504" x2="44.5514" y2="75" gradientUnits="userSpaceOnUse">
<stop stop-color="#F8F6F1" style="stop-color:#F8F6F1;stop-color:color(display-p3 0.9725 0.9647 0.9451);stop-opacity:1;"/>
<stop offset="1" stop-color="#E4E0FE" style="stop-color:#E4E0FE;stop-color:color(display-p3 0.8949 0.8784 0.9961);stop-opacity:1;"/>
</linearGradient>
<linearGradient id="paint58_linear_2011_2672" x1="44.5514" y1="0.888504" x2="44.5514" y2="75" gradientUnits="userSpaceOnUse">
<stop stop-color="#F8F6F1" style="stop-color:#F8F6F1;stop-color:color(display-p3 0.9725 0.9647 0.9451);stop-opacity:1;"/>
<stop offset="1" stop-color="#E4E0FE" style="stop-color:#E4E0FE;stop-color:color(display-p3 0.8949 0.8784 0.9961);stop-opacity:1;"/>
</linearGradient>
<linearGradient id="paint59_linear_2011_2672" x1="44.5514" y1="0.888504" x2="44.5514" y2="75" gradientUnits="userSpaceOnUse">
<stop stop-color="#F8F6F1" style="stop-color:#F8F6F1;stop-color:color(display-p3 0.9725 0.9647 0.9451);stop-opacity:1;"/>
<stop offset="1" stop-color="#E4E0FE" style="stop-color:#E4E0FE;stop-color:color(display-p3 0.8949 0.8784 0.9961);stop-opacity:1;"/>
</linearGradient>
<linearGradient id="paint60_linear_2011_2672" x1="44.5514" y1="0.888504" x2="44.5514" y2="75" gradientUnits="userSpaceOnUse">
<stop stop-color="#F8F6F1" style="stop-color:#F8F6F1;stop-color:color(display-p3 0.9725 0.9647 0.9451);stop-opacity:1;"/>
<stop offset="1" stop-color="#E4E0FE" style="stop-color:#E4E0FE;stop-color:color(display-p3 0.8949 0.8784 0.9961);stop-opacity:1;"/>
</linearGradient>
<linearGradient id="paint61_linear_2011_2672" x1="44.5514" y1="0.888504" x2="44.5514" y2="75" gradientUnits="userSpaceOnUse">
<stop stop-color="#F8F6F1" style="stop-color:#F8F6F1;stop-color:color(display-p3 0.9725 0.9647 0.9451);stop-opacity:1;"/>
<stop offset="1" stop-color="#E4E0FE" style="stop-color:#E4E0FE;stop-color:color(display-p3 0.8949 0.8784 0.9961);stop-opacity:1;"/>
</linearGradient>
<linearGradient id="paint62_linear_2011_2672" x1="44.5514" y1="0.888504" x2="44.5514" y2="75" gradientUnits="userSpaceOnUse">
<stop stop-color="#998EDB" style="stop-color:#998EDB;stop-color:color(display-p3 0.6008 0.5588 0.8592);stop-opacity:1;"/>
<stop offset="1" stop-color="#948DC4" style="stop-color:#948DC4;stop-color:color(display-p3 0.5818 0.5513 0.7694);stop-opacity:1;"/>
</linearGradient>
<linearGradient id="paint63_linear_2011_2672" x1="44.5514" y1="0.888504" x2="44.5514" y2="75" gradientUnits="userSpaceOnUse">
<stop stop-color="#998EDB" style="stop-color:#998EDB;stop-color:color(display-p3 0.6008 0.5588 0.8592);stop-opacity:1;"/>
<stop offset="1" stop-color="#948DC4" style="stop-color:#948DC4;stop-color:color(display-p3 0.5818 0.5513 0.7694);stop-opacity:1;"/>
</linearGradient>
<linearGradient id="paint64_linear_2011_2672" x1="44.5514" y1="0.888504" x2="44.5514" y2="75" gradientUnits="userSpaceOnUse">
<stop stop-color="#F8F6F1" style="stop-color:#F8F6F1;stop-color:color(display-p3 0.9725 0.9647 0.9451);stop-opacity:1;"/>
<stop offset="1" stop-color="#E4E0FE" style="stop-color:#E4E0FE;stop-color:color(display-p3 0.8949 0.8784 0.9961);stop-opacity:1;"/>
</linearGradient>
<linearGradient id="paint65_linear_2011_2672" x1="44.5514" y1="0.888504" x2="44.5514" y2="75" gradientUnits="userSpaceOnUse">
<stop stop-color="#998EDB" style="stop-color:#998EDB;stop-color:color(display-p3 0.6008 0.5588 0.8592);stop-opacity:1;"/>
<stop offset="1" stop-color="#948DC4" style="stop-color:#948DC4;stop-color:color(display-p3 0.5818 0.5513 0.7694);stop-opacity:1;"/>
</linearGradient>
<linearGradient id="paint66_linear_2011_2672" x1="44.5514" y1="0.888504" x2="44.5514" y2="75" gradientUnits="userSpaceOnUse">
<stop stop-color="#F8F6F1" style="stop-color:#F8F6F1;stop-color:color(display-p3 0.9725 0.9647 0.9451);stop-opacity:1;"/>
<stop offset="1" stop-color="#E4E0FE" style="stop-color:#E4E0FE;stop-color:color(display-p3 0.8949 0.8784 0.9961);stop-opacity:1;"/>
</linearGradient>
<linearGradient id="paint67_linear_2011_2672" x1="44.5514" y1="0.888504" x2="44.5514" y2="75" gradientUnits="userSpaceOnUse">
<stop stop-color="#F8F6F1" style="stop-color:#F8F6F1;stop-color:color(display-p3 0.9725 0.9647 0.9451);stop-opacity:1;"/>
<stop offset="1" stop-color="#E4E0FE" style="stop-color:#E4E0FE;stop-color:color(display-p3 0.8949 0.8784 0.9961);stop-opacity:1;"/>
</linearGradient>
<linearGradient id="paint68_linear_2011_2672" x1="44.5514" y1="0.888504" x2="44.5514" y2="75" gradientUnits="userSpaceOnUse">
<stop stop-color="#F8F6F1" style="stop-color:#F8F6F1;stop-color:color(display-p3 0.9725 0.9647 0.9451);stop-opacity:1;"/>
<stop offset="1" stop-color="#E4E0FE" style="stop-color:#E4E0FE;stop-color:color(display-p3 0.8949 0.8784 0.9961);stop-opacity:1;"/>
</linearGradient>
<linearGradient id="paint69_linear_2011_2672" x1="44.5514" y1="0.888504" x2="44.5514" y2="75" gradientUnits="userSpaceOnUse">
<stop stop-color="#F8F6F1" style="stop-color:#F8F6F1;stop-color:color(display-p3 0.9725 0.9647 0.9451);stop-opacity:1;"/>
<stop offset="1" stop-color="#E4E0FE" style="stop-color:#E4E0FE;stop-color:color(display-p3 0.8949 0.8784 0.9961);stop-opacity:1;"/>
</linearGradient>
<linearGradient id="paint70_linear_2011_2672" x1="44.5514" y1="0.888504" x2="44.5514" y2="75" gradientUnits="userSpaceOnUse">
<stop stop-color="#998EDB" style="stop-color:#998EDB;stop-color:color(display-p3 0.6008 0.5588 0.8592);stop-opacity:1;"/>
<stop offset="1" stop-color="#948DC4" style="stop-color:#948DC4;stop-color:color(display-p3 0.5818 0.5513 0.7694);stop-opacity:1;"/>
</linearGradient>
<linearGradient id="paint71_linear_2011_2672" x1="44.5514" y1="0.888504" x2="44.5514" y2="75" gradientUnits="userSpaceOnUse">
<stop stop-color="#F8F6F1" style="stop-color:#F8F6F1;stop-color:color(display-p3 0.9725 0.9647 0.9451);stop-opacity:1;"/>
<stop offset="1" stop-color="#E4E0FE" style="stop-color:#E4E0FE;stop-color:color(display-p3 0.8949 0.8784 0.9961);stop-opacity:1;"/>
</linearGradient>
<linearGradient id="paint72_linear_2011_2672" x1="44.5514" y1="0.888504" x2="44.5514" y2="75" gradientUnits="userSpaceOnUse">
<stop stop-color="#998EDB" style="stop-color:#998EDB;stop-color:color(display-p3 0.6008 0.5588 0.8592);stop-opacity:1;"/>
<stop offset="1" stop-color="#948DC4" style="stop-color:#948DC4;stop-color:color(display-p3 0.5818 0.5513 0.7694);stop-opacity:1;"/>
</linearGradient>
</defs>
</svg>
