<svg width="24" height="24" viewBox="0 0 24 15" fill="none" xmlns="http://www.w3.org/2000/svg">
<path d="M18.9946 8.88284C17.0595 7.35067 14.3544 7.35067 12.4154 8.88284C11.9665 9.24084 11.8891 9.89529 12.249 10.3418C12.4231 10.5574 12.6708 10.696 12.9495 10.7268C13.2281 10.7576 13.4991 10.6806 13.7158 10.5074C14.3002 10.0454 15.0046 9.81061 15.7051 9.81061C16.4056 9.81061 17.11 10.0416 17.6944 10.5074C18.6309 11.2504 19.7998 11.6584 20.984 11.6584C22.1682 11.6584 23.3371 11.2504 24.2736 10.5074C24.7225 10.1494 24.7999 9.49493 24.44 9.04837C24.084 8.60181 23.4221 8.52482 22.9732 8.88284C21.8005 9.81059 20.1672 9.81059 18.9946 8.88284Z" fill="#1C1C1C" style="fill:#1C1C1C;fill:color(display-p3 0.1106 0.1106 0.1106);fill-opacity:1;"/>
<path d="M2.99513 12.9212C2.96416 13.1984 3.04157 13.4678 3.21573 13.6834C3.38989 13.899 3.63757 14.0376 3.91623 14.0684C4.19488 14.0992 4.46581 14.0222 4.68254 13.849C5.26695 13.387 5.97132 13.1522 6.67182 13.1522C7.37232 13.1522 8.07671 13.3832 8.6611 13.849C9.59767 14.5919 10.7665 15 11.9507 15C13.1349 15 14.3038 14.592 15.2403 13.849C15.4571 13.6757 15.5964 13.4294 15.6274 13.1522C15.6583 12.875 15.5809 12.6055 15.4068 12.3899C15.0507 11.9434 14.3927 11.8664 13.9399 12.2244C12.7673 13.1522 11.1341 13.1522 9.96148 12.2244C8.02638 10.6922 5.32119 10.6922 3.38225 12.2244C3.16551 12.3976 3.02609 12.644 2.99513 12.9212Z" fill="#1C1C1C" style="fill:#1C1C1C;fill:color(display-p3 0.1106 0.1106 0.1106);fill-opacity:1;"/>
<path d="M22.1178 1.31466C21.7618 0.868101 21.0999 0.791108 20.651 1.14912C19.4783 2.07688 17.8451 2.07688 16.6725 1.14912C14.7374 -0.383041 12.0323 -0.383041 10.0933 1.14912C9.87657 1.32235 9.73725 1.56873 9.70628 1.8459C9.67532 2.12307 9.75273 2.39256 9.92689 2.60814C10.101 2.82372 10.3487 2.9623 10.6274 2.9931C10.906 3.0239 11.177 2.9469 11.3937 2.77367C11.9781 2.31172 12.6825 2.0769 13.383 2.0769C14.0835 2.0769 14.7879 2.30787 15.3723 2.77367C16.3088 3.51664 17.4776 3.92471 18.6619 3.92471C19.8461 3.92471 21.015 3.51667 21.9515 2.77367C22.1682 2.60044 22.3075 2.35407 22.3385 2.0769C22.3695 1.79972 22.292 1.53024 22.1178 1.31466Z" fill="#1C1C1C" style="fill:#1C1C1C;fill:color(display-p3 0.1106 0.1106 0.1106);fill-opacity:1;"/>
<path d="M11.6181 4.49439C10.4454 5.42214 8.81221 5.42214 7.63963 4.49439C5.70452 2.96222 2.99934 2.96222 1.06039 4.49439C0.611448 4.8524 0.534043 5.50684 0.893972 5.9534C1.2539 6.39996 1.91184 6.47695 2.36079 6.11894C2.9452 5.65698 3.64956 5.42216 4.35006 5.42216C5.05057 5.42216 5.75496 5.65314 6.33934 6.11894C7.27592 6.86191 8.44474 7.26998 9.62896 7.26998C10.8132 7.26998 11.982 6.86193 12.9186 6.11894C13.3675 5.76093 13.4449 5.10648 13.085 4.65992C12.7289 4.21336 12.0709 4.13637 11.6181 4.49439Z" fill="#1C1C1C" style="fill:#1C1C1C;fill:color(display-p3 0.1106 0.1106 0.1106);fill-opacity:1;"/>
</svg>
