<svg width="25" height="24" viewBox="0 0 25 24" fill="none" xmlns="http://www.w3.org/2000/svg">
<path d="M21.061 7.91201H9.96886C9.63839 8.24576 9.40607 8.60241 9.26864 8.8347C9.10831 9.11611 8.81711 9.28623 8.48989 9.28623C8.16267 9.28623 7.85184 9.103 7.68825 8.81179C7.48539 8.4388 7.23344 8.14104 6.98803 7.91199H4.26237C3.84029 7.91199 3.5 8.25228 3.5 8.67436V10.2024H21.8232V8.67436C21.8232 8.25228 21.4831 7.91201 21.061 7.91201Z" fill="#1C1C1C" style="fill:#1C1C1C;fill:color(display-p3 0.1106 0.1106 0.1106);fill-opacity:1;"/>
<path d="M3.5 20.2376C3.5 20.6597 3.84029 20.9999 4.26237 20.9999H21.0609C21.483 20.9999 21.8233 20.6597 21.8233 20.2376V19.0367H3.50004L3.5 20.2376Z" fill="#1C1C1C" style="fill:#1C1C1C;fill:color(display-p3 0.1106 0.1106 0.1106);fill-opacity:1;"/>
<path d="M3.5 12.771L3.60143 12.8037C3.71268 12.8397 3.83048 12.8953 3.96136 12.9706C4.47506 13.2716 5.10002 13.2749 5.61046 12.9837C6.32048 12.5779 7.21702 12.5878 7.90411 12.9935L7.93356 13.0131C8.40472 13.288 9.01331 13.2978 9.51394 13.0229L9.54666 13.0033C10.2567 12.6008 11.1303 12.6041 11.8338 13.0164C12.3475 13.3207 12.9725 13.3207 13.4764 13.0295C14.1602 12.627 15.0797 12.6303 15.77 13.036C16.2837 13.3371 16.9054 13.3403 17.4093 13.0491L17.4911 13.0066C18.1848 12.6434 19.0224 12.663 19.6997 13.0622C20.2036 13.3567 20.8122 13.3665 21.3128 13.0949L21.3488 13.072C21.4732 13 21.5975 12.9444 21.7186 12.9051L21.82 12.8724V10.8634H3.50009V12.7775L3.5 12.771Z" fill="#1C1C1C" style="fill:#1C1C1C;fill:color(display-p3 0.1106 0.1106 0.1106);fill-opacity:1;"/>
<path d="M21.6722 13.638C21.3221 13.8409 20.9294 13.939 20.5368 13.939C20.1442 13.939 19.7384 13.8343 19.3818 13.6249C18.8681 13.3239 18.2431 13.3206 17.7392 13.6118L17.6574 13.6544C16.967 14.0176 16.1294 14.0012 15.4522 13.602C14.9352 13.2977 14.2939 13.3043 13.8063 13.5889C13.0963 14.0012 12.2194 13.9979 11.5127 13.5824C11.0088 13.2879 10.3969 13.2814 9.89629 13.5529L9.87012 13.5693C9.16336 13.975 8.28647 13.9718 7.57961 13.5562L7.55016 13.5366C7.10517 13.2748 6.44423 13.2552 5.93707 13.5464C5.22705 13.9554 4.34686 13.9521 3.64656 13.5366C3.5942 13.5071 3.5484 13.481 3.50586 13.4613V18.3759H21.8291V13.5595C21.7866 13.5759 21.7473 13.5923 21.7048 13.6152L21.6786 13.6315L21.6722 13.638ZM5.32849 15.683H5.08637C4.90641 15.683 4.75917 15.5358 4.75917 15.3558C4.75917 15.1759 4.90641 15.0286 5.08637 15.0286H5.32849C5.50845 15.0286 5.65569 15.1759 5.65569 15.3558C5.65569 15.5358 5.50845 15.683 5.32849 15.683ZM7.44226 17.0965H7.20014C7.02018 17.0965 6.87294 16.9493 6.87294 16.7693C6.87294 16.5894 7.02018 16.4421 7.20014 16.4421H7.44226C7.62222 16.4421 7.76946 16.5894 7.76946 16.7693C7.76946 16.9493 7.62222 17.0965 7.44226 17.0965ZM9.71309 15.3067H9.47097C9.29101 15.3067 9.14377 15.1595 9.14377 14.9795C9.14377 14.7996 9.29101 14.6523 9.47097 14.6523H9.71309C9.89305 14.6523 10.0403 14.7996 10.0403 14.9795C10.0403 15.1595 9.89305 15.3067 9.71309 15.3067ZM11.5912 17.4335H11.3491C11.1692 17.4335 11.0219 17.2862 11.0219 17.1063C11.0219 16.9263 11.1692 16.7791 11.3491 16.7791H11.5912C11.7712 16.7791 11.9184 16.9263 11.9184 17.1063C11.9184 17.2862 11.7712 17.4335 11.5912 17.4335ZM13.9929 15.9022H13.7508C13.5709 15.9022 13.4236 15.7549 13.4236 15.575C13.4236 15.395 13.5709 15.2478 13.7508 15.2478H13.9929C14.1729 15.2478 14.3201 15.395 14.3201 15.575C14.3201 15.7549 14.1729 15.9022 13.9929 15.9022ZM16.9607 16.9427H16.7186C16.5386 16.9427 16.3914 16.7955 16.3914 16.6155C16.3914 16.4355 16.5386 16.2883 16.7186 16.2883H16.9607C17.1406 16.2883 17.2879 16.4355 17.2879 16.6155C17.2879 16.7955 17.1406 16.9427 16.9607 16.9427ZM19.238 15.4376H18.9959C18.8159 15.4376 18.6687 15.2903 18.6687 15.1104C18.6687 14.9304 18.8159 14.7832 18.9959 14.7832H19.238C19.418 14.7832 19.5652 14.9304 19.5652 15.1104C19.5652 15.2903 19.418 15.4376 19.238 15.4376ZM20.2392 17.597H19.9971C19.8171 17.597 19.6699 17.4497 19.6699 17.2698C19.6699 17.0898 19.8171 16.9426 19.9971 16.9426H20.2392C20.4192 16.9426 20.5664 17.0898 20.5664 17.2698C20.5664 17.4497 20.4192 17.597 20.2392 17.597Z" fill="#1C1C1C" style="fill:#1C1C1C;fill:color(display-p3 0.1106 0.1106 0.1106);fill-opacity:1;"/>
<path d="M6.52066 6.76027C6.99837 7.0253 7.75094 7.56519 8.26464 8.49442C8.35952 8.66784 8.60493 8.68093 8.70636 8.50751C8.98777 8.01999 9.54073 7.24124 10.4143 6.75698C10.591 6.65882 10.6008 6.41343 10.4274 6.31526C9.93991 6.03385 9.16445 5.48416 8.69328 4.61381C8.60166 4.44367 8.35299 4.44694 8.2581 4.61381C7.99634 5.07516 7.47609 5.78191 6.52722 6.31852C6.3538 6.41668 6.35053 6.66208 6.52395 6.76025L6.52066 6.76027Z" fill="#1C1C1C" style="fill:#1C1C1C;fill:color(display-p3 0.1106 0.1106 0.1106);fill-opacity:1;"/>
<path d="M17.2648 5.8213C17.3597 5.98162 17.5953 5.97835 17.6935 5.8213C17.9029 5.47774 18.2693 5.00002 18.8158 4.66955C18.9794 4.57139 18.9925 4.33908 18.8289 4.23764C18.4853 4.02824 18.0076 3.66504 17.6869 3.12189C17.592 2.96157 17.3565 2.95829 17.2583 3.11862C17.062 3.43927 16.7119 3.881 16.1229 4.23766C15.956 4.33909 15.9528 4.57468 16.1196 4.67612C16.4566 4.87898 16.9245 5.24217 17.2681 5.8246L17.2648 5.8213Z" fill="#1C1C1C" style="fill:#1C1C1C;fill:color(display-p3 0.1106 0.1106 0.1106);fill-opacity:1;"/>
</svg>
