<svg width="25" height="24" viewBox="0 0 25 24" fill="none" xmlns="http://www.w3.org/2000/svg">
<path d="M14.4153 16.94C13.7876 17.2713 13.0994 17.4378 12.4113 17.4378C11.7232 17.4378 11.035 17.2713 10.4073 16.94C10.1876 16.8229 9.97718 16.6929 9.7722 16.5575C9.62762 17.5989 9.23596 18.9257 8.24219 20H16.5786C15.5848 18.9257 15.195 17.5989 15.0504 16.5575C14.8454 16.6911 14.6349 16.8229 14.4153 16.94Z" fill="#1C1C1C" fill-opacity="0.87451" style="fill:#1C1C1C;fill:color(display-p3 0.1098 0.1098 0.1098);fill-opacity:0.87451;"/>
<path d="M12.7773 5V16.6837C13.2239 16.6362 13.6631 16.5062 14.0713 16.2903C16.434 15.0421 17.9018 12.5146 17.9018 9.69985V6.96193C16.4651 5.73023 14.6331 5.07687 12.7773 5ZM16.7012 9.91398C16.2894 10.3404 15.7404 10.5747 15.1566 10.5747C14.5727 10.5747 14.0237 10.3404 13.6119 9.91398C13.471 9.7694 13.4746 9.53697 13.621 9.39605C13.7656 9.25695 13.9981 9.26061 14.139 9.4052C14.2378 9.50769 14.3476 9.59187 14.4666 9.65959C14.6752 9.77855 14.9113 9.84261 15.1566 9.84261C15.4018 9.84261 15.6361 9.77855 15.8465 9.65959C15.9655 9.59187 16.0753 9.50769 16.1741 9.4052C16.315 9.26061 16.5475 9.25695 16.6921 9.39605C16.8366 9.53697 16.8403 9.76757 16.7012 9.91398Z" fill="#1C1C1C" fill-opacity="0.87451" style="fill:#1C1C1C;fill:color(display-p3 0.1098 0.1098 0.1098);fill-opacity:0.87451;"/>
<path d="M10.7496 16.2903C11.1596 16.5062 11.5988 16.6362 12.0453 16.6837V8.28697H9.48312C9.27998 8.28697 9.11709 8.12408 9.11709 7.92094C9.11709 7.71962 9.27998 7.5549 9.48312 7.5549H12.0453V6.82284H10.5812C10.3781 6.82284 10.2152 6.65996 10.2152 6.45681C10.2152 6.25549 10.3781 6.09078 10.5812 6.09078H12.0453V5C10.1896 5.07504 8.35757 5.7284 6.9209 6.9601V9.69985C6.9209 12.5146 8.38869 15.0421 10.7496 16.2903ZM11.5933 13.3053C11.597 13.5084 11.4359 13.675 11.2346 13.6786C10.9839 13.6823 10.7551 13.7884 10.5849 13.955L10.5757 13.9641C10.4092 14.1325 10.3049 14.3613 10.2994 14.612C10.2957 14.8133 10.1328 14.9725 9.93334 14.9725H9.92785C9.7247 14.9689 9.56365 14.8023 9.56731 14.5992C9.58378 13.7042 10.325 12.9612 11.2218 12.9466H11.2273C11.4268 12.9484 11.5896 13.1076 11.5933 13.3053ZM8.13063 9.39605C8.27522 9.25695 8.50765 9.26061 8.64857 9.4052C8.7474 9.50769 8.85721 9.59187 8.97617 9.65959C9.18481 9.77855 9.4209 9.84261 9.66614 9.84261C9.91138 9.84261 10.1475 9.77855 10.3561 9.65959C10.4751 9.59187 10.5849 9.50769 10.6837 9.4052C10.8246 9.26061 11.0552 9.25695 11.2016 9.39605C11.3462 9.53697 11.3499 9.7694 11.2108 9.91398C10.799 10.3404 10.25 10.5747 9.66614 10.5747C9.08232 10.5747 8.53327 10.3404 8.12148 9.91398C7.98056 9.76757 7.98422 9.53697 8.13063 9.39605Z" fill="#1C1C1C" fill-opacity="0.87451" style="fill:#1C1C1C;fill:color(display-p3 0.1098 0.1098 0.1098);fill-opacity:0.87451;"/>
</svg>
