<svg width="130" height="130" viewBox="0 0 130 130" fill="none" xmlns="http://www.w3.org/2000/svg">
<path d="M64.7686 122.06C98.8794 122.06 126.532 106.095 126.532 86.4007C126.532 66.7068 98.8794 50.7417 64.7686 50.7417C30.6579 50.7417 3.00562 66.7068 3.00562 86.4007C3.00562 106.095 30.6579 122.06 64.7686 122.06Z" fill="#F5F5F5"/>
<path d="M19.2243 88.7329L52.4679 107.788C52.8128 107.963 53.194 108.054 53.5807 108.054C53.9674 108.054 54.3487 107.963 54.6935 107.788L114.046 73.4839C114.66 73.1303 114.66 72.5557 114.046 72.2021L78.6265 51.8493C78.2835 51.6755 77.9035 51.5876 77.519 51.593C77.1345 51.5984 76.7571 51.6971 76.4191 51.8805L19.2035 87.4225C18.6003 87.7943 18.6081 88.3793 19.2243 88.7329Z" fill="#E0E0E0"/>
<path d="M15.86 93.0929C12.48 95.0481 12.48 98.2149 15.86 100.17C19.24 102.125 24.7338 102.123 28.1164 100.17C31.499 98.2175 31.4964 95.0481 28.1164 93.0929C24.7364 91.1377 19.24 91.1403 15.86 93.0929Z" fill="#E0E0E0"/>
<path d="M85.9014 115.533C96.4168 115.533 104.941 110.612 104.941 104.541C104.941 98.4695 96.4168 93.5479 85.9014 93.5479C75.386 93.5479 66.8616 98.4695 66.8616 104.541C66.8616 110.612 75.386 115.533 85.9014 115.533Z" fill="#E0E0E0"/>
<path d="M110.058 74.4196L107.284 72.8154L110.058 72.0146V74.4196Z" fill="#6C4EFF"/>
<g opacity="0.6">
<path d="M110.058 74.4196L107.284 72.8154L110.058 72.0146V74.4196Z" fill="white"/>
</g>
<g style="mix-blend-mode:multiply" opacity="0.05">
<path d="M110.058 74.4196L107.284 72.8154L110.058 72.0146V74.4196Z" fill="black"/>
</g>
<path d="M96.1531 80.0434V82.5992L76.0681 71.0084V68.4526L96.1531 80.0434Z" fill="#6C4EFF"/>
<g opacity="0.6">
<path d="M96.1531 80.0434V82.5992L76.0681 71.0084V68.4526L96.1531 80.0434Z" fill="white"/>
</g>
<g style="mix-blend-mode:multiply" opacity="0.1">
<path d="M96.1531 80.0434V82.5992L76.0681 71.0084V68.4526L96.1531 80.0434Z" fill="black"/>
</g>
<path d="M74.6797 48.417L94.7647 60.0078V80.8442L74.6797 69.2534V48.417Z" fill="#6C4EFF"/>
<g opacity="0.6">
<path d="M74.6797 48.417L94.7647 60.0078V80.8442L74.6797 69.2534V48.417Z" fill="white"/>
</g>
<path d="M94.7646 60.0079L112.835 49.5767V70.4131L94.7646 80.8443V60.0079Z" fill="#6C4EFF"/>
<g opacity="0.75">
<path d="M94.7646 60.0079L112.835 49.5767V70.4131L94.7646 80.8443V60.0079Z" fill="white"/>
</g>
<path d="M112.835 49.5768L92.7497 37.9834L74.6797 48.4172L94.7647 60.008L112.835 49.5768Z" fill="#6C4EFF"/>
<g opacity="0.85">
<path d="M112.835 49.5768L92.7497 37.9834L74.6797 48.4172L94.7647 60.008L112.835 49.5768Z" fill="white"/>
</g>
<path d="M96.1531 60.8112L111.446 51.979V56.789L96.1531 65.6186V60.8112Z" fill="#6C4EFF"/>
<g opacity="0.85">
<path d="M96.1531 60.8112L111.446 51.979V56.789L96.1531 65.6186V60.8112Z" fill="white"/>
</g>
<path d="M96.1531 67.2228L111.446 58.3906V69.6122L96.1531 78.4418V67.2228Z" fill="#6C4EFF"/>
<g opacity="0.7">
<path d="M96.1531 67.2228L111.446 58.3906V69.6122L96.1531 78.4418V67.2228Z" fill="white"/>
</g>
<path d="M96.1531 82.5993L97.5415 81.7985V79.2427L96.1531 80.0435V82.5993Z" fill="#6C4EFF"/>
<g opacity="0.75">
<path d="M96.1531 82.5993L97.5415 81.7985V79.2427L96.1531 80.0435V82.5993Z" fill="white"/>
</g>
<path d="M110.058 74.4197L111.446 73.6189V71.2139L110.058 72.0147V74.4197Z" fill="#6C4EFF"/>
<g opacity="0.75">
<path d="M110.058 74.4197L111.446 73.6189V71.2139L110.058 72.0147V74.4197Z" fill="white"/>
</g>
<path d="M100.893 59.0876C100.893 59.3086 101.556 59.1058 102.372 58.6326L104.972 57.135C105.791 56.6644 106.454 56.095 106.454 55.8818V55.4814L100.901 58.6846L100.893 59.0876Z" fill="#455A64"/>
<g style="mix-blend-mode:multiply" opacity="0.1">
<path d="M111.446 69.6122L101.795 63.9624L96.1531 67.2228V78.4418L111.446 69.6122Z" fill="black"/>
</g>
<g style="mix-blend-mode:multiply" opacity="0.05">
<path d="M111.446 69.6122L101.795 63.9624L111.446 58.3906V69.6122Z" fill="black"/>
</g>
<path d="M52.6656 99.146H48.2456L48.9528 103.459C48.9799 103.578 49.0345 103.689 49.1122 103.783C49.1898 103.877 49.2884 103.951 49.4 104C49.7312 104.168 50.0973 104.256 50.4686 104.256C50.8399 104.256 51.206 104.168 51.5372 104C51.6439 103.949 51.7377 103.874 51.8119 103.782C51.8861 103.69 51.9388 103.582 51.9662 103.467L52.6656 99.146Z" fill="#FAFAFA"/>
<path d="M48.8798 98.1242C48.014 98.6234 48.014 99.4372 48.8798 99.9442C49.3664 100.192 49.9044 100.32 50.4502 100.32C50.996 100.32 51.5341 100.192 52.0206 99.9442C52.8864 99.445 52.8864 98.6312 52.0206 98.1242C51.5341 97.8769 50.996 97.748 50.4502 97.748C49.9044 97.748 49.3664 97.8769 48.8798 98.1242Z" fill="#FAFAFA"/>
<path d="M32.8118 87.6201H28.3918L29.099 91.9335C29.1268 92.0465 29.1795 92.1519 29.2533 92.2418C29.3271 92.3318 29.4201 92.4041 29.5254 92.4535C29.8571 92.6214 30.2236 92.7089 30.5953 92.7089C30.9671 92.7089 31.3336 92.6214 31.6652 92.4535C31.7703 92.4032 31.863 92.3307 31.9371 92.2409C32.0112 92.1511 32.0648 92.0462 32.0942 91.9335L32.8118 87.6201Z" fill="#FAFAFA"/>
<path d="M29.0314 86.6011C28.163 87.1003 28.163 87.9141 29.0314 88.4211C29.5175 88.6686 30.0551 88.7976 30.6005 88.7976C31.1459 88.7976 31.6836 88.6686 32.1696 88.4211C33.038 87.9219 33.038 87.1081 32.1696 86.6011C31.6836 86.3536 31.1459 86.2246 30.6005 86.2246C30.0551 86.2246 29.5175 86.3536 29.0314 86.6011Z" fill="#FAFAFA"/>
<path d="M89.8455 82.29H85.4255L86.1301 86.6008C86.1575 86.716 86.2102 86.8236 86.2844 86.9158C86.3586 87.008 86.4525 87.0825 86.5591 87.1338C86.8903 87.3017 87.2564 87.3892 87.6277 87.3892C87.9991 87.3892 88.3651 87.3017 88.6963 87.1338C88.803 87.0825 88.8968 87.008 88.9711 86.9158C89.0453 86.8236 89.098 86.716 89.1253 86.6008L89.8455 82.29Z" fill="#FAFAFA"/>
<path d="M86.06 81.2659C85.1942 81.7677 85.1942 82.5789 86.06 83.0859C86.5469 83.332 87.0848 83.4602 87.6304 83.4602C88.176 83.4602 88.7139 83.332 89.2008 83.0859C90.0666 82.5841 90.0666 81.7729 89.2008 81.2659C88.7139 81.0198 88.176 80.8916 87.6304 80.8916C87.0848 80.8916 86.5469 81.0198 86.06 81.2659Z" fill="#FAFAFA"/>
<path d="M67.3555 69.2046H62.9355L63.6427 73.518C63.6701 73.6331 63.7228 73.7408 63.797 73.833C63.8712 73.9252 63.9651 73.9997 64.0717 74.051C64.4034 74.2189 64.7699 74.3064 65.1416 74.3064C65.5134 74.3064 65.8799 74.2189 66.2115 74.051C66.3184 74.0003 66.4123 73.9259 66.4861 73.8336C66.56 73.7413 66.6119 73.6333 66.6379 73.518L67.3555 69.2046Z" fill="#FAFAFA"/>
<path d="M63.5751 68.1824C62.7067 68.6842 62.7067 69.4954 63.5751 70.0024C64.0612 70.2499 64.5988 70.3789 65.1442 70.3789C65.6896 70.3789 66.2273 70.2499 66.7133 70.0024C67.5817 69.5032 67.5817 68.7024 66.7133 68.1824C66.2269 67.9363 65.6894 67.8081 65.1442 67.8081C64.5991 67.8081 64.0616 67.9363 63.5751 68.1824Z" fill="#FAFAFA"/>
<path d="M93.3763 59.6232V80.2178C93.3763 81.5802 92.4091 83.252 91.2313 83.9306L89.4841 84.942L89.4529 84.9576C88.6225 85.3635 87.6932 85.5232 86.7749 85.4178L60.5305 99.3044C60.4707 100.63 59.5451 102.201 58.4089 102.869H58.3907L56.6461 103.875C56.5954 103.909 56.5414 103.936 56.4849 103.958C56.4556 103.975 56.4252 103.99 56.3939 104.003C56.3939 104.003 56.3757 104.003 56.3705 104.003C55.3131 104.441 54.1357 104.495 53.0425 104.156C52.9155 104.119 52.7913 104.073 52.6707 104.018L52.6109 103.992C52.5225 103.953 52.4393 103.909 52.3509 103.865L27.0945 89.3204C25.9115 88.6392 24.9521 86.9804 24.9521 85.6076L24.9131 59.5348V49.6392C24.9131 48.2768 25.8777 46.6076 27.0555 45.9264L55.3097 29.64C56.4927 28.9562 58.2685 29.0264 59.4463 29.7076L61.1935 30.7138C62.3739 31.3976 63.4867 33.0538 63.6661 34.4084L65.3483 45.4454L66.9083 44.5458C67.6176 44.1357 68.4225 43.9198 69.2418 43.9198C70.0611 43.9198 70.866 44.1357 71.5753 44.5458L91.2313 55.9C92.4091 56.589 93.3763 58.2608 93.3763 59.6232Z" fill="#37474F"/>
<path d="M61.1935 30.7271L59.4489 29.7183C58.2633 29.0345 56.4953 28.9669 55.3097 29.6507L27.0659 45.9267C26.9411 45.9995 26.8059 46.0957 26.8449 46.0645C25.8133 46.8439 25.1304 47.9986 24.9443 49.2781C25.1029 48.1835 25.9843 47.7883 27.0633 48.4019L28.8131 49.4107C29.9961 50.0945 31.9175 50.0945 33.1005 49.4107L61.1935 33.2023C62.3791 32.5185 62.3791 31.4109 61.1935 30.7271Z" fill="#455A64"/>
<path d="M93.3762 59.6232V80.2178C93.3762 81.5802 92.409 83.252 91.2312 83.9306L89.484 84.942L89.4528 84.9576C88.6785 85.3508 87.8081 85.5149 86.9438 85.4308C86.332 85.3965 85.735 85.2297 85.194 84.942L65.3482 73.4786C64.1704 72.8 63.2058 71.1256 63.2058 69.7632V49.1712C63.2058 47.8088 64.1652 46.1344 65.3482 45.4558L66.9082 44.5562C67.6175 44.1461 68.4224 43.9302 69.2417 43.9302C70.061 43.9302 70.8659 44.1461 71.5752 44.5562L91.2312 55.9C92.409 56.589 93.3762 58.2608 93.3762 59.6232Z" fill="#263238"/>
<path d="M66.9057 44.5564L65.3458 45.456C64.168 46.1372 64.168 47.25 65.3458 47.9312L85.1967 59.392C86.3745 60.0732 87.3392 61.732 87.3392 63.1048V83.702C87.3392 85.0644 88.3038 85.6208 89.4842 84.9396L91.2314 83.9308C92.4092 83.2496 93.3738 81.5908 93.3738 80.218V59.6208C93.3738 58.2584 92.4092 56.5892 91.2314 55.908L71.5676 44.5564C70.8591 44.1465 70.0551 43.9307 69.2367 43.9307C68.4182 43.9307 67.6142 44.1465 66.9057 44.5564Z" fill="#455A64"/>
<path d="M87.3392 63.105V83.7022C87.3392 85.0646 88.3038 85.621 89.4842 84.9398L91.2314 83.931C92.4092 83.2498 93.3738 81.591 93.3738 80.2182V59.621C93.3466 58.8752 93.1301 58.1487 92.7446 57.5098L86.71 60.9938C87.0966 61.6322 87.3133 62.359 87.3392 63.105Z" fill="#37474F"/>
<path d="M86.4472 85.4308C86.2431 85.8585 85.9806 86.2558 85.6672 86.6112C85.2122 87.1312 84.2424 87.6798 83.6496 88.023C76.1096 92.378 70.6704 95.5058 63.1278 99.8608C62.7953 100.029 62.4279 100.116 62.0553 100.116C61.6827 100.116 61.3154 100.029 60.9828 99.8608L54.0096 95.8334L40.0606 87.7734C38.8776 87.0896 37.9182 85.4958 37.9182 84.214C37.9182 82.9322 38.8776 81.3358 40.0606 80.652L47.975 76.0838L54.0096 72.6024L60.5668 68.8246C61.2322 68.4895 61.9668 68.3149 62.7118 68.3149C63.4568 68.3149 64.1914 68.4895 64.8568 68.8246L84.7026 80.288C85.8856 80.9718 86.845 82.5656 86.845 83.85C86.8284 84.3995 86.6926 84.9389 86.4472 85.4308Z" fill="#263238"/>
<path d="M63.1252 95.2172L85.7712 82.16C86.364 81.8194 86.8424 82.0977 86.8424 82.7815V84.9498C86.8227 85.3218 86.7155 85.6838 86.5293 86.0065C86.3431 86.3291 86.0834 86.6031 85.7712 86.8062L63.1252 99.8712C62.5324 100.212 62.0514 99.9362 62.054 99.2524V97.084C62.0726 96.7104 62.1794 96.3466 62.3656 96.0221C62.5517 95.6977 62.812 95.4219 63.1252 95.2172Z" fill="#37474F"/>
<path d="M60.5618 58.2116L40.0582 70.039C38.8752 70.7228 37.9158 72.379 37.9158 73.7518V78.0912C37.9158 79.4588 38.8752 81.1202 40.0608 81.804L59.9092 93.2648C61.0922 93.9486 63.0136 93.9486 64.1966 93.2648L84.7002 81.44C85.8832 80.7562 86.8452 79.1 86.8452 77.7246V73.3852C86.8452 72.0176 85.8832 70.3562 84.7002 69.6724L64.8518 58.2116C63.6662 57.5304 61.7474 57.5304 60.5618 58.2116Z" fill="#37474F"/>
<path d="M62.0542 84.4844V93.7794C61.3066 93.7915 60.5682 93.6125 59.9092 93.2594L40.0582 81.8012C38.8752 81.1174 37.9158 79.4612 37.9158 78.0858V73.7542C37.9158 72.4724 38.7608 70.9306 39.8398 70.1792C38.8804 70.8682 38.9532 71.877 40.0582 72.5192L59.9092 83.98C60.5699 84.3272 61.308 84.5007 62.0542 84.4844Z" fill="#263238"/>
<path d="M64.1965 83.9804L84.7001 72.153C85.8831 71.4692 85.8831 70.3616 84.7001 69.6778L64.8517 58.217C63.6661 57.5358 61.7473 57.5358 60.5617 58.217L40.0581 70.0444C38.8751 70.7282 38.8751 71.8358 40.0581 72.5196L59.9091 83.9804C61.0999 84.659 63.0135 84.659 64.1965 83.9804Z" fill="#455A64"/>
<path d="M47.7255 35.3602C48.0167 35.1002 45.9055 32.6692 45.7365 32.4534C44.6925 31.1515 43.8759 29.6826 43.3211 28.1088C42.8167 26.6034 42.6113 24.9628 42.9727 23.4288C43.1982 22.4383 43.6745 21.5223 44.3559 20.769C44.6959 20.4012 45.0884 20.0858 45.5207 19.833C45.8268 19.6568 46.1596 19.5321 46.5061 19.4638C46.5061 19.4638 47.2237 17.0562 50.2085 16.4582C51.5473 16.1826 52.9283 16.1826 54.2671 16.4582C55.2369 16.661 56.1547 17.0276 57.1011 17.3136C58.359 17.6693 59.676 17.7666 60.9725 17.5996C61.3729 17.5502 61.8071 17.4852 62.1529 17.688C62.6131 17.948 62.7145 18.5798 62.6729 19.1102C62.5683 20.0449 62.1483 20.9162 61.4821 21.5802C61.6752 21.6673 61.8382 21.8095 61.9506 21.989C62.063 22.1685 62.1198 22.3773 62.1139 22.589C62.0913 23.0142 61.9449 23.4236 61.6927 23.7668C60.8581 25.0382 59.5477 25.6466 58.0969 25.9144L47.7255 35.3602Z" fill="#263238"/>
<path d="M72.761 88.4756C72.4334 88.8188 72.059 89.2192 72.1006 89.6508C72.22 90.5711 72.6288 91.4297 73.268 92.1026C74.1754 93.0854 74.7708 94.9626 74.9372 96.2236C75.1036 97.4846 75.2206 100.732 76.83 102.006C78.4394 103.28 82.3446 103.917 82.3472 101.556C82.3498 99.1954 77.6854 90.1162 77.6854 90.1162L72.761 88.4756Z" fill="#263238"/>
<path d="M74.9241 89.9941C75.5759 91.6431 76.1026 93.3387 76.4997 95.0667C76.8975 96.9621 77.4591 98.2959 78.4237 98.8055C79.3883 99.3151 80.8339 99.2241 80.2905 97.9371C79.7471 96.6501 77.6905 90.1163 77.6905 90.1163L74.9241 89.9941Z" fill="#F28F8F"/>
<path d="M62.4441 57.7383C62.4441 57.7383 70.1193 61.2535 73.8529 63.2581C77.5865 65.2627 81.1329 67.2257 81.8765 68.8403C82.6565 70.5459 82.4615 74.6123 82.0507 78.5253C81.6399 82.4383 80.7871 89.4661 80.7871 89.4661L69.8541 73.0861L58.8691 65.8321L62.4441 57.7383Z" fill="#6C4EFF"/>
<path opacity="0.1" d="M76.6271 74.9714C75.5481 72.4624 73.1925 70.7958 70.9799 69.4204C69.2275 68.3336 64.8569 65.796 63.1409 64.8002C63.489 63.9421 63.6835 63.0295 63.7155 62.104C63.7155 62.104 63.1799 63.3364 62.5455 64.444L62.0879 65.1954L73.3381 73.5908L81.0445 87.3942C81.0445 87.3942 77.7061 77.4804 76.6271 74.9714Z" fill="black"/>
<path d="M81.7207 101.733C81.4035 101.944 81.4477 102.726 81.4789 103.293C81.5101 103.86 81.0967 104.619 81.9287 105.503C82.7607 106.387 84.1621 106.465 85.3087 107.671C86.4553 108.878 88.1843 111.103 91.3069 111.265C94.4295 111.426 96.5693 110.063 96.9905 109.073C97.4117 108.082 96.7695 107.315 94.6635 106.517C92.4275 105.672 91.7905 105.42 91.7905 105.42L81.7207 101.733Z" fill="#263238"/>
<path d="M83.98 95.0093C83.98 95.0093 86.0834 98.8131 87.2638 100.524C88.4442 102.235 90.1238 103.766 91.9438 105.157C92.339 105.459 93.2074 105.994 93.5298 106.239C93.6039 106.284 93.667 106.345 93.7145 106.418C93.7621 106.491 93.793 106.573 93.8049 106.659C93.8168 106.745 93.8096 106.833 93.7836 106.915C93.7576 106.998 93.7136 107.074 93.6546 107.138C93.1346 107.897 90.402 108.615 88.6132 107.775C86.8244 106.935 84.8458 105.04 83.72 104.302C83.161 103.93 82.6358 103.574 82.2484 103.311C82.0665 103.187 81.9197 103.017 81.8223 102.82C81.7248 102.622 81.68 102.403 81.692 102.183C81.692 102.055 81.705 101.907 81.7102 101.733C81.7388 100.797 79.8044 97.3805 79.8044 97.3805L83.98 95.0093Z" fill="#FFA8A7"/>
<path d="M44.6055 62.1142C45.2113 65.4032 45.7183 66.7604 47.5305 69.6308C49.2881 72.4076 52.9099 74.4356 57.6237 76.019C61.5237 77.319 67.2619 79.1988 68.3955 79.4432C69.5291 79.6876 69.7709 80.2986 70.0335 82.3032C70.2961 84.3078 71.6533 87.4252 74.7005 91.0366C76.9111 93.7203 78.9767 96.5201 80.8885 99.4242C80.8885 99.4242 84.0709 99.4242 85.2903 97.3026C85.2903 97.3026 76.4295 76.4012 75.0099 73.991C73.5903 71.5808 62.0983 65.2056 62.0983 65.2056C62.0983 65.2056 62.2907 60.8792 62.4441 57.728L44.6055 62.1142Z" fill="#6C4EFF"/>
<path d="M61.7552 39.5747C63.4114 42.0057 67.6754 49.1947 67.6754 49.1947L71.63 43.3785L75.4338 42.9677C75.4338 42.9677 72.02 53.3209 69.42 55.7805C68.1486 56.9895 66.6926 56.2589 65.9334 55.6115C65.1742 54.9641 64.5814 54.2907 63.1176 52.5565C60.684 49.6731 60.06 48.6773 60.06 48.6773L55.7622 36.7173C57.4106 36.7199 59.605 36.4157 61.7552 39.5747Z" fill="#FFA8A7"/>
<path d="M67.6754 49.1921C66.9077 49.9204 66.3087 50.8078 65.9204 51.7921C65.9334 51.1954 66.0657 50.6074 66.3095 50.0626C66.5533 49.5178 66.9037 49.0274 67.34 48.6201L67.6754 49.1921Z" fill="#F28F8F"/>
<path d="M75.8159 35.7554L75.4129 35.4174C75.3529 35.3778 75.2842 35.3533 75.2126 35.346C75.1411 35.3388 75.0688 35.349 75.0021 35.3758L70.7199 36.5978C70.5029 36.6718 70.3046 36.7919 70.1385 36.9499C69.9724 37.1079 69.8426 37.3 69.7579 37.513L66.7419 46.5064C66.7051 46.5797 66.6914 46.6623 66.7025 46.7436C66.7136 46.8248 66.7491 46.9007 66.8043 46.9614L67.2203 47.3098C67.2803 47.3505 67.3492 47.376 67.4212 47.3842C67.4932 47.3923 67.5662 47.3829 67.6337 47.3566L71.9393 46.1398C72.1558 46.0648 72.3535 45.9439 72.5191 45.7856C72.6847 45.6272 72.8141 45.4349 72.8987 45.222C73.4915 43.4566 75.3245 37.9966 75.9147 36.2312C75.9719 36.005 75.9329 35.8412 75.8159 35.7554Z" fill="#6C4EFF"/>
<path opacity="0.3" d="M75.8159 35.7554L75.4129 35.4174C75.3529 35.3778 75.2842 35.3533 75.2126 35.346C75.1411 35.3388 75.0688 35.349 75.0021 35.3758L70.7199 36.5978C70.5029 36.6718 70.3046 36.7919 70.1385 36.9499C69.9724 37.1079 69.8426 37.3 69.7579 37.513L66.7419 46.5064C66.7051 46.5797 66.6914 46.6623 66.7025 46.7436C66.7136 46.8248 66.7491 46.9007 66.8043 46.9614L67.2203 47.3098C67.2803 47.3505 67.3492 47.376 67.4212 47.3842C67.4932 47.3923 67.5662 47.3829 67.6337 47.3566L71.9393 46.1398C72.1558 46.0648 72.3535 45.9439 72.5191 45.7856C72.6847 45.6272 72.8141 45.4349 72.8987 45.222C73.4915 43.4566 75.3245 37.9966 75.9147 36.2312C75.9719 36.005 75.9329 35.8412 75.8159 35.7554Z" fill="black"/>
<path d="M67.1321 46.8443L70.1481 37.8535C70.2328 37.6405 70.3626 37.4484 70.5287 37.2904C70.6948 37.1324 70.8931 37.0123 71.1101 36.9383L75.4131 35.7215C75.8135 35.6071 76.0293 35.8333 75.8967 36.2415C75.3065 38.0069 73.4735 43.4669 72.8807 45.2323C72.7961 45.4453 72.6667 45.6375 72.5011 45.7959C72.3355 45.9543 72.1378 46.0751 71.9213 46.1501L67.6157 47.3669C67.2179 47.4657 66.9995 47.2395 67.1321 46.8443Z" fill="#6C4EFF"/>
<path opacity="0.5" d="M67.1321 46.8443L70.1481 37.8535C70.2328 37.6405 70.3626 37.4484 70.5287 37.2904C70.6948 37.1324 70.8931 37.0123 71.1101 36.9383L75.4131 35.7215C75.8135 35.6071 76.0293 35.8333 75.8967 36.2415C75.3065 38.0069 73.4735 43.4669 72.8807 45.2323C72.7961 45.4453 72.6667 45.6375 72.5011 45.7959C72.3355 45.9543 72.1378 46.0751 71.9213 46.1501L67.6157 47.3669C67.2179 47.4657 66.9995 47.2395 67.1321 46.8443Z" fill="black"/>
<path d="M70.6419 37.18C70.4206 37.3526 70.25 37.5816 70.1479 37.843L67.1293 46.8338C67.0945 46.9054 67.0806 46.9854 67.0893 47.0646C67.0981 47.1437 67.1291 47.2188 67.1787 47.281L66.7887 46.956C66.7333 46.895 66.6977 46.8186 66.6866 46.7369C66.6755 46.6552 66.6893 46.5721 66.7263 46.4984L69.7423 37.505C69.8382 37.2602 69.9959 37.0443 70.1999 36.8784L70.6419 37.18Z" fill="#6C4EFF"/>
<path opacity="0.4" d="M70.6419 37.18C70.4206 37.3526 70.25 37.5816 70.1479 37.843L67.1293 46.8338C67.0945 46.9054 67.0806 46.9854 67.0893 47.0646C67.0981 47.1437 67.1291 47.2188 67.1787 47.281L66.7887 46.956C66.7333 46.895 66.6977 46.8186 66.6866 46.7369C66.6755 46.6552 66.6893 46.5721 66.7263 46.4984L69.7423 37.505C69.8382 37.2602 69.9959 37.0443 70.1999 36.8784L70.6419 37.18Z" fill="black"/>
<path d="M74.6538 44.46C76.2424 42.1824 75.9122 39.5824 74.997 38.9194L74.5732 40.183C74.5732 40.183 71.864 41.0982 70.5198 41.1424C69.1756 41.1866 68.0472 40.9838 67.7092 41.2802C66.9942 41.9094 67.0228 44.2598 69.3316 44.8656C71.2972 45.3726 74.6538 44.46 74.6538 44.46Z" fill="#FFA8A7"/>
<path d="M44.0049 38.2355C45.6149 40.5495 46.3308 43.369 46.0199 46.1707C45.6507 49.5065 44.5379 50.0317 42.8453 50.9729C42.5567 57.8109 45.5051 65.8501 45.5051 65.8501C45.5051 65.8501 50.4451 67.2827 57.4651 64.5709C63.8637 62.0983 64.3603 58.4765 64.3603 58.4765L61.1857 54.8131L60.4395 50.0811C60.4395 50.0811 62.7795 46.4827 61.5757 43.4927C60.4323 40.6583 58.3886 38.2784 55.7595 36.7197H53.8485L47.7255 37.4399L44.0049 38.2355Z" fill="#FAFAFA"/>
<path d="M58.2921 21.2812C59.2099 22.342 60.1589 23.4028 59.8521 28.8498C59.5921 33.4675 58.2765 34.6323 57.5121 34.9391C56.7477 35.2459 55.3073 34.9962 53.9033 34.7181V36.733C54.4233 37.1152 56.2017 38.4126 55.8715 39.3825C55.4633 40.5784 52.6579 40.7214 50.6949 39.8531C48.4303 38.8468 47.7777 37.3519 47.7777 37.3519V31.1483C47.7777 31.1483 46.5531 31.819 45.4767 30.5788C44.4653 29.4141 44.1767 27.8515 45.1153 26.9597C45.3642 26.7318 45.6685 26.573 45.9978 26.4991C46.3271 26.4252 46.67 26.4388 46.9925 26.5385C47.2669 26.6453 47.5069 26.8251 47.6867 27.0585C47.901 27.3378 48.0907 27.6354 48.2535 27.9476C48.3601 28.1348 48.5733 28.4676 48.8255 28.4676C49.0777 28.4676 49.2181 28.1089 49.3013 27.9216C49.656 27.1457 50.1908 26.4656 50.8613 25.9379C51.5581 25.3867 52.3017 25.1423 53.1363 24.8979C54.2491 24.5677 55.3957 24.1959 56.3525 23.5199C56.7366 23.2472 57.0859 22.9285 57.3925 22.5708C57.7187 22.16 58.0191 21.7293 58.2921 21.2812Z" fill="#FFA8A7"/>
<path d="M60.9127 26.3121C61.0069 26.2413 61.1247 26.2093 61.2418 26.2227C61.3589 26.2362 61.4664 26.2941 61.5421 26.3844C61.6177 26.4748 61.6559 26.5907 61.6486 26.7084C61.6413 26.826 61.5892 26.9364 61.5029 27.0167C61.3079 27.1805 60.5227 27.2377 60.5227 27.2377C60.5227 27.2377 60.7177 26.4759 60.9127 26.3121Z" fill="#6C4EFF"/>
<path d="M61.451 27.7655C61.5645 27.811 61.6552 27.8997 61.7032 28.0121C61.7512 28.1245 61.7527 28.2513 61.7071 28.3648C61.6616 28.4782 61.5729 28.5689 61.4605 28.6169C61.3481 28.665 61.2213 28.6664 61.1078 28.6209C60.8712 28.5247 60.4526 27.8591 60.4526 27.8591C60.4526 27.8591 61.2144 27.6719 61.451 27.7655Z" fill="#6C4EFF"/>
<path d="M53.9137 34.7182C51.6673 34.0708 50.1827 33.725 49.4573 32.1182C49.514 32.8157 49.8205 33.4693 50.3205 33.959C51.6595 35.142 53.9137 35.4774 53.9137 35.4774V34.7182Z" fill="#F28F8F"/>
<path d="M55.0602 28.0281C55.0526 28.0489 55.039 28.067 55.0212 28.0801C54.9796 28.1087 54.9224 28.1009 54.8756 28.1191C54.7794 28.1607 54.769 28.2959 54.6858 28.3557C54.6026 28.4155 54.3972 28.3323 54.2646 28.3895C54.2126 28.4129 54.171 28.4649 54.1164 28.4857C54.0176 28.5273 53.9162 28.4649 53.8148 28.4857C53.7134 28.5065 53.6536 28.5975 53.599 28.6521C52.9606 29.3168 52.5398 30.1603 52.3926 31.0701C52.2759 31.686 52.2653 32.3174 52.3614 32.9369C52.4227 33.3134 52.5522 33.6755 52.7436 34.0055C52.8117 34.1135 52.8891 34.2153 52.975 34.3097C53.013 34.358 53.0567 34.4016 53.105 34.4397C53.164 34.4801 53.2181 34.5272 53.2662 34.5801C53.3233 34.6443 53.3532 34.7282 53.3494 34.8141C53.3461 34.8571 53.3292 34.8979 53.3011 34.9306C53.2731 34.9633 53.2353 34.9863 53.1934 34.9961C53.131 34.9961 53.0556 34.9961 53.04 34.9259C53.0348 34.8853 53.0348 34.8443 53.04 34.8037C53.0424 34.712 53.018 34.6217 52.9698 34.5437C52.8991 34.4434 52.8209 34.3487 52.7358 34.2603C52.6502 34.1675 52.5752 34.0655 52.5122 33.9561C52.4215 33.7905 52.3475 33.6163 52.2912 33.4361C52.2912 33.4153 52.2912 33.3919 52.273 33.3685C52.1344 32.9022 52.0712 32.4169 52.0858 31.9307C52.1133 30.8661 52.4483 29.8321 53.0504 28.9537C53.197 28.7377 53.3779 28.5471 53.586 28.3895C53.5623 28.3928 53.5383 28.3911 53.5153 28.3844C53.4924 28.3777 53.4712 28.3663 53.453 28.3508C53.4348 28.3353 53.4201 28.3162 53.4099 28.2946C53.3996 28.273 53.3941 28.2496 53.3936 28.2257C53.3968 28.1891 53.4078 28.1537 53.4257 28.1217C53.4437 28.0897 53.4682 28.0618 53.4977 28.04C53.5271 28.0181 53.5609 28.0028 53.5967 27.9949C53.6326 27.987 53.6697 27.9868 53.7056 27.9943C53.7784 28.0099 53.846 28.0463 53.9214 28.0567C54.0099 28.0642 54.0989 28.0508 54.1814 28.0177C54.3088 27.9683 54.4232 27.8903 54.5506 27.8383C54.6137 27.8107 54.6819 27.7964 54.7508 27.7964C54.8197 27.7964 54.8879 27.8107 54.951 27.8383C54.9964 27.8607 55.0323 27.8985 55.0524 27.9449C55.0628 27.9713 55.0655 28.0002 55.0602 28.0281Z" fill="#E6E6E6"/>
<path d="M58.1309 27.5604C58.0577 27.5553 57.9843 27.565 57.9151 27.589C57.8803 27.6006 57.8481 27.619 57.8205 27.6431C57.7928 27.6672 57.7702 27.6965 57.7539 27.7294C57.7419 27.7503 57.7347 27.7736 57.7329 27.7976C57.7311 27.8216 57.7347 27.8457 57.7434 27.8682C57.7521 27.8906 57.7658 27.9108 57.7833 27.9273C57.8009 27.9438 57.8219 27.9561 57.8449 27.9634C57.8891 27.9634 57.9463 27.9634 57.9775 28.0102C58.0087 28.057 57.9931 28.0804 58.0035 28.1168C58.0136 28.1427 58.0301 28.1656 58.0515 28.1833C58.0728 28.201 58.0984 28.2131 58.1257 28.2182C58.1818 28.2264 58.2391 28.2202 58.2921 28.2C58.3454 28.1744 58.4047 28.1636 58.4637 28.1688C58.5339 28.1844 58.5833 28.252 58.6509 28.2806C58.6844 28.2945 58.7212 28.2982 58.7568 28.2913C58.7925 28.2843 58.8252 28.2671 58.8511 28.2416C58.8698 28.2181 58.8907 28.1963 58.9135 28.1766C58.9837 28.1272 59.0929 28.1766 59.1605 28.1142C59.2281 28.0518 59.1917 27.9556 59.1605 27.8932C59.1097 27.822 59.0417 27.7648 58.9629 27.7268C58.8985 27.6964 58.8315 27.6721 58.7627 27.654C58.7003 27.6358 58.6405 27.6306 58.5781 27.615C58.4317 27.5793 58.2816 27.5609 58.1309 27.5604Z" fill="#E6E6E6"/>
<path d="M54.743 27.5446C54.8548 27.8592 54.6234 28.0074 54.3218 28.114C54.0202 28.2206 53.7576 28.2414 53.6458 27.9268C53.6142 27.8533 53.5981 27.7742 53.5984 27.6942C53.5987 27.6142 53.6155 27.5352 53.6478 27.462C53.68 27.3888 53.7269 27.3231 53.7857 27.2688C53.8444 27.2145 53.9137 27.173 53.9892 27.1467C54.0647 27.1204 54.1448 27.1099 54.2246 27.1159C54.3043 27.1219 54.382 27.1443 54.4527 27.1816C54.5234 27.2189 54.5857 27.2704 54.6356 27.3329C54.6856 27.3953 54.7221 27.4674 54.743 27.5446Z" fill="#263238"/>
<path d="M59.02 27.7034C58.9238 28.0232 58.6482 28.0076 58.3414 27.914C58.0346 27.8204 57.8214 27.6852 57.9098 27.3654C57.9546 27.2181 58.0561 27.0948 58.1919 27.0223C58.3277 26.9499 58.4867 26.9344 58.6339 26.9793C58.7811 27.0241 58.9045 27.1255 58.9769 27.2613C59.0493 27.3971 59.0648 27.5561 59.02 27.7034Z" fill="#263238"/>
<path d="M58.0736 25.2461L59.254 26.0573C59.2061 26.1313 59.1428 26.1942 59.0684 26.2415C58.9941 26.2889 58.9103 26.3197 58.823 26.3318C58.7356 26.3438 58.6467 26.337 58.5623 26.3116C58.4778 26.2862 58.3998 26.2429 58.3336 26.1847C58.2539 26.1411 58.1838 26.082 58.1273 26.0109C58.0709 25.9397 58.0293 25.8579 58.0051 25.7704C57.9808 25.6829 57.9744 25.5914 57.9862 25.5013C57.998 25.4112 58.0277 25.3245 58.0736 25.2461Z" fill="#263238"/>
<path d="M53.092 26.1821L54.2568 25.3501C54.3099 25.4222 54.347 25.5048 54.3657 25.5924C54.3845 25.68 54.3844 25.7705 54.3654 25.858C54.3465 25.9456 54.3092 26.0281 54.2559 26.1001C54.2027 26.1721 54.1348 26.2319 54.0566 26.2757C53.9878 26.3344 53.9079 26.3787 53.8216 26.4058C53.7354 26.433 53.6445 26.4425 53.5545 26.4337C53.4644 26.425 53.3771 26.3982 53.2976 26.355C53.2182 26.3117 53.1483 26.2529 53.092 26.1821Z" fill="#263238"/>
<path d="M56.0403 27.04L56.3029 30.5396L58.0969 30.108L56.0403 27.04Z" fill="#F28F8F"/>
<path d="M55.4371 31.2001C54.7871 31.0961 54.0617 31.5355 54.1059 31.9151C54.1397 32.1907 54.3971 32.2791 54.7611 32.2479C55.0905 32.1979 55.4266 32.2741 55.7023 32.4611C55.7657 32.5058 55.8406 32.5316 55.9181 32.5353C55.9957 32.539 56.0726 32.5205 56.14 32.4821C56.2074 32.4436 56.2625 32.3867 56.2987 32.318C56.3349 32.2494 56.3508 32.1718 56.3445 32.0945C56.3273 31.8608 56.2258 31.6413 56.0589 31.4768C55.892 31.3122 55.6711 31.2139 55.4371 31.2001Z" fill="#B16668"/>
<path d="M54.5323 31.6138C54.3949 31.6146 54.2606 31.6543 54.1449 31.7282C54.1135 31.7862 54.0999 31.8522 54.1059 31.918C54.1397 32.1936 54.3971 32.282 54.7611 32.2508C54.923 32.2313 55.0869 32.2366 55.2473 32.2664C55.2305 32.0882 55.1479 31.9227 55.0158 31.802C54.8836 31.6814 54.7112 31.6143 54.5323 31.6138Z" fill="#F28F8F"/>
<path d="M44.005 38.2358C41.7144 38.6492 39.3536 40.9554 39.7592 45.1388C40.1648 49.3222 43.6332 59.3634 44.304 60.705C45.3778 62.8526 46.7636 64.1968 48.1598 64.4802C48.5698 64.5493 48.9897 64.532 49.3926 64.4295C49.7955 64.327 50.1726 64.1415 50.4998 63.8848C53.339 61.823 56.2562 55.843 57.3352 53.373C58.0554 51.722 58.526 50.409 58.7756 48.8984C58.9966 47.5672 59.0356 45.9864 58.1178 44.9074C57.6862 44.4056 57.356 43.727 56.628 43.6074C56.3446 43.558 56.277 43.5892 56.0638 43.3682C55.8506 43.1472 55.6088 42.8924 55.3826 42.6558C55.2136 42.4816 54.9952 42.2918 54.7612 42.3516C54.6839 42.377 54.6146 42.422 54.5599 42.4821C54.5053 42.5423 54.4671 42.6156 54.4492 42.6948C54.4144 42.8528 54.4083 43.0157 54.431 43.1758C54.5189 44.097 54.5563 45.0222 54.5428 45.9474C54.5524 46.5327 54.4372 47.1132 54.2048 47.6504C54.1861 47.7029 54.1569 47.751 54.1189 47.7917C54.0809 47.8325 54.0349 47.8649 53.9838 47.887C53.9447 47.8954 53.9043 47.8953 53.8653 47.8867C53.8263 47.8782 53.7896 47.8615 53.7576 47.8376C53.6942 47.7877 53.6412 47.7259 53.6016 47.6556C53.4196 47.354 53.274 47.029 53.1024 46.7196C52.9026 46.3325 52.5945 46.0118 52.2158 45.7966C52.0793 45.7168 51.9241 45.6746 51.766 45.6744C51.6864 45.6767 51.609 45.7007 51.5421 45.7438C51.4752 45.7869 51.4214 45.8474 51.3864 45.9188C51.3653 46.0225 51.366 46.1294 51.3884 46.2328C51.4107 46.3362 51.4543 46.4338 51.5164 46.5194C51.9818 47.4684 51.9558 48.5552 52.195 49.5666C52.3042 50.0268 52.494 50.5312 52.6318 50.981C52.8086 51.5634 52.481 52.4682 52.1534 53.035C51.4445 54.2762 50.559 55.4077 49.5248 56.3942L47.2576 48.381C47.2576 48.381 47.9648 44.208 46.3372 41.075C45.2634 39.0002 44.005 38.2358 44.005 38.2358Z" fill="#FFA8A7"/>
<path d="M49.5222 56.3864C48.1598 57.0468 47.0158 58.3468 46.8 59.0878C46.8 59.0878 46.5946 56.7816 49.27 55.4868L49.5222 56.3864Z" fill="#F28F8F"/>
<path d="M54.5011 102.648V82.051C54.5011 80.6912 53.5365 79.0194 52.3587 78.3382L32.4843 66.867C32.2694 66.7432 32.0909 66.5649 31.9667 66.3501C31.8426 66.1354 31.7773 65.8917 31.7773 65.6437C31.7773 65.3956 31.8426 65.152 31.9667 64.9372C32.0909 64.7225 32.2694 64.5442 32.4843 64.4204L32.9679 64.1422L31.2831 53.1026C31.1037 51.7532 29.9831 50.0918 28.8131 49.4106L27.0659 48.4018C25.8881 47.7206 24.9209 48.2796 24.9209 49.6394V59.5558L24.9599 85.6286C24.9599 86.991 25.9245 88.6602 27.1023 89.3414L52.3613 103.886C53.5365 104.567 54.5011 104 54.5011 102.648Z" fill="#263238"/>
<path d="M60.5356 78.5671V99.1669C60.5382 99.2128 60.5382 99.2588 60.5356 99.3047C60.4758 100.631 59.5502 102.201 58.414 102.869H58.3958L56.6512 103.876C56.6005 103.909 56.5465 103.937 56.49 103.959C56.4607 103.976 56.4303 103.99 56.399 104.003C56.399 104.003 56.3808 104.003 56.3756 104.003C56.3158 104.026 56.256 104.052 56.2014 104.068C55.1876 104.439 54.0806 104.47 53.0476 104.156C52.9206 104.119 52.7964 104.073 52.6758 104.019C53.7158 104.442 54.4958 103.865 54.4958 102.63V82.0537C54.4958 80.6913 53.5286 79.0169 52.3508 78.3383L48.4508 76.0919L32.466 66.8645C32.2517 66.7405 32.0738 66.5623 31.95 66.3479C31.8263 66.1334 31.7612 65.8901 31.7612 65.6425C31.7612 65.3949 31.8263 65.1517 31.95 64.9372C32.0738 64.7227 32.2517 64.5445 32.466 64.4205L34.2392 63.3805C35.4196 62.7019 37.3592 62.7019 38.5292 63.3805L54.488 72.5975L58.388 74.8387C59.5736 75.5355 60.5356 77.2047 60.5356 78.5671Z" fill="#455A64"/>
<path d="M54.5036 82.0534V102.651C54.5036 103.886 53.7002 104.471 52.6836 104.039C52.8042 104.093 52.9284 104.139 53.0554 104.177C54.0884 104.49 55.1954 104.459 56.2092 104.088C56.2638 104.073 56.3236 104.047 56.3834 104.023C56.3834 104.023 56.399 104.023 56.4068 104.023C56.4381 104.011 56.4685 103.996 56.4978 103.979C56.5543 103.957 56.6083 103.929 56.659 103.896L58.4036 102.89H58.4218C59.558 102.222 60.4836 100.651 60.5434 99.3252C60.546 99.2793 60.546 99.2333 60.5434 99.1874V78.5668C60.5162 77.821 60.2997 77.0945 59.9142 76.4556L53.8796 79.9396C54.2643 80.5795 54.4791 81.3071 54.5036 82.0534Z" fill="#37474F"/>
<path d="M27.1127 97.6431C30.0143 94.6817 31.7199 82.6359 28.8885 80.2881H14.4923C11.6635 82.6281 13.3639 94.6765 16.2629 97.6405L16.3435 97.7211L16.4423 97.8199C16.5255 97.8979 16.6113 97.9759 16.7023 98.0513L16.7725 98.1059C16.8427 98.1631 16.9129 98.2177 16.9909 98.2723C17.1115 98.3584 17.2364 98.4383 17.3653 98.5115C19.7521 99.8895 23.6209 99.8895 26.0077 98.5115C26.1386 98.438 26.2653 98.3573 26.3873 98.2697C26.4575 98.2203 26.5225 98.1683 26.5901 98.1163L26.6759 98.0487C26.7669 97.9759 26.8501 97.9005 26.9359 97.8251L27.0529 97.7107L27.1127 97.6431Z" fill="#6C4EFF"/>
<g opacity="0.5">
<path d="M27.1127 97.6431C30.0143 94.6817 31.7199 82.6359 28.8885 80.2881H14.4923C11.6635 82.6281 13.3639 94.6765 16.2629 97.6405L16.3435 97.7211L16.4423 97.8199C16.5255 97.8979 16.6113 97.9759 16.7023 98.0513L16.7725 98.1059C16.8427 98.1631 16.9129 98.2177 16.9909 98.2723C17.1115 98.3584 17.2364 98.4383 17.3653 98.5115C19.7521 99.8895 23.6209 99.8895 26.0077 98.5115C26.1386 98.438 26.2653 98.3573 26.3873 98.2697C26.4575 98.2203 26.5225 98.1683 26.5901 98.1163L26.6759 98.0487C26.7669 97.9759 26.8501 97.9005 26.9359 97.8251L27.0529 97.7107L27.1127 97.6431Z" fill="white"/>
</g>
<path d="M15.7402 79.3415C12.4564 81.2369 12.4564 84.3127 15.7402 86.2107C19.024 88.1087 24.3514 88.1061 27.6352 86.2107C30.919 84.3153 30.9216 81.2369 27.6352 79.3415C24.3488 77.4461 19.0266 77.4435 15.7402 79.3415Z" fill="#6C4EFF"/>
<g opacity="0.7">
<path d="M15.7402 79.3415C12.4564 81.2369 12.4564 84.3127 15.7402 86.2107C19.024 88.1087 24.3514 88.1061 27.6352 86.2107C30.919 84.3153 30.9216 81.2369 27.6352 79.3415C24.3488 77.4461 19.0266 77.4435 15.7402 79.3415Z" fill="white"/>
</g>
<path d="M17.3211 80.2542C14.9083 81.6452 14.9083 83.8942 17.3211 85.2982C19.7339 86.7022 23.6469 86.6892 26.0571 85.2982C28.4673 83.9072 28.4699 81.6452 26.0571 80.2542C23.6443 78.8632 19.7339 78.8606 17.3211 80.2542Z" fill="#6C4EFF"/>
<path d="M26.0571 82.6463C23.6443 81.2553 19.7339 81.2553 17.3211 82.6463C16.737 82.962 16.2404 83.4176 15.8755 83.9723C16.2404 84.527 16.737 84.9825 17.3211 85.2983C19.7339 86.6893 23.6443 86.6893 26.0571 85.2983C26.6416 84.9833 27.1385 84.5275 27.5027 83.9723C27.1385 83.417 26.6416 82.9613 26.0571 82.6463Z" fill="#455A64"/>
<path d="M21.8789 83.6732C20.1985 83.9245 18.4815 83.73 16.8999 83.109C14.1491 82.069 13.7201 80.2334 13.7201 80.2334C13.7201 80.2334 16.0601 78.4316 17.8801 78.5824C17.8801 78.5824 15.1683 77.6958 12.4773 77.8882C12.4773 77.8882 10.9173 77.0354 11.6479 74.334C11.6479 74.334 13.3665 73.437 16.8635 74.4146C16.8635 74.4146 15.2671 72.8858 12.1835 72.0434C11.9235 72.0096 12.8075 68.4814 13.3457 66.9292C13.8839 65.377 14.4377 65.715 15.6987 66.0452C16.9597 66.3754 20.7999 68.3098 21.1301 69.3004C21.4603 70.291 20.6491 72.54 20.6491 72.54C20.6491 72.54 21.9673 71.76 22.4015 70.6186C23.2931 70.8394 24.0953 71.3285 24.6999 72.02C25.6853 73.1458 25.2667 73.7022 24.7597 74.594C24.251 75.4921 23.6182 76.314 22.8799 77.0354C22.8799 77.0354 24.1461 76.7754 25.7139 74.0948C25.7139 74.0948 26.5667 76.4608 26.5381 78.0598C26.5095 79.6588 24.5153 82.7606 21.8789 83.6732Z" fill="#6C4EFF"/>
<path opacity="0.2" d="M21.8789 83.6732C20.1985 83.9245 18.4815 83.73 16.8999 83.109C14.1491 82.069 13.7201 80.2334 13.7201 80.2334C13.7201 80.2334 16.0601 78.4316 17.8801 78.5824C17.8801 78.5824 15.1683 77.6958 12.4773 77.8882C12.4773 77.8882 10.9173 77.0354 11.6479 74.334C11.6479 74.334 13.3665 73.437 16.8635 74.4146C16.8635 74.4146 15.2671 72.8858 12.1835 72.0434C11.9235 72.0096 12.8075 68.4814 13.3457 66.9292C13.8839 65.377 14.4377 65.715 15.6987 66.0452C16.9597 66.3754 20.7999 68.3098 21.1301 69.3004C21.4603 70.291 20.6491 72.54 20.6491 72.54C20.6491 72.54 21.9673 71.76 22.4015 70.6186C23.2931 70.8394 24.0953 71.3285 24.6999 72.02C25.6853 73.1458 25.2667 73.7022 24.7597 74.594C24.251 75.4921 23.6182 76.314 22.8799 77.0354C22.8799 77.0354 24.1461 76.7754 25.7139 74.0948C25.7139 74.0948 26.5667 76.4608 26.5381 78.0598C26.5095 79.6588 24.5153 82.7606 21.8789 83.6732Z" fill="black"/>
<path d="M21.7957 83.8134C21.7691 83.7982 21.7473 83.7756 21.7331 83.7485C21.7188 83.7213 21.7126 83.6906 21.7151 83.66C22.0843 78.2728 17.3107 69.048 14.8979 66.9784C14.8695 66.949 14.853 66.91 14.8519 66.8692C14.8507 66.8283 14.8649 66.7884 14.8916 66.7575C14.9183 66.7265 14.9557 66.7066 14.9963 66.7018C15.0369 66.697 15.0779 66.7076 15.1111 66.7314C17.5629 68.8348 22.4171 78.2078 22.0401 83.6834C22.0392 83.705 22.0338 83.7261 22.0244 83.7455C22.015 83.7649 22.0018 83.7822 21.9855 83.7963C21.9692 83.8104 21.9502 83.8211 21.9296 83.8276C21.909 83.8341 21.8874 83.8364 21.8659 83.8342C21.841 83.8341 21.8166 83.8269 21.7957 83.8134Z" fill="white"/>
<path d="M21.3849 84.8225C21.913 85.318 22.5473 85.6864 23.2394 85.8996C23.9315 86.1129 24.6631 86.1653 25.3785 86.053C26.0939 85.9406 26.7742 85.6665 27.3676 85.2514C27.961 84.8363 28.4519 84.2912 28.8027 83.6577C28.9307 83.4713 28.9887 83.2457 28.9665 83.0207C28.9016 82.8028 28.764 82.6137 28.5765 82.4851C27.6957 81.746 26.6357 81.2519 25.5033 81.0525C26.1091 81.1565 26.8527 80.9615 27.4663 80.9589C28.3521 80.9464 29.2364 81.0337 30.1027 81.2189C30.1027 81.2189 31.5561 80.6833 31.2805 78.2575C31.2805 78.2575 29.9129 77.2591 26.7669 77.6517C26.7669 77.6517 28.3425 76.5363 31.1089 76.2087C31.3247 76.2087 31.0309 73.0497 30.7683 71.6405C30.5057 70.2313 29.9883 70.4497 28.8495 70.5719C27.7107 70.6941 24.1695 71.8719 23.7379 72.6779C23.3063 73.4839 23.7379 75.5379 23.7379 75.5379C23.7379 75.5379 22.6979 74.6851 22.4769 73.6529C21.682 73.7254 20.9277 74.0373 20.3137 74.5473C19.3179 75.3923 19.6065 75.9253 19.9315 76.7625C20.2507 77.6079 20.6884 78.4037 21.2315 79.1259C21.0787 78.9873 20.9123 78.8645 20.7349 78.7593C20.4593 78.5461 20.1577 78.3771 19.8951 78.1405C19.39 77.6808 18.9794 77.1271 18.6861 76.5103C18.0751 77.4736 17.6459 78.5408 17.4199 79.6589C17.2013 80.7812 17.3903 81.9447 17.9529 82.9401C18.6185 84.0243 19.9861 84.8771 21.2887 84.7211L21.3849 84.8225Z" fill="#6C4EFF"/>
<path d="M21.2784 85.1242C21.3031 85.1147 21.3248 85.0985 21.3408 85.0773C21.3569 85.0562 21.3668 85.031 21.3694 85.0046C21.749 80.3012 27.0686 72.9562 29.4294 71.4846C29.4454 71.475 29.4593 71.4623 29.4704 71.4473C29.4814 71.4322 29.4894 71.4151 29.4937 71.397C29.4981 71.3788 29.4988 71.3599 29.4958 71.3415C29.4927 71.3231 29.4861 71.3054 29.4762 71.2896C29.4558 71.2576 29.4238 71.2348 29.3869 71.2261C29.35 71.2173 29.3111 71.2234 29.2786 71.2428C26.8892 72.743 21.4786 80.2076 21.0964 84.9838C21.0935 85.0213 21.1055 85.0585 21.1299 85.0872C21.1542 85.1159 21.1889 85.1339 21.2264 85.1372C21.2444 85.1366 21.2622 85.1322 21.2784 85.1242Z" fill="white"/>
<path d="M96.2468 12.4278L96.2234 12.3992C95.5309 11.6336 94.6844 11.0231 93.7394 10.6077C92.7944 10.1923 91.7722 9.98145 90.74 9.98896C87.9476 10.0046 85.54 12.3134 84.318 14.9862C83.8101 16.13 83.2119 17.2315 82.5292 18.2804L81.0134 20.5632L86.2394 24.1798L82.2094 27.4506L84.3076 31.1998L81.0238 27.5806L83.2598 24.1538L78.78 21.0598L82.16 13.9592C80.8132 11.7752 78.6552 10.0592 76.2372 10.0852C75.2062 10.0918 74.1882 10.3162 73.25 10.7437C72.3117 11.1711 71.4744 11.792 70.7928 12.5656L70.7694 12.5942C69.5858 13.9361 68.9379 15.6669 68.9494 17.4562C68.9858 23.236 74.3652 26.3924 78.884 30.152L83.5302 33.5944L88.3506 30.087C92.82 26.2598 98.1604 23.0436 98.1214 17.2638C98.1114 15.4763 97.4441 13.755 96.2468 12.4278Z" fill="#6C4EFF"/>
<path d="M73.0366 24.8945C73.0366 24.8945 73.2342 27.7545 70.0154 28.8647C70.0154 28.8647 73.06 30.4247 75.9954 27.3879L73.0366 24.8945Z" fill="#6C4EFF"/>
</svg>
