<svg width="150" height="150" viewBox="0 0 150 150" fill="none" xmlns="http://www.w3.org/2000/svg">
<path d="M140.508 137.541C140.508 137.583 111.342 137.619 75.375 137.619C39.408 137.619 10.239 137.583 10.239 137.541C10.239 137.499 39.396 137.463 75.375 137.463C111.354 137.463 140.508 137.499 140.508 137.541Z" fill="#263238"/>
<path d="M83.9429 117.939C62.9429 115.698 45.6419 105.852 37.3229 97.1578C33.8582 93.5255 31.2513 89.1631 29.6938 84.3911C28.1363 79.619 27.6679 74.5587 28.3229 69.5818C29.6339 59.4898 35.2589 49.7638 44.0699 44.6818C52.8809 39.5998 64.8359 39.8218 72.7469 46.2238C76.3649 37.4998 85.8809 31.8688 95.3249 32.0008C104.769 32.1328 113.757 37.5718 119.076 45.3748C124.395 53.1778 126.207 63.0748 125.001 72.4468C123.795 81.8188 119.727 90.6628 114.225 98.3398C106.989 108.441 96.3389 117.063 83.9459 117.951" fill="#6C4EFF"/>
<path opacity="0.8" d="M83.9429 117.939C62.9429 115.698 45.6419 105.852 37.3229 97.1578C33.8582 93.5255 31.2513 89.1631 29.6938 84.3911C28.1363 79.619 27.6679 74.5587 28.3229 69.5818C29.6339 59.4898 35.2589 49.7638 44.0699 44.6818C52.8809 39.5998 64.8359 39.8218 72.7469 46.2238C76.3649 37.4998 85.8809 31.8688 95.3249 32.0008C104.769 32.1328 113.757 37.5718 119.076 45.3748C124.395 53.1778 126.207 63.0748 125.001 72.4468C123.795 81.8188 119.727 90.6628 114.225 98.3398C106.989 108.441 96.3389 117.063 83.9459 117.951" fill="white"/>
<path d="M126.768 130.731C126.752 130.671 126.73 130.612 126.702 130.557L126.483 130.05C126.22 129.398 126.012 128.724 125.862 128.037C125.463 126.237 125.391 123.537 126.162 120.345C126.581 118.604 127.113 116.893 127.755 115.221C128.415 113.406 129.18 111.48 129.819 109.395C130.458 107.31 130.971 105.051 130.959 102.66C130.947 100.269 130.317 97.86 129.612 95.46C128.907 93.06 128.181 90.699 128.013 88.35C127.819 86.0888 128.344 83.8241 129.513 81.879C130.605 80.013 131.955 78.429 132.978 76.779C133.936 75.2476 134.658 73.581 135.12 71.835C135.787 69.3047 135.914 66.6624 135.492 64.08C135.342 63.1365 135.1 62.2101 134.769 61.314C134.777 61.3772 134.791 61.4394 134.811 61.5C134.847 61.629 134.895 61.8 134.958 62.028C135.14 62.7087 135.287 63.3987 135.396 64.095C135.778 66.6622 135.626 69.2806 134.952 71.787C134.483 73.5112 133.76 75.1562 132.807 76.668C131.784 78.303 130.431 79.878 129.318 81.768C128.119 83.7495 127.578 86.06 127.773 88.368C127.941 90.768 128.673 93.126 129.378 95.529C130.083 97.932 130.707 100.329 130.722 102.669C130.682 104.932 130.304 107.177 129.6 109.329C128.97 111.405 128.217 113.331 127.56 115.149C126.926 116.829 126.405 118.55 126 120.3C125.244 123.519 125.343 126.258 125.772 128.052C125.934 128.742 126.158 129.416 126.444 130.065L126.684 130.56C126.706 130.619 126.735 130.677 126.768 130.731Z" fill="#263238"/>
<path d="M131.604 78.384C131.604 78.384 133.776 72.141 130.356 68.337C130.329 68.3067 130.294 68.2844 130.256 68.2726C130.217 68.2609 130.176 68.2601 130.136 68.2703C130.097 68.2806 130.062 68.3015 130.034 68.3307C130.006 68.36 129.986 68.3964 129.978 68.436C129.756 69.471 129.42 72.633 131.604 78.384Z" fill="#6C4EFF"/>
<path d="M130.674 70.4521C130.665 70.8434 130.697 71.2346 130.77 71.6191C130.872 72.4231 130.995 73.3712 131.13 74.4152L131.484 77.2081C131.506 77.5987 131.565 77.9863 131.658 78.3662C131.704 77.9765 131.704 77.5828 131.658 77.1931C131.616 76.4701 131.52 75.4772 131.376 74.3822C131.232 73.2872 131.076 72.3031 130.941 71.5921C130.894 71.2036 130.804 70.8213 130.674 70.4521Z" fill="#263238"/>
<path d="M128.817 93.183C128.817 93.183 127.818 86.649 123.015 84.888C122.977 84.8695 122.934 84.8625 122.892 84.8681C122.85 84.8736 122.811 84.8914 122.779 84.9193C122.747 84.9471 122.723 84.9837 122.712 85.0246C122.701 85.0654 122.702 85.1087 122.715 85.149C123.015 86.169 124.2 89.121 128.817 93.183Z" fill="#6C4EFF"/>
<path d="M124.284 86.6069C124.461 86.9559 124.672 87.2865 124.914 87.5939L126.543 89.8949L128.163 92.1989C128.363 92.5355 128.595 92.8519 128.856 93.1439C128.715 92.7771 128.531 92.4285 128.307 92.1059C127.932 91.4849 127.383 90.6509 126.744 89.7509C126.105 88.8509 125.505 88.0559 125.055 87.4889C124.833 87.1663 124.574 86.8703 124.284 86.6069Z" fill="#263238"/>
<path d="M129.615 109.521C129.615 109.521 130.554 102.978 126.471 99.8967C126.439 99.8718 126.401 99.8561 126.361 99.8515C126.321 99.8469 126.28 99.8535 126.243 99.8706C126.207 99.8877 126.175 99.9146 126.153 99.9483C126.131 99.9821 126.118 100.021 126.117 100.062C126.099 101.121 126.372 104.292 129.615 109.521Z" fill="#6C4EFF"/>
<path d="M127.2 101.91C127.269 102.295 127.376 102.673 127.518 103.038L128.418 105.714L129.3 108.39C129.395 108.769 129.525 109.137 129.69 109.491C129.661 109.1 129.586 108.713 129.468 108.339C129.288 107.64 129.003 106.68 128.652 105.639C128.301 104.598 127.959 103.656 127.695 102.984C127.572 102.608 127.406 102.248 127.2 101.91Z" fill="#263238"/>
<path d="M125.439 125.796C125.439 125.796 126.144 119.223 121.953 116.289C121.92 116.266 121.881 116.252 121.841 116.25C121.801 116.247 121.761 116.255 121.726 116.274C121.69 116.292 121.66 116.32 121.639 116.355C121.619 116.389 121.608 116.429 121.608 116.469C121.626 117.528 122.013 120.687 125.439 125.796Z" fill="#6C4EFF"/>
<path d="M122.742 118.278C122.821 118.66 122.941 119.034 123.099 119.391C123.381 120.153 123.714 121.047 124.083 122.034L125.058 124.677C125.166 125.053 125.309 125.417 125.487 125.766C125.445 125.376 125.356 124.992 125.223 124.623C125.019 123.927 124.701 122.979 124.323 121.947C123.945 120.915 123.558 119.991 123.27 119.328C123.132 118.96 122.955 118.608 122.742 118.278Z" fill="#263238"/>
<path d="M134.613 72.9358C134.613 72.9358 140.565 70.0618 140.844 64.9528C140.846 64.9126 140.838 64.8724 140.819 64.8368C140.8 64.8012 140.771 64.7715 140.737 64.751C140.702 64.7305 140.662 64.7201 140.622 64.7207C140.581 64.7214 140.542 64.7332 140.508 64.7548C139.617 65.3278 137.142 67.3258 134.613 72.9358Z" fill="#6C4EFF"/>
<path d="M139.572 66.6719C139.288 66.9446 139.034 67.2463 138.813 67.5719L137.1 69.7949L135.369 72.0179C135.108 72.3094 134.875 72.6248 134.673 72.9599C134.982 72.7179 135.261 72.4399 135.504 72.1319C135.987 71.5919 136.623 70.8209 137.304 69.9449C137.985 69.0689 138.561 68.2619 138.972 67.6679C139.207 67.3584 139.408 67.0245 139.572 66.6719Z" fill="#263238"/>
<path d="M127.896 86.2771C127.896 86.2771 134.013 83.7721 134.601 78.6901C134.606 78.6499 134.6 78.6091 134.583 78.5721C134.567 78.5352 134.54 78.5036 134.506 78.4809C134.473 78.4582 134.434 78.4453 134.393 78.4436C134.353 78.4418 134.312 78.4514 134.277 78.4712C133.353 78.9902 130.761 80.8321 127.896 86.2771Z" fill="#6C4EFF"/>
<path d="M133.227 80.3252C132.928 80.5792 132.656 80.8627 132.414 81.1712L130.56 83.2922C129.864 84.0842 129.234 84.7922 128.7 85.4102C128.422 85.6868 128.168 85.988 127.944 86.3102C128.268 86.0887 128.564 85.8288 128.826 85.5362C129.339 85.0262 130.026 84.2942 130.746 83.4632C131.466 82.6322 132.105 81.8582 132.546 81.2882C132.809 80.9942 133.038 80.6711 133.227 80.3252Z" fill="#263238"/>
<path d="M130.89 101.493C130.89 101.493 135.192 96.4741 133.401 91.6831C133.387 91.6452 133.363 91.6119 133.332 91.5867C133.3 91.5616 133.262 91.5457 133.222 91.5407C133.182 91.5358 133.141 91.5419 133.105 91.5586C133.068 91.5753 133.037 91.6017 133.014 91.6351C132.429 92.5171 130.959 95.3401 130.89 101.493Z" fill="#6C4EFF"/>
<path d="M132.924 93.7681C132.779 94.1305 132.671 94.5063 132.6 94.8901C132.402 95.6761 132.171 96.6001 131.916 97.6231C131.661 98.6461 131.421 99.5671 131.223 100.353C131.101 100.724 131.013 101.106 130.959 101.493C131.146 101.149 131.291 100.783 131.391 100.404C131.616 99.7141 131.889 98.7541 132.156 97.6831C132.423 96.6121 132.633 95.6371 132.756 94.9261C132.855 94.5475 132.911 94.1591 132.924 93.7681Z" fill="#263238"/>
<path d="M126.225 119.136C126.225 119.136 132.3 116.529 132.798 111.438C132.803 111.398 132.797 111.357 132.78 111.32C132.763 111.284 132.736 111.253 132.702 111.23C132.668 111.208 132.629 111.196 132.589 111.195C132.548 111.194 132.509 111.204 132.474 111.225C131.559 111.759 129 113.643 126.225 119.136Z" fill="#6C4EFF"/>
<path d="M131.454 113.1C131.16 113.359 130.893 113.646 130.656 113.958L128.838 116.1L127.011 118.245C126.74 118.524 126.493 118.825 126.273 119.145C126.593 118.919 126.885 118.654 127.14 118.356C127.647 117.837 128.316 117.096 129.027 116.256C129.738 115.416 130.356 114.63 130.794 114.054C131.049 113.762 131.27 113.442 131.454 113.1Z" fill="#263238"/>
<path d="M115.125 92.7868C115.118 92.8345 115.118 92.883 115.125 92.9308C115.125 93.0448 115.125 93.1858 115.125 93.3538C115.125 93.7498 115.125 94.2868 115.146 94.9588C115.179 96.3688 115.224 98.3338 115.278 100.689C115.629 103.089 116.763 105.789 118.317 108.405C119.457 110.34 120.66 112.101 121.692 113.739C122.631 115.174 123.469 116.672 124.2 118.224C124.681 119.273 125.063 120.365 125.34 121.485C125.433 121.881 125.502 122.193 125.541 122.406C125.556 122.515 125.582 122.623 125.619 122.727C125.622 122.616 125.613 122.505 125.592 122.397C125.568 122.181 125.514 121.866 125.436 121.464C125.19 120.33 124.83 119.224 124.359 118.164C123.644 116.598 122.815 115.087 121.878 113.643C120.852 111.993 119.655 110.229 118.521 108.306C116.976 105.693 115.845 103.047 115.476 100.68V100.695C115.386 98.3428 115.308 96.3748 115.254 94.9648C115.221 94.2958 115.197 93.7648 115.176 93.3628C115.176 93.1948 115.155 93.0628 115.146 92.9428C115.137 92.8228 115.131 92.7838 115.125 92.7868Z" fill="#263238"/>
<path d="M118.215 107.922C118.215 107.922 115.872 101.742 119.187 97.8447C119.213 97.8136 119.247 97.7902 119.285 97.7772C119.324 97.7642 119.365 97.7621 119.404 97.7711C119.444 97.7801 119.48 97.7999 119.509 97.8283C119.538 97.8566 119.558 97.8924 119.568 97.9317C119.817 98.9607 120.24 102.114 118.215 107.922Z" fill="#6C4EFF"/>
<path d="M118.929 99.9658C118.806 100.338 118.727 100.724 118.692 101.115C118.578 101.829 118.446 102.819 118.332 103.917C118.218 105.015 118.152 106.017 118.128 106.734C118.094 107.125 118.105 107.518 118.161 107.907C118.244 107.525 118.291 107.136 118.302 106.746C118.383 105.936 118.476 104.988 118.578 103.941C118.68 102.894 118.782 101.946 118.863 101.136C118.924 100.749 118.946 100.357 118.929 99.9658Z" fill="#263238"/>
<g opacity="0.3">
<path d="M118.215 107.922C118.215 107.922 115.872 101.742 119.187 97.8447C119.213 97.8136 119.247 97.7902 119.285 97.7772C119.324 97.7642 119.365 97.7621 119.404 97.7711C119.444 97.7801 119.48 97.7999 119.509 97.8283C119.538 97.8566 119.558 97.8924 119.568 97.9317C119.817 98.9607 120.24 102.114 118.215 107.922Z" fill="black"/>
</g>
<path d="M125.601 122.874C125.601 122.874 123.768 116.523 127.386 112.908C127.415 112.879 127.451 112.859 127.49 112.85C127.529 112.84 127.57 112.841 127.609 112.853C127.647 112.865 127.682 112.888 127.709 112.918C127.736 112.948 127.754 112.985 127.761 113.025C127.926 114.072 128.1 117.249 125.601 122.874Z" fill="#6C4EFF"/>
<path d="M126.957 115.002C126.804 115.363 126.694 115.741 126.627 116.127C126.456 116.829 126.246 117.804 126.042 118.89C125.838 119.976 125.691 120.963 125.61 121.68C125.541 122.067 125.521 122.461 125.55 122.853C125.661 122.479 125.74 122.095 125.784 121.707C125.928 120.909 126.099 119.97 126.285 118.935C126.471 117.9 126.651 116.961 126.798 116.163C126.89 115.782 126.943 115.393 126.957 115.002Z" fill="#263238"/>
<g opacity="0.3">
<path d="M125.601 122.874C125.601 122.874 123.768 116.523 127.386 112.908C127.415 112.879 127.451 112.859 127.49 112.85C127.529 112.84 127.57 112.841 127.609 112.853C127.647 112.865 127.682 112.888 127.709 112.918C127.736 112.948 127.754 112.985 127.761 113.025C127.926 114.072 128.1 117.249 125.601 122.874Z" fill="black"/>
</g>
<path d="M115.221 100.365C115.221 100.365 109.929 96.4049 110.637 91.3379C110.642 91.2981 110.657 91.2604 110.682 91.2288C110.706 91.1973 110.739 91.1731 110.777 91.1588C110.814 91.1446 110.855 91.1409 110.894 91.1481C110.933 91.1554 110.97 91.1733 111 91.1999C111.768 91.9409 113.817 94.3769 115.221 100.365Z" fill="#6C4EFF"/>
<g opacity="0.3">
<path d="M115.221 100.365C115.221 100.365 109.929 96.4049 110.637 91.3379C110.642 91.2981 110.657 91.2604 110.682 91.2288C110.706 91.1973 110.739 91.1731 110.777 91.1588C110.814 91.1446 110.855 91.1409 110.894 91.1481C110.933 91.1554 110.97 91.1733 111 91.1999C111.768 91.9409 113.817 94.3769 115.221 100.365Z" fill="black"/>
</g>
<path d="M111.555 93.2671C111.654 93.6471 111.794 94.0153 111.972 94.3651C112.272 95.0281 112.68 95.9341 113.172 96.9211C113.664 97.9081 114.141 98.7841 114.51 99.4081C114.692 99.7565 114.913 100.083 115.17 100.38C115.034 100.013 114.864 99.6597 114.663 99.3241L113.4 96.8101C112.926 95.8681 112.5 95.0101 112.137 94.2901C111.978 93.9305 111.783 93.5877 111.555 93.2671Z" fill="#263238"/>
<path d="M123.615 116.574C123.615 116.574 117.12 115.347 115.515 110.49C115.502 110.452 115.499 110.411 115.508 110.371C115.516 110.332 115.536 110.295 115.563 110.266C115.591 110.237 115.627 110.216 115.666 110.206C115.705 110.196 115.746 110.196 115.785 110.208C116.802 110.532 119.715 111.816 123.615 116.574Z" fill="#6C4EFF"/>
<g opacity="0.3">
<path d="M123.615 116.574C123.615 116.574 117.12 115.347 115.515 110.49C115.502 110.452 115.499 110.411 115.508 110.371C115.516 110.332 115.536 110.295 115.563 110.266C115.591 110.237 115.627 110.216 115.666 110.206C115.705 110.196 115.746 110.196 115.785 110.208C116.802 110.532 119.715 111.816 123.615 116.574Z" fill="black"/>
</g>
<path d="M117.198 111.816C117.452 112.114 117.739 112.383 118.053 112.617C118.605 113.085 119.379 113.712 120.258 114.381C121.137 115.05 121.95 115.629 122.556 116.025C122.871 116.26 123.212 116.456 123.573 116.61C123.291 116.339 122.984 116.096 122.655 115.884L120.408 114.186L118.161 112.479C117.864 112.225 117.541 112.003 117.198 111.816Z" fill="#263238"/>
<path d="M129.462 128.781L130.482 137.541H119.664L121.038 128.517L129.462 128.781Z" fill="#455A64"/>
<path d="M120.438 132.471C120.438 132.54 122.577 132.663 125.22 132.747C127.863 132.831 130.02 132.843 130.02 132.774C130.02 132.705 127.881 132.585 125.238 132.501C122.595 132.417 120.441 132.405 120.438 132.471Z" fill="#263238"/>
<path d="M120.171 133.5C120.171 133.569 122.379 133.692 125.109 133.779C127.839 133.866 130.053 133.881 130.056 133.812C130.059 133.743 127.845 133.62 125.115 133.533C122.385 133.446 120.174 133.416 120.171 133.5Z" fill="#263238"/>
<path d="M42.1799 66.489C41.9728 66.0183 41.6262 65.6224 41.1869 65.355C40.7673 65.0765 40.2712 64.936 39.7679 64.953C39.5024 64.9712 39.2434 65.0427 39.0063 65.1633C38.7692 65.284 38.5588 65.4512 38.3879 65.655C38.185 65.8996 38.0449 66.19 37.9799 66.501C37.7734 66.3016 37.5255 66.15 37.2539 66.057C37.0011 65.9731 36.734 65.9409 36.4685 65.9626C36.2031 65.9842 35.9447 66.0592 35.7089 66.183C35.2707 66.4324 34.9223 66.8134 34.7129 67.272C34.4792 67.7297 34.3922 68.2482 34.4639 68.757C34.5668 69.4045 34.8749 70.0019 35.3429 70.461C35.8604 70.9103 36.4774 71.2301 37.1429 71.394C38.2379 71.694 39.6689 72.048 39.6689 72.048C39.6689 72.048 40.4879 70.974 41.2619 70.146C41.7474 69.6566 42.1085 69.0579 42.3149 68.4C42.4762 67.7651 42.4289 67.095 42.1799 66.489Z" fill="#6C4EFF"/>
<path d="M130.74 34.5781C131.024 33.765 131.051 32.8842 130.818 32.0551C130.618 31.2381 130.168 30.5039 129.531 29.9551C128.979 29.5 128.292 29.2398 127.577 29.2149C126.862 29.1899 126.159 29.4016 125.577 29.8171C125.55 29.3362 125.418 28.8671 125.19 28.4431C124.975 28.0522 124.684 27.7086 124.333 27.4328C123.983 27.1571 123.58 26.9548 123.15 26.8381C122.328 26.6449 121.467 26.7142 120.687 27.0361C119.879 27.3331 119.181 27.8714 118.689 28.5781C118.078 29.4892 117.775 30.5722 117.825 31.6681C117.949 32.8162 118.346 33.9179 118.983 34.8811C119.988 36.4921 121.338 38.5621 121.338 38.5621C121.338 38.5621 123.57 38.1781 125.463 38.0461C126.617 37.9966 127.742 37.6715 128.745 37.0981C129.664 36.4951 130.364 35.6112 130.74 34.5781Z" fill="#6C4EFF"/>
<path d="M114.921 69.2311C114.999 68.7837 114.938 68.3231 114.747 67.9111C114.575 67.5009 114.279 67.1547 113.901 66.9211C113.575 66.7306 113.196 66.6529 112.822 66.7001C112.447 66.7473 112.099 66.9168 111.831 67.1821C111.777 66.9333 111.669 66.6995 111.513 66.4981C111.368 66.312 111.187 66.1572 110.981 66.0432C110.775 65.9293 110.547 65.8585 110.313 65.8351C109.87 65.8019 109.428 65.9067 109.047 66.1351C108.655 66.3602 108.341 66.6992 108.147 67.1071C107.904 67.6321 107.838 68.2214 107.958 68.7871C108.118 69.3747 108.418 69.915 108.831 70.3621C109.488 71.1181 110.364 72.0811 110.364 72.0811C110.364 72.0811 111.495 71.6941 112.464 71.4661C113.06 71.3417 113.618 71.0786 114.093 70.6981C114.517 70.3092 114.807 69.7955 114.921 69.2311Z" fill="#6C4EFF"/>
<path d="M42.5519 81.7352C42.4766 81.5321 42.3404 81.3571 42.1619 81.2342C41.992 81.1091 41.7879 81.039 41.5769 81.0332C41.3983 81.0347 41.2249 81.094 41.0827 81.2021C40.9405 81.3102 40.8371 81.4615 40.7879 81.6332C40.7049 81.5431 40.6023 81.4733 40.4879 81.4292C40.384 81.3875 40.2726 81.3676 40.1606 81.3707C40.0486 81.3738 39.9385 81.3998 39.8369 81.4472C39.6468 81.5403 39.4913 81.6917 39.3929 81.8792C39.2845 82.0662 39.2353 82.2817 39.2519 82.4972C39.2806 82.772 39.3962 83.0306 39.5819 83.2352C39.7903 83.4363 40.0431 83.5853 40.3199 83.6702C40.7729 83.8202 41.3669 84.0032 41.3669 84.0032C41.3669 84.0032 41.7359 83.5712 42.0809 83.2412C42.2966 83.0475 42.4623 82.8046 42.5639 82.5332C42.645 82.2727 42.6408 81.9931 42.5519 81.7352Z" fill="#6C4EFF"/>
<path d="M26.79 91.9983C26.7131 91.7968 26.5771 91.6233 26.4 91.5003C26.2256 91.3729 26.0159 91.3026 25.8 91.2993C25.6874 91.3009 25.5762 91.325 25.4731 91.3704C25.3701 91.4157 25.2772 91.4813 25.2 91.5633C25.1102 91.6615 25.0453 91.7798 25.011 91.9083C24.9282 91.8179 24.8255 91.748 24.711 91.7043C24.607 91.6626 24.4956 91.6427 24.3836 91.6458C24.2716 91.6489 24.1615 91.675 24.06 91.7223C23.8704 91.8163 23.7151 91.9674 23.616 92.1543C23.5071 92.3411 23.4589 92.557 23.478 92.7723C23.5067 93.0472 23.6223 93.3057 23.808 93.5103C24.0159 93.7119 24.2689 93.8611 24.546 93.9453C24.999 94.0953 25.59 94.2783 25.59 94.2783C25.59 94.2783 25.962 93.8463 26.307 93.5163C26.5215 93.3223 26.6862 93.0795 26.787 92.8083C26.8755 92.5457 26.8766 92.2615 26.79 91.9983Z" fill="#6C4EFF"/>
<path d="M118.008 80.349C117.932 80.1472 117.796 79.9735 117.618 79.851C117.445 79.7208 117.235 79.6493 117.018 79.647C116.84 79.6491 116.667 79.7087 116.526 79.8168C116.384 79.9248 116.281 80.0757 116.232 80.247C116.115 80.1193 115.96 80.0324 115.79 79.999C115.62 79.9655 115.444 79.9872 115.287 80.061C115.097 80.155 114.94 80.306 114.84 80.493C114.734 80.6808 114.686 80.8959 114.702 81.111C114.73 81.386 114.846 81.6447 115.032 81.849C115.24 82.0506 115.493 82.1997 115.77 82.284C116.223 82.434 116.817 82.617 116.817 82.617C116.817 82.617 117.186 82.185 117.531 81.855C117.746 81.6608 117.912 81.418 118.014 81.147C118.096 80.8869 118.094 80.6078 118.008 80.349Z" fill="#6C4EFF"/>
<path d="M58.3171 51.9631C56.1121 50.7631 52.6891 50.7631 50.2861 54.1081C47.8231 57.5311 48.7291 60.1981 49.3441 63.0001C49.6741 64.5001 50.3791 66.1051 49.7731 67.5271C49.1251 69.0541 47.2831 69.6271 46.0681 70.7521C45.3472 71.4478 44.8537 72.3454 44.6524 73.3268C44.4511 74.3083 44.5514 75.3277 44.9401 76.2511C45.8101 78.2101 47.9401 79.5001 48.4591 81.5761C48.9091 83.3461 48.0481 85.2121 46.8451 86.5861C45.6421 87.9601 44.1001 89.0011 42.8221 90.3001C41.5441 91.5991 40.4611 93.3001 40.5661 95.1001C40.7071 97.5001 42.7831 99.3001 44.7241 100.716C45.8911 101.577 47.0941 102.432 48.4621 102.912C51.6751 104.04 60.1771 105.447 63.2821 104.052C67.9231 101.952 70.7131 97.6051 73.7551 93.5251C77.4121 88.6171 79.7011 78.5251 74.0041 72.3841" fill="#263238"/>
<path d="M42.3001 98.271C42.215 98.1278 42.1389 97.9796 42.0721 97.827C41.858 97.3916 41.7433 96.9141 41.7361 96.429C41.7361 95.787 42.1351 95.058 42.7621 94.431C43.4854 93.7242 44.3298 93.1532 45.2551 92.745C46.2631 92.259 47.4271 91.881 48.6361 91.386C49.8451 90.891 51.1171 90.255 52.0741 89.148C52.5704 88.5957 52.9309 87.9352 53.1271 87.219C53.3096 86.4663 53.2668 85.6766 53.0041 84.948C52.7224 84.1908 52.3572 83.4673 51.9151 82.791C51.4493 82.0864 51.0477 81.3414 50.7151 80.565C50.3732 79.7762 50.2459 78.9109 50.3461 78.057C50.4108 77.6355 50.5709 77.2343 50.8141 76.884C51.0603 76.5456 51.3651 76.254 51.7141 76.023C52.3801 75.555 53.1031 75.228 53.6821 74.739C54.2516 74.2651 54.6256 73.5972 54.7321 72.864C54.8335 72.1642 54.7656 71.4502 54.5341 70.782C54.3129 70.1506 54.02 69.5467 53.6611 68.982C52.9741 67.872 52.2091 66.921 51.5611 66.021C50.4896 64.6159 49.6546 63.0452 49.0891 61.371C48.9317 60.9184 48.8153 60.4525 48.7411 59.979C48.7133 59.8135 48.7003 59.6459 48.7021 59.478C48.7021 59.478 48.7201 59.649 48.7801 59.973C48.869 60.4404 48.9954 60.8999 49.1581 61.347C49.7456 63.0027 50.5932 64.5542 51.6691 65.943C52.3291 66.843 53.1031 67.785 53.8021 68.901C54.1721 69.4762 54.4741 70.0923 54.7021 70.737C54.9457 71.4295 55.0178 72.1706 54.9121 72.897C54.8044 73.6726 54.4106 74.3799 53.8081 74.88C53.2081 75.393 52.4761 75.723 51.8341 76.179C51.506 76.3977 51.2203 76.6742 50.9911 76.995C50.7627 77.3222 50.6137 77.6982 50.5561 78.093C50.4637 78.9105 50.5868 79.7379 50.9131 80.493C51.2478 81.2579 51.6493 81.9918 52.1131 82.686C52.5614 83.3758 52.9317 84.1134 53.2171 84.885C53.4905 85.6467 53.5333 86.4721 53.3401 87.258C53.135 88.0006 52.759 88.6849 52.2421 89.256C51.2521 90.393 49.9381 91.029 48.7321 91.524C47.5261 92.019 46.3531 92.385 45.3481 92.859C44.4337 93.2559 43.5968 93.8114 42.8761 94.5C42.2491 95.1 41.8591 95.805 41.8471 96.426C41.8483 96.9021 41.9505 97.3724 42.1471 97.806C42.2401 98.1 42.3181 98.265 42.3001 98.271Z" fill="#455A64"/>
<path d="M48.6721 59.8259C48.6501 59.7804 48.635 59.7319 48.6271 59.6819C48.5917 59.5445 48.5637 59.4053 48.5431 59.2649C48.4697 58.7435 48.4697 58.2143 48.5431 57.6929C48.6507 56.9163 48.902 56.1665 49.2841 55.4819C49.7432 54.6319 50.4074 53.9101 51.2163 53.382C52.0252 52.8539 52.9533 52.5363 53.9161 52.4579C54.6965 52.3833 55.4839 52.4545 56.2381 52.6679C56.7453 52.8092 57.2301 53.0213 57.6781 53.2979C57.7992 53.3726 57.9154 53.4547 58.0261 53.5439C58.0677 53.5715 58.1059 53.6037 58.1401 53.6399C57.5345 53.2739 56.8828 52.9904 56.2021 52.7969C55.4623 52.6056 54.6941 52.5487 53.9341 52.6289C53.0008 52.7134 52.1024 53.0256 51.3178 53.5382C50.5332 54.0508 49.8864 54.7481 49.4341 55.5689C49.0533 56.2321 48.7962 56.9589 48.6751 57.7139C48.5784 58.4145 48.5774 59.125 48.6721 59.8259Z" fill="#455A64"/>
<path d="M74.4361 56.8773L89.3581 82.7673L78.5581 90.9123L72.0001 81.5223C72.0001 81.5223 66.4021 84.2853 62.7931 79.2843C60.2758 75.6702 58.0383 71.8692 56.1001 67.9143C53.0401 61.6143 54.8491 56.3793 60.1411 53.2533C65.3461 50.1843 71.3341 51.7053 74.4361 56.8773Z" fill="#B78876"/>
<path d="M71.8562 81.4559C71.8562 81.4559 75.2282 79.4729 77.1212 74.9639C77.1212 74.9639 78.1202 79.6859 72.7652 82.7639L71.8562 81.4559Z" fill="#A36957"/>
<path d="M69.1982 61.9443C69.0452 61.9053 68.7422 62.6793 67.9412 63.1833C67.1402 63.6873 66.2972 63.6573 66.2732 63.8103C66.2732 63.8823 66.4622 63.9963 66.8372 64.0203C67.3354 64.0429 67.8282 63.9097 68.2472 63.6393C68.6646 63.3774 68.9881 62.9898 69.1712 62.5323C69.3002 62.1873 69.2702 61.9593 69.1982 61.9443Z" fill="#263238"/>
<path d="M61.2421 66.5129C61.0891 66.4769 60.7861 67.2509 59.9851 67.7549C59.1841 68.2589 58.3411 68.2289 58.3171 68.3819C58.3171 68.4509 58.5061 68.5679 58.8811 68.5919C59.3791 68.6127 59.8714 68.4797 60.2911 68.2109C60.7094 67.9487 61.0331 67.5599 61.2151 67.1009C61.3411 66.7589 61.3141 66.5279 61.2421 66.5129Z" fill="#263238"/>
<path d="M68.4722 72.8669C68.3641 72.7884 68.2744 72.6874 68.2091 72.5709C68.1439 72.4543 68.1047 72.325 68.0942 72.1919C68.076 71.9262 68.0972 71.6593 68.1572 71.3999C68.1855 71.0591 68.308 70.7329 68.5112 70.4579C68.7252 70.2474 69.0003 70.1098 69.2972 70.0649C69.6112 69.9795 69.9443 69.9963 70.2482 70.1129C70.4693 70.2311 70.6478 70.4157 70.7587 70.6406C70.8695 70.8655 70.9071 71.1195 70.8662 71.3669C70.8168 71.6126 70.7127 71.8441 70.5615 72.044C70.4104 72.244 70.2161 72.4073 69.9932 72.5219C69.5431 72.7452 69.0429 72.8485 68.5412 72.8219" fill="#A36957"/>
<path d="M69.0542 69.4951C68.9252 69.5761 69.5132 70.4191 69.2132 71.5231C68.9132 72.6271 67.9502 73.1641 68.0132 73.2871C68.0372 73.3471 68.3282 73.3111 68.7122 73.0531C69.211 72.7153 69.5735 72.2113 69.7352 71.6311C69.8927 71.073 69.826 70.4756 69.5492 69.9661C69.3482 69.6001 69.1082 69.4501 69.0542 69.4951Z" fill="#263238"/>
<path d="M68.6342 59.8712C68.4572 59.6612 67.6112 60.0992 66.5192 60.3512C65.4272 60.6032 64.4792 60.6242 64.4192 60.8912C64.3952 61.0172 64.6232 61.1912 65.0492 61.3052C65.6086 61.4278 66.1886 61.4215 66.7452 61.2869C67.3019 61.1523 67.8206 60.8928 68.2622 60.5282C68.5892 60.2342 68.7002 59.9732 68.6342 59.8712Z" fill="#263238"/>
<path d="M58.56 63.6869C58.287 63.6689 58.023 64.3049 57.51 64.9019C56.997 65.4989 56.439 65.8919 56.508 66.1559C56.544 66.2789 56.775 66.3419 57.108 66.2609C57.5499 66.131 57.9431 65.8725 58.2375 65.5182C58.5319 65.164 58.7142 64.7301 58.761 64.2719C58.8 63.9179 58.686 63.7019 58.56 63.6869Z" fill="#263238"/>
<path d="M66.468 70.752C66.447 70.704 65.898 70.881 65.031 71.202C64.812 71.289 64.596 71.349 64.485 71.226C64.3562 71.0218 64.2934 70.783 64.305 70.542C64.236 69.942 64.167 69.312 64.092 68.649C63.771 65.967 63.423 63.804 63.315 63.816C63.207 63.828 63.381 66.018 63.702 68.7C63.786 69.36 63.867 69.99 63.945 70.59C63.941 70.9051 64.0471 71.2117 64.245 71.457C64.3135 71.5135 64.3937 71.5542 64.4798 71.576C64.566 71.5977 64.6558 71.6001 64.743 71.583C64.8736 71.5519 65.0003 71.5067 65.121 71.448C65.979 71.064 66.489 70.8 66.468 70.752Z" fill="#263238"/>
<path d="M78.5551 68.3491C78.2971 69.8491 78.5851 71.5441 78.6361 73.0771C78.6871 74.6101 79.2631 76.2301 80.5561 77.0461C81.8491 77.8621 83.7751 77.8951 84.3841 79.2841C84.6421 79.8841 84.5641 80.5591 84.7411 81.1771C84.9991 82.0771 85.7821 82.7551 86.6461 83.1181C86.8558 83.2069 87.0713 83.281 87.2911 83.3401L88.4641 85.3531C89.9131 87.8432 91.5211 90.4741 94.1371 91.6771C94.844 92.0194 95.6125 92.216 96.3969 92.2551C97.1814 92.2943 97.9656 92.1753 98.7031 91.9051C100.158 91.3261 101.319 89.9522 101.46 88.3922C101.565 87.2071 101.112 86.0401 101.094 84.8521C101.055 82.3741 102.894 80.0012 102.294 77.6012C101.55 74.6702 97.7311 73.6771 96.2311 71.0521C95.6071 69.9571 95.4331 68.6521 94.8241 67.5511C93.6811 65.4871 91.2901 64.5301 89.1391 63.5551C88.4072 63.2284 87.7003 62.8484 87.0241 62.4181C87.1317 62.3164 87.232 62.2071 87.3241 62.0911C88.2241 60.9691 88.2661 59.2921 87.5701 58.0321C87.2021 57.412 86.7028 56.8798 86.1074 56.473C85.5119 56.0662 84.8346 55.7945 84.1231 55.6771C83.2021 55.5091 82.2001 55.5451 81.4051 55.0501C80.5051 54.4981 80.0521 53.3731 79.0891 52.9681C78.3751 52.6681 77.5621 52.8511 76.7881 52.8811C75.0781 52.9501 73.2391 51.7261 71.2021 50.3101C69.7471 49.1101 68.1121 48.0631 66.2551 47.9641C64.0501 47.8471 62.0311 49.1011 60.1771 50.3071C58.4971 51.4021 56.6131 52.8751 56.7271 54.8791C58.9591 58.6561 62.3671 62.1931 68.4721 59.1301C69.8791 58.4251 71.9011 58.3831 72.9511 59.5561C74.0701 60.8041 73.4461 63.2521 74.9401 64.0111C75.2535 64.1529 75.5922 64.2305 75.9361 64.2391C76.3909 64.3406 76.816 64.546 77.1781 64.8391C77.1781 64.8391 78.6571 66.6421 78.5551 68.3491Z" fill="#263238"/>
<path d="M81.4171 63.1321C81.4171 63.1321 81.4651 63.0421 81.5041 62.8561C81.548 62.5844 81.4972 62.3058 81.3601 62.0671C81.1454 61.6889 80.7946 61.4068 80.3791 61.2781C79.8207 61.1159 79.2512 60.9946 78.6751 60.9151C78.3325 60.8528 78.0029 60.7332 77.7001 60.5611C77.3758 60.3598 77.1051 60.0829 76.9111 59.7541C76.4971 59.0851 76.3111 58.2541 76.0111 57.4771C75.6607 56.6266 75.1105 55.8731 74.4071 55.2804C73.7036 54.6877 72.8677 54.2732 71.9701 54.0721C71.5011 53.9649 71.02 53.9195 70.5391 53.9371C70.0714 53.9636 69.6083 54.0442 69.1591 54.1771C68.2591 54.4351 67.4551 54.8191 66.6451 55.1191C65.8759 55.4182 65.0676 55.6051 64.2451 55.6741C63.5317 55.7231 62.8149 55.6807 62.1121 55.5481C61.0949 55.3596 60.124 54.9755 59.2531 54.4171C59.0159 54.267 58.7894 54.1006 58.5751 53.9191C58.4991 53.8588 58.4269 53.7937 58.3591 53.7241C58.4447 53.7705 58.5251 53.8258 58.5991 53.8891C58.8217 54.0563 59.0531 54.2115 59.2921 54.3541C60.1658 54.8819 61.1303 55.242 62.1361 55.4161C62.829 55.5386 63.5346 55.5729 64.2361 55.5181C65.0386 55.442 65.8264 55.2531 66.5761 54.9571C67.3741 54.6571 68.1931 54.2671 69.0991 54.0001C69.5621 53.8634 70.0392 53.7799 70.5211 53.7511C71.0191 53.7315 71.5174 53.7779 72.0031 53.8891C72.9296 54.0967 73.7918 54.5259 74.516 55.1398C75.2402 55.7537 75.8047 56.5341 76.1611 57.4141C76.4611 58.2241 76.6321 59.0311 77.0221 59.6731C77.2015 59.9829 77.4525 60.2453 77.7541 60.4381C78.0433 60.6037 78.3573 60.7212 78.6841 60.7861C79.2642 60.874 79.8368 61.0054 80.3971 61.1791C80.8294 61.326 81.1897 61.6316 81.4051 62.0341C81.5419 62.2884 81.5823 62.5834 81.5191 62.8651C81.5046 62.9604 81.4698 63.0514 81.4171 63.1321Z" fill="#455A64"/>
<path d="M72.9001 51.456C72.8672 51.4099 72.8409 51.3594 72.8221 51.306C72.7631 51.1579 72.6929 51.0144 72.6121 50.877C72.4895 50.6555 72.3348 50.4533 72.1531 50.277C71.9065 50.0606 71.602 49.9209 71.2771 49.875C70.5481 49.767 69.6841 50.133 68.9101 50.721C68.1361 51.309 67.1671 51.87 66.1861 52.47C64.4609 53.4512 62.4887 53.9128 60.5071 53.799C59.912 53.7661 59.3213 53.6767 58.7431 53.532C58.5391 53.484 58.3831 53.43 58.2781 53.397C58.2228 53.3825 58.1694 53.3614 58.1191 53.334C58.3346 53.364 58.548 53.407 58.7581 53.463C59.3368 53.5775 59.9237 53.6457 60.5131 53.667C62.4633 53.7413 64.3956 53.2707 66.0931 52.308C67.0651 51.708 68.0071 51.153 68.7931 50.583C69.5791 50.013 70.5001 49.611 71.2831 49.746C71.6302 49.801 71.9524 49.96 72.2071 50.202C72.3916 50.3858 72.5446 50.5986 72.6601 50.832C72.735 50.9759 72.7963 51.1266 72.8431 51.282C72.8702 51.337 72.8894 51.3956 72.9001 51.456Z" fill="#455A64"/>
<path d="M104.205 100.749C100.884 102.249 99.4621 102.945 96.1411 103.341V103.383L91.7251 92.781C92.1961 92.343 92.7361 91.812 93.3421 91.161C93.8613 90.5995 94.2804 89.9532 94.5811 89.25C94.9501 88.398 95.3911 87.246 95.4391 86.55C95.4961 85.677 96.5851 85.329 97.0111 85.998C97.4371 86.667 97.3381 89.079 95.9941 91.554C94.6501 94.029 98.7481 92.343 100.254 91.752L104.205 100.749Z" fill="#FFBE9D"/>
<path d="M77.4001 86.493C78.2106 85.4516 79.2236 84.5852 80.378 83.9458C81.5324 83.3065 82.8043 82.9075 84.1171 82.773C86.4991 82.494 88.4821 82.23 90.8071 83.265C95.9911 85.575 96.8071 88.446 99.5701 93.399C101.724 97.251 103.08 104.088 102.396 110.985C101.706 117.99 100.476 126.885 100.476 126.885L107.238 137.538H72.2701V117.327L60.6541 109.827L77.4001 86.493Z" fill="#455A64"/>
<path d="M100.968 94.137L99.2312 97.404C98.9492 97.935 98.5472 98.541 97.9472 98.529C97.3982 98.529 96.9962 97.944 96.9722 97.395C96.9983 96.845 97.1601 96.3101 97.4432 95.838L99.4112 91.863L99.5222 91.494C99.5222 91.494 100.155 90.411 100.902 90.786C101.583 91.125 101.856 92.466 100.968 94.137Z" fill="#FFBE9D"/>
<path d="M102.204 96.8279C101.628 97.9159 101.05 99.0049 100.47 100.095C100.188 100.626 99.7862 101.232 99.1832 101.22C98.6342 101.22 98.2352 100.635 98.2112 100.089C98.2344 99.5379 98.3953 99.0016 98.6792 98.5289L100.65 94.5539L100.761 94.1849C100.761 94.1849 101.391 93.1019 102.141 93.4769C102.822 93.8159 103.092 95.1569 102.204 96.8279Z" fill="#FFBE9D"/>
<path d="M103.371 99.5999L101.724 102.699C101.457 103.2 101.076 103.776 100.506 103.764C99.987 103.764 99.606 103.212 99.582 102.69C99.6058 102.168 99.7595 101.661 100.029 101.214C100.649 99.9579 101.271 98.7019 101.895 97.4459L102 97.0949C102 97.0949 102.6 96.0689 103.308 96.4229C103.956 96.7409 104.211 98.0099 103.371 99.5999Z" fill="#FFBE9D"/>
<path d="M104.433 100.953L103.2 103.26C102.999 103.635 102.717 104.061 102.3 104.052C102.108 104.025 101.933 103.929 101.806 103.783C101.68 103.636 101.611 103.448 101.613 103.254C101.63 102.865 101.745 102.487 101.946 102.153L103.335 99.3453L103.413 99.0843C103.413 99.0843 103.86 98.3192 104.388 98.5832C104.916 98.8472 105.06 99.7713 104.433 100.953Z" fill="#FFBE9D"/>
<path d="M101.196 93.5102C101.134 93.6876 101.057 93.8593 100.965 94.0232L100.275 95.3972L99.2282 97.4222C99.05 97.8562 98.7499 98.2292 98.3642 98.4962C98.2488 98.5597 98.1212 98.5982 97.9899 98.6091C97.8586 98.6199 97.7265 98.6029 97.6022 98.5592C97.3523 98.4646 97.1412 98.2894 97.0022 98.0612C96.8837 97.8384 96.8134 97.5932 96.7959 97.3415C96.7783 97.0898 96.8138 96.8373 96.9002 96.6002C97.0615 96.1756 97.254 95.7634 97.4762 95.3672C97.8722 94.6172 98.2292 93.9332 98.5352 93.3482C98.8412 92.7632 99.0752 92.3462 99.2612 91.9952C99.3464 91.8255 99.4468 91.6638 99.5612 91.5122C99.5017 91.6905 99.4264 91.8632 99.3362 92.0282L98.6612 93.4112C98.3612 94.0112 98.0192 94.6892 97.6382 95.4482C97.4247 95.834 97.2402 96.2351 97.0862 96.6482C97.0042 96.8612 96.9679 97.0891 96.9798 97.3171C96.9917 97.545 97.0515 97.7679 97.1552 97.9712C97.2588 98.1652 97.4333 98.3119 97.6422 98.3806C97.8512 98.4493 98.0786 98.4348 98.2772 98.3402C98.629 98.0892 98.9042 97.7454 99.0722 97.3472L100.155 95.3402C100.455 94.7942 100.707 94.3442 100.899 93.9962C100.984 93.826 101.083 93.6634 101.196 93.5102Z" fill="#EB996E"/>
<path d="M102.408 96.3929C102.348 96.5706 102.272 96.7424 102.18 96.9059C102 97.2599 101.766 97.7219 101.487 98.2799L100.44 100.305C100.262 100.739 99.9619 101.112 99.5762 101.379C99.4608 101.442 99.3332 101.481 99.2019 101.492C99.0706 101.503 98.9385 101.486 98.8142 101.442C98.5643 101.347 98.3532 101.172 98.2142 100.944C98.0965 100.718 98.0281 100.469 98.0137 100.215C97.9992 99.9605 98.0389 99.7058 98.1302 99.4679C98.2893 99.0428 98.4808 98.6306 98.7032 98.2349C99.0992 97.4849 99.4562 96.8009 99.7622 96.2159C100.068 95.6309 100.302 95.2139 100.491 94.8629C100.576 94.6928 100.676 94.5311 100.791 94.3799C100.732 94.5582 100.656 94.7309 100.566 94.8959L99.8912 96.2789L98.8712 98.3159C98.6567 98.7016 98.4712 99.1027 98.3162 99.5159C98.2344 99.7289 98.1982 99.9568 98.2101 100.185C98.222 100.413 98.2816 100.635 98.3852 100.839C98.4888 101.033 98.6633 101.18 98.8722 101.248C99.0812 101.317 99.3086 101.303 99.5072 101.208C99.859 100.957 100.134 100.613 100.302 100.215C100.707 99.4679 101.07 98.7899 101.385 98.2079L102.129 96.8639C102.21 96.7002 102.304 96.5428 102.408 96.3929Z" fill="#EB996E"/>
<path d="M103.8 98.5293C103.736 98.7084 103.66 98.8828 103.572 99.0513L102.945 100.47C102.681 101.07 102.375 101.79 101.982 102.57C101.802 103.006 101.518 103.39 101.154 103.689C101.044 103.764 100.92 103.814 100.789 103.838C100.658 103.862 100.524 103.858 100.395 103.827C100.133 103.755 99.9036 103.594 99.747 103.371C99.6139 103.15 99.5317 102.902 99.5063 102.645C99.4808 102.389 99.5129 102.129 99.6 101.886C99.7542 101.453 99.946 101.035 100.173 100.635C100.572 99.8763 100.932 99.1863 101.241 98.5953C101.55 98.0043 101.787 97.5813 101.976 97.2273C102.061 97.0553 102.161 96.8916 102.276 96.7383C102.215 96.9183 102.138 97.0929 102.048 97.2603L101.367 98.6553L100.332 100.716C100.114 101.106 99.9299 101.515 99.783 101.937C99.705 102.154 99.6756 102.385 99.6969 102.614C99.7181 102.843 99.7895 103.065 99.906 103.263C100.037 103.448 100.228 103.583 100.446 103.644C100.551 103.671 100.659 103.674 100.766 103.655C100.872 103.636 100.972 103.595 101.061 103.533C101.401 103.255 101.666 102.896 101.832 102.489C102.231 101.724 102.549 101.013 102.828 100.419C103.107 99.8253 103.341 99.3483 103.515 99.0243C103.592 98.8497 103.688 98.6837 103.8 98.5293Z" fill="#EB996E"/>
<path d="M83.4001 50.5709L82.2511 50.6819L75.8581 63.3929L73.5751 67.9259C73.02 68.8176 72.3875 69.6589 71.6851 70.4399C69.0271 73.3499 61.3171 77.4839 61.3171 77.4839L76.1491 85.6259L84.0421 80.1749L84.0631 80.1929C84.0631 80.1929 89.7991 82.6529 93.1381 77.4659C96.4771 72.2789 103.098 59.6999 103.098 59.6999C100.925 56.5619 97.9538 54.0612 94.4908 52.4562C91.0278 50.8513 87.199 50.2004 83.4001 50.5709Z" fill="#FFBE9D"/>
<path d="M84.1291 80.1211C82.5834 79.4845 81.2169 78.4794 80.1487 77.1936C79.0804 75.9078 78.3428 74.3803 78.0001 72.7441C78.0001 72.7441 77.1451 78.3421 82.6561 81.1441L84.1291 80.1211Z" fill="#EB996E"/>
<path d="M79.5 56.4992C79.437 56.4062 76.575 53.1992 74.451 56.8322C72.327 60.4652 76.701 61.9712 76.77 61.8722C76.839 61.7732 79.5 56.4992 79.5 56.4992Z" fill="#FFBE9D"/>
<path d="M76.2 59.7269C76.2 59.7059 76.11 59.7269 75.975 59.7269C75.7862 59.7045 75.6137 59.6085 75.495 59.4599C75.195 59.0939 75.2251 58.2959 75.5881 57.6269C75.7617 57.3098 76.0035 57.0352 76.2961 56.8229C76.3964 56.7285 76.5182 56.66 76.651 56.6234C76.7838 56.5868 76.9235 56.5832 77.058 56.6129C77.1422 56.6363 77.2155 56.6884 77.2654 56.7602C77.3152 56.8319 77.3384 56.9188 77.331 57.0059C77.331 57.1349 77.2561 57.1949 77.2711 57.2129C77.2861 57.2309 77.385 57.1979 77.445 57.0299C77.4777 56.9325 77.4777 56.8272 77.445 56.7299C77.4177 56.6623 77.3771 56.6009 77.3256 56.5494C77.274 56.4978 77.2126 56.4572 77.145 56.4299C76.9781 56.3725 76.7994 56.3587 76.6256 56.3896C76.4519 56.4206 76.2889 56.4954 76.152 56.6069C75.8116 56.8359 75.5324 57.1449 75.3391 57.5069C74.9371 58.2569 74.9101 59.1629 75.3391 59.6219C75.4205 59.7075 75.5204 59.7736 75.631 59.8152C75.7417 59.8567 75.8603 59.8727 75.978 59.8619C76.137 59.8109 76.2 59.7419 76.2 59.7269Z" fill="#EB996E"/>
<path d="M94.2841 64.5933C94.4341 64.5423 94.8001 65.2863 95.6431 65.7183C96.4861 66.1503 97.3231 66.0483 97.3591 66.1983C97.3831 66.2673 97.1881 66.3993 96.8161 66.4563C96.322 66.5216 95.8197 66.4315 95.3791 66.1983C94.939 65.9755 94.5824 65.6168 94.3621 65.1753C94.2001 64.8453 94.2001 64.6143 94.2841 64.5933Z" fill="#263238"/>
<path d="M86.4001 59.9699C86.5531 59.9279 86.8741 60.6929 87.6901 61.1699C88.5061 61.6469 89.3431 61.6019 89.3731 61.7699C89.3881 61.8389 89.1901 61.9619 88.8151 61.9949C88.3169 62.0286 87.8204 61.9081 87.3931 61.6499C86.97 61.398 86.6372 61.019 86.4421 60.5669C86.2921 60.2159 86.3131 59.9999 86.4001 59.9699Z" fill="#263238"/>
<path d="M88.6981 69.432C88.7221 69.384 89.2771 69.609 90.1501 70.014C90.3691 70.119 90.5881 70.2 90.7111 70.083C90.8602 69.8819 90.945 69.6403 90.9541 69.39C91.0741 68.772 91.1981 68.124 91.3261 67.446C91.8781 64.695 92.4121 62.484 92.5261 62.508C92.6401 62.532 92.2801 64.782 91.7311 67.533L91.3261 69.468C91.3007 69.7956 91.1604 70.1037 90.9301 70.338C90.8551 70.3929 90.7683 70.4296 90.6767 70.4452C90.5851 70.4608 90.491 70.4549 90.4021 70.428C90.2694 70.3871 90.1424 70.3297 90.0241 70.257C89.1811 69.792 88.6741 69.48 88.6981 69.432Z" fill="#263238"/>
<path d="M85.9862 68.5052C86.1212 68.5802 85.5782 69.4532 85.9352 70.5392C86.2922 71.6252 87.2822 72.1112 87.2132 72.2372C87.1922 72.3002 86.9132 72.2762 86.5022 72.0422C85.9863 71.73 85.5974 71.2454 85.4042 70.6742C85.2165 70.125 85.2509 69.5243 85.5002 69.0002C85.6982 68.6192 85.9292 68.4632 85.9862 68.5052Z" fill="#263238"/>
<path d="M91.6951 58.6292C91.4791 58.8002 90.7411 58.1942 89.7271 57.7292C88.7131 57.2642 87.7891 57.0302 87.7891 56.7572C87.7891 56.6282 88.0531 56.5052 88.4911 56.4872C89.0651 56.4784 89.6329 56.607 90.1471 56.8622C90.666 57.105 91.1188 57.4693 91.4671 57.9242C91.7251 58.2662 91.8001 58.5482 91.6951 58.6292Z" fill="#263238"/>
<path d="M98.664 63.936C98.409 64.029 97.974 63.492 97.314 63.066C96.654 62.64 96.009 62.421 96 62.148C96 62.019 96.204 61.893 96.558 61.875C97.0185 61.875 97.4685 62.0119 97.851 62.2683C98.2335 62.5247 98.5311 62.889 98.706 63.315C98.823 63.648 98.784 63.9 98.664 63.936Z" fill="#263238"/>
<path d="M107.7 58.0051C107.94 57.7042 108.099 57.3474 108.164 56.9681C108.228 56.5888 108.196 56.1994 108.069 55.8361C107.927 55.4785 107.662 55.1834 107.321 55.004C106.981 54.8247 106.587 54.773 106.212 54.8581C106.398 54.6706 106.542 54.4461 106.636 54.1991C106.729 53.9522 106.77 53.6883 106.755 53.4247C106.74 53.1611 106.67 52.9035 106.549 52.6688C106.428 52.434 106.259 52.2273 106.053 52.0621C105.234 51.4621 104.103 51.6601 103.137 51.3721C102.171 51.0841 101.451 50.3581 100.875 49.5721C100.299 48.7861 99.843 47.8951 99.237 47.1181C97.9611 45.4773 96.089 44.4066 94.0278 44.1386C91.9667 43.8706 89.8831 44.4271 88.23 45.6871C87.312 44.6131 85.65 44.3791 84.33 44.9071C83.01 45.4351 82.041 46.5931 81.438 47.8681C81.0481 48.7403 80.7553 49.6528 80.565 50.5891C80.523 50.6551 80.475 50.7181 80.436 50.7871C78.69 53.6941 76.899 57.2731 78.114 58.0591C80.229 59.4331 82.242 55.0861 82.242 55.0861C85.5 55.7161 86.985 51.1861 88.014 50.9881C89.043 50.7901 91.284 50.2771 95.016 56.5231C96.468 58.9501 99.324 60.6901 101.091 61.3231L101.244 61.3801H101.28H101.337C101.913 61.5719 102.515 61.6731 103.122 61.6801C103.821 61.7055 104.51 61.508 105.09 61.1161C105.375 60.915 105.595 60.6356 105.724 60.3118C105.852 59.988 105.885 59.6338 105.816 59.2921C106.557 59.0582 107.213 58.6104 107.7 58.0051Z" fill="#263238"/>
<path d="M103.416 56.6399C103.318 56.5843 103.232 56.5086 103.164 56.4179C102.969 56.1532 102.876 55.8276 102.9 55.4999C102.91 55.2623 102.975 55.0302 103.089 54.8219C103.227 54.5699 103.444 54.3705 103.707 54.2549C104.03 54.1254 104.383 54.0934 104.724 54.1627C105.065 54.232 105.378 54.3996 105.624 54.6449C105.909 54.9604 106.088 55.3565 106.137 55.7784C106.187 56.2003 106.104 56.6271 105.9 56.9999C105.662 57.4186 105.315 57.765 104.895 58.0021C104.476 58.2393 104 58.3584 103.518 58.3469C102.456 58.3156 101.45 57.8672 100.716 57.0989C99.9268 56.3045 99.3135 55.3529 98.9162 54.3059C98.4842 53.2499 98.1692 52.1879 97.8092 51.1859C97.4923 50.2161 97.0473 49.2929 96.4862 48.4409L96.2762 48.1409C96.2042 48.0449 96.1202 47.9609 96.0422 47.8709L95.8112 47.6069C95.7272 47.5259 95.6462 47.4449 95.5592 47.3699C95.2279 47.0724 94.8623 46.8156 94.4702 46.6049C93.6048 46.1335 92.6319 45.8946 91.6465 45.9114C90.6612 45.9282 89.6971 46.2002 88.8482 46.7009C88.5736 46.8603 88.3118 47.0409 88.0652 47.2409C87.9833 47.316 87.896 47.3852 87.8042 47.4479C88.0978 47.131 88.4364 46.8591 88.8092 46.6409C89.8237 46.013 91.0087 45.7173 92.1992 45.7949C93.4845 45.8837 94.7045 46.394 95.6702 47.2469C95.7602 47.3219 95.8442 47.4059 95.9312 47.4899L96.1712 47.7599C96.2492 47.8499 96.3362 47.9369 96.4112 48.0359C96.4862 48.1349 96.5522 48.2339 96.6272 48.3359C97.2017 49.198 97.6577 50.1333 97.9832 51.1169C98.3462 52.1249 98.6612 53.1839 99.0902 54.2279C99.4734 55.2509 100.067 56.182 100.833 56.9609C101.535 57.6938 102.495 58.1242 103.509 58.1609C103.961 58.174 104.408 58.065 104.803 57.8454C105.198 57.6257 105.526 57.3036 105.753 56.9129C105.944 56.5702 106.025 56.1771 105.985 55.7869C105.944 55.3967 105.785 55.0284 105.528 54.7319C105.301 54.5017 105.011 54.3426 104.695 54.2739C104.378 54.2052 104.049 54.2298 103.746 54.3449C103.523 54.447 103.333 54.6086 103.196 54.8118C103.059 55.015 102.98 55.252 102.969 55.4969C102.938 55.8142 103.019 56.1324 103.197 56.3969C103.265 56.4823 103.338 56.5634 103.416 56.6399Z" fill="#FAFAFA"/>
<path d="M72.2702 116.436L81.7562 87.5999L79.5002 83.3099L65.7962 74.4209C65.2952 74.7539 49.2962 80.9609 44.4962 95.5649C41.0552 106.044 39.0092 127.614 39.0092 127.614L37.2092 137.541H72.2702V116.436Z" fill="#6C4EFF"/>
<g opacity="0.2">
<path d="M44.9402 127.014C47.4632 128.781 50.0162 130.566 52.8992 131.646C55.7822 132.726 59.0732 133.044 61.8992 131.85C63.1712 131.313 64.4312 130.467 65.7992 130.65C67.4342 130.863 68.4992 132.426 69.8882 133.314C70.6292 133.788 71.4782 134.4 72.1502 133.83L72.2012 131.37C72.1652 128.256 72.2552 121.47 72.2552 121.47C72.2312 121.131 72.2552 121.392 72.1382 121.311C71.5382 120.885 70.7342 121.224 70.1762 121.71C67.5812 123.972 65.4002 126.81 62.3012 128.31C59.6222 129.609 56.5022 129.75 53.5712 129.258C50.6402 128.766 47.8412 127.68 45.0692 126.6" fill="black"/>
</g>
<path d="M69.3002 85.6381C69.3002 85.6381 61.0712 91.6381 66.0542 103.668C71.0372 115.698 75.5612 121.926 75.5612 121.926L91.5002 108.915L88.6262 103.551C87.3559 101.199 86.44 98.6713 85.9082 96.0511C85.2272 92.6371 83.5622 87.3661 79.5752 84.3511C77.1452 82.5301 73.5932 83.0191 69.3002 85.6381Z" fill="#6C4EFF"/>
<path d="M56.5021 79.845C56.9695 79.843 57.4358 79.8882 57.8941 79.98C58.4384 80.0769 58.9614 80.2688 59.4391 80.547C59.7372 80.7274 60.0029 80.9566 60.2251 81.225C60.4706 81.5296 60.6586 81.8762 60.7801 82.248C61.0654 83.0961 61.1121 84.0062 60.9151 84.879C60.6964 85.8887 60.1577 86.8009 59.3791 87.48C58.5691 88.197 57.5461 88.68 56.5711 89.298C56.0718 89.5947 55.6121 89.9536 55.2031 90.366C54.7911 90.7941 54.4877 91.3146 54.3181 91.884C53.9761 93.045 54.0961 94.263 54.0181 95.421C53.9936 95.9968 53.8928 96.5668 53.7181 97.116C53.5444 97.6408 53.298 98.1386 52.9861 98.595C52.4086 99.4429 51.6319 100.136 50.7241 100.614C49.9317 101.023 49.0537 101.237 48.1621 101.241C47.429 101.244 46.7014 101.115 46.0141 100.86C45.4965 100.672 45.0078 100.413 44.5621 100.089C44.2807 99.8855 44.0195 99.6555 43.7821 99.402L43.6051 99.198C43.5661 99.15 43.5481 99.126 43.5511 99.123C43.874 99.4544 44.2265 99.7556 44.6041 100.023C45.0504 100.332 45.5369 100.578 46.0501 100.755C46.7241 100.994 47.4352 101.111 48.1501 101.1C49.0192 101.09 49.8734 100.874 50.6431 100.47C51.5236 99.9998 52.2755 99.321 52.8331 98.493C53.451 97.5781 53.7964 96.5066 53.8291 95.403C53.9071 94.263 53.7811 93.036 54.1291 91.824C54.3063 91.2267 54.6254 90.6812 55.0591 90.234C55.4791 89.8092 55.9519 89.4401 56.4661 89.136C57.4531 88.536 58.4671 88.038 59.2561 87.336C60.0134 86.686 60.5396 85.8082 60.7561 84.834C60.9551 83.9882 60.9177 83.104 60.6481 82.278C60.5357 81.9196 60.36 81.5843 60.1291 81.288C59.9169 81.0276 59.6636 80.8036 59.3791 80.625C58.9172 80.3405 58.4098 80.1375 57.8791 80.025C57.4411 79.929 57.0961 79.893 56.8621 79.863L56.5921 79.833C56.5629 79.8416 56.5325 79.8456 56.5021 79.845Z" fill="#FAFAFA"/>
<path d="M64.137 77.2892C64.137 77.2892 64.182 77.2592 64.278 77.2172C64.4199 77.1583 64.5664 77.1111 64.716 77.0762C65.2741 76.9517 65.8558 76.9849 66.396 77.1722C66.772 77.3036 67.1114 77.5227 67.386 77.8112C67.6964 78.1517 67.9043 78.5728 67.986 79.0262C68.09 79.5293 68.0135 80.0529 67.77 80.5052C67.4848 80.9785 67.0385 81.3332 66.513 81.5042C66.015 81.6763 65.4792 81.7079 64.9643 81.5958C64.4494 81.4836 63.9754 81.2319 63.594 80.8682C63.2882 80.5666 63.0662 80.1906 62.9499 79.7771C62.8337 79.3636 62.8272 78.927 62.931 78.5102C63.0894 77.9539 63.4586 77.4814 63.96 77.1932C64.0944 77.1174 64.2375 77.0579 64.386 77.0162C64.4376 77.0006 64.4912 76.9926 64.545 76.9922C64.3567 77.0676 64.1734 77.1548 63.996 77.2532C63.5343 77.553 63.2007 78.0139 63.06 78.5462C62.9714 78.9383 62.9854 79.3466 63.1004 79.7318C63.2155 80.1169 63.4279 80.4659 63.717 80.7452C64.0762 81.0822 64.5207 81.3146 65.0024 81.4172C65.4841 81.5198 65.9847 81.4887 66.45 81.3272C66.9317 81.1761 67.3427 80.8566 67.608 80.4272C67.8327 80.012 67.9069 79.5318 67.818 79.0682C67.7451 78.645 67.5561 78.2503 67.272 77.9282C67.016 77.6528 66.6997 77.4403 66.348 77.3072C65.8314 77.1168 65.2736 77.0661 64.731 77.1602C64.344 77.2172 64.143 77.3072 64.137 77.2892Z" fill="#FAFAFA"/>
<path d="M71.1002 114.3C71.2221 114.465 71.3677 114.612 71.5322 114.735C72.0186 115.071 72.6177 115.203 73.2002 115.101C74.1117 114.896 74.9344 114.407 75.5492 113.703C75.9464 113.281 76.2927 112.814 76.5812 112.311C76.8904 111.743 77.1272 111.138 77.2862 110.511C77.6579 109.058 77.5613 107.526 77.0102 106.131C76.6818 105.372 76.2442 104.664 75.7112 104.031C75.1832 103.353 74.5952 102.681 74.0972 101.907C73.563 101.12 73.252 100.202 73.1972 99.2521C73.1825 98.2717 73.2832 97.293 73.4972 96.3361C73.7182 95.3605 73.802 94.3589 73.7462 93.3601C73.6026 91.8134 72.9383 90.3613 71.8622 89.2411C71.5009 88.8824 71.098 88.5682 70.6622 88.3051C69.8027 87.783 68.8038 87.5369 67.8002 87.6001C67.318 87.6285 66.8413 87.7172 66.3812 87.8641C65.9322 88.0134 65.5023 88.2147 65.1002 88.4641C64.7165 88.7235 64.3676 89.031 64.0622 89.3791C63.7696 89.7247 63.5355 90.1159 63.3692 90.5371C63.0837 91.3688 62.9328 92.2408 62.9222 93.1201C62.9057 93.9642 62.7827 94.8028 62.5562 95.6161C62.2799 96.3565 61.8925 97.0504 61.4072 97.6741C60.9662 98.2741 60.5222 98.8531 60.1652 99.4381C59.8143 99.9836 59.5822 100.597 59.4842 101.238C59.4068 101.811 59.4486 102.395 59.6072 102.951C59.7587 103.431 59.9889 103.882 60.2882 104.286C60.424 104.462 60.5734 104.626 60.7352 104.778L60.9632 104.988L61.2002 105.162C61.6838 105.497 62.2278 105.736 62.8022 105.864C63.0002 105.903 63.1532 105.915 63.2552 105.936L63.4112 105.963C63.3593 105.967 63.3071 105.967 63.2552 105.963C63.1502 105.963 62.9942 105.942 62.7932 105.909C62.2075 105.796 61.6511 105.564 61.1582 105.228L60.9152 105.057L60.6782 104.847C60.1286 104.344 59.7244 103.703 59.5082 102.99C59.3386 102.42 59.2906 101.822 59.3672 101.232C59.4629 100.574 59.6971 99.9427 60.0542 99.3811C60.4082 98.7811 60.8552 98.2111 61.2902 97.6021C61.7635 96.9887 62.1408 96.3069 62.4092 95.5801C62.6272 94.7778 62.7441 93.9514 62.7572 93.1201C62.7675 92.2229 62.9194 91.333 63.2072 90.4831C63.3821 90.0475 63.6252 89.6425 63.9272 89.2831C64.2418 88.9191 64.604 88.5992 65.0042 88.3321C65.4174 88.0693 65.8605 87.8568 66.3242 87.6991C66.7995 87.5451 67.2924 87.4523 67.7912 87.4231C68.2997 87.3944 68.8098 87.4379 69.3062 87.5521C69.8074 87.6803 70.2888 87.8761 70.7372 88.1341C71.1864 88.4052 71.6006 88.7307 71.9702 89.1031C72.3392 89.4838 72.6633 89.9055 72.9362 90.3601C73.4771 91.2663 73.8082 92.2822 73.9052 93.3331C73.9629 94.3489 73.8781 95.3678 73.6532 96.3601C73.4425 97.3023 73.3418 98.2657 73.3532 99.2311C73.4094 100.152 73.7119 101.041 74.2292 101.805C75.2042 103.305 76.5512 104.505 77.1422 106.074C77.6992 107.498 77.7905 109.062 77.4032 110.541C77.2377 111.181 76.9928 111.798 76.6742 112.377C76.3781 112.888 76.0216 113.361 75.6122 113.787C74.9809 114.496 74.1402 114.984 73.2122 115.182C72.9158 115.23 72.6128 115.219 72.3208 115.149C72.0288 115.079 71.7536 114.951 71.5112 114.774C71.3878 114.679 71.2778 114.568 71.1842 114.444C71.1531 114.398 71.125 114.35 71.1002 114.3Z" fill="#FAFAFA"/>
<path d="M84.0751 91.9259C84.0537 91.98 84.0244 92.0305 83.988 92.0759C83.9022 92.2162 83.8016 92.3469 83.688 92.4659C83.2584 92.9136 82.723 93.2458 82.131 93.4319C81.2487 93.7176 80.2947 93.689 79.431 93.3509C78.3731 92.9345 77.4899 92.1679 76.929 91.1789C76.3793 90.1932 76.1096 89.0759 76.1491 87.9479C76.1791 86.9219 76.3951 85.9769 76.8511 85.3229C77.0225 85.0615 77.2461 84.8383 77.5078 84.6675C77.7695 84.4966 78.0638 84.3817 78.372 84.3299C78.5379 84.3028 78.7072 84.3028 78.8731 84.3299C78.9316 84.3368 78.9885 84.3541 79.0411 84.3809C78.8221 84.351 78.6 84.351 78.381 84.3809C78.0898 84.4441 77.814 84.5648 77.5698 84.7358C77.3257 84.9068 77.118 85.1247 76.9591 85.3769C76.5179 86.1539 76.298 87.0368 76.3231 87.9299C76.2932 89.0249 76.5584 90.1077 77.0911 91.0649C77.6321 92.0149 78.4776 92.7548 79.4911 93.1649C80.3195 93.4988 81.237 93.54 82.0921 93.2819C82.6713 93.1091 83.201 92.8006 83.6371 92.3819C83.9311 92.1179 84.0601 91.9139 84.0751 91.9259Z" fill="#FAFAFA"/>
<path d="M87.2582 100.854C87.0965 100.66 86.9064 100.491 86.6942 100.353C86.3955 100.187 86.0639 100.088 85.7229 100.064C85.3818 100.04 85.0396 100.09 84.7202 100.212C83.9072 100.512 83.1752 101.361 82.8092 102.45C82.4432 103.539 82.4102 104.85 82.2512 106.182C82.0922 107.514 81.8762 108.789 81.7772 109.95C81.6706 110.975 81.6817 112.009 81.8102 113.031C81.9007 113.719 82.076 114.393 82.3322 115.038C82.5182 115.494 82.6532 115.731 82.6322 115.74C82.5892 115.69 82.552 115.634 82.5212 115.575C82.4239 115.411 82.3357 115.242 82.2572 115.068C81.972 114.425 81.7752 113.746 81.6722 113.049C81.5244 112.018 81.5002 110.973 81.6002 109.935C81.6902 108.765 81.9002 107.496 82.0592 106.158C82.2182 104.82 82.2362 103.521 82.6382 102.393C83.0402 101.265 83.8022 100.392 84.6692 100.086C85.0056 99.9633 85.3655 99.918 85.722 99.9538C86.0784 99.9897 86.422 100.106 86.7272 100.293C86.8891 100.399 87.0321 100.53 87.1502 100.683C87.1951 100.734 87.2316 100.792 87.2582 100.854Z" fill="#FAFAFA"/>
<path d="M38.4001 132.051C38.4001 132.051 38.4631 132.219 38.6161 132.522C38.8373 132.965 39.1168 133.377 39.4471 133.746C39.6874 134.009 39.956 134.244 40.2481 134.448C40.5936 134.689 40.9936 134.841 41.4121 134.889C41.8959 134.908 42.3752 134.791 42.7951 134.55C43.2882 134.31 43.7679 134.044 44.2321 133.752C45.2131 133.152 46.3081 132.432 47.6701 132.147C49.0321 131.862 50.4901 131.814 51.8881 131.211C53.3327 130.533 54.5144 129.398 55.2511 127.983C56.0326 126.459 56.4902 124.79 56.5951 123.081C56.7867 121.379 56.6554 119.655 56.2081 118.002C55.9801 117.225 55.6243 116.492 55.1551 115.833C54.7017 115.205 54.1185 114.682 53.4451 114.3C52.7881 113.916 52.0951 113.628 51.4651 113.25C50.8469 112.889 50.3081 112.406 49.8811 111.831C49.0531 110.724 48.6061 109.515 48.1141 108.474C47.7183 107.515 47.1556 106.633 46.4521 105.87C45.9042 105.31 45.2063 104.92 44.4421 104.748C43.9598 104.638 43.4575 104.65 42.9811 104.784C42.6571 104.889 42.5071 104.988 42.5011 104.976C42.6458 104.878 42.8033 104.802 42.9691 104.748C43.4545 104.595 43.9713 104.57 44.4691 104.676C45.2535 104.839 45.9731 105.228 46.5391 105.795C47.2592 106.561 47.8373 107.449 48.2461 108.417C48.7471 109.461 49.2001 110.661 50.0191 111.738C50.4359 112.295 50.9615 112.761 51.5641 113.109C52.1791 113.478 52.8721 113.763 53.5441 114.15C54.2389 114.544 54.8414 115.082 55.3111 115.728C55.794 116.402 56.1611 117.153 56.3971 117.948C56.8537 119.624 56.9891 121.372 56.7962 123.099C56.6841 124.833 56.2175 126.526 55.4251 128.073C54.6655 129.522 53.4514 130.681 51.9691 131.373C51.2703 131.657 50.5386 131.851 49.7911 131.952C49.0741 132.069 48.3751 132.156 47.7151 132.303C46.3831 132.573 45.3151 133.275 44.3131 133.866C43.8432 134.157 43.3574 134.423 42.8581 134.661C42.6268 134.772 42.387 134.864 42.1411 134.937C42.0781 134.952 42.0181 134.973 41.9581 134.982L41.7751 135.003C41.6554 135.013 41.5349 135.013 41.4151 135.003C40.9815 134.949 40.5687 134.786 40.2151 134.529C39.9185 134.32 39.6476 134.076 39.4081 133.803C39.0791 133.425 38.8063 133.002 38.5981 132.546C38.5157 132.388 38.4493 132.222 38.4001 132.051Z" fill="#FAFAFA"/>
<path d="M91.5002 108.915L91.4282 108.981L91.2092 109.17L90.3482 109.89L87.0842 112.59L75.6242 121.995L75.5522 122.055L75.5012 121.98C74.9012 121.119 74.3522 120.18 73.8032 119.238C73.2542 118.296 72.7082 117.303 72.1562 116.298C71.0612 114.282 69.9752 112.167 68.9042 109.977C67.8632 107.85 66.8882 105.753 65.9972 103.707C65.5562 102.681 65.1272 101.67 64.7552 100.662C64.5662 100.158 64.3922 99.6543 64.2452 99.1623C64.1822 98.9043 64.1192 98.6493 64.0592 98.3973C63.9992 98.1453 63.9662 97.8843 63.9212 97.6293C63.6234 95.6908 63.791 93.7092 64.4102 91.8483C64.9524 90.2319 65.8066 88.7377 66.9242 87.4503C67.8489 86.3925 68.9553 85.5086 70.1912 84.8403C71.1195 84.3289 72.1198 83.9607 73.1582 83.7483C73.8119 83.6165 74.4773 83.5512 75.1442 83.5533L75.6662 83.5833C75.7832 83.5833 75.8402 83.5983 75.8402 83.5983H75.6632H75.1442C74.4814 83.612 73.8215 83.6884 73.1732 83.8263C72.1472 84.0513 71.1598 84.4252 70.2422 84.9363C69.0238 85.6085 67.9339 86.4912 67.0232 87.5433C65.9258 88.8218 65.0891 90.3026 64.5602 91.9023C63.9557 93.7385 63.7953 95.692 64.0922 97.6023C64.1372 97.8513 64.1822 98.1033 64.2302 98.3583C64.2782 98.6133 64.3532 98.8593 64.4162 99.1113C64.5602 99.6123 64.7342 100.11 64.9202 100.611C65.2952 101.616 65.7242 102.624 66.1652 103.644C67.0652 105.687 68.0312 107.781 69.0722 109.905C70.1432 112.092 71.2262 114.21 72.3182 116.223C72.8682 117.223 73.4152 118.202 73.9592 119.16C74.5052 120.111 75.0452 121.038 75.6392 121.893L75.5162 121.875C80.2112 118.056 84.1982 114.813 87.0212 112.521L90.3212 109.863L91.2002 109.164L91.4282 108.987C91.4732 108.93 91.5002 108.9 91.5002 108.915Z" fill="#263238"/>
<path d="M105.129 121.71C104.334 117.858 101.757 116.94 101.757 116.94L101.157 121.668L94.2571 118.845L88.8751 111.153L77.5381 120.423C77.5381 120.423 86.5741 129.723 90.3721 130.116C94.1701 130.509 103.131 130.092 103.131 130.092C103.131 130.092 105.921 125.562 105.129 121.71Z" fill="#FFBE9D"/>
<path d="M62.4481 111L55.4401 119.358L40.4731 117.192L40.5001 117L40.9621 112.257C36.4981 112.911 35.8021 116.355 35.6011 118.755C35.3791 121.41 38.6491 123.897 39.3301 124.383V124.503C39.3301 124.503 54.4741 132.696 61.3381 130.446C64.5241 129.402 72.2821 121.257 72.2821 121.257V117.327L62.4481 111Z" fill="#B78876"/>
<path d="M60.4861 109.773L72.2701 118.74L72.9061 117.675C70.4024 113.172 68.1372 108.541 66.1201 103.8L60.4861 109.773Z" fill="#455A64"/>
<path d="M45.5372 91.005L47.2742 94.272C47.5562 94.803 47.9582 95.409 48.5582 95.397C49.1072 95.397 49.5092 94.812 49.5332 94.263C49.5071 93.7131 49.3453 93.1782 49.0622 92.706C48.4062 91.38 47.7502 90.055 47.0942 88.731L46.9832 88.362C46.9832 88.362 46.3502 87.279 45.6032 87.651C44.9222 87.993 44.6492 89.334 45.5372 91.005Z" fill="#B78876"/>
<path d="M44.3012 93.696C44.8772 94.784 45.4552 95.873 46.0352 96.963C46.3172 97.494 46.6832 98.277 47.2862 98.265C47.575 98.2281 47.8426 98.0939 48.045 97.8845C48.2473 97.6751 48.3722 97.403 48.3992 97.113C48.4232 96.567 48.0692 95.889 47.8262 95.397L45.8552 91.422L45.7442 91.053C45.7442 91.053 45.1142 89.97 44.3642 90.345C43.6832 90.684 43.4132 92.025 44.3012 93.696Z" fill="#B78876"/>
<path d="M43.1341 96.4622L44.7811 99.5582C45.0481 100.062 45.4291 100.638 45.9991 100.626C46.5181 100.626 46.8991 100.071 46.9231 99.5522C46.8993 99.0307 46.7456 98.5233 46.4761 98.0762L44.6101 94.3052L44.5051 93.9572C44.5051 93.9572 43.9051 92.9312 43.1971 93.2852C42.5491 93.6002 42.3001 94.8782 43.1341 96.4622Z" fill="#B78876"/>
<path d="M42.0722 97.8209L43.2962 100.125C43.4972 100.5 43.7792 100.929 44.1962 100.92C44.3881 100.893 44.5636 100.797 44.69 100.65C44.8164 100.503 44.8851 100.316 44.8832 100.122C44.8659 99.7329 44.7514 99.3543 44.5502 99.0209L43.1612 96.2129L43.0832 95.9519C43.0832 95.9519 42.6362 95.1869 42.1082 95.4509C41.6342 95.6999 41.4452 96.6389 42.0722 97.8209Z" fill="#B78876"/>
<path d="M45.3 90.3752C45.4129 90.5278 45.5133 90.6893 45.6 90.8582C45.792 91.2032 46.044 91.6562 46.344 92.2022C46.644 92.7482 47.025 93.4592 47.427 94.2092C47.595 94.6083 47.8715 94.9523 48.225 95.2022C48.4232 95.2967 48.6501 95.311 48.8586 95.2423C49.0671 95.1735 49.241 95.027 49.344 94.8332C49.4477 94.6293 49.5073 94.4059 49.5192 94.1775C49.5311 93.9491 49.4949 93.7207 49.4131 93.5072C49.2586 93.0942 49.0741 92.6931 48.861 92.3072L47.8381 90.2672L47.1631 88.8872C47.0725 88.7214 46.9971 88.5476 46.9381 88.3682C47.0519 88.5212 47.1523 88.6838 47.2381 88.8542L47.9641 90.2072L49.0231 92.2262C49.2452 92.6224 49.4377 93.0345 49.599 93.4592C49.6899 93.6973 49.7291 93.9521 49.7141 94.2065C49.6991 94.461 49.6302 94.7093 49.512 94.9352C49.374 95.1634 49.1624 95.338 48.912 95.4302C48.788 95.4743 48.656 95.4918 48.5246 95.4815C48.3933 95.4712 48.2657 95.4332 48.15 95.3702C47.7635 95.1028 47.4632 94.7285 47.286 94.2932L46.2391 92.2712L45.54 90.9002C45.4449 90.7325 45.3646 90.5568 45.3 90.3752Z" fill="#A36957"/>
<path d="M44.1001 93.2579C44.2116 93.4115 44.3119 93.5729 44.4001 93.7409L45.1441 95.0849L46.2271 97.0919C46.395 97.4901 46.6703 97.8339 47.0221 98.0849C47.2207 98.1796 47.4481 98.194 47.6571 98.1253C47.866 98.0566 48.0405 97.9099 48.1441 97.7159C48.2477 97.512 48.3074 97.2886 48.3193 97.0602C48.3311 96.8318 48.295 96.6035 48.2131 96.3899C48.057 95.9772 47.8715 95.5761 47.6581 95.1899C47.2771 94.4309 46.9321 93.7439 46.6381 93.1529L45.9631 91.7729C45.8725 91.6071 45.7972 91.4334 45.7381 91.2539C45.8525 91.4066 45.9529 91.5692 46.0381 91.7399C46.2271 92.0879 46.4731 92.5439 46.7671 93.0929L47.8261 95.1119C48.049 95.5073 48.2406 95.9196 48.3991 96.3449C48.485 96.5809 48.5206 96.8323 48.5036 97.0829C48.4865 97.3335 48.4172 97.5777 48.3001 97.7999C48.162 98.0282 47.9505 98.2027 47.7001 98.2949C47.576 98.3391 47.444 98.3566 47.3127 98.3462C47.1814 98.3359 47.0537 98.298 46.9381 98.2349C46.5515 97.9675 46.2513 97.5932 46.0741 97.1579L45.0271 95.1359L44.3371 93.7619C44.2424 93.6017 44.1631 93.433 44.1001 93.2579Z" fill="#A36957"/>
<path d="M42.7112 95.4C42.8293 95.5522 42.93 95.7172 43.0112 95.892C43.1852 96.216 43.4192 96.693 43.6982 97.287C43.9772 97.881 44.2982 98.592 44.6942 99.357C44.8625 99.7625 45.1271 100.121 45.4652 100.401C45.5523 100.459 45.6505 100.5 45.7537 100.519C45.8569 100.538 45.9629 100.535 46.0652 100.512C46.2834 100.45 46.474 100.316 46.6052 100.131C46.7217 99.9325 46.7931 99.7108 46.8143 99.4817C46.8356 99.2525 46.8062 99.0215 46.7282 98.805C46.5807 98.382 46.397 97.9724 46.1792 97.581C45.7922 96.816 45.4442 96.12 45.1442 95.523L44.4632 94.128C44.3746 93.9598 44.2984 93.7853 44.2352 93.606C44.3501 93.7593 44.4506 93.923 44.5352 94.095C44.7242 94.449 44.9702 94.908 45.2702 95.463C45.5702 96.018 45.9392 96.744 46.3382 97.503C46.5658 97.9022 46.7576 98.3208 46.9112 98.754C46.9984 98.9969 47.0304 99.2562 47.005 99.513C46.9795 99.7699 46.8973 100.018 46.7642 100.239C46.606 100.46 46.3776 100.621 46.1162 100.695C45.9869 100.726 45.8524 100.73 45.7217 100.705C45.5909 100.681 45.4667 100.629 45.3572 100.554C44.9927 100.257 44.7081 99.873 44.5292 99.438C44.1362 98.661 43.8302 97.938 43.5662 97.338L42.9392 95.919C42.8513 95.7514 42.7751 95.578 42.7112 95.4Z" fill="#A36957"/>
</svg>
