<svg width="150" height="150" viewBox="0 0 150 150" fill="none" xmlns="http://www.w3.org/2000/svg">
<path d="M83.445 99.4078C84.4435 100.08 85.4781 100.697 86.544 101.256C86.964 101.475 87.501 101.679 87.879 101.397C86.448 100.299 84.963 99.1318 84.114 97.5628C85.212 94.8358 87.114 91.4968 90.387 89.6608C90.387 89.6608 90.492 89.6068 90.687 89.5198C91.0836 90.1521 91.4048 90.8287 91.644 91.5358C92.028 92.6068 92.355 93.7168 92.985 94.6648C93.195 94.4038 93.117 94.0258 93.027 93.7048L91.713 89.0578C93.1052 88.4516 94.5376 87.9424 96 87.5338L97.332 90.6208C97.572 90.3838 97.521 89.9968 97.476 89.6638C97.3575 88.8461 97.3575 88.0155 97.476 87.1978C98.2655 87.037 99.0755 87.0016 99.876 87.0928C102.186 87.4348 103.56 88.4278 103.428 89.9128C102.181 89.7993 100.929 89.7682 99.678 89.8198C100.867 90.1608 102.091 90.3622 103.326 90.4198C103.137 90.9907 102.841 91.5209 102.456 91.9828C101.943 92.6308 101.511 93.1078 101.106 93.5368C99.0763 93.0497 96.9642 93.0159 94.92 93.4378C95.568 93.8518 96.405 93.7378 97.176 93.7138C98.2666 93.6917 99.3494 93.9014 100.353 94.3288C99.411 95.3278 98.445 96.4708 96.729 99.4528L95.949 100.803C95.4938 101.093 94.9726 101.263 94.434 101.298C93.6812 101.329 92.928 101.248 92.199 101.058C92.052 101.028 91.848 101.028 91.812 101.172C91.776 101.316 91.986 101.421 92.145 101.442C92.6609 101.475 93.1734 101.549 93.678 101.661C94.1871 101.778 94.6342 102.081 94.932 102.51C93.486 104.853 92.04 106.71 90.132 107.595C89.3679 107.406 88.6457 107.076 88.002 106.623C88.2379 107.153 88.6056 107.613 89.07 107.961C88.3903 108.121 87.6891 108.168 86.994 108.102C82.359 107.688 82.404 102.846 83.235 100.098C83.292 99.8998 83.367 99.6568 83.445 99.4078Z" fill="#263238"/>
<path d="M81.5999 114.495C81.5979 114.467 81.5979 114.439 81.5999 114.411C81.5999 114.345 81.6209 114.267 81.6359 114.165C81.6749 113.952 81.7049 113.631 81.8009 113.226C82.0859 112.092 82.4755 110.988 82.9649 109.926C83.6922 108.353 84.522 106.83 85.4489 105.366C86.4839 103.707 87.7109 101.94 89.0489 100.128C89.7209 99.2281 90.3899 98.3491 91.0439 97.5091C91.6979 96.6691 92.3159 95.8561 92.9399 95.1091C93.5185 94.384 94.1428 93.6966 94.8089 93.0511L96.6509 91.4851C97.7699 90.5191 98.7029 89.7691 99.3749 89.2861C99.7079 89.0431 99.9749 88.8631 100.158 88.7461L100.368 88.6141C100.416 88.5871 100.44 88.5721 100.443 88.5751C100.423 88.5957 100.401 88.6138 100.377 88.6291L100.176 88.7731C99.9989 88.8991 99.7379 89.0731 99.4109 89.3341C98.7509 89.8321 97.8299 90.5941 96.7109 91.5691L94.8839 93.1471C94.2259 93.7912 93.6097 94.4765 93.0389 95.1991C92.4209 95.9551 91.8029 96.7741 91.1519 97.6141C90.5009 98.4541 89.8349 99.3271 89.1629 100.23C87.8189 102.03 86.5919 103.8 85.5629 105.45C84.6327 106.906 83.795 108.419 83.0549 109.98C82.5608 111.033 82.1593 112.127 81.8549 113.25C81.7499 113.649 81.7079 113.967 81.6599 114.18C81.6389 114.279 81.6209 114.357 81.6089 114.42C81.6094 114.445 81.6064 114.471 81.5999 114.495Z" fill="#263238"/>
<path d="M80.979 107.1C81 107.115 80.787 107.436 80.538 108C80.2176 108.744 79.9568 109.513 79.758 110.298C79.518 111.219 79.356 112.065 79.26 112.683C79.164 113.301 79.131 113.682 79.107 113.682C79.0955 113.591 79.0955 113.5 79.107 113.409C79.107 113.232 79.125 112.98 79.161 112.668C79.2551 111.858 79.4065 111.056 79.614 110.268C79.8144 109.474 80.0928 108.701 80.445 107.961C80.5533 107.737 80.6776 107.522 80.817 107.316C80.91 107.166 80.97 107.1 80.979 107.1Z" fill="#263238"/>
<path d="M87.354 93.3537C85.4972 94.3136 83.8406 95.619 82.473 97.1997L83.592 99.0357C83.592 99.0357 82.293 98.3697 81.738 98.0997C80.8086 99.3164 80.0468 100.652 79.473 102.072C79.592 102.197 79.7193 102.314 79.854 102.423L80.898 103.299C81.048 103.422 81.198 103.629 81.093 103.782C81.0455 103.826 80.9874 103.857 80.9244 103.872C80.8613 103.888 80.7954 103.886 80.733 103.869C80.1358 103.8 79.5493 103.658 78.987 103.446C78.7222 104.316 78.5316 105.207 78.417 106.11C78.216 107.73 78.318 109.542 79.425 110.736C79.425 110.736 79.575 109.083 82.725 104.034C85.875 98.9847 93.198 93.1497 93.198 93.1497C91.56 91.8867 89.187 92.4207 87.354 93.3537Z" fill="#455A64"/>
<path d="M81.2999 106.224C80.8256 106.197 80.3536 106.139 79.8869 106.05C79.4146 106.011 78.9455 105.94 78.4829 105.837C79.4381 105.783 80.3948 105.914 81.2999 106.224Z" fill="#263238"/>
<path d="M83.8349 102.447C83.2127 102.2 82.6108 101.904 82.0349 101.562C81.4294 101.267 80.8477 100.926 80.2949 100.542C80.9165 100.79 81.5183 101.085 82.0949 101.424C82.7004 101.72 83.2822 102.062 83.8349 102.447Z" fill="#263238"/>
<path d="M83.9789 101.448C83.5248 101.297 83.0891 101.096 82.6799 100.848C82.2457 100.642 81.8344 100.391 81.4529 100.098C81.907 100.249 82.3427 100.45 82.7519 100.698C83.1856 100.905 83.5967 101.157 83.9789 101.448Z" fill="#263238"/>
<path d="M84.531 96.6001C85.2934 97.4022 85.9775 98.2751 86.574 99.2071C85.8136 98.4034 85.1296 97.5306 84.531 96.6001Z" fill="#263238"/>
<path d="M86.241 95.4688C86.286 95.4688 86.451 96.1377 86.811 96.9147C87.171 97.6917 87.579 98.2587 87.54 98.2887C86.8234 97.5073 86.3692 96.5212 86.241 95.4688Z" fill="#263238"/>
<path d="M88.0349 95.5737C88.2268 95.7741 88.3785 96.0093 88.4819 96.2667C88.6281 96.5011 88.7298 96.7604 88.7819 97.0317C88.5912 96.8305 88.4396 96.5955 88.3349 96.3387C88.1898 96.1038 88.0881 95.8447 88.0349 95.5737Z" fill="#263238"/>
<path d="M89.6428 95.0371C89.6758 95.0161 89.8108 95.1631 89.8948 95.3911C89.9788 95.6191 89.9699 95.8171 89.9279 95.8231C89.8859 95.8291 89.8228 95.6521 89.7478 95.4451C89.6728 95.2381 89.6038 95.0611 89.6428 95.0371Z" fill="#263238"/>
<path d="M72.8398 114.762C72.8208 114.682 72.8097 114.601 72.8068 114.519C72.7918 114.345 72.7738 114.114 72.7468 113.823C72.6958 113.223 72.6058 112.347 72.4468 111.276C72.0514 108.483 71.2741 105.758 70.1368 103.176C68.9846 100.599 67.3688 98.2548 65.3698 96.2612C64.7626 95.6602 64.1173 95.0991 63.4378 94.5812C63.2008 94.3922 63.0028 94.2632 62.8768 94.1642C62.8087 94.1196 62.7445 94.0694 62.6848 94.0142C62.7587 94.0494 62.829 94.0915 62.8948 94.1402C63.0268 94.2302 63.2308 94.3502 63.4738 94.5332C64.1696 95.0353 64.8292 95.5856 65.4478 96.1802C67.4819 98.1637 69.1209 100.515 70.2778 103.11C71.4228 105.704 72.1896 108.449 72.5548 111.261C72.6988 112.338 72.7708 113.214 72.8068 113.82C72.8278 114.12 72.8308 114.357 72.8368 114.519C72.8428 114.681 72.8428 114.762 72.8398 114.762Z" fill="#263238"/>
<path d="M51.546 81.4861C54.246 80.7961 55.194 81.8101 57.48 82.3321C61.08 83.1571 64.68 84.1021 67.38 85.9321C70.08 87.7621 71.79 90.6001 71.04 93.9001C70.8211 94.8466 70.397 95.7334 69.7978 96.498C69.1985 97.2626 68.4387 97.8864 67.572 98.3251C66.322 98.8968 64.9457 99.1365 63.576 99.0211C60.015 98.8021 57.453 97.0561 55.296 95.1931C53.1412 93.3389 51.1893 91.2613 49.473 88.9951C48.78 88.0741 48.123 87.1111 47.919 85.9651C47.7791 85.1269 47.9006 84.2659 48.267 83.4991C48.6843 82.7416 49.3824 82.1782 50.211 81.9301L51.546 81.4861Z" fill="#263238"/>
<path d="M75.4439 103.416C75.4321 103.385 75.425 103.353 75.4229 103.32C75.4229 103.245 75.3959 103.152 75.3749 103.02L75.2129 101.913C75.0689 100.953 74.8889 99.5577 74.6789 97.8327C74.2559 94.3857 73.7789 89.6097 73.2929 84.3327C72.8069 79.0557 72.3449 74.2797 71.9519 70.8327C71.7539 69.1077 71.5889 67.7127 71.4659 66.7497C71.4089 66.2757 71.3639 65.9037 71.3309 65.6397L71.3009 65.3397C71.2975 65.3068 71.2975 65.2736 71.3009 65.2407C71.3128 65.2725 71.3199 65.3059 71.3219 65.3397C71.3219 65.4117 71.3489 65.5077 71.3699 65.6247L71.5319 66.7317C71.6759 67.6947 71.8559 69.0867 72.0659 70.8117C72.4889 74.2587 72.9659 79.0347 73.4519 84.3117C73.9379 89.5887 74.3999 94.3617 74.7929 97.8117C74.9909 99.5367 75.1559 100.932 75.2789 101.895C75.3359 102.369 75.3809 102.741 75.4139 103.005L75.4439 103.305C75.4481 103.342 75.4481 103.379 75.4439 103.416Z" fill="#263238"/>
<path d="M59.3699 25.4669C63.0179 26.5169 63.6029 29.1599 66.0689 32.0489C69.9689 36.6089 73.7759 41.3759 75.9899 46.9469C78.2039 52.5179 78.6389 59.0789 75.8249 64.3709C74.4479 66.9599 72.0149 69.2999 69.0809 69.3479C67.1519 69.3809 65.3309 68.4149 63.8399 67.1909C59.6399 63.7589 57.5579 58.4369 56.0189 53.2499C54.4585 47.9814 53.2952 42.6033 52.5389 37.1609C52.2389 34.9169 51.9899 32.6249 52.4039 30.3989C52.6641 28.8899 53.2973 27.4699 54.2459 26.2679C54.6352 25.8006 55.1432 25.4467 55.7164 25.2435C56.2897 25.0403 56.9072 24.9952 57.5039 25.1129L59.3699 25.4669Z" fill="#455A64"/>
<path d="M56.271 28.083C56.271 28.083 56.292 28.116 56.325 28.179C56.358 28.242 56.412 28.35 56.475 28.479L57.036 29.604C57.522 30.582 58.209 32.004 59.037 33.771C60.696 37.302 62.889 42.231 65.109 47.757C67.329 53.283 69.144 58.365 70.389 62.064C71.01 63.915 71.499 65.415 71.823 66.459C71.982 66.972 72.123 67.374 72.195 67.659L72.288 67.959L72.315 68.067C72.2961 68.0352 72.2819 68.0009 72.273 67.965L72.165 67.665C72.069 67.383 71.937 66.984 71.766 66.465C71.424 65.427 70.92 63.933 70.284 62.088C69.015 58.401 67.179 53.331 64.962 47.805C62.745 42.279 60.567 37.35 58.935 33.804C58.122 32.034 57.453 30.603 56.982 29.604L56.448 28.5C56.391 28.374 56.346 28.275 56.31 28.2C56.2911 28.1632 56.2779 28.1238 56.271 28.083Z" fill="#263238"/>
<path d="M76.3499 113.1C76.34 113.064 76.333 113.027 76.3289 112.989C76.3289 112.908 76.3019 112.797 76.2839 112.662C76.2449 112.362 76.1909 111.939 76.1219 111.399C76.0529 110.859 75.9719 110.181 75.8969 109.398C75.8219 108.615 75.7169 107.73 75.6389 106.746C75.5609 105.762 75.4619 104.685 75.3899 103.524C75.3179 102.363 75.2489 101.124 75.1859 99.8221C75.0779 97.2151 75.0179 94.3441 75.0419 91.3291C75.0659 88.3141 75.1979 85.4431 75.3569 82.8361C75.4499 81.5341 75.5279 80.2951 75.6389 79.1401C75.7499 77.9851 75.8459 76.9051 75.9389 75.9241C76.0319 74.9431 76.1549 74.0551 76.2389 73.2751C76.3229 72.4951 76.4249 71.8291 76.5059 71.2831C76.5869 70.7371 76.6469 70.3201 76.6919 70.0231C76.7129 69.8881 76.7309 69.7801 76.7429 69.6961C76.7591 69.6625 76.7782 69.6304 76.7999 69.6001C76.8032 69.637 76.8032 69.6742 76.7999 69.7111C76.7999 69.7921 76.7789 69.9031 76.7609 70.0411C76.7249 70.3411 76.6739 70.7611 76.6049 71.3011C76.5359 71.8411 76.4489 72.5191 76.3649 73.2991C76.2809 74.0791 76.1669 74.9641 76.0649 75.9481C75.9629 76.9321 75.8579 78.0031 75.7649 79.1611C75.6719 80.3191 75.5849 81.5611 75.4979 82.8571C75.3449 85.4641 75.2309 88.3291 75.1979 91.3411C75.1649 94.3531 75.2309 97.2211 75.3269 99.8281C75.3899 101.133 75.4409 102.372 75.5219 103.53C75.6029 104.688 75.6719 105.765 75.7499 106.749C75.8279 107.733 75.9119 108.621 75.9839 109.404C76.0559 110.187 76.1219 110.856 76.1849 111.405C76.2479 111.954 76.2839 112.371 76.3139 112.668C76.3289 112.806 76.3379 112.917 76.3439 112.998C76.3485 113.032 76.3505 113.066 76.3499 113.1Z" fill="#263238"/>
<path d="M75.0388 90.0002C75.0512 89.9194 75.0713 89.8401 75.0988 89.7632C75.1498 89.5952 75.2188 89.3702 75.3028 89.0882C75.4828 88.4882 75.7498 87.6572 76.0888 86.6162C76.7668 84.5342 77.7388 81.6722 78.8758 78.5312C80.0128 75.3902 81.0988 72.5672 81.9118 70.5332C82.3168 69.5162 82.6498 68.6972 82.8868 68.1332C83.0038 67.8632 83.0938 67.6472 83.1628 67.4852C83.1935 67.4092 83.2285 67.3351 83.2678 67.2632C83.2505 67.3434 83.2254 67.4218 83.1928 67.4972L82.9438 68.1572L82.0138 70.5752C81.2278 72.6182 80.1598 75.4472 79.0138 78.5852C77.8678 81.7232 76.8898 84.5852 76.1848 86.6552C75.8368 87.6782 75.5548 88.5152 75.3508 89.1092C75.2548 89.3882 75.1798 89.6102 75.1198 89.7752C75.0996 89.8525 75.0725 89.9278 75.0388 90.0002Z" fill="#263238"/>
<path d="M76.1999 39.1831C76.2039 39.22 76.2039 39.2572 76.1999 39.2941C76.1999 39.3781 76.1999 39.4861 76.1789 39.6211C76.1549 39.9211 76.1249 40.3411 76.0829 40.8781C75.9929 41.9671 75.8789 43.5481 75.7529 45.4981C75.6269 47.4481 75.5039 49.7731 75.3989 52.3561C75.2939 54.9391 75.2249 57.7831 75.1859 60.7561C75.1199 66.7231 75.2249 72.1261 75.3299 76.0381C75.3899 77.9851 75.4379 79.5631 75.4709 80.6671C75.4889 81.2071 75.5009 81.6271 75.5099 81.9241C75.5099 82.0621 75.5099 82.1701 75.5099 82.2511C75.5099 82.3321 75.5099 82.3651 75.5099 82.3651C75.5007 82.3288 75.4956 82.2916 75.4949 82.2541C75.4949 82.1731 75.4949 82.0651 75.4739 81.9271C75.4589 81.6271 75.4379 81.2071 75.4079 80.6701C75.3509 79.5751 75.2849 77.9941 75.2189 76.0411C75.0809 72.1411 74.9609 66.7261 75.0269 60.7411C75.0659 57.7561 75.1469 54.9151 75.2519 52.3411C75.3569 49.7671 75.4979 47.4331 75.6419 45.4801C75.7859 43.5271 75.9119 41.9521 76.0199 40.8631L76.1429 39.6091L76.1999 39.3001C76.1956 39.2612 76.1956 39.222 76.1999 39.1831Z" fill="#263238"/>
<g opacity="0.3">
<path d="M59.3068 52.6979C60.8458 52.6319 62.3428 52.2179 63.8278 51.7979C62.4805 51.5419 61.1132 51.4064 59.7418 51.3928C59.0443 51.4032 58.3501 51.4907 57.6718 51.6538C58.7913 51.0343 59.716 50.1148 60.3418 48.9988L60.3688 48.9479L62.7088 46.7158L62.6758 46.6709C62.0218 47.1449 61.3768 47.6368 60.7408 48.1408C61.1888 46.9735 61.3112 45.7064 61.0948 44.4748C60.6511 45.408 59.9718 46.2094 59.1238 46.7998C59.3358 46.2399 59.4906 45.6599 59.5858 45.0688C59.7177 44.3025 59.601 43.5141 59.2528 42.8188C58.1608 44.8498 56.4178 46.5299 55.6528 48.7049C55.6078 48.8339 55.5658 48.9659 55.5298 49.0979C55.3078 47.2469 54.8878 45.4168 54.8668 43.5538C54.6792 44.7442 54.6019 45.9493 54.6358 47.1538C54.5308 47.0158 54.4198 46.8838 54.3088 46.7488C54.8068 48.9008 55.3688 51.0358 55.9948 53.1538C56.2944 53.1042 56.6012 53.1185 56.8948 53.1959C56.6319 53.1885 56.3689 53.2046 56.1088 53.2438L56.0188 53.2588C56.2568 54.0588 56.5088 54.8588 56.7748 55.6588C57.1505 55.5989 57.5332 55.5989 57.9088 55.6588C58.0655 55.6834 58.2186 55.7267 58.3648 55.7879L59.3308 56.3879C61.4038 58.0169 63.6718 61.7879 63.6718 61.7879L61.6618 57.1678C61.4818 56.9158 60.6328 54.8638 58.9288 53.8078C58.7551 53.5691 58.5445 53.3594 58.3048 53.1868C57.9014 52.9026 57.4331 52.7242 56.9428 52.6678C57.7318 52.6768 58.5238 52.7309 59.3068 52.6979Z" fill="black"/>
</g>
<path d="M42.918 54.3237L48.477 55.3887C49.104 55.5087 49.818 55.6887 50.106 56.2617L49.707 56.5017C48.678 55.9647 47.487 55.6437 46.383 55.2867C45.39 54.9657 42.666 54.4497 42.918 54.3237Z" fill="#263238"/>
<path d="M51.5219 54.5998C52.6287 53.7753 53.9338 53.2578 55.3049 53.0998C56.6668 52.9518 58.0391 52.9237 59.4059 53.0158C57.9839 53.6008 56.5439 54.1858 55.0229 54.4348C53.7689 54.6418 52.4609 54.6148 51.2639 55.0498L51.5219 54.5998Z" fill="#6C4EFF"/>
<g opacity="0.3">
<path d="M51.5219 54.5998C52.6287 53.7753 53.9338 53.2578 55.3049 53.0998C56.6668 52.9518 58.0391 52.9237 59.4059 53.0158C57.9839 53.6008 56.5439 54.1858 55.0229 54.4348C53.7689 54.6418 52.4609 54.6148 51.2639 55.0498L51.5219 54.5998Z" fill="black"/>
</g>
<path d="M57.693 48.111L55.2 51.141C54.7423 51.718 54.2525 52.2689 53.733 52.791C52.911 53.583 51.933 54.246 51.312 55.191C51.4737 54.7844 51.7074 54.4104 52.002 54.087C53.7491 51.952 55.6406 49.9393 57.663 48.063" fill="#263238"/>
<path d="M50.97 55.8388C50.769 54.2098 50.571 52.5388 50.925 50.9278C51.426 48.6748 52.956 46.7998 53.799 44.6548C54.2286 45.3027 54.4389 46.0714 54.399 46.8478C54.3569 47.6187 54.2332 48.383 54.03 49.1278C53.673 50.6278 53.307 52.1698 52.482 53.4808C52.134 54.0358 51.282 54.9988 50.982 55.8388" fill="#6C4EFF"/>
<g opacity="0.3">
<path d="M50.97 55.8388C50.769 54.2098 50.571 52.5388 50.925 50.9278C51.426 48.6748 52.956 46.7998 53.799 44.6548C54.2286 45.3027 54.4389 46.0714 54.399 46.8478C54.3569 47.6187 54.2332 48.383 54.03 49.1278C53.673 50.6278 53.307 52.1698 52.482 53.4808C52.134 54.0358 51.282 54.9988 50.982 55.8388" fill="black"/>
</g>
<path d="M52.0319 54.5611C52.3249 54.286 52.6422 54.038 52.9799 53.8201C54.234 53.0174 55.1909 51.8263 55.7044 50.4287C56.2179 49.0311 56.2599 47.5038 55.8239 46.0801C55.4197 47.275 54.6479 48.3114 53.6189 49.0411C53.6189 49.0411 52.8749 49.0861 52.2539 50.6221C51.6329 52.1581 50.9099 55.6201 50.9099 55.6201L52.0319 54.5611Z" fill="#6C4EFF"/>
<path d="M46.1579 58.8147C48.8429 57.5037 48.3869 56.3817 51.9239 55.3857C55.4609 54.3897 57.5999 58.2957 57.8999 58.6287L61.1999 62.9787C61.1999 62.9787 56.2859 57.6207 53.9819 57.5787C51.6779 57.5367 52.3619 58.7307 47.7959 60.0177C43.2299 61.3047 41.2319 60.8607 41.2319 60.8607C42.9149 60.2818 44.5601 59.5985 46.1579 58.8147Z" fill="#263238"/>
<path d="M52.992 55.3048C52.6394 55.1911 52.2617 55.1807 51.9034 55.2748C51.5451 55.3689 51.2212 55.5635 50.97 55.8358C51.0236 55.5797 51.1501 55.3446 51.3342 55.1589C51.5184 54.9731 51.7524 54.8446 52.008 54.7888C52.7214 54.6352 53.4661 54.7416 54.108 55.0888C54.5634 55.3405 54.9409 55.7127 55.1991 56.1645C55.4573 56.6164 55.5863 57.1305 55.572 57.6508C55.5 59.1298 54.258 60.2578 53.688 61.6228C53.886 60.7018 54.087 59.7808 54.288 58.8598C54.3961 58.4157 54.4644 57.9629 54.492 57.5068C54.526 57.0175 54.4065 56.5298 54.15 56.1118C53.8721 55.7137 53.4616 55.4277 52.992 55.3048Z" fill="#6C4EFF"/>
<path d="M50.3549 52.9918C49.8899 50.6518 49.4219 48.2878 49.5329 45.9058C49.8329 48.2128 50.7509 50.4058 51.1349 52.6948C51.1954 52.9907 51.2126 53.2939 51.1859 53.5948C51.1439 53.8948 51.0869 55.3318 50.8499 55.5178L50.8139 55.3888C50.7449 54.8308 50.4569 53.4988 50.3549 52.9918Z" fill="#263238"/>
<path d="M47.2979 46.02C47.519 46.8673 47.9351 47.6511 48.5129 48.309C48.9989 48.858 49.5899 49.311 50.0669 49.869C50.5439 50.427 50.9069 51.147 50.8079 51.873C50.7389 52.395 50.4419 52.86 50.3099 53.373C50.2081 53.7931 50.2201 54.2326 50.3445 54.6466C50.4689 55.0605 50.7014 55.4337 51.0179 55.728C50.9999 55.728 50.9999 55.863 50.9399 55.833C49.2569 55.062 47.9669 53.379 47.2529 51.657C46.8854 50.7616 46.7 49.8019 46.7078 48.834C46.7155 47.8661 46.9161 46.9095 47.2979 46.02Z" fill="#6C4EFF"/>
<path d="M47.2978 46.0202C47.2978 46.0382 47.1838 46.3202 47.0248 46.8722C46.8107 47.6531 46.7265 48.4639 46.7758 49.2722C46.8138 49.8307 46.9145 50.3831 47.0758 50.9192C47.2639 51.5316 47.5216 52.1204 47.8438 52.6742C48.5385 53.9753 49.6076 55.0381 50.9128 55.7252L50.9638 55.7492C50.9568 55.7459 50.9491 55.7442 50.9413 55.7442C50.9335 55.7442 50.9259 55.7459 50.9188 55.7492C50.9188 55.7492 50.9188 55.7492 50.9188 55.7312V55.7042V55.6832C50.9174 55.6762 50.9174 55.6691 50.9188 55.6622V55.6442C50.9366 55.6324 50.9575 55.6261 50.9788 55.6262L50.9188 55.7642C50.6342 55.4987 50.415 55.171 50.2781 54.8067C50.1412 54.4424 50.0905 54.0513 50.1298 53.6642C50.2138 52.9022 50.7058 52.3142 50.7028 51.6602C50.6801 51.0375 50.4427 50.4418 50.0308 49.9742C49.6688 49.5621 49.2842 49.1705 48.8788 48.8012C48.2888 48.2533 47.8215 47.5867 47.5078 46.8452C47.4225 46.6454 47.3513 46.4399 47.2948 46.2302C47.2588 46.0892 47.2528 46.0142 47.2498 46.0082C47.2468 46.0022 47.2768 46.0742 47.3248 46.2212C47.3937 46.425 47.4728 46.6253 47.5618 46.8212C47.8933 47.5422 48.3668 48.1891 48.9538 48.7232C49.3688 49.0894 49.7615 49.4801 50.1298 49.8932C50.5676 50.3817 50.8212 51.0077 50.8468 51.6632C50.8468 52.3802 50.3458 52.9772 50.2798 53.6822C50.2453 54.0461 50.2944 54.4132 50.4233 54.7553C50.5522 55.0974 50.7576 55.4055 51.0238 55.6562L51.0778 55.7042L50.9698 55.7192C50.9848 55.7338 51.0035 55.7442 51.0238 55.7492V55.7762C51.0148 55.807 50.9995 55.8356 50.9788 55.8602C50.9671 55.8725 50.9524 55.8818 50.9361 55.887C50.9199 55.8923 50.9026 55.8933 50.8858 55.8902C50.8691 55.8863 50.8529 55.8803 50.8378 55.8722L50.7868 55.8482C50.0886 55.5043 49.4593 55.0356 48.9298 54.4652C47.9905 53.4595 47.2929 52.2529 46.8898 50.9372C46.7349 50.3903 46.6423 49.8278 46.6138 49.2602C46.5742 48.44 46.6757 47.619 46.9138 46.8332C47.0149 46.5502 47.1435 46.2779 47.2978 46.0202Z" fill="#263238"/>
<path d="M51.1589 52.0018C51.1351 51.9304 51.1259 51.8549 51.1319 51.7798C51.1261 51.579 51.1391 51.3781 51.1709 51.1798C51.279 50.5183 51.5111 49.8832 51.8549 49.3078C52.1986 48.7357 52.6008 48.2008 53.0549 47.7118C53.2272 47.4971 53.4235 47.3028 53.6399 47.1328C53.4925 47.3642 53.3248 47.582 53.1389 47.7838C52.7193 48.2878 52.3392 48.8234 52.0019 49.3858C51.6684 49.9484 51.4282 50.5613 51.2909 51.2008C51.1799 51.6838 51.1859 52.0018 51.1589 52.0018Z" fill="#263238"/>
<path d="M53.2048 53.8768C53.406 53.7767 53.62 53.705 53.8408 53.6638C54.8861 53.396 55.9574 53.2431 57.0358 53.2078C57.2591 53.189 57.4838 53.198 57.7048 53.2348C57.7048 53.2828 56.6878 53.3248 55.4458 53.5018C54.2038 53.6788 53.2168 53.9218 53.2048 53.8768Z" fill="#263238"/>
<path d="M72.8309 78.6419C72.7935 78.5802 72.7624 78.5148 72.7379 78.4469L72.4979 77.8769C72.4439 77.7539 72.3929 77.6159 72.3239 77.4689C72.2549 77.3219 72.1679 77.1689 72.0779 76.9979C71.9009 76.6619 71.7149 76.2689 71.4569 75.8639C70.1497 73.736 68.6941 71.703 67.1009 69.7799C65.2619 67.4999 63.5009 65.5289 62.1959 64.1069L60.6569 62.4359L60.2369 61.9799C60.1848 61.9303 60.1385 61.875 60.0989 61.8149C60.1573 61.8577 60.2116 61.9059 60.2609 61.9589L60.7019 62.3939C61.0799 62.7749 61.6229 63.3299 62.2769 64.0319C63.5909 65.4359 65.3789 67.3979 67.2209 69.6809C68.8213 71.6088 70.2696 73.6579 71.5529 75.8099C71.8079 76.2179 71.9849 76.6169 72.1529 76.9589L72.3869 77.4359C72.4529 77.5859 72.5009 77.7359 72.5489 77.8559L72.7619 78.4379C72.7911 78.5037 72.8142 78.572 72.8309 78.6419Z" fill="#263238"/>
<path d="M77.742 67.6829C77.742 67.6829 73.089 67.5569 71.274 64.8929C69.459 62.2289 71.922 51.7289 81.834 46.4459L84.396 49.0229L83.04 44.6279C83.04 44.6279 85.554 39.9359 95.841 38.5049C95.841 38.5049 99.237 37.6379 101.43 38.2439C103.623 38.8499 102.96 40.3739 102.96 40.3739C102.96 40.3739 78.561 61.5839 78.453 61.8659C78.345 62.1479 77.742 67.6829 77.742 67.6829Z" fill="#455A64"/>
<path opacity="0.3" d="M101.43 38.2438C99.2369 37.6438 95.8409 38.5048 95.8409 38.5048C85.5539 39.9358 83.0399 44.6278 83.0399 44.6278L84.3959 49.0228L81.8339 46.4458C71.9339 51.7288 69.4619 62.2288 71.2739 64.8928C73.0859 67.5568 77.7419 67.6828 77.7419 67.6828C77.7419 67.6828 78.3419 62.1478 78.4529 61.8658C78.5639 61.5838 102.96 40.3738 102.96 40.3738C102.96 40.3738 103.626 38.8498 101.43 38.2438Z" fill="black"/>
<path d="M90.705 46.6048C87.237 48.4048 83.688 50.2468 80.913 52.9468C81.447 53.4208 82 53.8708 82.572 54.2968C82.923 54.5578 83.316 54.8728 83.331 55.3108C82.051 55.0908 80.781 54.8078 79.521 54.4618C75.747 59.0848 74.643 65.2918 73.65 71.1778C73.6291 71.2763 73.6241 71.3776 73.635 71.4778C73.698 72.0778 74.271 72.1168 74.733 72.0778C75.8507 72.0141 76.963 71.8778 78.063 71.6698L80.631 66.1018C83.199 60.5368 92.37 50.5528 95.946 47.5018C99.522 44.4508 102.495 41.3668 102.663 40.9858C102.765 40.7608 102.852 40.5298 102.945 40.3018L90.705 46.6048Z" fill="#455A64"/>
<path d="M89.3638 53.853C89.08 53.7106 88.8072 53.5472 88.5478 53.364C88.0528 53.064 87.3718 52.617 86.6098 52.164C85.8478 51.711 85.1488 51.282 84.6448 50.985C84.3653 50.8351 84.0966 50.6657 83.8408 50.478C84.1392 50.5863 84.4265 50.7229 84.6988 50.886C85.2178 51.162 85.9258 51.561 86.6908 52.029C87.4558 52.497 88.1308 52.95 88.6108 53.289C88.8791 53.4528 89.1312 53.6416 89.3638 53.853Z" fill="#263238"/>
<path d="M90.5278 51.744C90.069 51.5237 89.6337 51.2574 89.2288 50.949C88.7988 50.6809 88.3968 50.3703 88.0288 50.022C88.4888 50.243 88.9251 50.5104 89.3308 50.82C89.7611 51.0851 90.1624 51.3948 90.5278 51.744Z" fill="#263238"/>
<path d="M87.735 49.4698C87.708 49.5058 87.588 49.4698 87.465 49.3678C87.342 49.2658 87.264 49.1698 87.288 49.1368C87.312 49.1038 87.435 49.1368 87.558 49.2418C87.681 49.3468 87.762 49.4368 87.735 49.4698Z" fill="#263238"/>
<path d="M93.0899 49.5208C92.6423 49.1443 92.2213 48.7374 91.8299 48.3028C91.4016 47.9064 91.0007 47.4814 90.6299 47.0308C91.1106 47.3677 91.5523 47.7571 91.9469 48.1918C92.3742 48.5927 92.7574 49.0383 93.0899 49.5208Z" fill="#263238"/>
<path d="M94.1489 47.6308C94.1909 47.6128 94.3289 47.8768 94.4639 48.2308C94.5676 48.4304 94.625 48.6509 94.6319 48.8757C94.5929 48.8907 94.4519 48.6267 94.3169 48.2757C94.2133 48.0761 94.1558 47.8556 94.1489 47.6308Z" fill="#263238"/>
<path d="M83.6489 53.7329C83.8606 53.8251 84.0618 53.9397 84.2489 54.0749L85.6379 54.9599L87.0329 55.8389C87.2354 55.9466 87.4247 56.0774 87.5969 56.2289C87.3794 56.1546 87.1719 56.0538 86.9789 55.9289C86.6069 55.7279 86.0999 55.4339 85.5539 55.0889C85.0079 54.7439 84.5279 54.4139 84.1859 54.1649C83.9894 54.0442 83.809 53.899 83.6489 53.7329Z" fill="#263238"/>
<path d="M81.5999 64.4578C81.287 64.4907 80.9721 64.4997 80.6579 64.4848C80.0789 64.4848 79.2779 64.4848 78.3929 64.5328C77.5079 64.5808 76.7099 64.6258 76.1309 64.6708C75.8195 64.7099 75.5056 64.7259 75.1919 64.7188C75.4955 64.6379 75.8057 64.5847 76.1189 64.5598C76.6979 64.4878 77.4989 64.4128 78.3869 64.3768C79.2749 64.3408 80.0789 64.3498 80.6609 64.3768C80.9757 64.3747 81.2901 64.4018 81.5999 64.4578Z" fill="#263238"/>
<path d="M82.2749 63.3448C82.0133 63.3143 81.7545 63.2631 81.5009 63.1918C81.0269 63.0838 80.3699 62.9428 79.6409 62.8198C78.9119 62.6968 78.2459 62.6098 77.7629 62.5558C77.5 62.5433 77.2389 62.5061 76.9829 62.4448C77.2451 62.4162 77.5097 62.4162 77.7719 62.4448C79.0431 62.523 80.3023 62.7372 81.5279 63.0838C81.786 63.1424 82.0365 63.2299 82.2749 63.3448Z" fill="#263238"/>
<path d="M94.425 60.2461L90.024 62.4511C89.526 62.7001 88.971 63.0181 88.863 63.5641L89.256 63.6721C90.0363 63.0048 90.8701 62.4028 91.749 61.8721C92.508 61.3651 94.665 60.3001 94.425 60.2461Z" fill="#263238"/>
<path d="M87.2999 62.502C86.179 62.0781 84.9661 61.9581 83.7839 62.154C82.6077 62.352 81.4512 62.6531 80.3279 63.054C81.6528 63.2562 82.9964 63.3075 84.3329 63.207C85.4339 63.084 86.5199 62.754 87.6329 62.835L87.2999 62.502Z" fill="#6C4EFF"/>
<g opacity="0.3">
<path d="M87.2999 62.502C86.179 62.0781 84.9661 61.9581 83.7839 62.154C82.6077 62.352 81.4512 62.6531 80.3279 63.054C81.6528 63.2562 82.9964 63.3075 84.3329 63.207C85.4339 63.084 86.5199 62.754 87.6329 62.835L87.2999 62.502Z" fill="black"/>
</g>
<path d="M80.5859 58.533L83.3999 60.48C83.9207 60.8532 84.4615 61.1978 85.0199 61.512C85.8929 61.983 86.8619 62.307 87.6119 62.958C87.3831 62.6547 87.0991 62.3972 86.7749 62.199C84.8071 60.8262 82.7473 59.5903 80.6099 58.5" fill="#263238"/>
<path d="M88.0409 63.4137C87.8249 62.0037 87.5909 60.5487 86.9189 59.2917C85.9679 57.5247 84.2459 56.3157 83.0189 54.7197C82.8159 55.3642 82.8232 56.0567 83.0399 56.6967C83.2565 57.332 83.5401 57.9425 83.8859 58.5177C84.5399 59.6937 85.2089 60.8937 86.2079 61.7967C86.6309 62.1777 87.5699 62.7867 88.0289 63.4137" fill="#6C4EFF"/>
<g opacity="0.3">
<path d="M88.0409 63.4137C87.8249 62.0037 87.5909 60.5487 86.9189 59.2917C85.9679 57.5247 84.2459 56.3157 83.0189 54.7197C82.8159 55.3642 82.8232 56.0567 83.0399 56.6967C83.2565 57.332 83.5401 57.9425 83.8859 58.5177C84.5399 59.6937 85.2089 60.8937 86.2079 61.7967C86.6309 62.1777 87.5699 62.7867 88.0289 63.4137" fill="black"/>
</g>
<path d="M86.8499 62.5981C86.5401 62.435 86.2157 62.3014 85.8809 62.1991C84.6436 61.8209 83.5637 61.0488 82.8055 60.0004C82.0474 58.952 81.6525 57.6846 81.6809 56.3911C82.302 57.2957 83.1936 57.9804 84.2279 58.3471C84.2279 58.3471 84.8609 58.2091 85.7279 59.3521C86.5949 60.4951 88.0349 63.2161 88.0349 63.2161L86.8499 62.5981Z" fill="#6C4EFF"/>
<path d="M92.7749 64.7729C90.2159 64.3079 90.3329 63.2729 87.1349 63.2729C83.9369 63.2729 83.0669 67.0499 82.8929 67.4009L81.5459 71.6429C81.5459 71.6429 83.9969 66.1799 85.9139 65.5979C87.8309 65.0159 87.5429 66.1799 91.6679 66.1799C95.7929 66.1799 97.3679 65.3369 97.3679 65.3369C95.8267 65.2437 94.2928 65.0553 92.7749 64.7729Z" fill="#455A64"/>
<path d="M86.2229 63.4438C86.4915 63.2661 86.8051 63.1687 87.1271 63.1629C87.4491 63.157 87.766 63.243 88.0409 63.4108C87.9334 63.211 87.7716 63.0458 87.574 62.9343C87.3765 62.8228 87.1514 62.7696 86.9249 62.7808C86.2946 62.8201 85.698 63.0791 85.2389 63.5128C84.9183 63.8324 84.691 64.2335 84.5816 64.6729C84.4721 65.1122 84.4847 65.5731 84.6179 66.0058C85.0289 67.2268 86.3339 67.8778 87.1349 68.8858L85.9829 66.7108C85.7862 66.3655 85.6216 66.003 85.4909 65.6278C85.3484 65.2261 85.3337 64.7901 85.4489 64.3798C85.5907 63.9875 85.8643 63.6567 86.2229 63.4438Z" fill="#6C4EFF"/>
<path d="M87.8998 60.8999C87.7378 58.8329 87.5698 56.7419 86.9128 54.7739C87.2128 56.7779 86.9548 58.8239 87.1768 60.8369C87.1949 61.0978 87.2515 61.3546 87.3448 61.5989C87.4498 61.8419 87.8368 63.0329 88.0798 63.1319V62.9999C87.9928 62.5169 87.9178 61.3349 87.8998 60.8999Z" fill="#263238"/>
<path d="M88.7999 54.3271C88.8145 55.0886 88.6501 55.8429 88.3199 56.5291C88.0439 57.1051 87.6569 57.6241 87.3899 58.2031C87.2379 58.485 87.1461 58.7953 87.1203 59.1144C87.0945 59.4335 87.1352 59.7546 87.2399 60.0571C87.4229 60.4771 87.7799 60.7951 88.0109 61.1911C88.1951 61.5195 88.2886 61.891 88.2817 62.2674C88.2749 62.6439 88.1679 63.0117 87.9719 63.3331C87.9869 63.3331 88.0199 63.4381 88.0649 63.4021C89.2919 62.3581 89.9729 60.6451 90.1649 59.0341C90.2607 58.1983 90.1893 57.3517 89.955 56.5436C89.7206 55.7355 89.328 54.9821 88.7999 54.3271Z" fill="#6C4EFF"/>
<path d="M88.8 54.3271C88.9786 54.5173 89.1383 54.7242 89.277 54.9451C89.6639 55.5466 89.9441 56.2104 90.105 56.9072C90.2155 57.3893 90.2708 57.8825 90.27 58.3771C90.2621 58.9447 90.1886 59.5095 90.051 60.0601C89.7748 61.3438 89.117 62.5139 88.164 63.4171L88.128 63.4501C88.1179 63.4615 88.1057 63.4706 88.092 63.4771C88.0769 63.4839 88.0606 63.4874 88.044 63.4874C88.0275 63.4874 88.0111 63.4839 87.996 63.4771C87.9711 63.4615 87.9505 63.4398 87.936 63.4142V63.3931C87.9543 63.4007 87.9748 63.4007 87.993 63.3931L87.9 63.3001C88.0641 63.029 88.1635 62.7237 88.1906 62.4079C88.2176 62.0921 88.1716 61.7743 88.056 61.4791C87.837 60.9121 87.279 60.5282 87.105 59.9222C86.9726 59.3656 87.0372 58.7803 87.288 58.2661C87.5006 57.8338 87.738 57.4141 87.999 57.0091C88.3658 56.4241 88.6107 55.7711 88.719 55.0892C88.7475 54.9042 88.7665 54.718 88.776 54.5312C88.776 54.3992 88.794 54.3271 88.794 54.3361C88.794 54.3451 88.794 54.4082 88.809 54.5312C88.8113 54.7206 88.8013 54.91 88.779 55.0982C88.6918 55.794 88.4587 56.4636 88.095 57.0632C87.8416 57.4673 87.6122 57.886 87.408 58.3171C87.1742 58.8035 87.1159 59.3557 87.243 59.8802C87.393 60.4262 87.945 60.8012 88.197 61.4222C88.3236 61.7396 88.3747 62.0821 88.346 62.4226C88.3174 62.7632 88.2099 63.0923 88.032 63.3841L87.939 63.2671C87.9583 63.2595 87.9798 63.2595 87.999 63.2671H88.02L88.038 63.2821V63.3001V63.3212C88.0289 63.3283 88.0218 63.3376 88.017 63.3482L87.993 63.3212L88.029 63.2851C88.9584 62.4047 89.6022 61.2655 89.877 60.0152C90.0167 59.4758 90.0942 58.9222 90.108 58.3651C90.1136 57.8803 90.0653 57.3963 89.964 56.9222C89.8156 56.2324 89.5552 55.5716 89.193 54.9661C88.959 54.5491 88.8 54.3451 88.8 54.3271Z" fill="#263238"/>
<path d="M86.9758 60.246C86.9518 60.246 86.8798 59.988 86.6758 59.601C86.4084 59.1007 86.0631 58.646 85.6528 58.254C85.2368 57.8639 84.7926 57.5049 84.3238 57.18C84.1218 57.0541 83.9319 56.9094 83.7568 56.748C83.9799 56.8362 84.1914 56.951 84.3868 57.09C84.8803 57.3922 85.3408 57.7451 85.7608 58.143C86.1863 58.5442 86.5315 59.0227 86.7778 59.553C86.8922 59.7674 86.9597 60.0036 86.9758 60.246Z" fill="#263238"/>
<path d="M85.7068 62.3008C85.7068 62.3458 84.8218 62.3788 83.7418 62.5258C82.6618 62.6728 81.7978 62.8708 81.7888 62.8258C82.4093 62.5873 83.0592 62.4339 83.7208 62.3698C84.3765 62.2559 85.0448 62.2327 85.7068 62.3008Z" fill="#263238"/>
<path d="M71.622 105.471C71.6947 105.547 71.7563 105.633 71.805 105.726C71.916 105.894 72.063 106.149 72.234 106.467C72.6721 107.301 73.0278 108.176 73.296 109.08C73.5643 109.984 73.7452 110.913 73.836 111.852C73.866 112.212 73.881 112.503 73.881 112.704C73.8938 112.808 73.8938 112.914 73.881 113.019C73.854 113.019 73.83 112.575 73.737 111.864C73.4991 110.008 72.9621 108.202 72.147 106.518C71.823 105.87 71.601 105.483 71.622 105.471Z" fill="#263238"/>
<path d="M71.8528 113.169C72.1318 113.253 72.0058 110.802 71.7718 109.818C71.5138 108.741 71.9698 108.153 72.5548 109.407C73.1398 110.661 73.7998 113.7 73.7998 113.7L71.8528 113.169Z" fill="#AE7461"/>
<path d="M78.759 110.145C78.3662 110.503 78.0501 110.937 77.8299 111.421C77.6097 111.904 77.49 112.428 77.478 112.959H78.663C78.8684 111.814 79.2888 110.717 79.902 109.728C79.5 109.62 79.074 109.86 78.759 110.145Z" fill="#AE7461"/>
<path d="M71.4419 80.5557C70.2202 81.3785 68.9543 82.1337 67.6499 82.8177C67.1399 83.0877 66.4829 83.3368 66.0179 82.9917C67.7699 81.6477 69.5849 80.2197 70.6259 78.2997C69.2819 74.9667 66.9659 70.8807 62.9519 68.6337C62.9519 68.6337 62.8229 68.5677 62.5889 68.4597C62.1022 69.2333 61.7094 70.0622 61.4189 70.9287C60.9449 72.2367 60.5459 73.5957 59.7749 74.7567C59.5169 74.4387 59.6159 73.9737 59.7269 73.5807C60.2609 71.6847 60.7959 69.7847 61.3319 67.8807C59.6318 67.1461 57.8838 66.5277 56.0999 66.0297C55.5559 67.2897 55.0119 68.5487 54.4679 69.8067C54.1679 69.5067 54.2369 69.0447 54.2939 68.6397C54.4364 67.6388 54.4364 66.6227 54.2939 65.6217C53.3306 65.4267 52.3429 65.3822 51.3659 65.4897C48.5369 65.9127 46.8659 67.1277 47.0159 68.9427C48.5408 68.8043 50.0731 68.7662 51.6029 68.8287C50.1502 69.2515 48.653 69.5032 47.1419 69.5787C47.3761 70.2759 47.7372 70.9238 48.2069 71.4897C48.8339 72.2817 49.3619 72.8667 49.8569 73.3887C52.3406 72.7942 54.9246 72.7533 57.4259 73.2687C56.6309 73.7757 55.6079 73.6287 54.6659 73.6077C53.3323 73.5791 52.008 73.8347 50.7809 74.3577C51.9329 75.5787 53.1119 76.9797 55.2149 80.6277C55.5389 81.1887 55.8539 81.7407 56.1659 82.2777C56.7235 82.6307 57.3612 82.8371 58.0199 82.8777C58.9407 82.9129 59.8617 82.8118 60.7529 82.5777C60.9329 82.5387 61.1819 82.5387 61.2269 82.7187C61.2719 82.8987 61.0169 83.0187 60.8189 83.0457C60.1879 83.0875 59.5611 83.1778 58.9439 83.3157C58.3208 83.4572 57.7736 83.8277 57.4109 84.3537C59.1809 87.2217 60.9509 89.5077 63.2789 90.5727C64.2142 90.3389 65.0975 89.9319 65.8829 89.3727C65.5965 90.0214 65.1482 90.5854 64.5809 91.0107C65.4118 91.2068 66.2693 91.2646 67.1189 91.1817C72.7889 90.6747 72.7319 84.7527 71.7179 81.3897C71.6309 81.1527 71.5409 80.8617 71.4419 80.5557Z" fill="#455A64"/>
<path d="M75.039 112.758C75.039 112.758 75.039 112.713 75.018 112.623C74.997 112.533 74.991 112.389 74.97 112.218L74.802 110.661C74.664 109.299 74.463 107.343 74.202 104.931C74.082 103.731 73.947 102.396 73.803 100.974C73.659 99.5522 73.563 98.0192 73.038 96.4982C72.5218 94.904 71.8736 93.3556 71.1 91.8692C70.29 90.3242 69.378 88.7612 68.373 87.2042C66.36 84.0872 64.242 81.2552 62.28 78.7082C61.296 77.4392 60.378 76.2152 59.466 75.1082C58.6507 74.0661 57.7309 73.1101 56.721 72.2552L54.237 70.1072C53.505 69.4802 52.863 68.9522 52.326 68.5352C51.789 68.1182 51.36 67.8122 51.069 67.6022L50.736 67.3682C50.6972 67.3426 50.6601 67.3146 50.625 67.2842L50.745 67.3562L51.087 67.5782C51.387 67.7792 51.822 68.0762 52.365 68.4782C52.908 68.8802 53.565 69.4112 54.294 70.0322L56.793 72.1622C57.8135 73.0154 58.7434 73.9714 59.568 75.0152C60.486 76.1162 61.407 77.3342 62.394 78.6152C64.362 81.1592 66.486 83.9912 68.505 87.1112C69.51 88.6742 70.425 90.2402 71.238 91.7942C72.0227 93.2899 72.6791 94.8495 73.2 96.4562L73.521 97.6082C73.59 97.9952 73.659 98.3792 73.728 98.7542C73.7636 98.9405 73.7876 99.1289 73.8 99.3182L73.854 99.8732C73.89 100.242 73.926 100.605 73.959 100.959C74.097 102.384 74.223 103.707 74.34 104.919C74.565 107.319 74.751 109.293 74.877 110.655C74.937 111.327 74.985 111.855 75.018 112.215C75.018 112.386 75.042 112.515 75.048 112.62C75.054 112.725 75.039 112.758 75.039 112.758Z" fill="#263238"/>
<path d="M56.655 79.2001C56.9588 79.126 57.2695 79.0838 57.582 79.0741C58.3351 79.0209 59.091 79.0209 59.844 79.0741C60.5967 79.1264 61.3446 79.2327 62.082 79.3921C62.3901 79.4442 62.6917 79.5287 62.982 79.6441C62.6712 79.6163 62.3626 79.5682 62.058 79.5001C61.491 79.4041 60.705 79.2931 59.829 79.2301C58.953 79.1671 58.161 79.1701 57.585 79.1881C57.2756 79.2109 56.965 79.2149 56.655 79.2001Z" fill="#263238"/>
<path d="M63.2399 73.5C62.9118 74.2583 62.6557 75.0458 62.4749 75.852C62.3499 76.6687 62.3007 77.4952 62.3279 78.321C62.2545 78.0859 62.2161 77.8413 62.2139 77.595C62.1753 77.0018 62.2116 76.4061 62.3219 75.822C62.434 75.2388 62.6174 74.6715 62.8679 74.133C62.961 73.9053 63.0863 73.6922 63.2399 73.5Z" fill="#263238"/>
<path d="M64.3949 71.7988C64.4309 71.8258 64.3349 72.0088 64.1819 72.2098C64.0289 72.4108 63.8819 72.5488 63.8399 72.5098C63.7979 72.4708 63.9029 72.3028 64.0559 72.1018C64.2089 71.9008 64.3619 71.7748 64.3949 71.7988Z" fill="#263238"/>
<path d="M67.1999 75.5637C67.2209 75.5787 66.9809 75.8907 66.6539 76.4307C65.7902 77.8389 65.2759 79.4333 65.1539 81.0807C65.1059 81.7107 65.1209 82.1037 65.0969 82.1037C65.0677 82.0157 65.0535 81.9234 65.0549 81.8307C65.0416 81.5789 65.0416 81.3266 65.0549 81.0747C65.0827 80.241 65.2261 79.4151 65.4809 78.6207C65.7361 77.8259 66.0974 77.069 66.5549 76.3707C66.6942 76.1629 66.8444 75.9626 67.0049 75.7707C67.1339 75.6267 67.1999 75.5547 67.1999 75.5637Z" fill="#263238"/>
<path d="M67.2328 84.8459C66.8953 84.8539 66.5577 84.8408 66.2218 84.8069C65.6008 84.7709 64.7398 84.7409 63.7888 84.7589C62.8378 84.7769 61.9888 84.8339 61.3588 84.8909C61.0246 84.9361 60.688 84.9612 60.3508 84.9659C60.4341 84.9276 60.5235 84.9043 60.6148 84.8969C60.7858 84.8639 61.0348 84.8219 61.3468 84.7799C62.9668 84.572 64.6047 84.5438 66.2308 84.6959C66.5308 84.7259 66.7948 84.7589 66.9658 84.7859C67.0574 84.7922 67.1474 84.8124 67.2328 84.8459Z" fill="#263238"/>
<path d="M67.9619 86.3101C67.9619 86.3551 67.1159 86.3521 66.0869 86.4601C65.0579 86.5681 64.2329 86.7391 64.2239 86.6941C64.8179 86.4758 65.4403 86.3444 66.0719 86.3041C66.6988 86.2137 67.3356 86.2158 67.9619 86.3101Z" fill="#263238"/>
<path d="M69.924 83.9668C69.963 83.9938 69.528 84.6148 69.159 85.4668C68.79 86.3188 68.631 87.0598 68.583 87.0508C68.6167 86.4783 68.7646 85.9183 69.018 85.4038C69.2231 84.8701 69.5309 84.3819 69.924 83.9668Z" fill="#263238"/>
<path d="M60.9418 76.6831C60.6085 76.6326 60.278 76.5645 59.9518 76.4791C59.3518 76.3471 58.4938 76.1791 57.5518 76.0801C56.6098 75.9811 55.7518 75.9361 55.1218 75.9271C54.7846 75.938 54.447 75.929 54.1108 75.9001C54.1987 75.8747 54.2894 75.8606 54.3808 75.8581C54.5548 75.8401 54.8098 75.8251 55.1218 75.8161C55.9394 75.7957 56.7573 75.8318 57.5698 75.9241C58.379 76.0186 59.1809 76.1679 59.9698 76.3711C60.2698 76.4521 60.5158 76.5241 60.6838 76.5811C60.7751 76.5998 60.8624 76.6343 60.9418 76.6831Z" fill="#263238"/>
<path d="M58.5329 68.481C58.5203 68.7393 58.4862 68.9962 58.4309 69.249C58.3368 69.8613 58.2747 70.4781 58.2449 71.097C58.2138 71.7166 58.2138 72.3373 58.2449 72.957C58.2735 73.2129 58.2846 73.4705 58.2779 73.728C58.1969 73.4815 58.1494 73.2251 58.1369 72.966C57.9985 71.7195 58.0573 70.4591 58.3109 69.231C58.3541 68.9728 58.4287 68.721 58.5329 68.481Z" fill="#263238"/>
<path d="M56.7599 69.0508C56.8049 69.0508 56.6489 69.6658 56.6519 70.4218C56.6549 71.1778 56.7989 71.7808 56.7539 71.7928C56.402 70.9127 56.402 69.9309 56.7539 69.0508H56.7599Z" fill="#263238"/>
<path d="M54.4709 71.0252C54.2486 71.0689 54.0225 71.091 53.7959 71.0912C53.3789 71.1152 52.8029 71.1512 52.1669 71.2082C51.5309 71.2652 50.9669 71.3282 50.5439 71.3762C50.3213 71.4169 50.0951 71.435 49.8689 71.4302C50.0807 71.3469 50.3026 71.2924 50.5289 71.2682C50.9399 71.1902 51.5159 71.1062 52.1549 71.0522C52.7939 70.9982 53.3729 70.9772 53.7929 70.9802C54.0199 70.9661 54.2478 70.9813 54.4709 71.0252Z" fill="#263238"/>
<path d="M53.376 70.017C53.129 70.0801 52.8716 70.0913 52.62 70.05C52.3653 70.0598 52.1112 70.0179 51.873 69.927C52.3739 69.8531 52.8846 69.8837 53.373 70.017H53.376Z" fill="#263238"/>
<path d="M84.672 75.204C86.031 74.175 88.548 72.702 91.485 71.445C91.6086 71.3911 91.7431 71.3669 91.8777 71.3745C92.0123 71.382 92.1432 71.4211 92.26 71.4885C92.3767 71.5559 92.476 71.6498 92.5498 71.7626C92.6237 71.8754 92.67 72.004 92.685 72.138C92.808 73.23 92.964 73.938 93.147 75.312C93.363 73.671 93.447 73.212 93.612 71.559C93.638 71.2637 93.7498 70.9825 93.9338 70.7501C94.1177 70.5177 94.3656 70.3441 94.647 70.251C99.528 68.658 104.82 68.151 107.775 71.211C107.961 71.403 105.06 72.609 101.559 74.898C101.316 75.0573 101.021 75.1194 100.734 75.072C97.113 74.451 96.954 74.895 96.387 75.105C95.904 75.282 98.244 75.273 99.987 75.63C98.0547 77.1473 96.2807 78.8559 94.692 80.73C94.137 81.381 93.633 82.008 93.174 82.611C92.7326 82.818 92.2622 82.9566 91.779 83.022C90.9214 83.1011 90.0602 83.1351 89.199 83.124C89.07 83.124 88.899 83.154 88.872 83.274C88.812 83.448 89.046 83.574 89.229 83.601L90.87 83.901C90.9983 83.9252 91.1185 83.9809 91.2199 84.0632C91.3212 84.1454 91.4005 84.2517 91.4505 84.3722C91.5005 84.4928 91.5197 84.6239 91.5063 84.7538C91.493 84.8836 91.4475 85.0081 91.374 85.116C88.563 89.259 87.474 91.686 83.091 91.416C83.091 91.416 80.22 91.518 79.23 87.957C78.24 84.396 80.724 78.18 84.672 75.204Z" fill="#455A64"/>
<path d="M75.1499 114.3C75.1499 114.3 75.1499 114.249 75.1499 114.147C75.1499 114.045 75.1709 113.889 75.1889 113.694C75.2279 113.298 75.2879 112.713 75.3749 111.96C75.5489 110.46 75.8249 108.282 76.2599 105.606C76.7529 102.475 77.4037 99.3712 78.2099 96.306C78.6912 94.4916 79.31 92.7165 80.0609 90.996C80.8912 89.1585 81.8852 87.3994 83.0309 85.74C83.6129 84.885 84.1889 84.042 84.8039 83.241C85.4066 82.4514 86.0484 81.6925 86.7269 80.967C88.0145 79.5901 89.4099 78.318 90.8999 77.163C92.2296 76.1169 93.6332 75.1684 95.0999 74.325C96.4011 73.6164 97.7661 73.0318 99.1769 72.579C101.221 71.9419 103.314 71.4734 105.435 71.178C106.185 71.067 106.77 70.992 107.166 70.947L107.616 70.896C107.667 70.8934 107.718 70.8934 107.769 70.896L107.619 70.923L107.169 70.989C106.773 71.046 106.191 71.13 105.444 71.25C103.333 71.5699 101.249 72.0533 99.2129 72.696C97.8113 73.154 96.4555 73.7416 95.1629 74.451C93.6968 75.2952 92.2931 76.2437 90.9629 77.289C89.4915 78.4418 88.1123 79.7076 86.8379 81.075C86.1749 81.786 85.5389 82.545 84.9269 83.34C84.3149 84.135 83.7269 84.981 83.1629 85.833C82.0213 87.4843 81.0293 89.2343 80.1989 91.062C79.4513 92.7755 78.8326 94.5424 78.3479 96.348C77.4089 99.801 76.8269 102.975 76.3679 105.648C75.9089 108.321 75.6269 110.49 75.4349 111.993C75.3419 112.737 75.2699 113.319 75.2189 113.721C75.1979 113.916 75.1769 114.066 75.1649 114.171C75.1617 114.214 75.1567 114.257 75.1499 114.3Z" fill="#263238"/>
<path d="M86.9129 87.4559C86.6633 87.5122 86.4094 87.5463 86.1539 87.5579C85.6859 87.6089 85.0409 87.6809 84.3299 87.7859C83.6189 87.8909 82.9769 88.0019 82.5149 88.0859C82.2657 88.1462 82.0117 88.1843 81.7559 88.1999C81.9914 88.0976 82.2381 88.0231 82.4909 87.9779C82.9499 87.8639 83.5919 87.7319 84.2909 87.6299C84.9899 87.5279 85.6589 87.4709 86.1299 87.4499C86.3901 87.4198 86.6531 87.4218 86.9129 87.4559Z" fill="#263238"/>
<path d="M87.9509 86.172C87.6795 86.2083 87.4056 86.2233 87.1319 86.217C86.6249 86.238 85.9319 86.277 85.1609 86.364C84.3899 86.451 83.7059 86.577 83.2109 86.664C82.9448 86.732 82.6741 86.7801 82.4009 86.808C82.6516 86.6922 82.9156 86.6076 83.1869 86.556C83.8305 86.3958 84.4839 86.2776 85.1429 86.202C85.8018 86.1236 86.4653 86.0895 87.1289 86.1C87.4048 86.0914 87.6807 86.1155 87.9509 86.172Z" fill="#263238"/>
<path d="M81.5518 80.1001C81.5938 80.1001 81.9058 81.5071 82.2478 83.2561C82.5898 85.0051 82.8478 86.4331 82.7938 86.4421C82.5075 85.4026 82.2742 84.3493 82.0948 83.2861C81.7528 81.5401 81.5098 80.1001 81.5518 80.1001Z" fill="#263238"/>
<path d="M84.3959 76.3501C84.4199 76.3501 84.3449 76.7581 84.2669 77.4181C84.0625 79.1386 84.1273 80.8805 84.4589 82.5811C84.5849 83.2351 84.6899 83.6341 84.6659 83.6401C84.6171 83.5561 84.5817 83.465 84.5609 83.3701C84.5009 83.1901 84.4289 82.9291 84.3509 82.6051C83.9555 80.8992 83.8903 79.1335 84.1589 77.4031C84.2099 77.0731 84.2639 76.8031 84.3089 76.6261C84.3232 76.5301 84.3525 76.4369 84.3959 76.3501Z" fill="#263238"/>
<path d="M92.85 80.8618C92.5208 80.9057 92.1891 80.9278 91.857 80.9278C91.257 80.9608 90.402 81.0178 89.472 81.1258C88.542 81.2338 87.708 81.3718 87.105 81.4828C86.7814 81.5556 86.4539 81.6096 86.124 81.6448C86.2025 81.6013 86.2877 81.5709 86.376 81.5548C86.544 81.5038 86.784 81.4438 87.084 81.3748C87.8659 81.1958 88.6571 81.0606 89.454 80.9698C90.2508 80.877 91.0519 80.827 91.854 80.8198C92.154 80.8198 92.412 80.8198 92.583 80.8198C92.6735 80.8214 92.7634 80.8356 92.85 80.8618Z" fill="#263238"/>
<path d="M94.6261 78.8998C94.3239 78.8737 94.0234 78.8307 93.7261 78.7708C92.3029 78.5646 90.8554 78.595 89.4421 78.8608C89.151 78.9297 88.8566 78.9838 88.5601 79.0228C88.8339 78.8979 89.1221 78.8073 89.4181 78.7528C90.8377 78.4191 92.3118 78.3885 93.7441 78.6628C94.0466 78.7054 94.3429 78.785 94.6261 78.8998Z" fill="#263238"/>
<path d="M94.4818 77.3668C94.1449 77.3996 93.8049 77.3804 93.4738 77.3098C93.1357 77.2911 92.8026 77.2192 92.4868 77.0968C92.8238 77.066 93.1635 77.0852 93.4948 77.1538C93.8327 77.1742 94.1656 77.246 94.4818 77.3668Z" fill="#263238"/>
<path d="M89.4689 73.0318C89.4097 74.058 89.2965 75.0804 89.1299 76.0948C88.8959 77.7778 88.6739 79.1398 88.6319 79.1338C88.5899 79.1278 88.7429 77.7568 88.9739 76.0738C89.2049 74.3908 89.4269 73.0258 89.4689 73.0318Z" fill="#263238"/>
<path d="M86.2529 77.019C86.3922 77.7259 86.4815 78.4416 86.5199 79.161C86.6086 79.8765 86.6467 80.5973 86.6339 81.318C86.4906 80.6118 86.4003 79.8958 86.3639 79.176C86.2752 78.4606 86.2381 77.7398 86.2529 77.019Z" fill="#263238"/>
<path d="M97.5569 70.23C97.5719 70.251 97.3859 70.41 97.1639 70.725C96.8806 71.146 96.6527 71.6017 96.4859 72.081C96.2819 72.642 96.1079 73.161 95.9369 73.521C95.8609 73.7226 95.7502 73.9095 95.6099 74.073C95.6705 73.8679 95.7457 73.6674 95.8349 73.473C95.9789 73.11 96.1349 72.591 96.3389 72.024C96.508 71.5311 96.7562 71.0691 97.0739 70.656C97.1994 70.4783 97.3648 70.3324 97.5569 70.23Z" fill="#263238"/>
<path d="M98.2799 71.5527C98.2218 71.8623 98.1134 72.1603 97.9589 72.4347C97.8492 72.7311 97.6922 73.0077 97.4939 73.2537C97.5519 72.9442 97.6604 72.6462 97.8149 72.3717C97.9246 72.0754 98.0816 71.7988 98.2799 71.5527Z" fill="#263238"/>
<path d="M102.201 72.8462C101.739 72.8766 101.275 72.8555 100.818 72.7832C100.355 72.7633 99.8963 72.6908 99.45 72.5672C100.375 72.5538 101.298 72.6475 102.201 72.8462Z" fill="#263238"/>
<path d="M66.246 94.3021L65.073 96.1891L65.277 93.3841C65.277 93.3841 63.138 90.9391 56.82 91.5001C56.82 91.5001 54.681 91.4491 53.457 92.1001C52.233 92.7511 52.839 93.5761 52.839 93.5761C61.167 96.9871 67.716 101.127 71.595 106.365C72.4455 105.387 73.1323 104.278 73.629 103.08C74.343 101.259 72.87 96.0871 66.246 94.3021Z" fill="#455A64"/>
<path d="M62.505 93.6719C62.5956 93.8901 62.6532 94.1207 62.676 94.3559C62.7666 94.9162 62.8067 95.4834 62.796 96.0509C62.7847 96.6176 62.7204 97.1821 62.604 97.7369C62.5674 97.9663 62.4987 98.1895 62.4 98.3999C62.352 98.3999 62.61 97.3469 62.634 96.0329C62.658 94.7189 62.457 93.6809 62.505 93.6719Z" fill="#263238"/>
<path d="M60.069 93.6777C60.6614 94.8232 60.9183 96.1127 60.81 97.3977C60.762 97.3977 60.756 96.5427 60.549 95.5167C60.342 94.4907 60.024 93.6957 60.069 93.6777Z" fill="#263238"/>
<path d="M64.071 96.6001C64.1194 97.0027 64.0858 97.4109 63.972 97.8001C63.905 98.2027 63.7548 98.5868 63.531 98.9281C63.6113 98.5353 63.7115 98.1468 63.831 97.7641C63.8903 97.3721 63.9705 96.9836 64.071 96.6001Z" fill="#263238"/>
<path d="M68.7 96.7949C68.6275 97.0141 68.5267 97.2229 68.4 97.4159C68.116 97.8984 67.8045 98.3642 67.467 98.8109C67.1327 99.2599 66.7721 99.6886 66.387 100.095C66.2367 100.274 66.0643 100.433 65.874 100.569C65.9991 100.374 66.1428 100.191 66.303 100.023C66.579 99.6959 66.951 99.2399 67.344 98.7179C67.737 98.1959 68.067 97.7129 68.304 97.3589C68.4188 97.1594 68.5513 96.9706 68.7 96.7949Z" fill="#263238"/>
<path d="M70.7999 98.604C70.6555 98.793 70.4882 98.9633 70.3019 99.111C69.9779 99.411 69.5129 99.801 68.9789 100.206C68.4449 100.611 67.9409 100.95 67.5659 101.181C67.372 101.319 67.1626 101.434 66.9419 101.523C67.1136 101.359 67.3027 101.214 67.5059 101.091C67.8599 100.836 68.3519 100.491 68.8829 100.08C69.4139 99.669 69.8879 99.303 70.2299 99.027C70.4047 98.8666 70.5957 98.7249 70.7999 98.604Z" fill="#263238"/>
<path d="M71.277 100.992C70.8209 101.343 70.3154 101.624 69.777 101.826C69.2615 102.077 68.7114 102.248 68.145 102.336C68.13 102.291 68.856 102.054 69.714 101.682C70.572 101.31 71.253 100.953 71.277 100.992Z" fill="#263238"/>
<path d="M71.7778 47.9998C71.8138 48.0238 70.9498 49.5718 69.8428 51.4618C68.7358 53.3518 67.8088 54.8668 67.7728 54.8458C67.7368 54.8248 68.6008 53.2738 69.7078 51.3838C70.8148 49.4938 71.7418 47.9758 71.7778 47.9998Z" fill="#263238"/>
<path d="M73.1999 45.4528C73.2329 45.4798 73.0289 45.7528 72.7439 46.0738C72.4589 46.3948 72.2039 46.6228 72.1709 46.5928C72.283 46.3584 72.4376 46.1468 72.6269 45.9688C72.9149 45.6538 73.1699 45.4228 73.1999 45.4528Z" fill="#263238"/>
<path d="M73.077 41.4448C73.0003 41.5735 72.9108 41.6941 72.81 41.8048L72.054 42.7588C71.415 43.5628 70.554 44.6938 69.675 45.9868C68.796 47.2798 68.046 48.4918 67.524 49.3768C67.278 49.8028 67.071 50.1538 66.924 50.4268C66.8553 50.5599 66.776 50.6873 66.687 50.8078C66.736 50.6668 66.7973 50.5303 66.87 50.3998C66.999 50.1418 67.194 49.7728 67.443 49.3228C67.938 48.4228 68.67 47.1988 69.543 45.8998C70.416 44.6008 71.304 43.4788 71.964 42.6868C72.294 42.2938 72.564 41.9788 72.762 41.7658C72.8568 41.6493 72.9623 41.5418 73.077 41.4448Z" fill="#263238"/>
<path d="M64.29 45.1351C64.1491 45.1218 64.0096 45.0967 63.873 45.0601L62.751 44.8201C61.8 44.6191 60.483 44.3671 59.016 44.1571C57.549 43.9471 56.214 43.8181 55.248 43.7431L54.099 43.6591C53.9577 43.6571 53.817 43.641 53.679 43.6111C53.8197 43.5984 53.9612 43.5984 54.102 43.6111C54.375 43.6111 54.768 43.6111 55.254 43.6441C56.226 43.6921 57.567 43.8031 59.04 44.0131C60.513 44.2231 61.827 44.4961 62.775 44.7241C63.246 44.8381 63.627 44.9371 63.888 45.0241C64.0254 45.0474 64.1601 45.0845 64.29 45.1351Z" fill="#263238"/>
<path d="M68.7929 36.4951C68.7415 36.6076 68.6781 36.7142 68.6039 36.8131L68.0549 37.6531C67.5989 38.3671 66.9929 39.3691 66.3989 40.5181C65.8049 41.6671 65.3339 42.7381 65.0159 43.5181C64.8689 43.8871 64.7429 44.1991 64.6439 44.4511C64.6049 44.5687 64.5547 44.6822 64.4939 44.7901C64.5105 44.6669 64.5417 44.546 64.5869 44.4301C64.6559 44.2021 64.7639 43.8781 64.9139 43.4791C65.2983 42.4392 65.7472 41.4242 66.2579 40.4401C66.7684 39.4553 67.3385 38.5026 67.9649 37.5871C68.2049 37.2361 68.4059 36.9571 68.5649 36.7711C68.6307 36.6711 68.7071 36.5786 68.7929 36.4951Z" fill="#263238"/>
<path d="M66.7738 32.8799C66.7165 32.9975 66.6461 33.1082 66.5638 33.2099C66.4168 33.4169 66.2128 33.7199 65.9638 34.1099C65.324 35.0903 64.7527 36.1138 64.2538 37.1729C63.7601 38.2292 63.341 39.3189 62.9998 40.4339C62.8678 40.8659 62.7688 41.2139 62.6998 41.4599C62.6742 41.5881 62.634 41.7129 62.5798 41.8319C62.5876 41.7013 62.6077 41.5717 62.6398 41.4449C62.6878 41.1959 62.7718 40.8449 62.8888 40.4039C63.5198 38.125 64.5343 35.9702 65.8888 34.0319C66.1468 33.6629 66.3658 33.3689 66.5278 33.1739C66.6002 33.0682 66.6825 32.9697 66.7738 32.8799Z" fill="#263238"/>
<path d="M64.0229 34.479C64.0649 34.506 63.7019 35.079 63.4229 35.835C63.1439 36.591 63.0119 37.263 62.9639 37.254C63.0132 36.2374 63.39 35.264 64.0379 34.479H64.0229Z" fill="#263238"/>
<path d="M52.8989 34.4308C52.9984 34.4157 53.0995 34.4157 53.1989 34.4308C53.3879 34.4308 53.6609 34.4488 53.9969 34.4818C54.8731 34.5639 55.7417 34.7134 56.5949 34.9288C57.4489 35.144 58.2853 35.4238 59.0969 35.7658C59.3969 35.8978 59.6549 36.0148 59.8229 36.1018C59.9132 36.139 59.998 36.1885 60.0749 36.2488C60.0749 36.2728 59.6849 36.1048 59.0549 35.8678C58.2384 35.559 57.4051 35.2965 56.5589 35.0818C55.7112 34.868 54.8517 34.7037 53.9849 34.5898C53.3129 34.4998 52.8989 34.4548 52.8989 34.4308Z" fill="#263238"/>
<path d="M54.9299 33.3001C55.1568 33.2753 55.386 33.2824 55.6109 33.3211C56.1552 33.383 56.6926 33.4955 57.2159 33.6571C57.741 33.8166 58.2494 34.0266 58.7339 34.2841C58.9421 34.3769 59.1352 34.5003 59.3069 34.6501C59.2829 34.6921 58.3859 34.1761 57.1709 33.8071C55.9559 33.4381 54.9269 33.3421 54.9299 33.3001Z" fill="#263238"/>
<path d="M59.754 27.5669C59.7146 27.8311 59.6514 28.0911 59.565 28.3439C59.436 28.8209 59.265 29.4809 59.121 30.2189C58.977 30.9569 58.872 31.6289 58.821 32.1179C58.8018 32.384 58.7596 32.648 58.695 32.9069C58.6677 32.6403 58.6728 32.3713 58.71 32.1059C58.8177 30.8166 59.0744 29.5441 59.475 28.3139C59.5406 28.0555 59.6342 27.805 59.754 27.5669Z" fill="#263238"/>
<path d="M56.6218 39.9238C56.9246 39.9277 57.2263 39.9628 57.5218 40.0288C58.242 40.1576 58.9549 40.3239 59.6578 40.5268C60.3603 40.7316 61.0513 40.974 61.7278 41.2528C62.0138 41.3548 62.2883 41.4865 62.5468 41.6458C62.2542 41.5659 61.9675 41.4657 61.6888 41.3458C61.1608 41.1568 60.4318 40.9078 59.6128 40.6678C58.7938 40.4278 58.0438 40.2508 57.4978 40.1308C57.2015 40.0814 56.9089 40.0123 56.6218 39.9238Z" fill="#263238"/>
<path d="M56.7 49.9439C56.8244 49.919 56.951 49.9069 57.0779 49.9079C57.3209 49.8899 57.678 49.8809 58.11 49.8839C59.2457 49.8928 60.3795 49.981 61.5029 50.1479C62.6176 50.3204 63.7192 50.569 64.8 50.8919C65.217 51.0179 65.5499 51.1319 65.778 51.2189C65.8997 51.2528 66.0167 51.3022 66.126 51.3659C66.0015 51.3471 65.8789 51.317 65.76 51.2759C65.526 51.2069 65.1869 51.1109 64.7699 50.9999C63.6789 50.7057 62.5722 50.4733 61.455 50.3039C60.3374 50.1416 59.2116 50.0414 58.083 50.0039C57.648 49.9889 57.2969 49.9799 57.0539 49.9769C56.9351 49.9779 56.8165 49.9668 56.7 49.9439Z" fill="#263238"/>
<path d="M60 53.7568C60.0987 53.7372 60.1994 53.7291 60.3 53.7328C60.492 53.7328 60.774 53.7328 61.122 53.7328C62.0252 53.7601 62.9264 53.8342 63.822 53.9548C64.7213 54.075 65.6136 54.2433 66.495 54.4588C66.831 54.5428 67.095 54.6178 67.29 54.6748C67.3896 54.6956 67.4857 54.731 67.575 54.7798C67.575 54.8008 67.149 54.7048 66.468 54.5668C65.787 54.4288 64.848 54.2668 63.801 54.1078C62.754 53.9488 61.797 53.8888 61.101 53.8438C60.7327 53.8347 60.3652 53.8057 60 53.7568Z" fill="#263238"/>
<path d="M61.1489 55.6047C61.3612 55.5625 61.5788 55.5534 61.7939 55.5777C62.3127 55.5971 62.8292 55.6563 63.3389 55.7547C63.8484 55.8545 64.3498 55.9918 64.8389 56.1657C65.0517 56.2227 65.2542 56.3128 65.4389 56.4327C65.4239 56.4777 64.5059 56.1327 63.3239 55.9077C62.1419 55.6827 61.1489 55.6527 61.1489 55.6047Z" fill="#263238"/>
<path d="M59.616 59.0698C59.7759 59.0723 59.9354 59.0874 60.093 59.1148C60.393 59.1508 60.837 59.2228 61.377 59.3278C64.1944 59.8849 66.902 60.8982 69.393 62.3278C69.87 62.6038 70.248 62.8378 70.503 63.0118C70.6398 63.0934 70.7693 63.1868 70.89 63.2908C70.7435 63.2275 70.6029 63.1512 70.47 63.0628C70.206 62.9068 69.822 62.6878 69.339 62.4238C66.8315 61.0528 64.1429 60.0429 61.353 59.4238C60.819 59.3068 60.384 59.2168 60.084 59.1628C59.9255 59.146 59.7688 59.1149 59.616 59.0698Z" fill="#263238"/>
<path d="M96.156 112.83H54.729V119.208H96.156V112.83Z" fill="#6C4EFF"/>
<path d="M58.3679 119.208L62.7749 141.729H88.6199L92.5169 119.208H58.3679Z" fill="#6C4EFF"/>
<path opacity="0.3" d="M58.3679 119.208L58.7279 121.041H92.1989L92.5169 119.208H58.3679Z" fill="black"/>
<path d="M75.498 29.9668L68.364 21.4678C71.3481 24.0509 73.9065 27.0881 75.945 30.4678" fill="#263238"/>
<path d="M78.8009 22.4277C78.1495 24.1872 78.0604 26.1055 78.5459 27.9177L78.9869 31.3407C79.7781 28.413 79.7136 25.3199 78.8009 22.4277Z" fill="#6C4EFF"/>
<g opacity="0.3">
<path d="M78.8009 22.4277C78.1495 24.1872 78.0604 26.1055 78.5459 27.9177L78.9869 31.3407C79.7781 28.413 79.7136 25.3199 78.8009 22.4277Z" fill="black"/>
</g>
<path d="M69.5068 23.6997C70.1068 24.7947 70.9528 25.6767 71.7988 26.5947C72.6448 27.5127 73.6228 28.1607 74.5168 28.9647C76.1818 30.4647 77.4178 32.3667 78.6328 34.2477L78.1528 34.5027C77.8288 33.4737 76.8928 32.7597 75.9508 32.2317C75.0088 31.7037 73.9798 31.2717 73.2208 30.5007C72.6564 29.8665 72.1948 29.1478 71.8528 28.3707L69.5068 23.6997Z" fill="#6C4EFF"/>
<g opacity="0.3">
<path d="M69.5068 23.6997C70.1068 24.7947 70.9528 25.6767 71.7988 26.5947C72.6448 27.5127 73.6228 28.1607 74.5168 28.9647C76.1818 30.4647 77.4178 32.3667 78.6328 34.2477L78.1528 34.5027C77.8288 33.4737 76.8928 32.7597 75.9508 32.2317C75.0088 31.7037 73.9798 31.2717 73.2208 30.5007C72.6564 29.8665 72.1948 29.1478 71.8528 28.3707L69.5068 23.6997Z" fill="black"/>
</g>
<path d="M78.831 34.1608C78.831 33.2098 78.114 32.4358 77.559 31.6618C76.6311 30.3016 75.9788 28.7728 75.639 27.1618C75.3025 25.5516 75.072 23.9211 74.949 22.2808L78.147 26.6698C78.669 27.3898 79.206 28.1518 79.308 29.0338C79.401 29.8708 79.086 30.6958 78.936 31.5238C78.786 32.3518 78.867 33.3238 79.536 33.8518" fill="#6C4EFF"/>
<path opacity="0.3" d="M75.561 26.8052C75.561 26.8052 77.205 28.0322 77.769 29.0462C78.333 30.0602 79.131 33.9362 79.131 33.9362L78.831 34.1612C78.76 33.6732 78.6025 33.2019 78.366 32.7692C78.01 32.2196 77.5879 31.7158 77.109 31.2692C76.5 30.8342 75.861 28.2002 75.741 27.5702C75.7018 27.3107 75.6416 27.0549 75.561 26.8052Z" fill="black"/>
<path d="M77.616 31.0739C77.403 30.4559 77.223 29.8229 77.016 29.2019C76.7343 28.3499 76.2286 27.5894 75.552 26.9999C75.213 26.6999 74.862 26.4239 74.514 26.1449L71.115 23.3999C71.251 23.8126 71.4195 24.2139 71.619 24.5999L73.815 29.0819C74.205 29.8829 74.619 30.7109 75.315 31.2749C75.915 31.7699 76.686 32.0189 77.355 32.4239C78.024 32.8289 78.636 33.5039 78.588 34.2839L79.215 33.9479C78.4759 33.12 77.9298 32.1384 77.616 31.0739Z" fill="#6C4EFF"/>
<path d="M78.825 34.3589C80.583 30.1019 80.6729 25.3589 81.8399 20.8979C82.1399 21.3509 81.93 21.9509 81.768 22.4729C81.255 24.1289 81.4349 25.9109 81.2219 27.6299C80.9219 29.9969 79.9019 32.2019 78.8879 34.3619" fill="#263238"/>
<path d="M78.8489 34.1192C78.3386 33.4405 77.653 32.9136 76.8659 32.5952C76.2329 32.41 75.5782 32.3091 74.9189 32.2952C72.9506 32.1717 70.9762 32.1787 69.0089 32.3162C68.9771 32.3146 68.9453 32.3199 68.9158 32.3318C68.8862 32.3437 68.8596 32.3619 68.8379 32.3852C68.7749 32.4752 68.8769 32.5862 68.9669 32.6462C70.1722 33.4567 71.5856 33.9025 73.0379 33.9302C74.0429 33.9482 75.0359 33.7652 76.0379 33.7082C77.0399 33.6512 78.0899 33.7292 78.9629 34.2242L78.8489 34.1192Z" fill="#6C4EFF"/>
<path d="M80.5919 31.968C79.1724 33.0056 77.9918 34.3355 77.1299 35.868C76.0709 37.884 75.9299 41.934 75.7139 44.202C76.3529 41.82 77.1089 39.426 78.5039 37.392C80.4959 34.488 83.7119 32.424 85.0529 29.166C83.5008 29.9921 82.0099 30.9285 80.5919 31.968Z" fill="#455A64"/>
<path d="M75.6418 24.2998C75.7207 24.3733 75.7893 24.457 75.8458 24.5488C75.9718 24.7138 76.1458 24.9538 76.3618 25.2568C76.5778 25.5598 76.8148 25.9258 77.1238 26.2978C77.4328 26.6698 77.8018 27.0628 78.1468 27.5158C78.4843 27.941 78.7304 28.4312 78.8698 28.9558C78.9537 29.3903 78.9404 29.838 78.8308 30.2668C78.7558 30.6028 78.6898 30.8878 78.6388 31.1218C78.621 31.2244 78.5928 31.3249 78.5548 31.4218C78.5455 31.3132 78.5536 31.2038 78.5788 31.0978C78.6028 30.8938 78.6598 30.5968 78.7228 30.2368C78.812 29.8215 78.812 29.3921 78.7228 28.9768C78.5813 28.4757 78.3417 28.0076 78.0178 27.5998C77.6788 27.1558 77.3098 26.7628 77.0068 26.3758C76.7038 25.9888 76.4698 25.6108 76.2628 25.3048C76.0558 24.9988 75.8998 24.7678 75.7978 24.5998C75.7319 24.5077 75.6794 24.4067 75.6418 24.2998Z" fill="#263238"/>
<path d="M96.2998 119.208C96.2998 119.25 86.9758 119.286 75.4768 119.286C63.9778 119.286 54.6538 119.25 54.6538 119.208C54.6538 119.166 63.9748 119.13 75.4768 119.13C86.9788 119.13 96.2998 119.163 96.2998 119.208Z" fill="#263238"/>
</svg>
