<svg width="16" height="16" viewBox="0 0 16 16" fill="none" xmlns="http://www.w3.org/2000/svg">
<path d="M6.53025 2.46937L11.5302 7.46937C11.6002 7.53905 11.6556 7.62184 11.6935 7.71301C11.7314 7.80417 11.7508 7.90191 11.7508 8.00062C11.7508 8.09933 11.7314 8.19707 11.6935 8.28824C11.6556 8.3794 11.6002 8.46219 11.5302 8.53187L6.53025 13.5319C6.38935 13.6728 6.19825 13.7519 5.999 13.7519C5.79974 13.7519 5.60864 13.6728 5.46775 13.5319C5.32685 13.391 5.2477 13.1999 5.2477 13.0006C5.2477 12.8014 5.32685 12.6103 5.46775 12.4694L9.93712 8L5.46712 3.53062C5.32622 3.38973 5.24707 3.19863 5.24707 2.99937C5.24707 2.80011 5.32622 2.60902 5.46712 2.46812C5.60802 2.32723 5.79911 2.24807 5.99837 2.24807C6.19763 2.24807 6.38872 2.32723 6.52962 2.46812L6.53025 2.46937Z" fill="#71717A" style="fill:#71717A;fill:color(display-p3 0.4431 0.4431 0.4784);fill-opacity:1;"/>
</svg>
