<svg width="20" height="20" viewBox="0 0 20 20" fill="none" xmlns="http://www.w3.org/2000/svg">
<path d="M15.8333 3.33341H14.1667V2.50008C14.1667 2.27907 14.0789 2.06711 13.9226 1.91083C13.7663 1.75455 13.5544 1.66675 13.3333 1.66675C13.1123 1.66675 12.9004 1.75455 12.7441 1.91083C12.5878 2.06711 12.5 2.27907 12.5 2.50008V3.33341H7.5V2.50008C7.5 2.27907 7.41221 2.06711 7.25593 1.91083C7.09965 1.75455 6.88769 1.66675 6.66667 1.66675C6.44566 1.66675 6.2337 1.75455 6.07742 1.91083C5.92114 2.06711 5.83334 2.27907 5.83334 2.50008V3.33341H4.16667C3.50363 3.33341 2.86775 3.59681 2.3989 4.06565C1.93006 4.53449 1.66667 5.17037 1.66667 5.83341V15.8334C1.66667 16.4965 1.93006 17.1323 2.3989 17.6012C2.86775 18.07 3.50363 18.3334 4.16667 18.3334H15.8333C16.4964 18.3334 17.1323 18.07 17.6011 17.6012C18.0699 17.1323 18.3333 16.4965 18.3333 15.8334V5.83341C18.3333 5.17037 18.0699 4.53449 17.6011 4.06565C17.1323 3.59681 16.4964 3.33341 15.8333 3.33341ZM16.6667 15.8334C16.6667 16.0544 16.5789 16.2664 16.4226 16.4227C16.2663 16.579 16.0544 16.6667 15.8333 16.6667H4.16667C3.94566 16.6667 3.7337 16.579 3.57742 16.4227C3.42114 16.2664 3.33334 16.0544 3.33334 15.8334V10.0001H16.6667V15.8334ZM16.6667 8.33341H3.33334V5.83341C3.33334 5.6124 3.42114 5.40044 3.57742 5.24416C3.7337 5.08788 3.94566 5.00008 4.16667 5.00008H5.83334V5.83341C5.83334 6.05443 5.92114 6.26639 6.07742 6.42267C6.2337 6.57895 6.44566 6.66675 6.66667 6.66675C6.88769 6.66675 7.09965 6.57895 7.25593 6.42267C7.41221 6.26639 7.5 6.05443 7.5 5.83341V5.00008H12.5V5.83341C12.5 6.05443 12.5878 6.26639 12.7441 6.42267C12.9004 6.57895 13.1123 6.66675 13.3333 6.66675C13.5544 6.66675 13.7663 6.57895 13.9226 6.42267C14.0789 6.26639 14.1667 6.05443 14.1667 5.83341V5.00008H15.8333C16.0544 5.00008 16.2663 5.08788 16.4226 5.24416C16.5789 5.40044 16.6667 5.6124 16.6667 5.83341V8.33341Z" fill="white"/>
</svg>
