<svg width="32" height="33" viewBox="0 0 32 33" fill="none" xmlns="http://www.w3.org/2000/svg">
<path d="M27 6.5H22V5.5C22 4.70435 21.6839 3.94129 21.1213 3.37868C20.5587 2.81607 19.7956 2.5 19 2.5H13C12.2044 2.5 11.4413 2.81607 10.8787 3.37868C10.3161 3.94129 10 4.70435 10 5.5V6.5H5C4.73478 6.5 4.48043 6.60536 4.29289 6.79289C4.10536 6.98043 4 7.23478 4 7.5C4 7.76522 4.10536 8.01957 4.29289 8.20711C4.48043 8.39464 4.73478 8.5 5 8.5H6V26.5C6 27.0304 6.21071 27.5391 6.58579 27.9142C6.96086 28.2893 7.46957 28.5 8 28.5H24C24.5304 28.5 25.0391 28.2893 25.4142 27.9142C25.7893 27.5391 26 27.0304 26 26.5V8.5H27C27.2652 8.5 27.5196 8.39464 27.7071 8.20711C27.8946 8.01957 28 7.76522 28 7.5C28 7.23478 27.8946 6.98043 27.7071 6.79289C27.5196 6.60536 27.2652 6.5 27 6.5ZM12 5.5C12 5.23478 12.1054 4.98043 12.2929 4.79289C12.4804 4.60536 12.7348 4.5 13 4.5H19C19.2652 4.5 19.5196 4.60536 19.7071 4.79289C19.8946 4.98043 20 5.23478 20 5.5V6.5H12V5.5ZM24 26.5H8V8.5H24V26.5ZM14 13.5V21.5C14 21.7652 13.8946 22.0196 13.7071 22.2071C13.5196 22.3946 13.2652 22.5 13 22.5C12.7348 22.5 12.4804 22.3946 12.2929 22.2071C12.1054 22.0196 12 21.7652 12 21.5V13.5C12 13.2348 12.1054 12.9804 12.2929 12.7929C12.4804 12.6054 12.7348 12.5 13 12.5C13.2652 12.5 13.5196 12.6054 13.7071 12.7929C13.8946 12.9804 14 13.2348 14 13.5ZM20 13.5V21.5C20 21.7652 19.8946 22.0196 19.7071 22.2071C19.5196 22.3946 19.2652 22.5 19 22.5C18.7348 22.5 18.4804 22.3946 18.2929 22.2071C18.1054 22.0196 18 21.7652 18 21.5V13.5C18 13.2348 18.1054 12.9804 18.2929 12.7929C18.4804 12.6054 18.7348 12.5 19 12.5C19.2652 12.5 19.5196 12.6054 19.7071 12.7929C19.8946 12.9804 20 13.2348 20 13.5Z" fill="white" style="fill:white;fill-opacity:1;"/>
</svg>
