<svg width="16" height="16" viewBox="0 0 16 16" fill="none" xmlns="http://www.w3.org/2000/svg">
<path d="M14.3838 4.40881L11.5913 1.61569C11.4752 1.49956 11.3374 1.40744 11.1857 1.34459C11.034 1.28174 10.8714 1.24939 10.7072 1.24939C10.543 1.24939 10.3804 1.28174 10.2287 1.34459C10.077 1.40744 9.93921 1.49956 9.82313 1.61569L2.11626 9.32318C1.99976 9.43892 1.90739 9.57664 1.84452 9.72834C1.78165 9.88004 1.74953 10.0427 1.75001 10.2069V13.0001C1.75001 13.3316 1.8817 13.6495 2.11612 13.8839C2.35054 14.1184 2.66848 14.2501 3.00001 14.2501H5.79313C5.95734 14.2505 6.12001 14.2184 6.27171 14.1555C6.42341 14.0926 6.56112 14.0003 6.67688 13.8838L14.3838 6.17631C14.6181 5.9419 14.7497 5.62402 14.7497 5.29256C14.7497 4.9611 14.6181 4.64322 14.3838 4.40881ZM5.68751 12.7501H3.25001V10.3126L8.50001 5.06256L10.9375 7.50006L5.68751 12.7501ZM12 6.43756L9.56251 4.00006L10.7088 2.85381L13.1463 5.29131L12 6.43756Z" fill="black" style="fill:black;fill-opacity:1;"/>
</svg>
