<svg width="20" height="20" viewBox="0 0 20 20" fill="none" xmlns="http://www.w3.org/2000/svg">
<path d="M14.6933 4.00744C17.3183 6.5891 17.3183 10.7208 14.7283 13.2683L10.0025 17.9166L5.275 13.2683C4.66018 12.6675 4.17164 11.9499 3.8381 11.1577C3.50455 10.3655 3.33273 9.51453 3.33273 8.65494C3.33273 7.79534 3.50455 6.94442 3.8381 6.15218C4.17164 5.35993 4.66018 4.64235 5.275 4.0416L5.31 4.00744C6.56014 2.77449 8.2454 2.08325 10.0012 2.08325C11.7571 2.08325 13.4432 2.77449 14.6933 4.00744ZM14.6933 4.00744C14.6583 3.97244 14.6583 3.97244 14.6933 4.00744ZM11.6667 7.9166C11.6667 8.35863 11.4911 8.78255 11.1785 9.09511C10.866 9.40767 10.442 9.58327 10 9.58327C9.55797 9.58327 9.13405 9.40767 8.82149 9.09511C8.50893 8.78255 8.33333 8.35863 8.33333 7.9166C8.33333 7.47458 8.50893 7.05065 8.82149 6.73809C9.13405 6.42553 9.55797 6.24994 10 6.24994C10.442 6.24994 10.866 6.42553 11.1785 6.73809C11.4911 7.05065 11.6667 7.47458 11.6667 7.9166Z" stroke="white" stroke-width="1.25" stroke-miterlimit="10" stroke-linecap="round" stroke-linejoin="round"/>
</svg>
