<svg width="20" height="20" viewBox="0 0 20 20" fill="none" xmlns="http://www.w3.org/2000/svg">
<path d="M10.625 5.83325C10.625 5.66749 10.5592 5.50852 10.4419 5.39131C10.3247 5.2741 10.1658 5.20825 10 5.20825C9.83424 5.20825 9.67527 5.2741 9.55806 5.39131C9.44085 5.50852 9.375 5.66749 9.375 5.83325V9.99992C9.37496 10.1059 9.40185 10.2101 9.45317 10.3028C9.50448 10.3955 9.57852 10.4737 9.66833 10.5299L12.1683 12.0924C12.3089 12.1804 12.4786 12.2089 12.6402 12.1717C12.7203 12.1533 12.7959 12.1193 12.8627 12.0717C12.9296 12.024 12.9864 11.9637 13.03 11.8941C13.0736 11.8245 13.103 11.747 13.1166 11.666C13.1302 11.585 13.1277 11.5022 13.1093 11.4222C13.0909 11.3422 13.0569 11.2666 13.0092 11.1997C12.9616 11.1328 12.9013 11.076 12.8317 11.0324L10.625 9.65325V5.83325Z" fill="white"/>
<path fill-rule="evenodd" clip-rule="evenodd" d="M9.99999 2.70825C8.06612 2.70825 6.21146 3.47648 4.84401 4.84393C3.47656 6.21138 2.70833 8.06605 2.70833 9.99992C2.70833 11.9338 3.47656 13.7885 4.84401 15.1559C6.21146 16.5234 8.06612 17.2916 9.99999 17.2916C11.9339 17.2916 13.7885 16.5234 15.156 15.1559C16.5234 13.7885 17.2917 11.9338 17.2917 9.99992C17.2917 8.06605 16.5234 6.21138 15.156 4.84393C13.7885 3.47648 11.9339 2.70825 9.99999 2.70825ZM3.95833 9.99992C3.95833 9.20652 4.1146 8.42088 4.41822 7.68787C4.72184 6.95486 5.16687 6.28884 5.72789 5.72781C6.28891 5.16679 6.95494 4.72177 7.68795 4.41815C8.42096 4.11452 9.20659 3.95825 9.99999 3.95825C10.7934 3.95825 11.579 4.11452 12.312 4.41815C13.045 4.72177 13.7111 5.16679 14.2721 5.72781C14.8331 6.28884 15.2781 6.95486 15.5818 7.68787C15.8854 8.42088 16.0417 9.20652 16.0417 9.99992C16.0417 11.6023 15.4051 13.139 14.2721 14.272C13.1391 15.4051 11.6023 16.0416 9.99999 16.0416C8.39764 16.0416 6.86092 15.4051 5.72789 14.272C4.59486 13.139 3.95833 11.6023 3.95833 9.99992Z" fill="white"/>
</svg>
