<svg width="17" height="17" viewBox="0 0 17 17" fill="none" xmlns="http://www.w3.org/2000/svg">
<path d="M13.5 2.25H12.25V2C12.25 1.80109 12.171 1.61032 12.0303 1.46967C11.8897 1.32902 11.6989 1.25 11.5 1.25C11.3011 1.25 11.1103 1.32902 10.9697 1.46967C10.829 1.61032 10.75 1.80109 10.75 2V2.25H6.25V2C6.25 1.80109 6.17098 1.61032 6.03033 1.46967C5.88968 1.32902 5.69891 1.25 5.5 1.25C5.30109 1.25 5.11032 1.32902 4.96967 1.46967C4.82902 1.61032 4.75 1.80109 4.75 2V2.25H3.5C3.16848 2.25 2.85054 2.3817 2.61612 2.61612C2.3817 2.85054 2.25 3.16848 2.25 3.5V13.5C2.25 13.8315 2.3817 14.1495 2.61612 14.3839C2.85054 14.6183 3.16848 14.75 3.5 14.75H13.5C13.8315 14.75 14.1495 14.6183 14.3839 14.3839C14.6183 14.1495 14.75 13.8315 14.75 13.5V3.5C14.75 3.16848 14.6183 2.85054 14.3839 2.61612C14.1495 2.3817 13.8315 2.25 13.5 2.25ZM13.25 13.25H3.75V3.75H4.75C4.75 3.94891 4.82902 4.13968 4.96967 4.28033C5.11032 4.42098 5.30109 4.5 5.5 4.5C5.69891 4.5 5.88968 4.42098 6.03033 4.28033C6.17098 4.13968 6.25 3.94891 6.25 3.75H10.75C10.75 3.94891 10.829 4.13968 10.9697 4.28033C11.1103 4.42098 11.3011 4.5 11.5 4.5C11.6989 4.5 11.8897 4.42098 12.0303 4.28033C12.171 4.13968 12.25 3.94891 12.25 3.75H13.25V13.25ZM10 5.75C9.44621 5.74957 8.91187 5.95417 8.5 6.32438C8.17635 6.03489 7.77585 5.84525 7.34681 5.77831C6.91778 5.71138 6.47854 5.77003 6.08209 5.94718C5.68564 6.12432 5.34893 6.4124 5.11256 6.77665C4.87619 7.14091 4.75028 7.56578 4.75 8C4.75 9.0625 5.34562 10.0975 6.52 11.0763C7.02846 11.4974 7.57959 11.8642 8.16437 12.1706C8.26857 12.2228 8.38348 12.2499 8.5 12.2499C8.61652 12.2499 8.73143 12.2228 8.83562 12.1706C9.42041 11.8642 9.97153 11.4974 10.48 11.0763C11.6544 10.0975 12.25 9.0625 12.25 8C12.25 7.40326 12.0129 6.83097 11.591 6.40901C11.169 5.98705 10.5967 5.75 10 5.75ZM8.5 10.6431C7.67812 10.1519 6.25 9.07687 6.25 8C6.25 7.80109 6.32902 7.61032 6.46967 7.46967C6.61032 7.32902 6.80109 7.25 7 7.25C7.19891 7.25 7.38968 7.32902 7.53033 7.46967C7.67098 7.61032 7.75 7.80109 7.75 8C7.75 8.19891 7.82902 8.38968 7.96967 8.53033C8.11032 8.67098 8.30109 8.75 8.5 8.75C8.69891 8.75 8.88968 8.67098 9.03033 8.53033C9.17098 8.38968 9.25 8.19891 9.25 8C9.25 7.80109 9.32902 7.61032 9.46967 7.46967C9.61032 7.32902 9.80109 7.25 10 7.25C10.1989 7.25 10.3897 7.32902 10.5303 7.46967C10.671 7.61032 10.75 7.80109 10.75 8C10.75 9.07687 9.32125 10.1525 8.5 10.6431Z" fill="#698D5F" style="fill:#698D5F;fill:color(display-p3 0.4118 0.5529 0.3725);fill-opacity:1;"/>
</svg>
