<svg width="17" height="17" viewBox="0 0 17 17" fill="none" xmlns="http://www.w3.org/2000/svg">
<g clip-path="url(#clip0_2149_765)">
<path d="M14.1917 1.63261H12.7259V1.33947C12.7259 1.10622 12.6333 0.882533 12.4683 0.717605C12.3034 0.552677 12.0797 0.460022 11.8465 0.460022C11.6132 0.460022 11.3895 0.552677 11.2246 0.717605C11.0597 0.882533 10.967 1.10622 10.967 1.33947V1.63261H5.69037V1.33947C5.69037 1.10622 5.59772 0.882533 5.43279 0.717605C5.26786 0.552677 5.04417 0.460022 4.81093 0.460022C4.57768 0.460022 4.35399 0.552677 4.18906 0.717605C4.02414 0.882533 3.93148 1.10622 3.93148 1.33947V1.63261H2.46574C2.077 1.63261 1.70419 1.78704 1.42931 2.06192C1.15443 2.3368 1 2.70962 1 3.09836V14.8243C1 15.213 1.15443 15.5858 1.42931 15.8607C1.70419 16.1356 2.077 16.29 2.46574 16.29H14.1917C14.5804 16.29 14.9532 16.1356 15.2281 15.8607C15.503 15.5858 15.6574 15.213 15.6574 14.8243V3.09836C15.6574 2.70962 15.503 2.3368 15.2281 2.06192C14.9532 1.78704 14.5804 1.63261 14.1917 1.63261ZM13.8985 14.5311H2.75889V3.3915H3.93148C3.93148 3.62475 4.02414 3.84844 4.18906 4.01336C4.35399 4.17829 4.57768 4.27095 4.81093 4.27095C5.04417 4.27095 5.26786 4.17829 5.43279 4.01336C5.59772 3.84844 5.69037 3.62475 5.69037 3.3915H10.967C10.967 3.62475 11.0597 3.84844 11.2246 4.01336C11.3895 4.17829 11.6132 4.27095 11.8465 4.27095C12.0797 4.27095 12.3034 4.17829 12.4683 4.01336C12.6333 3.84844 12.7259 3.62475 12.7259 3.3915H13.8985V14.5311ZM10.0876 5.73669C9.43822 5.73618 8.81166 5.9761 8.3287 6.4102C7.94919 6.07075 7.47957 5.84837 6.97648 5.76989C6.4734 5.69141 5.95835 5.76018 5.49348 5.9679C5.02861 6.17561 4.63378 6.51341 4.35662 6.94053C4.07945 7.36766 3.9318 7.86585 3.93148 8.37502C3.93148 9.6209 4.62991 10.8345 6.00697 11.9822C6.60319 12.476 7.24944 12.9061 7.93515 13.2655C8.05733 13.3266 8.19208 13.3584 8.3287 13.3584C8.46533 13.3584 8.60007 13.3266 8.72226 13.2655C9.40797 12.9061 10.0542 12.476 10.6504 11.9822C12.0275 10.8345 12.7259 9.6209 12.7259 8.37502C12.7259 7.67529 12.448 7.00422 11.9532 6.50944C11.4584 6.01466 10.7873 5.73669 10.0876 5.73669ZM8.3287 11.4743C7.36498 10.8983 5.69037 9.63776 5.69037 8.37502C5.69037 8.14178 5.78303 7.91809 5.94795 7.75316C6.11288 7.58823 6.33657 7.49558 6.56982 7.49558C6.80306 7.49558 7.02675 7.58823 7.19168 7.75316C7.3566 7.91809 7.44926 8.14178 7.44926 8.37502C7.44926 8.60827 7.54191 8.83195 7.70684 8.99688C7.87177 9.16181 8.09546 9.25447 8.3287 9.25447C8.56195 9.25447 8.78564 9.16181 8.95056 8.99688C9.11549 8.83195 9.20815 8.60827 9.20815 8.37502C9.20815 8.14178 9.3008 7.91809 9.46573 7.75316C9.63066 7.58823 9.85435 7.49558 10.0876 7.49558C10.3208 7.49558 10.5445 7.58823 10.7095 7.75316C10.8744 7.91809 10.967 8.14178 10.967 8.37502C10.967 9.63776 9.2917 10.899 8.3287 11.4743Z" fill="#888888" style="fill:#888888;fill:color(display-p3 0.5333 0.5333 0.5333);fill-opacity:1;"/>
</g>
<defs>
<clipPath id="clip0_2149_765">
<rect width="16" height="16" fill="white" style="fill:white;fill-opacity:1;" transform="translate(0.5 0.5)"/>
</clipPath>
</defs>
</svg>
