<svg width="47" height="47" viewBox="0 0 47 47" fill="none" xmlns="http://www.w3.org/2000/svg">
<rect x="0.335714" y="0.335714" width="46.3286" height="46.3286" rx="23.1643" stroke="black" stroke-opacity="0.05" style="stroke:black;stroke-opacity:0.05;" stroke-width="0.671429"/>
<path fill-rule="evenodd" clip-rule="evenodd" d="M22.8246 16.2604C23.1797 16.6075 23.1797 17.1703 22.8246 17.5174L17.1038 23.1111H33.0909C33.5929 23.1111 34 23.5091 34 24C34 24.4909 33.5929 24.8889 33.0909 24.8889H17.1038L22.8246 30.4825C23.1797 30.8297 23.1797 31.3925 22.8246 31.7397C22.4696 32.0868 21.894 32.0868 21.539 31.7397L14.2663 24.6285C13.9112 24.2814 13.9112 23.7186 14.2663 23.3715L21.539 16.2604C21.894 15.9132 22.4696 15.9132 22.8246 16.2604Z" fill="black" style="fill:black;fill-opacity:1;"/>
</svg>
