<svg width="47" height="47" viewBox="0 0 47 47" fill="none" xmlns="http://www.w3.org/2000/svg">
<rect x="0.335714" y="0.335714" width="46.3286" height="46.3286" rx="23.1643" stroke="black" stroke-opacity="0.05" style="stroke:black;stroke-opacity:0.05;" stroke-width="0.671429"/>
<path d="M33.3975 22.1475L28.8975 26.6475C28.7909 26.7469 28.6498 26.801 28.5041 26.7984C28.3584 26.7958 28.2193 26.7368 28.1163 26.6337C28.0132 26.5307 27.9542 26.3916 27.9516 26.2459C27.949 26.1002 28.0031 25.9591 28.1025 25.8525L31.6416 22.3125H27.4687C25.5975 22.311 23.7789 22.9319 22.2994 24.0776C20.8198 25.2233 19.7634 26.8286 19.2966 28.6406C19.2593 28.7851 19.1661 28.9088 19.0376 28.9846C18.9091 29.0604 18.7557 29.082 18.6112 29.0447C18.4668 29.0074 18.3431 28.9142 18.2673 28.7857C18.1915 28.6572 18.1699 28.5038 18.2072 28.3594C18.7364 26.3058 19.9337 24.4866 21.6104 23.1882C23.2871 21.8898 25.3481 21.1859 27.4687 21.1875H31.6434L28.1025 17.6475C28.0031 17.5409 27.949 17.3998 27.9516 17.2541C27.9542 17.1084 28.0132 16.9694 28.1163 16.8663C28.2193 16.7632 28.3584 16.7042 28.5041 16.7016C28.6498 16.6991 28.7909 16.7531 28.8975 16.8525L33.3975 21.3525C33.5028 21.458 33.562 21.6009 33.562 21.75C33.562 21.8991 33.5028 22.042 33.3975 22.1475ZM30 31.6875H15.5625V20.25C15.5625 20.1008 15.5032 19.9577 15.3977 19.8523C15.2923 19.7468 15.1492 19.6875 15 19.6875C14.8508 19.6875 14.7077 19.7468 14.6023 19.8523C14.4968 19.9577 14.4375 20.1008 14.4375 20.25V32.25C14.4375 32.3992 14.4968 32.5423 14.6023 32.6478C14.7077 32.7532 14.8508 32.8125 15 32.8125H30C30.1492 32.8125 30.2923 32.7532 30.3977 32.6478C30.5032 32.5423 30.5625 32.3992 30.5625 32.25C30.5625 32.1008 30.5032 31.9577 30.3977 31.8523C30.2923 31.7468 30.1492 31.6875 30 31.6875Z" fill="black" style="fill:black;fill-opacity:1;"/>
</svg>
